<svg xmlns="http://www.w3.org/2000/svg" viewBox="0 0 760.13 191.67">
	<path fill="#1677ff" d="M159.61 0H30.44A30.56 30.56 0 000 30.71V161a30.57 30.57 0 0030.44 30.7h129.17a30.57 30.57 0 0030.44-30.7V30.71A30.56 30.56 0 00159.61 0z"/>
	<path d="M156.47 120.35c-7.6-2.57-17.81-6.5-29.17-10.64a155.63 155.63 0 0015.86-40.41H105.7V55.69h45.89V48.1H105.7V25.41H87a3.21 3.21 0 00-3.29 3.27V48.1H37.27v7.59h46.41V69.3H45.36v7.6h74.32A134.69 134.69 0 01109 103.28c-24.12-8-49.85-14.53-66-10.53-10.33 2.57-17 7.16-20.91 12-18 22-5.07 55.5 32.84 55.5 22.42 0 44-12.61 60.76-33.39 25 12.11 74.4 32.89 74.4 32.89v-29.66s-6.25-.5-33.62-9.74zm-105.12 27c-29.56 0-38.31-23.48-23.69-36.33 4.87-4.35 13.78-6.47 18.53-6.94 17.57-1.75 33.82 5 53 14.45-13.48 17.78-30.65 28.86-47.84 28.86z" fill="#fff"/>
	<path fill="#1677ff" d="M412.67 28.06c0 9.92 7.24 16.59 17.35 16.59s17.35-6.65 17.35-16.59c0-9.73-7.24-16.59-17.35-16.59s-17.35 6.86-17.35 16.59z"/>
	<path d="M364.23 15.66v139.21h30.13V15.66h-30.13zm-52.82 4.77H271l-45.21 134.44h27.84l7.62-26.31h47.87l7.25 26.31H352zm-43.86 86.2l17.92-62h.77l17 62zm147.41-53.97v102.21h30.13V52.66h-30.13zm344.98.19l.19-.19h-28.41l-17.93 62.17h-.95l-20.6-62.17h-33.75l40.62 102.59-16.98 31.28v.76h26.51l51.3-134.44zM520 50.56c-11.06 0-19.65 4.2-29.37 12.21V52.66h-30.09v134.63h30.13v-33.37a65.22 65.22 0 0017.54 2.29c26.89 0 51.11-19.84 51.11-55.11 0-31.66-17.54-50.54-39.32-50.54zm-19 86.77a32.72 32.72 0 01-10.3-1.53V80.5c6.3-4.39 11.41-6.5 17.89-6.5 11.25 0 20.22 9 20.22 28 0 24.46-13.16 35.33-27.81 35.33zm151.58-8.01V86.6c0-23.26-13.73-36-38-36-15.45 0-26.13 2.67-45.58 8.58l5.34 23.46c17.73-8 25.55-11.44 33.75-11.44 9.92 0 14.31 7 14.31 17.92v.76c-34.52 6.49-45.2 10.11-51.87 16.79-5 5-7.06 12-7.06 20.21 0 19.64 15.26 30.13 29.56 30.13 10.68 0 19.26-4 30.89-12.78l2.1 10.68h30.18zm-30.13.76c-8 4.39-12.59 6.1-17.93 6.1-7.25 0-11.82-4.76-11.82-12.39 0-2.86.57-5.72 2.86-8 3.62-3.62 10.68-6.29 26.89-10.11z" fill="#3e3a39"/>
</svg>