<svg xmlns="http://www.w3.org/2000/svg" viewBox="0 0 123 33">
	<path style="fill:#006FCF;" d="M118.3,23.9h-3.6c-0.8,0-1.3-0.5-1.3-1.2c0-0.7,0.6-1.1,1.3-1.1h6.5l1.5-3.3h-8c-3.3,0-5.2,2-5.2,4.6 c0,2.8,1.8,4.4,4.7,4.4h3.6c0.8,0,1.3,0.5,1.3,1.2c0,0.7-0.5,1.2-1.3,1.2H110V33h7.8c3.3,0,5.2-1.9,5.2-4.7S121.3,23.9,118.3,23.9 M104,23.9h-3.6c-0.8,0-1.3-0.5-1.3-1.2c0-0.7,0.6-1.1,1.3-1.1h6.5l1.5-3.3h-8c-3.3,0-5.2,2-5.2,4.6c0,2.8,1.8,4.4,4.7,4.4h3.6 c0.8,0,1.3,0.5,1.3,1.2c0,0.7-0.5,1.2-1.3,1.2h-7.8V33h7.8c3.3,0,5.2-1.9,5.2-4.7S107,23.9,104,23.9 M81.2,32.9h12.3v-3.3h-8.4v-2.4 h8.2v-3.3h-8.2v-2.3h8.4v-3.3H81.2V32.9z M73.5,25.1h-4.1v-2.9h4.1c1.2,0,1.8,0.7,1.8,1.5C75.2,24.5,74.6,25.1,73.5,25.1 M79.2,23 c0-2.8-2-4.7-5.2-4.7h-8.4v14.6h3.9v-5.1h1.4l4.4,5.1h4.8l-4.8-5.3C77.7,27.1,79.2,25.3,79.2,23 M58.2,25.4H54v-3.2h4.2 c1.2,0,1.8,0.7,1.8,1.6C59.9,24.7,59.3,25.4,58.2,25.4 M58.6,18.3h-8.5v14.6H54v-4.8h4.5c3.3,0,5.3-2.1,5.3-4.9 C63.8,20.3,61.8,18.3,58.6,18.3 M49.4,18.3h-5l-3.8,4.4l-3.8-4.4h-5.1l6.4,7.2l-6.5,7.4h5l3.9-4.6l4,4.6h5.1L43,25.4L49.4,18.3z M18.7,32.9H31v-3.3h-8.4v-2.4h8.2v-3.3h-8.2v-2.3H31v-3.3H18.7V32.9z M116.8,9.2l-6-8.9h-4.9v14.6h3.9V5.6l6.1,9.3h4.7V0.3h-3.8 L116.8,9.2z M94.1,8.7l2-4.9l2,4.9H94.1z M93.7,0.3l-6.4,14.6h4.3l1.2-3h6.8l1.3,3h4.4L98.7,0.3H93.7z M80.9,7.7V7.4 c0-2.2,1.2-3.7,3.7-3.7H89V0.3h-4.7c-4.8,0-7.3,3.1-7.3,7.1v0.3c0,4.5,2.8,7.1,7.1,7.1h1.3l1.6-3.3h-2.3 C82.4,11.6,80.9,10.3,80.9,7.7 M71.1,0.3v14.6H75V0.3H71.1z M63.3,6.5h-4.1V3.6h4.1c1.2,0,1.8,0.7,1.8,1.5S64.5,6.5,63.3,6.5 M69,5 c0-2.8-2-4.7-5.2-4.7h-8.4v14.6h3.9V9.8h1.4l4.4,5.1H70l-4.8-5.3C67.6,9.1,69,7.3,69,5 M40.5,14.9h12.3v-3.3h-8.4V9.2h8.2V5.9h-8.2 V3.6h8.4V0.3H40.5V14.9z M28.1,9.5l-3.3-9.2h-6.1v14.6h3.8V4.4l3.8,10.5h3.5l3.9-10.5v10.5h3.8V0.3h-6.1L28.1,9.5z M6.9,8.7l2-4.9 l2,4.9C10.9,8.7,6.9,8.7,6.9,8.7z M6.4,0.3L0,14.9h4.3l1.2-3h6.8l1.3,3H18L11.5,0.3H6.4z"/>
</svg>
