<svg xmlns="http://www.w3.org/2000/svg" viewBox="0 0 186 42.5">
	<defs>
		<rect id="belbim-1" y="-7.3" width="186" height="58"/>
	</defs>
	<clipPath id="belbim-2">
		<use href="#belbim-1"  overflow="visible"/>
	</clipPath>
	<g clip-path="url(#belbim-2)">
		<g transform="translate(-2742.402 -1451.853)">
			<path id="Path_1" fill-rule="evenodd" clip-rule="evenodd" fill="#00476C" d="M2742.4,1489.1v-31.9h11.8c8.5,0,12.7,2.7,12.7,8.2
				c0.1,2.8-1.6,5.3-4.2,6.2c4.4,1.4,6.6,4.2,6.6,8.3c0,6.1-4.2,9.1-12.6,9.1L2742.4,1489.1z M2754.5,1469.8c2.9,0,4.3-1.1,4.3-3.3
				c0-2.4-1.4-3.6-4.3-3.6h-4.1v6.9H2754.5z M2750.4,1483.3h4.6c1.3,0.1,2.7-0.1,3.9-0.6c1.2-0.5,2-1.8,1.8-3.1c0-2.7-1.9-4-5.8-4
				h-4.6L2750.4,1483.3z"/>
			<path id="Path_2" fill-rule="evenodd" clip-rule="evenodd" fill="#00476C" d="M2819.2,1489.1v-31.9h8v25.7h13.7v6.1H2819.2z"/>
			<path id="Path_3" fill-rule="evenodd" clip-rule="evenodd" fill="#00476C" d="M2844.5,1489.1v-31.9h11.8c8.5,0,12.7,2.7,12.7,8.2
				c0.1,2.8-1.6,5.3-4.2,6.2c4.4,1.4,6.6,4.2,6.6,8.3c0,6.1-4.2,9.1-12.6,9.1L2844.5,1489.1z M2856.7,1469.8c2.9,0,4.3-1.1,4.3-3.3
				c0-2.4-1.4-3.6-4.3-3.6h-4.1v6.9H2856.7z M2852.5,1483.3h4.6c1.3,0.1,2.7-0.1,3.9-0.6c1.2-0.5,2-1.8,1.8-3.1c0-2.7-1.9-4-5.8-4
				h-4.6L2852.5,1483.3z"/>
			<path id="Path_4" fill-rule="evenodd" clip-rule="evenodd" fill="#00476C" d="M2883.5,1489.1v-31.3h8.4v3.4
				c2.3-2.5,5.6-4,9.1-3.9c3.9,0,6.6,1.7,8,4.9c3.1-3.3,6.5-4.9,10.2-4.9c6.1,0,9.2,3.5,9.2,10.4v21.4h-8.5v-20.2
				c0-3.7-1.3-5.5-3.8-5.5c-2.3,0-4.4,1.4-6.1,4.3v21.5h-8.3v-20.2c0-3.7-1.3-5.5-3.8-5.5c-2.4,0-4.4,1.4-6,4.3v21.5L2883.5,1489.1z
				"/>
			<path id="Path_5" fill-rule="evenodd" clip-rule="evenodd" fill="#00476C" d="M2872.6,1489.1v-21.6c0.1,0.1,0.2,0.2,0.3,0.3
				c2.1,2,5.3,2,7.4,0c0.1-0.1,0.2-0.3,0.4-0.4h0.1v21.6L2872.6,1489.1z"/>
			<path id="Path_6" fill-rule="evenodd" clip-rule="evenodd" fill="#6AADC9" d="M2871.5,1461.8c0-2.9,2.4-5.2,5.3-5.2
				c1.4,0,2.7,0.5,3.6,1.5c2,2.1,2,5.4,0,7.4c-2.1,2-5.4,2-7.4,0C2872,1464.6,2871.4,1463.2,2871.5,1461.8"/>
			<path id="Path_7" fill-rule="evenodd" clip-rule="evenodd" fill="#6AADC9" d="M2772.5,1472.3c2.5-5.3,7.4-9.9,13.2-13.1
				c-2.7,3-5.3,6.5-6.5,10c-3.6,11.3,4.3,19.8,17.2,19c7.7-0.6,15.1-3.7,20.9-8.7c-6.2,9-19.3,15-30.9,14.1
				C2773.6,1492.5,2767.4,1483,2772.5,1472.3"/>
			<path id="Path_8" fill-rule="evenodd" clip-rule="evenodd" fill="#6AADC9" d="M2783.2,1468.3c2.4-4.5,6.1-8.2,10.7-10.5
				c-2.1,2.3-3.8,5.1-4.8,8c-2.9,9.1,3.1,16,13.4,15.3c6.2-0.6,12-3.1,16.7-7.2c-5,7.3-15.4,12.3-24.7,11.5
				C2784.1,1484.6,2779.1,1476.9,2783.2,1468.3"/>
			<path id="Path_9" fill-rule="evenodd" clip-rule="evenodd" fill="#6AADC9" d="M2804.6,1467.7c-2.5,2.4-5.6,4-9,4.6
				c2.4-1.3,4.5-3,6.2-5c3.7-4.7,4.1-9.9,0.6-12.2c-2-1.3-4.8-1.3-7.5-0.1c3.8-3,9.5-3.4,12.2-0.5
				C2810.1,1457.7,2808.5,1463.7,2804.6,1467.7"/>
		</g>
	</g>
</svg>
