<svg xmlns="http://www.w3.org/2000/svg" viewBox="0 0 683.4 191.6">
  <path fill="#C69C6D" d="M268.2,0c0,13.7-0.1,27.3-0.1,41c0,2.8-0.1,5.7,0,8.5c0,1.4-0.5,1.9-1.9,1.9c-15.7,0-31.4,0-47.1,0 c-1.6,0-1.9-0.7-1.9-2.1c0-15.6,0-31.2,0-46.8c0-0.8-0.1-1.7-0.2-2.5C234.2,0,251.2,0,268.2,0z M257.1,9.6c-2.6,0-4.8,0.1-6.8,0 c-1.9-0.2-3.1,0.6-4.1,2.2c-1.9,3.1-4,6.1-5.9,9.1c-0.8,1.2-2,1.3-3,0.9c-0.5-0.2-0.8-1.3-0.8-2c-0.1-2.7-0.1-5.4,0-8.1 c0.1-1.6-0.6-2.2-2.1-2.1c-1.6,0.1-3.3,0.1-4.9,0c-1.2,0-1.6,0.5-1.6,1.6c0,1.8,0,3.6,0,5.4c0,7.7,0,15.5,0,23.2c0,1.4,0.4,2.1,2,2 c1.6-0.1,3.1-0.1,4.7,0c1.5,0.1,2-0.5,2-2c-0.1-3.1,0.1-6.2-0.1-9.2c-0.1-1.8,0.8-2.1,2.2-1.8c0.6,0.1,1.2,0.7,1.6,1.2 c2.2,3.4,4.4,6.9,6.6,10.4c0.3,0.5,0.9,1.3,1.4,1.3c3,0.1,6,0.1,9.3,0.1c-0.6-1-0.9-1.7-1.3-2.4c-2.8-4.4-5.6-8.7-8.5-13.1 c-0.7-1-0.7-1.7,0-2.8c2.7-3.9,5.4-7.9,8-11.8C256.2,11.3,256.4,10.7,257.1,9.6z"/>
  <path fill="#808080" d="M213.5,0c-0.1,0.8-0.2,1.7-0.2,2.5c0,15.5,0,31.1,0,46.6c0,1.7-0.5,2.3-2.2,2.3 c-15.6-0.1-31.2-0.1-46.8,0c-1.8,0-2.2-0.5-2.2-2.3c0.1-15.6,0-31.2,0-46.8c0-0.8-0.1-1.6-0.2-2.3C179.2,0,196.3,0,213.5,0z M196.8,25c1.1-1.4,2.4-2.6,3-4.1c2-5.2-1.5-10.4-7.5-10.8c-5.6-0.4-11.2-0.3-16.8-0.4c-1.3,0-1.6,0.7-1.6,1.8c0,9.5,0,19,0,28.4 c0,1.5,0.6,2,2.1,2c4.6-0.1,9.3,0.1,13.9-0.1c2.1-0.1,4.2-0.5,6.2-1.2c2.7-0.9,4.5-2.9,5.2-5.8C202.3,30.2,201.2,27.7,196.8,25z"/>
  <path fill="#808080" d="M323.7,0c0,16-0.1,32-0.1,48c0,3.7,0.3,3.3-3.3,3.3c-15.1,0-30.2,0-45.3,0c-1.8,0-2.2-0.5-2.2-2.2 c0.1-15.6,0-31.2,0-46.8c0-0.8-0.1-1.6-0.2-2.3C289.6,0,306.7,0,323.7,0z M309.4,23.7c0,5.8,0,11.1,0,16.4c0,1.3,0.4,1.9,1.8,1.8 c1.6-0.1,3.3-0.1,4.9,0c1.2,0,1.6-0.5,1.6-1.6c0-9.7,0-19.3,0-29c0-1.3-0.6-1.7-1.8-1.6c-2.1,0-4.2,0.1-6.3,0 c-1.1,0-1.8,0.4-2.2,1.4c-1.2,2.7-2.4,5.4-3.7,8.1c-1.7,3.8-3.5,7.5-5.3,11.6c-0.5-1-0.9-1.7-1.2-2.4c-2.6-5.7-5.2-11.3-7.7-17 c-0.5-1.2-1.2-1.8-2.6-1.7c-1.9,0.1-3.9,0.1-5.8,0c-1.6-0.1-2.1,0.6-2,2.1c0.1,6.4,0,12.8,0,19.2c0,3.1,0,6.2,0,9.2 c0,1.3,0.5,1.8,1.7,1.7c0.3,0,0.6,0,0.9,0c5.3,0,5.3,0,5.3-5.3c0-4.2,0-8.4,0-12.9c2.3,5.1,4.7,9.7,6.5,14.6c1.2,3,2.8,4,5.9,3.7 c1.3-0.2,2-0.6,2.5-1.8C304.3,34.8,306.8,29.4,309.4,23.7z"/>
  <path fill="#808080" d="M387.3,98c-0.3,11.4-2.1,22.4-7.4,32.6c-6.3,12.2-16,20.3-29.6,23.1c-7.2,1.5-14.4,1.3-21.4-1.1 c-2-0.7-2-0.7-2.4,1.4c-1.9,12-3.9,24-5.8,36c-0.2,1.1-0.7,1.5-1.8,1.5c-8.3,0-16.7,0-25,0c-1.4,0-1.6-0.6-1.4-1.8 c3.7-21.4,7.4-42.8,11.1-64.3c3.2-18.5,6.3-37,9.5-55.6c0.2-1.2,0.7-1.8,1.9-2.1c7.9-2.4,16-4.2,24.2-5c4.8-0.5,9.6-1,14.4-1 c6.4,0,12.6,1,18.4,4.1c8.6,4.6,12.8,12.2,14.4,21.5C386.8,90.9,386.9,94.5,387.3,98z M338.3,135c5.4-0.3,9.6-2.3,12.6-6.6 c1.7-2.5,3.3-5.2,4.4-8.1c2.8-7.2,3.6-14.9,3.6-22.5c0-3-0.6-6.1-1.4-9.1c-0.9-3.3-3.3-5.4-6.8-6c-3.7-0.6-7.4-0.2-10.9,0.9 c-0.6,0.2-1.2,1.3-1.3,2.1c-0.8,3.8-1.4,7.7-2.1,11.6c-2,11.4-4,22.9-6.1,34.3c-0.2,1.3,0.2,1.8,1.3,2 C333.9,134.1,336.1,134.5,338.3,135z"/>
  <path fill="#00A99D" d="M199.3,126.7c1.1,3.4,2.2,6.7,3.2,9.9c0.7,2.2,1.4,4.4,2.2,6.5c0.5,1.2,0.2,1.8-0.9,2.5 c-5.5,3.3-11.5,5.6-17.7,7.1c-9.1,2.2-18.3,2.9-27.6,1c-13.4-2.8-21.6-11.3-23.7-24.6c-3.2-19.8,1.8-37.5,15.6-52.3 c8.5-9,19.2-13.8,31.5-14.8c6.1-0.5,12.1-0.2,17.8,1.9c8.7,3.1,13.5,10,13.7,19.3c0.3,13-5.8,22.1-17,28 c-7.2,3.8-15.1,5.7-23.1,6.9c-3.2,0.5-6.5,0.8-9.7,1.1c-1,0.1-1.4,0.6-1.3,1.5c0.5,6.7,4,11.9,11.6,12.9c7,0.9,13.4-1.1,19.6-3.9 C195.4,128.7,197.2,127.8,199.3,126.7z M164.1,102.2c7.9-0.8,15.1-2.3,21-7.5c1.8-1.6,2.9-3.7,3.4-6.1c0.7-3.6-1.7-6.6-5.4-6.8 c-4.2-0.2-7.7,1.3-10.6,4.1C167.9,90.3,165.7,95.8,164.1,102.2z"/>
  <path fill="#808080" d="M515.4,126.9c1.9,5.8,3.7,11.3,5.4,16.8c0.1,0.5-0.6,1.5-1.1,1.8c-6.2,3.8-13,6.1-20,7.6 c-5.8,1.2-11.6,1.8-17.4,1.4c-8.8-0.5-16.9-2.7-23.3-9.3c-4.7-4.9-7.3-10.8-8.1-17.4c-2.4-18,1.9-34.3,13.5-48.4 c7.9-9.6,18.2-15.2,30.6-17c6.7-1,13.3-0.8,19.9,1.1c9.3,2.8,14.6,10.1,14.8,19.8c0.3,15.1-8.4,24.2-20,29.2 c-7.5,3.3-15.5,4.9-23.6,5.8c-2,0.2-3.9,0.6-5.9,0.7c-1.4,0.1-1.7,0.7-1.6,2c0.8,8,5.9,12.8,14,12.9c7.4,0.1,14.1-2.4,20.5-5.8 C513.7,127.8,514.4,127.4,515.4,126.9z M480.2,101.9c0.4,0.2,0.6,0.3,0.8,0.3c6.5-0.5,12.7-2,18.2-5.7c2.6-1.8,4.6-4,5.4-7.2 c1-4.3-1.5-7.4-5.8-7.5c-4.8-0.2-8.5,1.9-11.5,5.4C483.5,91.4,481.5,96.4,480.2,101.9z"/>
  <path fill="#808080" d="M307.9,64.7c-2.9,3.6-5.6,6.8-8.3,10.1c-8.4,10.1-16.8,20.3-25.2,30.4c-1.2,1.5-1.4,2.6-0.5,4.3 c6.4,13.3,12.7,26.7,19.1,40.1c0.3,0.6,0.5,1.2,0.9,2.1c-0.8,0.1-1.3,0.2-1.9,0.2c-8.6,0-17.2,0-25.7,0c-1.4,0-2.2-0.5-2.7-1.8 c-2.7-6.4-5.6-12.7-8.4-19.1c-0.3-0.7-0.7-1.4-1.2-2.4c-0.9,1-1.6,1.8-2.3,2.6c-4.9,6.2-9.9,12.4-14.7,18.6c-1.1,1.4-2.3,2-4.1,2 c-8.6-0.1-17.3,0-25.9,0c-0.6,0-1.2,0-2.2,0c1.7-2.1,3.1-3.8,4.5-5.5c10.6-12.7,21.2-25.4,31.9-38c1-1.2,1.1-2,0.4-3.4 c-6-12.8-12-25.6-18-38.4c-0.2-0.5-0.4-1-0.7-1.7c0.8,0,1.3-0.1,1.9-0.1c8.1,0,16.2,0,24.3,0c1.4,0,2.2,0.4,2.7,1.8 c2.5,6.3,5.1,12.5,7.7,18.7c0.3,0.7,0.6,1.3,1,2.2c0.6-0.6,1-1,1.4-1.4c5-6.4,10-12.8,15-19.3c1-1.4,2.1-2,3.9-2 c8.3,0.1,16.7,0,25,0.1C306.3,64.7,306.9,64.7,307.9,64.7z"/>
  <path fill="#808080" d="M669.2,89.8c-3.4-2-6.9-4.3-10.7-6.1c-3.4-1.7-7.1-2.4-10.9-1.5c-3,0.7-5.4,2.1-6,5.3 c-0.6,3.1,0.6,5.7,3.2,7.3c2.5,1.6,5.2,2.7,7.9,4c4.8,2.3,10,4.1,14.4,7c7.7,5,10.2,12.7,9.3,21.6c-1.4,13.8-9.8,21.7-22.5,25.2 c-16.9,4.5-33.1,2.4-48.3-6.5c-2.1-1.2-2.1-1.3-0.9-3.5c3.1-5.5,6.1-11.1,9.2-16.8c0.6,0.3,1,0.5,1.5,0.8c6.7,3.9,13.7,7,21.5,7.7 c2.2,0.2,4.5-0.2,6.6-0.7c2.5-0.7,4.1-2.5,4.5-5.2c0.4-2.7-0.8-4.7-3-5.9c-3.1-1.6-6.4-2.9-9.5-4.4c-4.2-1.9-8.5-3.5-12.4-5.9 c-6.7-4.1-9.6-10.6-9.9-18.3c-0.3-9.1,2.4-16.9,9.3-23c5.3-4.6,11.7-7,18.5-8.1c13.5-2.2,25.9,0.4,37.1,8.3c1.7,1.2,3.1,2.7,4.7,4 c0.6,0.6,0.9,1.1,0.1,1.8C678.3,81.1,673.8,85.5,669.2,89.8z"/>
  <path fill="#808080" d="M592.8,90.2c-2.4-1.7-4.7-3.4-7.2-4.9c-3.7-2.2-7.6-3.7-12-3.5c-1.5,0-3,0.3-4.4,0.9 c-5.1,2.1-6.1,8.1-1.7,11.5c2.3,1.7,5,2.9,7.6,4.1c4.2,2,8.6,3.5,12.7,5.7c6.1,3.2,10.4,8.1,11.6,15.1c2.4,14.2-3.8,26.3-17.8,31.9 c-8.5,3.4-17.3,4.1-26.3,3.3c-8.8-0.8-17.2-3-24.9-7.5c-4.5-2.6-3.7-1.7-1.6-5.7c2.4-4.5,4.9-8.9,7.3-13.4c0.4-0.7,0.8-1.3,1.2-2.1 c0.9,0.5,1.7,0.9,2.5,1.4c6.3,3.6,12.9,6.4,20.2,7c2.5,0.2,5.4-0.2,7.7-1.1c4.6-1.9,5-7.6,1-10.3c-2.4-1.6-5.1-2.7-7.7-3.8 c-3.6-1.6-7.3-2.8-10.9-4.5c-8-3.9-12.8-10.1-13.4-19.3c-0.7-10.1,2.3-18.6,10.3-25c5.2-4.2,11.3-6.3,17.7-7.3 c10.3-1.8,20.2-0.4,29.6,4c4.4,2,8.3,4.7,11.7,8.1c0.8,0.8,1,1.4,0.1,2.3c-4.3,4.3-8.5,8.7-12.8,13.1 C593.1,90.1,592.9,90.2,592.8,90.2z"/>
  <path fill="#808080" d="M423.4,76.3c5.2-8.1,11.9-14,21.9-14.4c4.7-0.2,9.5,0.6,13.8,3.4c-1.5,4.4-3,8.7-4.5,13.1 c-0.9,2.7-1.9,5.5-2.8,8.2c-0.4,1.5-1,1.9-2.5,1.2c-3.5-1.5-7.2-2.3-11.1-2.1c-7.4,0.5-12.6,5.8-13.9,13.2c-3,17-6.1,34-9.1,51.1 c-0.2,1.2-0.7,1.9-2.1,1.8c-8.2-0.1-16.3-0.1-24.5,0c-1.5,0-1.9-0.6-1.6-2c3.5-19.6,6.8-39.2,10.4-58.7c1.4-7.9,2.3-15.7,2.2-23.7 c0-2.6,0.2-2.8,2.8-2.8c6,0,12,0.1,17.9,0c1.6,0,2.2,0.4,2.2,2.1c0,3.1,0.2,6.2,0.4,9.4C423.1,76.2,423.3,76.3,423.4,76.3z"/>
  <path fill="#00A99D" d="M0,151.8c4.7-3.4,9-6.5,13.4-9.7c5.5-4,10.9-7.9,16.5-11.8c0.9-0.6,2.1-1.1,3.1-1.1 c29.8-0.1,59.6,0,89.3-0.1c1.1,0,1.9,0.1,2.1,1.5c1.3,8,4.5,15.1,10.6,21.2C90,151.8,45.3,151.8,0,151.8z"/>
  <path fill="#00A99D" d="M21.2,118.6c0.8-0.7,1.2-1,1.6-1.3c9.5-6.8,18.9-13.6,28.4-20.4c0.8-0.6,2-1,3-1 c23.9-0.1,47.7,0,71.6,0c0.5,0,0.9,0.1,1.5,0.1c-0.8,3.4-1.7,6.7-2.3,10.1c-0.6,3.6-1,7.2-1.3,10.8c-0.1,1.5-0.7,1.9-2.1,1.8 c-16.8,0-33.6,0-50.4,0c-15.7,0-31.4,0-47.1,0C23.3,118.6,22.6,118.6,21.2,118.6z"/>
  <path fill="#00A99D" d="M150.7,63.3c-6.6,4.8-11.7,10.5-15.9,17c-0.5,0.8-1.2,1.6-1.5,2.5c-0.9,2.6-2.6,3.2-5.4,3.2 c-28.6-0.1-57.3-0.1-85.9-0.1c-0.7,0-1.3,0-2.3,0c0.7-0.6,1-0.9,1.4-1.2c9.5-6.9,19.1-13.8,28.7-20.7c0.6-0.5,1.5-0.8,2.3-0.8 c25.8,0,51.6,0,77.4,0C149.7,63.2,149.9,63.2,150.7,63.3z"/>
  <path fill="#808080" d="M186.9,35.4c-4.8,0-4.7,0-4.8-4.7c0-1.8,0.5-2.4,2.3-2.2c1.9,0.1,3.7,0,5.6,0.1 c2.2,0.1,3.1,1.2,3.1,3.6c0,2.3-0.9,3.2-3.1,3.3C188.9,35.4,187.9,35.4,186.9,35.4z"/>
  <path fill="#808080" d="M186,22.8c-4.5-0.2-3.8,0.4-3.9-4c0-2.7,0-2.8,2.8-2.7c1.7,0,3.5,0.1,5.2,0.3c1.4,0.2,2,1.2,2.1,2.5 c0.1,1.4-0.3,2.8-1.8,3.2C189,22.6,187.5,22.6,186,22.8z"/>
</svg>