<svg xmlns="http://www.w3.org/2000/svg" viewBox="0 0 134 35">
	<g fill="none" fill-rule="evenodd">
		<path fill="#FF671D" fill-rule="nonzero" d="M5.57661343,14.6247668 C4.02589739,14.6543787 2.6839316,15.2466169 1.61035896,16.4014812 C0.506964857,17.5563455 0,18.9481051 0,20.547148 C0.0298214622,22.1758029 0.596429243,23.5379506 1.72964481,24.663203 C2.86286037,25.7884554 4.1750047,26.3510816 5.7555422,26.3214697 C7.33607969,26.2918578 8.67804549,25.7292316 9.75161813,24.5743673 C10.8251908,23.4195029 11.3619771,22.0277434 11.3321556,20.3990885 C11.3023342,18.7704337 10.7357264,17.408286 9.63233228,16.2830336 C8.49911672,15.1577811 7.15715092,14.5951549 5.57661343,14.6247668 Z"></path>
		<path fill="#222" fill-rule="nonzero" d="M63.5262445 6.88947368C59.6834727 6.88947368 56.4662684 8.20175439 53.8150538 10.7964912 51.1638391 13.3912281 49.8531262 16.5824561 49.8531262 20.3403509 49.8531262 24.0684211 51.1638391 27.2298246 53.7852648 29.854386 56.4066906 32.4789474 59.5941059 33.7912281 63.2879331 33.7912281 67.0413381 33.7912281 70.1989646 32.4789474 72.8203903 29.854386 75.441816 27.2298246 76.7525289 24.0684211 76.7525289 20.3105263 76.7525289 16.6421053 75.441816 13.4807018 72.8501792 10.8263158 70.2585424 8.23157895 67.1604938 6.88947368 63.5262445 6.88947368zM67.3690163 24.4859649C66.2966149 25.6491228 64.9561131 26.245614 63.3772999 26.245614 61.8282756 26.2754386 60.4877738 25.7087719 59.3557945 24.5754386 58.2238152 23.4421053 57.6578256 22.0403509 57.6280366 20.4298246 57.5982477 18.7894737 58.1344484 17.4175439 59.2366388 16.254386 60.3090402 15.0912281 61.649542 14.4947368 63.1985663 14.4649123 64.7773795 14.4350877 66.1178813 15.0017544 67.2200717 16.1350877 68.322262 17.2684211 68.8882517 18.6403509 68.9180406 20.2807018 68.9776185 21.9210526 68.4414178 23.322807 67.3690163 24.4859649zM34.5416169 6.88947368C32.3372362 6.88947368 30.311589 7.33684211 28.4944644 8.20175439L28.4944644.268421053 20.8684986.268421053C20.8684986.268421053 20.8684986 20.1912281 20.8684986 20.3701754 20.8684986 24.0982456 22.1792115 27.2596491 24.8006372 29.8842105 27.4220629 32.5087719 30.6094783 33.8210526 34.3033055 33.8210526 38.0567105 33.8210526 41.2143369 32.5087719 43.8357626 29.8842105 46.4571884 27.2596491 47.7679012 24.0982456 47.7679012 20.3403509 47.7679012 16.6719298 46.4571884 13.5105263 43.8655516 10.8561404 41.2739148 8.23157895 38.1758662 6.88947368 34.5416169 6.88947368zM38.3248108 24.545614C37.2226205 25.6789474 35.8821187 26.2754386 34.3033055 26.2754386 32.7542812 26.2754386 31.4137794 25.7087719 30.311589 24.545614 29.2093986 23.3824561 28.643409 22.0105263 28.643409 20.3701754 28.643409 18.7298246 29.2093986 17.3578947 30.2818001 16.1947368 31.3839904 15.0315789 32.7244922 14.4649123 34.2735165 14.4649123 35.8523297 14.4649123 37.1928315 15.0315789 38.2950219 16.1947368 39.3972123 17.3280702 39.933413 18.7298246 39.933413 20.3701754 39.9632019 21.9807018 39.4270012 23.3824561 38.3248108 24.545614z"></path>
		<polygon fill="#222" fill-rule="nonzero" points="104.546 7.546 96.056 7.546 87.03 20.012 87.03 .268 79.374 .268 79.374 33.254 85.332 33.254 91.945 24.367 98.379 33.225 107.137 33.225 96.264 18.611"></polygon>
		<path fill="#222" fill-rule="nonzero" d="M125.636161,7.51578947 C125.636161,7.51578947 125.636161,18.7 125.636161,20.3403509 C125.636161,21.9807018 124.891438,23.3824561 123.819036,24.5157895 C122.716846,25.6491228 121.376344,26.245614 119.797531,26.245614 C118.248507,26.245614 116.908005,25.6789474 115.805814,24.5157895 C114.703624,23.3526316 113.98869,21.9807018 113.98869,20.3403509 C113.98869,18.7 113.98869,7.54561404 113.98869,7.54561404 L106.332935,7.54561404 C106.332935,7.54561404 106.332935,16.5824561 106.332935,20.3403509 C106.332935,24.0684211 107.643648,27.2298246 110.265074,29.854386 C112.886499,32.4789474 116.073915,33.7912281 119.767742,33.7912281 C123.521147,33.7912281 126.678773,32.4789474 129.300199,29.854386 C131.921625,27.2298246 133.232338,24.0684211 133.232338,20.3105263 C133.232338,16.6421053 133.232338,7.48596491 133.232338,7.48596491 L125.636161,7.48596491 L125.636161,7.51578947 Z"></path>
	</g>
</svg> 