<svg xmlns="http://www.w3.org/2000/svg" viewBox="0 0 611.985 244.988">
	<path d="M56.161,203.949c-0.047,15.496-7.721,23.305-17.676,23.277c-11.748-0.039-17.633-8.016-17.58-23.672c0.035-15.641,8.961-22.367,18.02-22.344C50.817,181.25,56.198,189.242,56.161,203.949 M77.049,202.953c0.076-26.195-14.305-38.211-36.672-38.273C16.461,164.609,0.077,181.719,0,205.488c-0.072,27.145,14.328,38.387,36.672,38.445C60.297,244.008,76.977,226.859,77.049,202.953 M133.073,203.039c-0.035,12.984-6.4,24.914-16.988,24.891c-9.168-0.039-13.443-7.383-13.404-21.629c0.049-18.813,8.32-25.824,19.869-25.793c3.508,0,6.98,0.469,10.584,1.285L133.073,203.039z M135.213,242.703l18.072,0.051l0.307-111.91l-20.324-0.066l-0.096,34.762c-3.436-0.477-6.588-0.621-9.947-0.621c-26.084-0.074-41.645,17.613-41.721,43.344c-0.059,21.723,9.344,35.832,28.537,35.879c12.016,0.039,20.744-5.906,24.879-14.328l0.332,0.016L135.213,242.703z M209.877,194.68l-28.957-0.07c1.109-9.188,7.004-15.156,15.4-15.133C204.84,179.5,210.221,185.18,209.877,194.68 M229.301,208.063c0.48-3.227,0.664-6.301,0.676-8.891c0.047-18.844-10.031-33.984-32.977-34.047c-23.6-0.07-36.932,17.012-37.008,40.281c-0.072,26.758,13.828,38.922,38.816,38.992c9.836,0.027,19.809-1.66,28.164-4.82l-1.832-15.18c-6.797,3.051-15.191,4.711-22.936,4.691c-14.576-0.043-21.836-6.945-21.617-21.164L229.301,208.063z M280.84,211.25c-0.023,9.195-6.855,18.34-16.84,18.32c-5.844-0.031-9.291-3.254-9.279-8.141c0.012-6.129,4.775-12.086,26.119-12.023V211.25z M283.157,243.109l17.9,0.047c0-1.539-0.012-14.992-0.012-14.992l0.107-36.313c0.039-16.656-7.039-26.461-32.348-26.531c-10.121-0.023-20.264,1.898-28.191,4.629l1.699,16.395c6.648-3.648,16.176-5.93,23.264-5.918c11.389,0.039,15.34,4.195,15.316,12.164l-0.012,4.113c-26.725-0.078-45.441,9.523-45.488,27.73c-0.037,12.238,8.188,20.09,22.379,20.129c11.758,0.035,21.408-5.898,25.236-14.488h0.184L283.157,243.109z M363.688,203.383c-0.047,18.813-8.297,25.855-19.84,25.813c-4.262-0.008-7.582-0.492-10.465-1.41l0.063-21.434c0.035-12.707,6.398-24.461,16.84-24.438C359.493,181.953,363.727,189.141,363.688,203.383 M385.071,201.426c0.078-22.488-10.031-35.797-28.859-35.863c-10.164-0.023-18.313,4.313-22.68,11.367l0.031-12.68l0.066-23.352l0.023-9.555l-20.313-0.059l-0.309,109.754c9,2.461,17.938,3.73,29.324,3.766C369.438,244.883,385.012,227.141,385.071,201.426 M433.786,211.695c-0.027,9.18-6.855,18.328-16.816,18.305c-5.859-0.023-9.344-3.238-9.332-8.141c0.012-6.113,4.801-12.086,26.148-12.023V211.695z M436.063,243.539l17.922,0.051c0-1.543-0.039-14.996-0.039-14.996l0.109-36.313c0.039-16.656-7-26.453-32.32-26.527c-10.109-0.027-20.277,1.895-28.23,4.629l1.723,16.395c6.672-3.656,16.148-5.934,23.281-5.91c11.398,0.023,15.348,4.188,15.324,12.148l-0.012,4.113c-26.727-0.074-45.461,9.527-45.512,27.738c-0.035,12.234,8.164,20.086,22.402,20.121c11.719,0.043,21.41-5.891,25.238-14.48h0.145L436.063,243.539z M511.852,243.762l20.336,0.051l0.148-53.438c0.039-13.297-5.848-24.328-23.57-24.375c-12.805-0.039-22.016,6.18-26.801,15.211l-0.148-0.172l0.035-13.625l-17.969-0.039l-0.117,76.25l20.305,0.047l0.098-36.742c0.035-13.309,7.918-24.609,18.191-24.586c7.438,0.023,9.652,4.766,9.629,12.711L511.852,243.762z M582.352,202.621l27.883-34.84l-24.656-0.07l-23.18,31.813l0.18-67.523l-20.27-0.063L542,243.844l20.273,0.055l0.102-37.68l24.273,37.75l25.336,0.078L582.352,202.621z"/>
	<path d="M307.235,50.703c-0.109-13.455,5.195-26.148,14.883-35.736c3.262-3.225,6.906-5.955,10.813-8.211c-7.813-4.332-16.797-6.82-26.422-6.756c-9.256,0.059-17.938,2.447-25.469,6.584c0.26,0.135,0.455,0.248,0.688,0.367l-22.66,23.133c-2.895,6.363-4.471,13.367-4.443,20.756c0.012,2.939,0.344,5.832,0.859,8.656l39.801-40.676c4.012,5,7.076,10.695,9,16.914l-41.293,42.137c3.35,5.012,7.598,9.393,12.496,12.965l29.912-30.568c-2.963,14.379-12.172,26.564-24.828,33.828c7.828,4.408,16.916,6.928,26.652,6.883c9.457-0.063,18.344-2.576,25.961-6.92C317.782,85.379,307.372,69.215,307.235,50.703"/>
	<path d="M327.868,50.58c0.109,13.504,9.258,24.928,21.715,28.855c6.035-8.313,9.543-18.393,9.469-29.275c-0.066-10.744-3.621-20.656-9.59-28.805c-4.703,1.488-8.984,4.049-12.582,7.58C331.016,34.723,327.844,42.391,327.868,50.58"/>
	<path d="M358.954-0.088h-0.262c-9.199,0.072-18.008,2.447-25.762,6.844c6.547,3.668,12.172,8.656,16.531,14.6c2.992-0.924,6.141-1.451,9.402-1.477h0.148c17.098-0.023,31.074,13.553,31.184,30.297c0.148,16.824-13.727,30.576-30.898,30.711h-0.148c-3.336,0-6.539-0.508-9.563-1.451c-4.297,5.932-9.875,10.939-16.402,14.625c7.66,4.332,16.52,6.814,26.004,6.803l0.219-0.02c28.609-0.176,51.664-22.973,51.457-50.805C410.676,22.352,387.387-0.152,358.954-0.088"/>
	<path d="M281.04,6.584c-5.184-3.068-10.932-5.32-17.088-6.527l-61.756,63.066c1.684,6.117,4.48,11.77,8.172,16.752l48.701-49.791C263.631,20.172,271.375,11.916,281.04,6.584"/>
	<path d="M223.391,92.248c5.393,3.58,11.461,6.217,18.033,7.686l21.568-22.061c-3.668-5.48-6.277-11.721-7.508-18.381L223.391,92.248z"/>
	<path d="M202.145,37.543l35.291-36.092C220.104,6.744,206.661,20.396,202.145,37.543"/>
	<path d="M266.846,99.672c4.889-1.244,9.504-3.127,13.725-5.576c-1.771-0.982-3.484-2.068-5.08-3.264L266.846,99.672z"/>
</svg>