<svg xmlns="http://www.w3.org/2000/svg" viewBox="0 0 307.23 84.91">
	<defs><style>.cls-1{fill:#333;}.cls-2{fill:url(#linear-gradient);}.cls-3{fill:url(#linear-gradient-2);}.cls-4{fill:url(#linear-gradient-3);}.cls-5{fill:url(#linear-gradient-4);}</style>
	<linearGradient id="linear-gradient" x1="56.99" y1="21.23" x2="59.37" y2="21.23" gradientUnits="userSpaceOnUse"><stop offset="0" stop-color="#00a4e5"/><stop offset="0.97" stop-color="#1170ee"/><stop offset="1" stop-color="#007ee8"/></linearGradient><linearGradient id="linear-gradient-2" x1="-13.55" y1="13.65" x2="86.92" y2="38.31" gradientUnits="userSpaceOnUse"><stop offset="0" stop-color="#59cbe8"/><stop offset="1" stop-color="#00b7ea"/></linearGradient><linearGradient id="linear-gradient-3" x1="50.28" y1="29.82" x2="84.56" y2="71.62" gradientUnits="userSpaceOnUse"><stop offset="0" stop-color="#00b7ea"/><stop offset="1" stop-color="#007ee8"/></linearGradient><linearGradient id="linear-gradient-4" x1="4.78" y1="70.85" x2="49.91" y2="47.07" href="#linear-gradient-3"/></defs><g id="Layer_2" data-name="Layer 2"><g id="Layer_1-2" data-name="Layer 1"><path class="cls-1" d="M245.72,24.36c-19.57-10.25-39.16,8.74-30.12,28.3a18.68,18.68,0,0,0,9.23,9.11A21.86,21.86,0,0,0,245.37,61v1.55a1.08,1.08,0,0,0,1.08,1.08h8.26a1.08,1.08,0,0,0,1.08-1.08V41.28A19.05,19.05,0,0,0,245.72,24.36Zm-17,9.08c10.27-5.51,20.62,4.83,15.1,15.1A8.43,8.43,0,0,1,240.38,52c-10.27,5.52-20.61-4.83-15.1-15.1A8.49,8.49,0,0,1,228.73,33.44Z"/><path class="cls-1" d="M206,24.12v6.37a1.1,1.1,0,0,1-.29.74L184.24,54.08h20.7A1.08,1.08,0,0,1,206,55.17v7.18a1.08,1.08,0,0,1-1.08,1.08H171.13a1.08,1.08,0,0,1-1.08-1.08V56.07a1.06,1.06,0,0,1,.29-.74l21.15-22.94H172.43a1.08,1.08,0,0,1-1.08-1.08V24.12A1.08,1.08,0,0,1,172.43,23h32.51A1.08,1.08,0,0,1,206,24.12Z"/><path class="cls-1" d="M143.69,21.49a21.23,21.23,0,1,0,21.22,21.23A21.22,21.22,0,0,0,143.69,21.49Zm0,32A10.81,10.81,0,1,1,154.5,42.72,10.81,10.81,0,0,1,143.69,53.53Z"/><path class="cls-1" d="M295.9,23.74c-7.67-3.53-15.23-2.66-21,.87A2.73,2.73,0,0,0,272.46,23h-6.61a1.09,1.09,0,0,0-1.08,1.08V62.35a1.09,1.09,0,0,0,1.08,1.08h8.26a1.09,1.09,0,0,0,1.08-1.08V41.8a9.41,9.41,0,0,1,4.75-8.23c8.37-4.7,16.87,1.23,16.87,9.15V62.35a1.09,1.09,0,0,0,1.08,1.08h8.26a1.09,1.09,0,0,0,1.08-1.08V41.81A19.82,19.82,0,0,0,295.9,23.74Z"/><path class="cls-2" d="M57,21.23c.79,0,1.59,0,2.38,0"/><path class="cls-3" d="M90.22,31.84A31.84,31.84,0,0,1,58.89,63.68l.49,0c.39,0,.77,0,1.16-.09l.28,0,.36,0h.06l.37-.05.14,0,.21,0,.38-.07h0l.42-.09.13,0,.29-.06.18,0,.29-.08.27-.07.62-.18.28-.09c.45-.14.9-.3,1.34-.47a21.23,21.23,0,0,0-7.81-41H21.23A21.23,21.23,0,0,1,6.22,15,21.23,21.23,0,0,1,0,0H58.8A31.86,31.86,0,0,1,90.22,31.84Z"/><path class="cls-4" d="M100.77,44.85a42.48,42.48,0,0,1-44.38,40h-.24l-.33,0-.23,0A31.84,31.84,0,0,1,57,21.23h1.39a21.23,21.23,0,1,0,0,42.46h.51A31.84,31.84,0,0,0,58.8,0a42.46,42.46,0,0,1,42,44.85Z"/><path class="cls-5" d="M55.59,84.82c-.92-.06-1.84-.15-2.75-.27A42.45,42.45,0,0,1,21.61,21.23H57a31.84,31.84,0,0,0-1.4,63.59Z"/></g></g>
</svg>