<?xml version="1.0" encoding="utf-8"?>
<!-- Generator: Adobe Illustrator 24.2.3, SVG Export Plug-In . SVG Version: 6.00 Build 0)  -->
<svg version="1.1" id="Layer_1" xmlns="http://www.w3.org/2000/svg" xmlns:xlink="http://www.w3.org/1999/xlink" x="0px" y="0px"
	 width="565px" height="207.8px" viewBox="0 0 565 207.8" enable-background="new 0 0 565 207.8" xml:space="preserve">
<g>
	<g>
		<path fill="#2B9BDE" d="M364.2,0.5c1.3,0,2.7,0,4,0c17.1,31,33.9,62.3,51.3,93.1c-10.6,0.2-21.2,0.2-31.8,0
			c-1.6-3.8-3.3-7.5-4.9-11.3c-11.9-0.1-23.8-0.1-35.7,0c-1.5,3.8-3.1,7.7-5,11.4c-9.4,0-18.7,0.1-28,0
			C330.8,62.7,347.4,31.5,364.2,0.5z M359.5,51.8c-1.8,4.5-4.3,8.7-5.7,13.4c7.6-0.3,15.2,0.6,22.7-0.5c-4-8.6-8-17.4-11-26.4
			C362.9,42.5,361.5,47.3,359.5,51.8z"/>
	</g>
	<g>
		<path fill="#2B9BDE" d="M242,2.5c15.6,0,31.2,0,46.7,0c5.8,0,11.7,1,16.9,3.8c8.2,3.8,14.1,11.7,16.3,20.4
			c2.4,8.9,1.7,18.8-2.1,27.2c-4.4,9.3-14.3,14.5-24.1,16c-8.2,1.2-16.5,1.4-24.7,1.5c0,7.4,0,14.9,0.1,22.3c-9.7,0.3-19.3,0-29,0.1
			C242,63.3,242,32.9,242,2.5z M270.9,23.5c0.1,9,0,18,0.1,27c5.8-0.1,12,0.7,17.2-2.1c7.7-5,7.7-17.9-0.1-22.9
			C282.9,22.4,276.6,23.6,270.9,23.5z"/>
	</g>
	<path fill="#2B9BDE" d="M399.8,2.5c11.4-0.2,22.8,0,34.2-0.1c6,13.1,12,26.3,17.9,39.5c5.7-12.9,10.3-26.3,15.5-39.4
		c10.2,0,20.4,0,30.5,0C489.4,20.7,480,38.6,471,56.6c-1.5,3.4-4.3,6.5-4,10.5c0,8.9-0.1,17.7,0,26.6c-10,0.3-19.9,0-29.9,0.7
		c-0.4-8.1-0.1-16.2-0.1-24.4c0.2-2.8-1.7-5.1-3-7.5C422.5,42.6,411.2,22.5,399.8,2.5z"/>
	<path fill="#2B9BDE" d="M246.2,128.5c9.4-12.8,25.8-19.2,41.5-18.2c12.7-0.2,25.6,5.1,34,14.8c3.5,4.1,7.3,8.5,8.1,14
		c-8.7,2.7-17,6.6-25.9,8.9c-2.8-4.5-7.3-8-12.6-9c-6.5-1.1-13.8-0.6-19,3.7c-8.5,7.4-9.8,21.6-2.4,30.2c5.1,6.6,14.2,7.7,21.9,6.4
		c5.4-1.2,9.5-5.2,12.6-9.5c8.7,3,17.5,5.5,26.2,8.2c-2.4,6.6-7.2,12.1-12.2,16.8c-8.9,9.1-22,13.7-34.6,13
		c-10.7,0.1-21.3-3.4-30-9.7c-7.6-6.3-13.7-14.7-15.9-24.4C234,158.4,236.1,140.9,246.2,128.5z"/>
	<path fill="#2B9BDE" d="M338.2,113.4c1.5-0.2,3-0.6,4.5-0.6c17.3,0.1,34.6,0,51.9,0.1c4.5,0.1,9.1-0.6,13.5,0.6
		c-0.2,6.1-0.1,12.1-0.1,18.2c-13.6,0.1-27.3,0-40.9,0c0,5.7,0,11.4,0,17c13.3,0,26.6,0,40,0c0,6.6,0,13.2,0,19.8
		c-13.3,0.1-26.6,0-40,0c0,5.4,0,10.8,0,16.2c14,0,28,0,42,0c0.1,6.6,0,13.2,0,19.8c-23.6,0-47.2,0-70.8,0
		C338.2,174.1,338.5,143.7,338.2,113.4z"/>
	<path fill="#2B9BDE" d="M422.3,113.5c3.1-1.1,6.3-0.7,9.5-0.6c6.5-0.2,13-0.1,19.5-0.1c0.2,23,0.2,46,0,69c1.8,0.3,3.6,0.7,5.5,0.6
		c10.2-0.1,20.4,0,30.5-0.1c0,7.4,0,14.8,0,22.2c-21.6-0.1-43.2,0-64.8-0.1C422.3,174.1,422.6,143.8,422.3,113.5z"/>
	<path fill="#2B9BDE" d="M500.1,204.5c0-30.6-0.2-61.2,0.1-91.7c9.6,0.4,19.4-0.7,28.9,0.7c-0.1,23-0.1,45.9,0,68.9
		c11.9,0,23.9-0.2,35.8,0.1c-0.1,7.3,0,14.7,0,22C543.3,204.5,521.7,204.4,500.1,204.5z"/>
</g>
<g>
	<path fill="#FCD100" d="M47.3,16.5c13.3-8,27.9-14,43.3-15.9c9.3-0.5,18.6-0.7,27.8,0.2c10.6,1.8,21.2,4.5,30.8,9.4
		c12.1,5.6,22.5,14.1,31.7,23.6c5,5.1,8.9,11.1,12.5,17.2c13.8,22.8,17.8,51.1,11.4,76.9c-4.8,19.4-15.1,37.6-30,51.1
		c-7.9,8-17.5,14.1-27.7,18.6c-23.3,11.3-50.7,12.3-75.2,4.6c3.6-21.1,7.7-42.2,11.5-63.3c7.8,3.8,16.6,6.2,25.3,4.9
		c10.3-1,20-6.4,26.5-14.5c13.9-15.2,12-41.2-2.9-55C117.3,59,89.4,59.2,75,75.3c-5.8,5.6-9.8,12.8-11.3,20.8
		c-5.3,28.3-10.3,56.6-15.6,84.8c-0.5,3.1-1.1,6.1-1.9,9.1c-6.9-5.2-13.8-10.5-19.5-17c-7.6-8.8-14.2-18.7-18.6-29.5
		c-3.9-9.4-6.2-19.3-7.6-29.4c-3-30.9,8.2-63,30.7-84.5C36.3,24.9,41.3,20.1,47.3,16.5z"/>
	<path fill="#FCD100" d="M90.8,104c-0.9-7.2,5.8-14,12.9-13.6c7.3-0.6,14,6.4,13.5,13.6c0.2,4.9-3.3,9.2-7.4,11.5
		c-3.1,1.8-6.9,1.1-10.3,1C94.8,114.1,90.3,109.7,90.8,104z"/>
</g>
</svg>
