<svg viewBox="0 0 78 26" fill="none" xmlns="http://www.w3.org/2000/svg">
  <path d="M64.2021 9.61156C64.2513 9.15083 64.314 8.72111 64.3408 8.2914C64.3856 7.63132 64.305 6.98453 64.1483 6.34217C63.9693 5.62007 63.629 4.98214 63.1187 4.44168C62.492 3.7816 61.7175 3.38289 60.8043 3.24556C60.0119 3.12595 59.2375 3.18354 58.4764 3.4139C57.505 3.70629 56.6992 4.25118 56.0322 5.00872C54.9265 6.27129 54.2192 7.72878 53.8342 9.35018C53.7088 9.88179 53.6417 10.4178 53.6059 10.9627C53.579 11.3792 53.5701 11.7867 53.6104 12.1987C53.7044 13.16 54.0401 14.015 54.6624 14.7637C55.3831 15.632 56.3321 15.9776 57.4334 16.013C58.4451 16.044 59.327 15.6719 60.1597 15.1536C60.7864 14.7681 61.3504 14.2986 61.8832 13.8024C62.8412 12.9075 63.7231 11.9373 64.596 10.9627C64.9944 10.5153 65.4018 10.0811 65.8047 9.63371C66.4672 8.90275 67.1387 8.18508 67.7834 7.44083C68.6026 6.49722 69.5919 5.81942 70.7782 5.42515C71.2259 5.27896 71.687 5.22137 72.1615 5.19479C72.7882 5.15492 73.4015 5.21251 74.0014 5.39857C75.2907 5.79727 76.1726 6.64785 76.7008 7.85725C77.0276 8.60593 77.1753 9.39891 77.2111 10.2096C77.2246 10.5197 77.2649 10.8343 77.2559 11.1444C77.2201 12.6417 76.947 14.0903 76.2308 15.4327C75.6443 16.5269 74.8967 17.4838 73.885 18.228C73.0747 18.8261 72.1794 19.2026 71.1722 19.3267C70.4111 19.4197 69.668 19.3843 68.9294 19.1938C68.2176 19.0077 67.5864 18.6666 67.0581 18.1527C66.9283 18.0287 66.803 17.9002 66.6329 17.7363C66.1494 20.0266 65.6749 22.2682 65.2003 24.5143C63.9514 24.5143 62.7382 24.5143 61.5026 24.5143C61.5877 24.1111 61.6683 23.7169 61.7489 23.3226C61.9861 22.1796 62.2279 21.0323 62.4651 19.8893C62.5054 19.6988 62.577 19.5349 62.7158 19.3887C63.4992 18.5514 64.2692 17.7008 65.0392 16.8547C65.7823 16.0396 66.5254 15.22 67.2954 14.3739C67.3312 14.458 67.3626 14.5245 67.3894 14.5954C67.6177 15.2023 67.9356 15.7428 68.4683 16.1415C69.2427 16.7218 70.0799 16.7705 70.9528 16.3984C71.7183 16.075 72.2466 15.4947 72.6271 14.777C73.1374 13.8201 73.4508 12.8012 73.5985 11.7336C73.6925 11.0602 73.6791 10.3868 73.4955 9.72231C73.3702 9.27044 72.8509 8.85402 72.3764 8.81858C71.8123 8.77428 71.3154 8.96034 70.8364 9.23057C70.25 9.56726 69.7307 9.99254 69.2383 10.4444C68.3877 11.233 67.6446 12.119 66.9373 13.0316C66.1852 14.0017 65.4376 14.9719 64.6542 15.9155C64.0857 16.6022 63.4903 17.2667 62.8009 17.847C62.3666 18.2103 61.8921 18.4938 61.3594 18.6888C60.4462 19.021 59.5105 19.2647 58.5391 19.3134C58.0198 19.34 57.5005 19.3798 56.9813 19.3577C55.2219 19.2824 53.6283 18.7641 52.2718 17.5945C51.2019 16.6731 50.5304 15.5301 50.1454 14.1967C49.8768 13.2708 49.7381 12.3228 49.7784 11.357C49.8231 10.4001 49.9574 9.45207 50.1947 8.52176C50.4498 7.51171 50.7811 6.5238 51.2512 5.59349C51.8376 4.43725 52.5762 3.38732 53.5522 2.51903C54.8504 1.35835 56.3456 0.574232 58.0691 0.228688C58.5973 0.122366 59.1345 0.0780657 59.6717 0.029335C60.2581 -0.0282558 60.8356 0.00718468 61.4131 0.0647755C62.9396 0.215398 64.3229 0.724854 65.5137 1.71276C66.6866 2.68737 67.4387 3.9145 67.8505 5.36313C67.8863 5.49603 67.8684 5.58906 67.7744 5.69095C67.1701 6.3466 66.5657 7.00668 65.9658 7.66676C65.4466 8.23824 64.9317 8.80972 64.4125 9.37676C64.3632 9.46536 64.2916 9.52738 64.2021 9.61156Z" fill="#00B3FF"/>
  <path fill-rule="evenodd" clip-rule="evenodd" d="M5.87858 0.00297932H5.50848C4.49162 4.86188 3.47737 9.69203 2.46375 14.5192C2.13833 16.0689 1.81298 17.6183 1.48763 19.1683C1.48461 19.1864 1.48558 19.2065 1.48659 19.2273C1.4871 19.2379 1.48763 19.2487 1.48763 19.2595C1.48963 19.2655 1.49075 19.2707 1.49177 19.2753C1.49307 19.2812 1.4942 19.2864 1.49676 19.2915C1.49905 19.2938 1.50247 19.296 1.50761 19.2995C1.51275 19.3029 1.51961 19.3074 1.52875 19.3143H5.43081C5.66987 18.2072 5.90336 17.1021 6.13672 15.9975C6.42073 14.6531 6.70456 13.3096 6.99803 11.9648H7.40925C7.97578 11.9593 8.54231 11.9524 9.10883 11.9454C9.95874 11.935 10.8087 11.9246 11.6586 11.9191C12.4627 11.9146 13.2578 11.8188 14.0437 11.6545C14.9484 11.4629 15.8028 11.1618 16.5613 10.6144C17.4614 9.96201 18.1102 9.11346 18.5763 8.11437C19.2022 6.76855 19.4535 5.36799 19.2388 3.89444C18.9601 1.96924 17.6761 0.632547 15.7708 0.231084C14.8844 0.0440381 13.9934 0.0121035 13.0978 0.00754141C11.3813 -0.00223388 9.66234 -0.000372646 7.94275 0.00148931C7.25477 0.00223426 6.56667 0.00297932 5.87858 0.00297932ZM8.03065 8.78043H7.62856C7.77788 8.07227 7.9253 7.37417 8.07154 6.68171C8.3191 5.50948 8.56325 4.35338 8.8074 3.19187C8.85193 3.19016 8.89452 3.18781 8.93568 3.18554C9.00433 3.18175 9.06896 3.17819 9.13181 3.17819C9.41967 3.17819 9.70753 3.17695 9.99539 3.17572C10.6671 3.17285 11.3387 3.16997 12.0104 3.18275C12.5587 3.19187 13.1115 3.23293 13.6598 3.28768C14.8433 3.40173 15.4647 4.27765 15.3413 5.47748C15.1677 7.16545 13.902 8.31966 12.3942 8.5432C11.7865 8.63444 11.1742 8.69375 10.562 8.72568C9.99819 8.75307 9.43646 8.76016 8.87405 8.76725C8.5932 8.7708 8.31218 8.77435 8.03065 8.78043Z" fill="#0B41BE"/>
  <path fill-rule="evenodd" clip-rule="evenodd" d="M21.5734 7.46516C21.2321 7.92692 20.9739 8.42826 20.7902 9.01756C21.8525 9.11246 22.8935 9.20025 23.9261 9.28733C24.0419 9.29709 24.1575 9.30685 24.2731 9.3166C24.2808 9.29906 24.2881 9.28231 24.2952 9.2662C24.3324 9.18129 24.3618 9.11417 24.3912 9.04394C24.6407 8.45025 25.0738 8.07205 25.6908 7.89614C26.1634 7.76421 26.6447 7.75541 27.1172 7.82577C27.3666 7.86535 27.6248 7.95771 27.8436 8.08524C28.2286 8.30952 28.443 8.66134 28.4518 9.1231C28.4605 9.48811 28.3818 9.83553 28.2943 10.1874C28.2592 10.3457 28.1717 10.4248 28.0186 10.4556C27.8675 10.4831 27.717 10.5147 27.5665 10.5463C27.3072 10.6008 27.0477 10.6553 26.7847 10.6887C26.1628 10.7654 25.5389 10.8302 24.9143 10.895C24.6073 10.9269 24.3002 10.9588 23.9931 10.9921C23.2799 11.0713 22.5798 11.2252 21.9016 11.4715C20.6633 11.9245 19.8363 12.7732 19.4862 14.0573C19.2893 14.7654 19.2675 15.4822 19.39 16.2034C19.5869 17.3732 20.2038 18.2572 21.2321 18.8377C22.1466 19.3566 23.1311 19.4094 24.1375 19.1983C25.1701 18.9784 26.0583 18.4815 26.8066 17.7338C26.8402 17.7001 26.8738 17.6672 26.9106 17.6311C26.9553 17.5874 27.0048 17.539 27.0647 17.4788C27.0876 17.6205 27.1064 17.7589 27.1247 17.8941C27.1762 18.2751 27.2243 18.6309 27.3535 18.9652C27.8042 19.0224 30.6133 19.0048 30.8277 18.9388C30.8201 18.9082 30.8133 18.8784 30.8066 18.849C30.7979 18.811 30.7895 18.7738 30.7796 18.7365C30.5258 17.7866 30.4864 16.8191 30.6702 15.8516C30.7792 15.2793 30.8963 14.7083 31.0133 14.1379C31.1075 13.6783 31.2017 13.2192 31.2915 12.76C31.3564 12.4254 31.4289 12.0925 31.5014 11.7597C31.6927 10.8808 31.8839 10.0026 31.9347 9.09672C31.9741 8.42826 31.8735 7.79499 31.5365 7.21449C31.0027 6.28657 30.1801 5.74125 29.1694 5.4598C28.4736 5.2663 27.7604 5.20473 27.0385 5.20033C26.2902 5.19593 25.5464 5.23551 24.8113 5.40263C23.4899 5.70607 22.3916 6.36573 21.5734 7.46516ZM27.3765 12.7894C27.4914 12.77 27.6121 12.7496 27.7429 12.7292C27.7323 12.7904 27.7238 12.8456 27.7159 12.8967C27.7011 12.9927 27.6886 13.0739 27.6686 13.1514C27.6308 13.291 27.5947 13.4314 27.5586 13.5717C27.4651 13.9352 27.3716 14.2988 27.2485 14.651C26.8635 15.7461 26.0277 16.3134 24.9295 16.5377C24.5925 16.608 24.26 16.6212 23.9231 16.5377C23.3193 16.3881 22.8904 16.0275 22.7679 15.4119C22.6454 14.8006 22.7636 14.2333 23.3718 13.8023C23.7437 13.5384 24.1725 13.4021 24.6057 13.2834C25.336 13.0851 26.0825 12.9799 26.8296 12.8746C26.8613 12.8701 26.893 12.8657 26.9247 12.8612C27.0716 12.8408 27.2185 12.816 27.3765 12.7894Z" fill="#0B41BE"/>
  <path d="M0.625168 23.0271L0 26L33.2925 24.5113L34.9143 21.5428L0.625168 23.0271Z" fill="#0B41BE"/>
  <path d="M48.7407 5.20449C47.6513 5.20449 46.5575 5.20897 45.4681 5.20001C45.2556 5.20001 45.1493 5.2717 45.0474 5.45539C44.1396 7.17579 43.2229 8.89172 42.3063 10.6077C41.4516 12.1981 40.6501 13.811 40.0522 15.5225C40.039 15.5628 40.0035 15.5986 39.9593 15.6658C39.8441 13.8872 39.5917 12.1623 39.3614 10.4329C39.1311 8.69907 38.892 6.96074 38.6573 5.22689C37.4307 5.22689 36.2439 5.22689 35.0482 5.22689C35.0438 5.28514 35.0349 5.32546 35.0393 5.3613C35.2475 6.57544 35.46 7.79407 35.6682 9.00821C35.8586 10.1238 36.0534 11.2394 36.2439 12.3549C36.4564 13.5915 36.669 14.828 36.8815 16.0646C37.0365 16.9696 37.3421 18.7796 37.3421 18.7796L34.1714 24.5143C36.4697 24.5143 37.9001 24.5143 37.9001 24.5143C37.9001 24.5143 43.1831 15.7734 44.5072 13.3899C45.9818 10.7376 47.4565 8.08528 48.9311 5.43298C48.9665 5.37474 48.9887 5.30754 49.0285 5.21793C48.9178 5.21345 48.8293 5.20449 48.7407 5.20449Z" fill="#0B41BE"/>
</svg>
