<svg xmlns="http://www.w3.org/2000/svg" viewBox="0 0 116 24">
	<path fill="#73f" d="M9.75 5.25C7.26472 5.25 5.25 7.26472 5.25 9.75C5.25 12.2353 7.26472 14.25 9.75 14.25C12.2353 14.25 14.25 12.2353 14.25 9.75C14.25 7.26472 12.2353 5.25 9.75 5.25ZM5.25 15.7505C6.50349 16.6921 8.06159 17.25 9.75 17.25C13.8921 17.25 17.25 13.8921 17.25 9.75C17.25 5.60786 13.8921 2.25 9.75 2.25C5.75922 2.25 2.49645 5.36695 2.26333 9.29919C2.25454 9.36488 2.25 9.43191 2.25 9.5V9.75V19.25C2.25 20.0784 2.92157 20.75 3.75 20.75C4.57843 20.75 5.25 20.0784 5.25 19.25V15.7505ZM49.0821 3.50192C49.7713 3.96145 49.9576 4.89276 49.4981 5.58205L43.75 14.2042V19.25C43.75 20.0784 43.0784 20.75 42.25 20.75C41.4216 20.75 40.75 20.0784 40.75 19.25V14.2042L35.0019 5.58205C34.5424 4.89276 34.7287 3.96145 35.4179 3.50192C36.1072 3.0424 37.0385 3.22866 37.4981 3.91795L42.25 11.0458L47.0019 3.91795C47.4615 3.22866 48.3928 3.0424 49.0821 3.50192ZM95.25 4.75C95.25 3.92157 94.5784 3.25 93.75 3.25C92.9216 3.25 92.25 3.92157 92.25 4.75V14.7909L83.945 3.84342C83.5557 3.33025 82.8823 3.12291 82.2718 3.32828C81.6612 3.53365 81.25 4.10587 81.25 4.75V19.25C81.25 20.0784 81.9216 20.75 82.75 20.75C83.5784 20.75 84.25 20.0784 84.25 19.25V9.20913L92.555 20.1566C92.9443 20.6698 93.6177 20.8771 94.2282 20.6717C94.8388 20.4663 95.25 19.8941 95.25 19.25V4.75ZM101.5 3.25C100.534 3.25 99.75 4.0335 99.75 5V19C99.75 19.9665 100.534 20.75 101.5 20.75H105C109.832 20.75 113.75 16.8325 113.75 12C113.75 7.16751 109.832 3.25 105 3.25H101.5ZM102.75 17.75V6.25H105C108.176 6.25 110.75  8.82436 110.75 12 C110.75 15.1756 108.176 17.75 105 17.75H102.75ZM76.75 4.75C76.75 5.57843 76.0784 6.25 75.25 6.25H69.75V10.25H75.25C76.0784 10.25 76.75 10.9216 76.75 11.75C76.75 12.5784 76.0784 13.25 75.25 13.25H69.75V17.75H75.25C76.0784 17.75 76.75 18.4216 76.75 19.25C76.75 20.0784 76.0784 20.75 75.25 20.75H68.75C67.6454 20.75 66.75 19.8546 66.75 18.75V11.75V5.25C66.75 4.14543 67.6454 3.25 68.75 3.25H75.25C76.0784 3.25 76.75 3.92157 76.75 4.75ZM54.8991 7.57788C55.1247 6.7917 55.8437 6.25 56.6616 6.25H56.9177C57.6189 6.25 58.3143 6.37611 58.9708 6.6223L59.7233 6.90449C60.499 7.19537 61.3636 6.80236 61.6545 6.02668C61.9454 5.251 61.5524 4.38639 60.7767 4.09551L60.0242 3.81331C59.0308 3.44081 57.9786 3.25 56.9177 3.25L56.6616 3.25C54.5055 3.25 52.6101 4.67797 52.0154 6.75041C51.2581 9.38968 52.8486 12.129 55.5162 12.7796L58.5032 13.5082C59.7119 13.803 60.3967 15.0824 59.9715 16.2517L59.9252 16.3788C59.7237 16.9331 59.2669 17.3558 58.6988 17.514C57.2976 17.9041 55.7968 17.6838 54.5668 16.9074L54.0507 16.5816C53.3501 16.1394 52.4238 16.3488 51.9816 17.0493C51.5394 17.7499 51.7488 18.6762 52.4493 19.1184L52.9655 19.4442C54.9116 20.6727 57.2863 21.0213 59.5034 20.4041C61.0048 19.9861 62.212 18.8688 62.7446 17.4041L62.7909 17.2769C63.8266 14.4285 62.1586 11.3118 59.2141 10.5936L56.2271 9.86507C55.2151 9.61826 54.6118 8.57909 54.8991 7.57788ZM31.8901 19.883C32.2397 20.6341 33.132 20.9595 33.883 20.6099C34.6341 20.2603 34.9595 19.368 34.6099 18.617L27.8599 4.11696C27.6137 3.58815 27.0833 3.25 26.5 3.25C25.9167 3.25 25.3863 3.58815 25.1401 4.11696L18.3901 18.617C18.0405 19.368 18.3659 20.2603 19.117 20.6099C19.868 20.9595 20.7603 20.6341 21.1099 19.883L26.5 8.30425L31.8901 19.883Z" fill-rule="evenodd"></path>
</svg>