<svg xmlns="http://www.w3.org/2000/svg" viewBox="0 0 450.03 122.94">
	<path fill="#147ec2" d="M68.09,11.4C60.6,3.84,49.17,0,34.13,0,21.18,0,7.47,2.58.77,6.28L0,6.71V122.94H25.77V88.51a68.27,68.27,0,0,0,10.33.72c13.1,0,23.42-3.61,30.68-10.74,8-7.85,12-19.82,12-35.58C78.83,29.2,75.22,18.6,68.09,11.4ZM25.77,23.78A43.36,43.36,0,0,1,34,23.26c12.44,0,18.76,3.43,18.76,22.16,0,17.41-7.11,20.91-18.58,20.91a53.92,53.92,0,0,1-8.36-.6Z"/>
	<path fill="#147ec2" d="M157.68,33.8C152.33,10.09,146.91.18,127.17.18c-10.6,0-17.49,2.85-21.4,5.24l-.53.32-28,117.2h25.5l7.53-33.17h33.82l7.35,33.17h26.2ZM125.27,24a4.65,4.65,0,0,1,1.36-.16c2.5,0,3.36,1.71,7.68,21.4l4.8,22H115.43Z"/>
	<polygon fill="#147ec2" points="238.38 1.97 217.88 53.57 197.21 1.97 168.98 1.97 204.56 83.38 204.56 122.94 230.15 122.94 230.15 83.38 265.72 1.97 238.38 1.97"/>
	<polygon class="cls-2" points="270.89 1.97 270.89 24.51 299.39 24.51 299.39 122.94 325.16 122.94 325.16 24.51 353.31 24.51 353.31 1.97 270.89 1.97"/>
	<path class="cls-2" d="M424.65,74.93c12.68-6.76,19.37-19,19.37-35.6C444,14.33,427.92,0,399.85,0c-14,0-27.69,2.46-34.94,6.27l-.8.42V122.94h25.77V80.44c2,.18,5,.37,6.56.37h3.21l21.88,42.13H450ZM389.88,23.6a76,76,0,0,1,9.25-.34c13.59,0,18.4,4.77,18.4,18.22,0,11.41-6.49,17-19.83,17-2.49,0-5.72,0-7.82-.18Z"/>
</svg>