<svg xmlns="http://www.w3.org/2000/svg" viewBox="0 0 128.6 48.9">
  <path fill-rule="evenodd" clip-rule="evenodd" fill="#FEBB00" d="M44.6,41.4c-3.8,0-6.8-3-6.8-6.8s3.1-6.8,6.8-6.8s6.8,3,6.8,6.8
    C51.4,38.4,48.4,41.4,44.6,41.4 M44.7,19.5c-8.6,0-15.3,6.3-15.3,15.2c0,8.9,6.7,15.3,15.3,15.3c8.6,0,15.3-6.4,15.3-15.3
    S53.3,19.5,44.7,19.5 M69.7,39.6c0.1,2,1.5,3.9,4.6,3.9c2.3,0,3.4-1.2,3.4-2.5c0-1-0.7-1.9-2.9-2.4l-3.3-0.8
    c-6.2-1.3-8.7-4.8-8.7-8.8c0-5.3,4.7-9.5,11.2-9.5c8.5,0,11.4,5.2,11.7,8.6l-7.4,1.3c-0.2-1.9-1.5-3.5-4.2-3.5
    c-1.7,0-3.2,1-3.2,2.5c0,1.2,1,1.9,2.3,2.1l3.9,0.8c6.1,1.2,9,4.8,9,9c0,4.9-3.8,9.7-11.6,9.7c-9.2,0-12.1-5.8-12.3-9L69.7,39.6
    L69.7,39.6z M0,8.6C0,4.4,3.4,1,7.6,1c4.2,0,7.6,3.4,7.6,7.6c0,4.2-3.4,7.6-7.6,7.6C3.4,16.2,0,12.8,0,8.6"/>
  <path fill-rule="evenodd" clip-rule="evenodd" fill="#FEBB00" d="M26.2,40.2c-1,0.5-2.4,0.5-2.4,0.5c-2,0-3.6-1.6-3.6-3.6V26.9h5.4
    v-7.7h-5.4v-8.5h-2.4c-1.4,4.9-5.9,8.5-11.2,8.5v7.7h4.9v12.6c0,5.2,4.2,9.3,9.4,9.3c1.8,0,3.6-0.3,5.3-0.9
    C26.2,47.9,26.2,40.2,26.2,40.2z M90.5,48.9h8.7V8.6h-8.7V48.9z M119.8,37.8v-1.3l-5.4,0.9c-1.8,0.3-3.2,1.2-3.2,3.2
    c0,1.5,1,3,3.4,3C117.1,43.6,119.8,42.3,119.8,37.8 M111,32.5l6.7-1c1.6-0.2,2.1-1,2.1-2c0-1.7-1.4-3.1-4.2-3.1
    c-3.1,0-4.7,2.1-4.9,4.2l-7.6-1.6c0.3-4.1,4.2-9.6,12.6-9.6c9.3,0,12.7,5.2,12.7,11.1v14.1c0,2.3,0.3,4.2,0.3,4.5h-7.9
    c-0.1-0.2-0.3-1.3-0.3-3.2c-1.5,2.4-4.3,4.1-8.1,4.1c-6.3,0-9.9-4.2-9.9-8.7C102.5,36.1,106.2,33.2,111,32.5"/>
</svg>
