<svg xmlns="http://www.w3.org/2000/svg" xmlns:xlink="http://www.w3.org/1999/xlink" viewBox="0 0 694.7 158.7">
  <path fill="#164194" d="M366.1,78.3c3.1-3.8,4.7-8.3,4.7-13.6c0-6.8-2.4-12.6-7.2-17c-5-4.7-11.7-7-19.9-7h-32.5v76.9h18.2V87.9h9 l15.5,29.6h21l-18.1-32.6C360.5,83.4,363.7,81.2,366.1,78.3z M349.9,70.8c-1.9,1.6-4.2,2.4-7.3,2.4h-13.3v-17h13.3 c3,0,5.4,0.8,7.3,2.4c1.8,1.6,2.7,3.6,2.7,6.1C352.6,67.2,351.7,69.2,349.9,70.8z"/>
  <path fill="#164194" d="M283.3,90.2c0,3.9-1.1,6.9-3.4,9.1c-2.2,2.2-5.2,3.3-9.1,3.3c-3.9,0-6.9-1.1-9.1-3.3 c-2.2-2.2-3.3-5.2-3.3-9.1V40.6h-18.2v50.2c0,8.1,3,14.8,8.8,19.9c5.8,5,13.1,7.5,21.8,7.5c8.6,0,16-2.5,21.8-7.5 c5.9-5.1,8.8-11.8,8.8-19.9V40.6h-18.1V90.2z"/>
  <polygon fill="#164194" points="173,56.2 193.7,56.2 193.7,117.6 211.9,117.6 211.9,56.2 232.7,56.2 232.7,40.6 173,40.6"/>
  <polygon fill="#164194" points="447.8,40.6 425.3,40.6 399.2,70.7 399.2,40.6 381,40.6 381,117.6 399.2,117.6 399.2,94.4 407.9,84.6 427.8,117.6 449.1,117.6 420.1,71.6"/>
  <polygon fill="#164194" points="659.6,102 659.6,40.6 641.4,40.6 641.4,117.6 693.9,117.6 693.9,102"/>
  <polygon fill="#164194" points="602,40.6 583.8,40.6 583.8,117.6 634.6,117.6 634.6,102 602,102"/>
  <path fill="#164194" d="M480.5,55.3c6.5,0,10.5,3.2,12.3,9.7l0.3,1h18.5l-0.3-1.6c-1.4-8-5-14.2-10.5-18.4 c-5.5-4.2-12.3-6.4-20.3-6.4c-3.2,0-6.2,0.4-9.1,1.1c-12,2.8-19.9,10.6-24.2,23.9c-1.5,4.9-1.9,10.4-1.9,14.2 c0,4.4,0.6,9.1,1.5,12.9c1.8,6.5,5,12.2,9.2,16.4c0.6,0.7,1.2,1.3,1.8,1.9c6.1,5.7,13.7,8.6,22.6,8.6c7.9,0,14.7-2.1,20.1-6.3 c5.7-4.3,9.4-10.6,10.8-18.5l0.3-1.6H493l-0.3,1c-1.7,6.5-5.7,9.7-12.3,9.7c-4.2,0-7.4-0.6-10.8-3.6c-1.7-1.8-3.1-3.7-4.1-5.9 c-1.1-2.3-2.3-7.4-2.3-14.8c0-9.2,2-15.4,6.4-19.6C472.4,56.5,475.8,55.3,480.5,55.3z"/>
  <polygon fill="#164194" points="518.9,117.6 574,117.6 574,102 537.1,102 537.1,86.6 568.5,86.6 568.5,71 537.1,71 537.1,56.2 574,56.2 574,40.6 518.9,40.6"/>
  <path fill="#FDC500" d="M141.8,38c-5.6-8.9-12.5-16.2-20.5-21.9c-8-5.7-17.2-9.7-27.4-12.1c-16.9-4-33.2-2.2-49,4.9 c-8.7,3.9-16.5,9.3-23.1,16.1c-8.3,8.6-14.3,18.3-18,29.1c0,0.1-0.1,0.2-0.1,0.3c-0.1,0.4-0.2,0.8-0.4,1.2 C-0.4,68.1,3.1,75,8.6,69.3c0.2-0.3,0.4-0.5,0.7-0.7c0.1-0.1,0.2-0.2,0.3-0.3c6.4-8.1,16.7-14.9,16.7-14.9l0,0 c2.6-1.8,5.3-3.5,8.1-5.1c3.2-1.9,6.6-3.6,9.7-4.8c0,0,2.9-1.3,3.7-5.4c0-0.1,0-0.2,0-0.2c0,0,0-0.1,0-0.1 C48.4,34.3,52,25,62.3,24.4c3.2-0.4,6.4,0.1,9.2,1.5l0,0h0c4.9,2.4,8.7,7.1,9.5,12.7c0.6,4.5-0.5,8.8-2.8,12.1 c-0.1,0.2-0.3,0.4-0.4,0.6c0,0.1-0.1,0.1-0.1,0.2l0,0l0,0C75.8,54,73.1,55.9,70,57c-1.9,0.7-3.8,1.1-5.6,1.1c0,0,0,0,0,0 c-1.2,0.1-2.4,0-3.7-0.3c-1.4-0.3-2.8-0.8-3.9-1.4c-2-0.9-3.6-2-4.2-2.5c-0.5-0.4-1-0.7-1.5-0.8c-1.1-0.2-2,0-2.6,0.3c0,0,0,0,0,0 l0,0c-0.4,0.2-0.6,0.3-0.8,0.5c-2.5,2-4.8,4.2-7,6.4c-5.8,6.1-10.7,13.1-13,16.5c-1.2,1.9-2.4,3.9-3.5,6c-1,1.9-1.9,3.8-2.8,5.8 c-1.4,3.1-2.6,6.4-3.8,9.9c-0.1,0.2-0.1,0.3-0.2,0.5c-0.1,0.2-0.1,0.4-0.2,0.7c-0.1,0.2-0.1,0.4-0.2,0.7 c-7.1,24.2,5.6,38.1,16.3,23.6c0.6-0.9,1.2-1.8,1.8-2.7c0,0,0,0,0,0c11.2-19.3,34.1-33.3,34.1-33.3l0,0c1.4-0.9,2.8-1.7,4.2-2.6 l0,0c0,0,0.1-0.1,0.3-0.1c3.9-2.2,8-4.3,12.1-6c3.7-1.6,7.6-3.2,10.9-4c0,0,3.8-1,4.8-5.7l0,0l0,0c0.7-3.4,3.2-8.3,8.7-10.9 c1.3-0.7,2.7-1.2,4-1.5c1.5-0.3,3-0.4,4.4-0.4l0,0c0.9,0,1.7,0.1,2.4,0.3c7,1.4,12.7,7.1,13.6,14.7c1,9.2-5.4,17.5-14.5,18.6 c-4.5,0.6-8.7-0.4-12.2-3.1c-3.9-1.6-7-0.6-8.1-0.1c-3.4,1.9-6.7,4-9.9,6.2c-5.9,4.4-10.5,8.9-12.4,10.8 c-4.1,4.2-7.6,8.7-10.8,13.4c-0.2,0.3-0.3,0.5-0.5,0.8c0,0.1-0.1,0.1-0.1,0.2c-3.2,5.1-6.6,11.7-9.4,19.6c-0.2,0.6-0.4,1.2-0.6,1.9 c-3,10.2,3.5,14.2,11,15.7c0,0,5.9,1.1,14.4,0.5c0.5,0,0.9-0.1,1.3-0.1c2.1-0.3,4.3-0.5,6.4-0.9c14.7-2.5,27.6-8.6,38.7-18.6 c13.9-12.5,22.3-28.1,24.9-46.6C155.5,71.3,151.9,53.9,141.8,38z"/>
</svg>