<svg xmlns="http://www.w3.org/2000/svg" viewBox="0 0 212.5 36.25">
  <defs>
    <clipPath id="turk-elektronik-para-1" clipPathUnits="userSpaceOnUse">
      <path d="M 0,29 170,29 170,0 0,0 0,29 Z" />
    </clipPath>
  </defs>
  <g transform="matrix(1.25,0,0,-1.25,0,36.25)">
    <g>
      <g clip-path="url(#turk-elektronik-para-1)">
        <g transform="translate(111.2705,0.332)">
          <path style="fill:#5c5c5b;fill-opacity:1;fill-rule:evenodd;stroke:none" d="m 0,0 0,1.949 -10.443,11.717 10.223,14.288 -5.2,0 -7.734,-10.651 0,10.651 -4.846,0 0,-27.954 4.846,0 0,9.896 L -4.444,0 0,0 Z m -25.04,19.117 c 0,-2.926 -1.646,-5.495 -4.8,-5.495 -1.157,0 -2.534,0.578 -2.534,0.578 l 0,9.576 1.6,0 c 4.045,0 5.734,-1.771 5.734,-4.659 M -18.907,0 l 0,1.949 -7.956,8.249 c 4.09,0.358 6.757,4.661 6.757,8.875 0,4.971 -2.936,8.881 -10.668,8.881 l -6.445,0 0,-27.954 4.845,0 0,9.983 9.111,-9.983 4.356,0 z m -21.619,10.961 0,16.993 -4.844,0 0,-16.993 c 0,-2.971 -0.401,-7.36 -4.311,-7.36 -3.912,0 -4.311,4.389 -4.311,7.36 l 0,16.993 -4.845,0 0,-16.993 c 0,-5.991 2.4,-11.628 9.156,-11.628 6.753,0 9.155,5.637 9.155,11.628 m -18.775,12.549 0,4.444 -17.11,0 0,-4.444 6.133,0 0,-23.51 4.799,0 0,23.51 6.178,0 z" />
        </g>
        <g transform="translate(5.0913,0.3291)">
          <path style="fill:#d32124;fill-opacity:1;fill-rule:evenodd;stroke:none" d="m 0,0 c -2.023,1.458 -3.718,3.336 -4.961,5.51 l 0,-1.968 C -4.961,1.594 -3.366,0 -1.417,0 L 0,0 Z M 26.078,6.48 C 24.788,3.911 22.885,1.679 20.544,0 l 1.99,0 c 1.95,0 3.544,1.594 3.544,3.542 l 0,2.938 z m -20.302,21.858 16.758,0 c 0.112,0 0.221,-0.005 0.328,-0.015 l 0.003,-0.142 -4.945,-1.69 4.995,-1.539 0.077,-5.224 L 26,24 l 0.078,-0.023 0,-11.465 C 23.787,7.654 18.885,4.194 13.308,4.018 5.73,3.779 -0.183,9.692 0.055,17.271 c 0.139,4.44 2.36,8.458 5.721,11.067 m -7.193,0 1.185,0 c -0.644,-0.487 -1.261,-1.023 -1.844,-1.605 -1.153,-1.155 -2.115,-2.43 -2.885,-3.788 l 0,1.851 c 0,1.948 1.595,3.542 3.544,3.542" />
        </g>
        <g transform="translate(5.0913,0.3291)">
          <path style="fill:none;stroke:#d32124;stroke-width:0.21600001;stroke-linecap:butt;stroke-linejoin:miter;stroke-miterlimit:22.9260006;stroke-dasharray:none;stroke-opacity:1" d="m 0,0 c -2.023,1.458 -3.718,3.336 -4.961,5.51 l 0,-1.968 C -4.961,1.594 -3.366,0 -1.417,0 L 0,0 Z M 26.078,6.48 C 24.788,3.911 22.885,1.679 20.544,0 l 1.99,0 c 1.95,0 3.544,1.594 3.544,3.542 l 0,2.938 z m -20.302,21.858 16.758,0 c 0.112,0 0.221,-0.005 0.328,-0.015 l 0.003,-0.142 -4.945,-1.69 4.995,-1.539 0.077,-5.224 L 26,24 l 0.078,-0.023 0,-11.465 C 23.787,7.654 18.885,4.194 13.308,4.018 5.73,3.779 -0.183,9.692 0.055,17.271 c 0.139,4.44 2.36,8.458 5.721,11.067 z m -7.193,0 1.185,0 c -0.644,-0.487 -1.261,-1.023 -1.844,-1.605 -1.153,-1.155 -2.115,-2.43 -2.885,-3.788 l 0,1.851 c 0,1.948 1.595,3.542 3.544,3.542 z" />
        </g>
        <g transform="translate(119.2676,28.6997)">
          <path style="fill:#d32124;fill-opacity:1;fill-rule:evenodd;stroke:none" d="m 0,0 46.857,0 c 2.147,0 3.904,-1.755 3.904,-3.9 l 0,-20.564 c 0,-2.144 -1.757,-3.902 -3.904,-3.902 l -46.857,0 c -2.146,0 -3.9,1.758 -3.9,3.902 l 0,20.564 C -3.9,-1.755 -2.146,0 0,0" />
        </g>
        <g transform="translate(161.9395,18.584)">
          <path style="fill:#ffffff;fill-opacity:1;fill-rule:evenodd;stroke:none" d="m 0,0 0.637,0.123 0,4.306 L 0,4.553 l 0,0.726 2.45,0 0,-0.726 -0.608,-0.124 0,-1.603 0.525,0 1.151,1.677 -0.353,0.05 0,0.726 2.378,0 0,-0.726 L 4.892,4.442 3.416,2.473 5.076,0.101 5.676,0 l 0,-0.723 -2.378,0 0,0.723 0.37,0.049 -1.156,1.734 -0.67,0 0,-1.66 L 2.45,0 2.45,-0.723 0,-0.723 0,0 Z m -0.697,5.872 -1.255,0 0,0.993 1.255,0 0,-0.993 z M -2.44,4.553 -1.801,4.429 -1.801,0.123 -2.44,0 l 0,-0.723 2.48,0 0,0.723 -0.639,0.123 0,4.306 0.639,0.124 0,0.726 -2.48,0 0,-0.726 z m 0.116,0.726 0,-0.726 -0.645,-0.124 0,-5.152 -1.199,0 -2.423,4.04 -0.024,-0.004 0,-3.19 0.643,-0.123 0,-0.723 -2.485,0 0,0.723 0.639,0.123 0,4.306 -0.639,0.124 0,0.726 0.639,0 1.203,0 2.423,-4.039 0.024,0.002 0,3.187 -0.642,0.124 0,0.726 1.841,0 0.645,0 z m -7.314,-2.947 0,-0.098 c 0,-0.634 -0.13,-1.142 -0.383,-1.528 -0.254,-0.386 -0.638,-0.579 -1.145,-0.579 -0.504,0 -0.882,0.193 -1.133,0.579 -0.251,0.386 -0.377,0.894 -0.377,1.528 l 0,0.098 c 0,0.626 0.124,1.132 0.374,1.516 0.248,0.384 0.627,0.577 1.132,0.577 0.505,0 0.888,-0.194 1.146,-0.581 0.256,-0.386 0.386,-0.892 0.386,-1.512 m 1.199,-0.098 0,0.09 c 0,0.874 -0.253,1.599 -0.755,2.176 -0.505,0.576 -1.163,0.864 -1.976,0.864 -0.813,0 -1.466,-0.288 -1.963,-0.864 -0.497,-0.577 -0.748,-1.302 -0.748,-2.176 l 0,-0.09 c 0,-0.88 0.252,-1.608 0.75,-2.181 0.499,-0.574 1.153,-0.862 1.965,-0.863 0.812,0.001 1.471,0.289 1.974,0.863 0.502,0.573 0.753,1.301 0.753,2.181 m -8.945,0.399 0.834,0 c 0.334,0 0.583,0.071 0.754,0.214 0.167,0.143 0.251,0.348 0.251,0.619 0,0.269 -0.084,0.484 -0.251,0.644 -0.165,0.161 -0.409,0.241 -0.733,0.241 l -0.855,0 0,-1.718 z m 0.855,2.646 c 0.68,0 1.212,-0.156 1.601,-0.468 0.388,-0.313 0.582,-0.744 0.582,-1.291 0,-0.303 -0.083,-0.566 -0.245,-0.789 -0.162,-0.222 -0.397,-0.402 -0.712,-0.541 0.355,-0.103 0.61,-0.277 0.767,-0.52 0.153,-0.243 0.229,-0.545 0.229,-0.903 l 0,-0.306 c 0,-0.133 0.03,-0.234 0.08,-0.307 0.053,-0.073 0.136,-0.116 0.259,-0.131 l 0.149,-0.018 0,-0.728 -0.625,0 c -0.388,0 -0.667,0.106 -0.827,0.319 -0.159,0.211 -0.238,0.484 -0.238,0.82 l 0,0.341 c 0,0.292 -0.078,0.519 -0.235,0.686 -0.153,0.166 -0.37,0.254 -0.654,0.263 l -0.986,0 0,-1.583 0.645,-0.123 0,-0.723 -2.489,0 0,0.723 0.64,0.123 0,4.306 -0.64,0.124 0,0.726 0.64,0 2.059,0 z m -2.588,0 -5.35,0 0,-1.6 0.921,0 0.05,0.672 1.099,0 0,-4.228 -0.644,-0.123 0,-0.723 2.488,0 0,0.723 -0.644,0.123 0,4.228 1.108,0 0.05,-0.672 0.922,0 0,1.6 z M -29.934,0 l 0.639,0.123 0,4.306 -0.639,0.124 0,0.726 2.452,0 0,-0.726 -0.61,-0.124 0,-1.603 0.527,0 1.151,1.677 -0.355,0.05 0,0.726 2.379,0 0,-0.726 -0.651,-0.111 -1.478,-1.969 1.66,-2.372 0.598,-0.101 0,-0.723 -2.375,0 0,0.723 0.371,0.049 -1.155,1.734 -0.672,0 0,-1.66 0.61,-0.123 0,-0.723 -2.452,0 0,0.723 z m -1.014,1.915 0,0.927 -2.032,0 0,1.509 1.919,0 0.054,-0.716 0.922,0 0,1.644 -4.101,0 -0.637,0 0,-0.726 0.637,-0.124 0,-4.306 -0.637,-0.123 0,-0.723 4.747,0 0,1.641 -0.914,0 -0.053,-0.718 -1.937,0 0,1.715 2.032,0 z m -8.32,-2.638 0,0.723 0.638,0.123 0,4.306 -0.638,0.124 0,0.726 0.638,0 1.206,0 0.641,0 0,-0.726 -0.641,-0.124 0,-4.229 1.692,0 0.058,0.755 0.918,0 0,-1.678 -4.512,0 z m -1.017,2.638 -2.032,0 0,-1.715 1.938,0 0.053,0.718 0.916,0 0,-1.641 -4.749,0 0,0.723 0.638,0.123 0,4.306 -0.638,0.124 0,0.726 0.638,0 4.102,0 0,-1.644 -0.922,0 -0.055,0.716 -1.921,0 0,-1.509 2.032,0 0,-0.927 z" />
        </g>
        <g transform="translate(159.7959,8.9072)">
          <path style="fill:#ffffff;fill-opacity:1;fill-rule:evenodd;stroke:none" d="M 0,0 2.924,0 1.483,4.489 1.432,4.489 0,0 Z m -4.623,-3.789 0.913,0.133 3.875,11.079 2.617,0 3.851,-11.079 0.909,-0.133 0,-1.532 -4.343,0 0,1.532 0.886,0.156 -0.559,1.749 -4.13,0 -0.563,-1.749 0.886,-0.156 0,-1.532 -4.342,0 0,1.532 z m -8.96,5.591 1.767,0 c 0.711,0 1.245,0.155 1.604,0.454 0.355,0.306 0.53,0.742 0.53,1.315 0,0.571 -0.175,1.028 -0.528,1.369 -0.353,0.34 -0.873,0.511 -1.562,0.511 l -1.811,0 0,-3.649 z m 1.811,5.621 c 1.447,0 2.581,-0.332 3.405,-0.996 0.821,-0.663 1.233,-1.577 1.233,-2.741 0,-0.643 -0.174,-1.2 -0.515,-1.674 -0.344,-0.47 -0.851,-0.853 -1.517,-1.147 0.754,-0.219 1.294,-0.587 1.627,-1.106 0.329,-0.515 0.492,-1.157 0.492,-1.92 l 0,-0.649 c 0,-0.279 0.056,-0.498 0.167,-0.65 0.111,-0.154 0.294,-0.248 0.549,-0.278 l 0.317,-0.042 0,-1.541 -1.322,0 c -0.835,0 -1.421,0.223 -1.756,0.675 -0.341,0.448 -0.51,1.028 -0.51,1.742 l 0,0.725 c 0,0.618 -0.165,1.103 -0.495,1.458 -0.328,0.354 -0.795,0.538 -1.393,0.556 l -2.093,0 0,-3.361 1.364,-0.263 0,-1.532 -5.277,0 0,1.532 1.355,0.263 0,9.143 -1.355,0.264 0,1.542 1.355,0 4.369,0 z M -26.563,0 l 1.433,4.489 0.055,0 L -23.64,0 -26.563,0 Z m -4.623,-3.789 0,-1.532 4.341,0 0,1.532 -0.885,0.156 0.562,1.749 4.133,0 0.558,-1.749 -0.883,-0.156 0,-1.532 4.339,0 0,1.532 -0.908,0.133 -3.849,11.079 -2.619,0 -3.876,-11.079 -0.913,-0.133 z m -6.166,5.058 2.15,0 c 0.714,0 1.254,0.194 1.617,0.582 0.363,0.388 0.546,0.882 0.546,1.481 0,0.616 -0.183,1.12 -0.546,1.521 -0.363,0.401 -0.903,0.598 -1.617,0.598 l -2.15,0 0,-4.182 z m 2.15,6.154 c 1.459,0 2.611,-0.377 3.454,-1.127 0.841,-0.75 1.265,-1.73 1.265,-2.944 0,-1.22 -0.424,-2.197 -1.265,-2.943 -0.843,-0.738 -1.995,-1.11 -3.454,-1.11 l -2.15,0 0,-2.825 1.365,-0.263 0,-1.532 -5.28,0 0,1.532 1.359,0.263 0,9.143 -1.359,0.264 0,1.542 1.359,0 4.706,0 z" />
        </g>
      </g>
    </g>
  </g>
</svg>