<svg viewBox="0 0 486 93" xmlns="http://www.w3.org/2000/svg">
  <defs>
    <polygon id="wirecard-1" points="0.131211073 0.480317647 315.492651 0.480317647 315.492651 92.9343529 0.131211073 92.9343529"></polygon>
  </defs>
  <g stroke="none" stroke-width="1" fill="none" fill-rule="evenodd">
    <g transform="translate(-402.000000, -717.000000)">
      <g transform="translate(402.000000, 717.000000)">
        <polyline fill="#112032" points="75.0503006 26 65.2663797 69.9539795 50.4516688 26 39.5483312 26 24.7391076 69.9539795 14.9540893 26 0 26 17.6121551 92 29.3484703 92 45.0027437 48.4656838 60.6504323 92 72.3933323 92 90 26 75.0503006 26"></polyline>
        <path d="M100,13.9350145 L114,13.9350145 L114,0 L100,0 L100,13.9350145 Z M100,91 L114,91 L114,25.0849959 L100,25.0849959 L100,91 Z" fill="#112032"></path>
        <g transform="translate(170.000000, 0.000000)">
          <mask id="mask-2" fill="white">
            <use href="#wirecard-1"></use>
          </mask>
          <path d="M33.6851626,92.7199059 C13.7749758,92.7199059 0.131211073,78.7874118 0.131211073,59.2771059 C0.131211073,36.2929765 15.7212734,24.7237765 32.7109204,24.7237765 C52.3477509,24.7237765 63.6231557,38.9363647 63.6231557,58.5856235 L63.6231557,63.0419647 L14.4725813,63.0419647 C15.7212734,73.7676 21.9920692,81.2962235 35.7757924,81.2962235 C43.7129689,81.2962235 50.1182561,78.5084118 55.2682907,75.5805529 L60.0061038,85.4746588 C54.1529965,89.373 44.1317509,92.7199059 33.6851626,92.7199059 M14.6114464,53.7058588 L50.1182561,53.7058588 C49.699474,45.9026118 45.519308,36.2929765 32.7109204,36.2929765 C21.5732872,36.2929765 15.8612318,43.3981765 14.6114464,53.7058588" fill="#112032" mask="url(#mask-2)"></path>
          <path d="M103.787958,92.9989059 C83.5989481,92.9989059 71.6259377,78.0904588 71.6259377,59.4215294 C71.6259377,39.2153647 85.6830173,25.0027765 105.593204,25.0027765 C112.14173,25.0027765 119.661218,26.5378235 124.11474,29.4602118 L120.08,41.4462706 C116.874076,39.2153647 112.14173,36.9888353 105.877495,36.9888353 C93.7601522,36.9888353 86.2406644,45.3446118 86.2406644,58.5856235 C86.2406644,70.4261647 92.2315433,81.2962235 106.991696,81.2962235 C113.257024,81.2962235 117.1529,79.0653176 120.776512,76.2775059 L124.672388,87.8445176 C119.801176,90.9069529 111.306353,92.9989059 103.787958,92.9989059" fill="#112032" mask="url(#mask-2)"></path>
          <path d="M194.126782,25.5618706 L194.126782,91.4649529 L180.2031,91.4649529 L180.2031,86.1727059 C174.773149,90.3500471 167.255848,92.7199059 159.73636,92.7199059 C141.631419,92.7199059 127.985467,79.4843647 127.985467,58.8657176 C127.985467,35.8750235 145.393896,24.7248706 161.820429,24.7248706 C169.339917,24.7248706 175.604152,27.0947294 180.2031,30.4361647 L180.2031,25.5618706 L194.126782,25.5618706 Z M142.607848,58.8657176 C142.607848,71.6811176 150.125149,81.0139412 162.378076,81.0139412 C174.489952,81.0139412 181.312927,71.6811176 181.312927,58.8657176 C181.312927,45.3446118 173.520083,36.5665059 161.965855,36.5665059 C150.265107,36.5665059 142.607848,45.4846588 142.607848,58.8657176 L142.607848,58.8657176 Z" fill="#112032" mask="url(#mask-2)"></path>
          <path d="M315.492651,0.480317647 L315.492651,91.7450471 L301.567875,91.7450471 L301.567875,86.4517059 C296.134644,90.6301412 288.615156,93 281.101135,93 C262.997287,93 249.352429,79.7589882 249.352429,59.1392471 C249.352429,36.1496471 266.754298,25.0049647 283.186298,25.0049647 C290.704692,25.0049647 296.970021,27.3748235 301.567875,30.7162588 L301.567875,0.480317647 L315.492651,0.480317647 Z M263.972623,59.1392471 C263.972623,71.9612118 271.492111,81.2940353 283.743945,81.2940353 C295.85582,81.2940353 302.68317,71.9612118 302.68317,59.1392471 C302.68317,45.6247059 294.879391,36.8466 283.325163,36.8466 C271.630976,36.8466 263.972623,45.7647529 263.972623,59.1392471 L263.972623,59.1392471 Z" fill="#112032" mask="url(#mask-2)"></path>
        </g>
        <path d="M408.277133,24.0054343 L408.27057,24.0054343 C408.253071,24.0054343 408.238852,24.0076211 408.221353,24.0087144 C407.686522,24.0327692 398.174407,24.5729068 393.928571,30.5581571 L393.928571,25.1403794 L380,25.1403794 L380,91 L393.928571,91 L393.928571,55.0775646 C393.928571,44.6367252 400.473414,37.3973497 408.552751,37.3973497 C410.503954,37.3973497 412.455157,37.9495147 414.123086,38.646008 L419,26.6722273 C416.937237,25.3350039 411.969544,23.9004682 408.277133,24.0054343" fill="#112032"></path>
        <path d="M158.276039,24.0053323 L158.276039,24.0042389 L158.27057,24.0053323 C158.253071,24.0053323 158.237759,24.0075191 158.221353,24.0075191 C157.685428,24.0337606 148.174407,24.5738991 143.927478,30.5569717 L143.927478,25.1391858 L130,25.1391858 L130,91 L143.927478,91 L143.927478,55.0764165 C143.927478,44.6366547 150.473414,37.3961747 158.551657,37.3961747 C160.503954,37.3961747 162.455157,37.9483406 164.121992,38.6459283 L169,26.6732228 C166.93505,25.3338106 161.96845,23.9014595 158.276039,24.0053323" fill="#112032"></path>
      </g>
    </g>
  </g>
</svg>