<svg xmlns="http://www.w3.org/2000/svg" viewBox="0 0 175.7 19.3">
	<path fill-rule="evenodd" clip-rule="evenodd" fill="#E30613" d="M148.4,0.1v19.2h6.8v-6.9h2.3l8.3,6.9h9.8L164,9.8L175,0h-9.7 l-7.7,6.8H155V0.1L148.4,0.1L148.4,0.1z M15.3,0.1h4.8l10.4,19.2h-7.3l-1.8-3.2h-6.1h-6l-1.8,3.2H0L10.6,0.1H15.3L15.3,0.1z M15.3,11.2h3.2l-3.2-5.6l0,0l-3.2,5.7H15.3L15.3,11.2z M31.5,0.1v19.2h6.9v-6.9h2.3l8.3,6.9h9.8L47.1,9.8l11-9.8h-9.7l-7.7,6.8 h-2.6V0.1L31.5,0.1L31.5,0.1z M72,0.1c2.6,0,5.2,0,7.8,0c1.2,0,3.4,1.1,4.1,3.3c0.6,1.9,0.2,5-1.5,6.2c1.2,0.5,2,2.4,2.1,4.3v0.8 c0,0.3-0.1,0.7-0.1,1c-0.4,2.1-2.1,3.7-3.5,3.7c-3,0-6,0-9,0c-3.9,0-7.9,0-11.8,0c0-6.4,0-12.8,0-19.3C64.1,0.1,68,0.1,72,0.1 L72,0.1z M72,14h4.9c0.6,0,1.1-0.5,1.1-1c0-0.6-0.5-1-1.1-1H72l-5.6,0v2H72L72,14z M72,7.1h4.6c0.6,0,1.1-0.5,1.1-1s-0.5-1-1.1-1 L72,5l-5.6,0v2H72L72,7.1z M117,0.1v19.2h6.9V6.4l9.8,12.9h10.7V0.1h-6.8v13.4l-10-13.5L117,0.1L117,0.1z M100.7,0.1h4.8l10.4,19.2 h-7.2l-1.8-3.2h-6.1h-6L93,19.3h-7.6L96,0.1H100.7L100.7,0.1z M100.7,11.2h3.3l-3.3-5.6l0,0l-3.2,5.7H100.7L100.7,11.2z" />
</svg>
