<svg xmlns="http://www.w3.org/2000/svg" viewBox="0 0 159.3 39.6">
	<path fill="#E52528" d="M27.8,27V9.5c0-0.5-0.1-0.9-0.2-1.1C27.5,8.1,27.2,8,26.8,8l-1.2-0.1V7l5.4,0v14.1H31 c0.9-1.3,2.5-3.4,4.9-6.3c0.3-0.4,0.6-0.7,0.9-0.8c0.3-0.1,0.7-0.2,1.2-0.2h3.4v0.9c-1.5,0.2-2.8,0.6-3.9,1.4 c-1.1,0.8-2.3,2-3.7,3.5c-0.2,0.3-0.3,0.5-0.1,0.8c1.7,2.4,3.7,4.7,5.8,6.9c0.9,0.9,1.9,1.5,2.8,1.8V30l-2.5-0.1 c-1.3,0-2.5-0.6-3.5-1.7c-2.1-2.1-3.9-4.4-5.4-6.7h-0.1V27c0,0.8,0.1,1.3,0.3,1.5c0.2,0.2,0.9,0.3,2.1,0.4v1h-8v-1 c1.2-0.1,1.9-0.2,2.1-0.4C27.7,28.4,27.8,27.9,27.8,27z"/>
	<path fill="#E52528" d="M51.3,15.1h-4.2v10.1c0,2.2,0.7,3.3,2.2,3.3c0.9,0,1.6-0.1,2.3-0.4l0.3,0.7c-1.6,1-2.9,1.4-4.2,1.4 c-2.4,0-3.6-1.2-3.6-3.7V15.1L44,7h3.1v6.9h4.2V15.1z"/>
	<path fill="#E52528" d="M53.3,13.7l5.4,0V27c0,0.8,0.1,1.3,0.3,1.5c0.2,0.2,0.9,0.3,2.1,0.4v1h-8v-1c1.2-0.1,1.9-0.2,2.1-0.4 c0.2-0.2,0.4-0.7,0.4-1.5V16.1c0-0.5-0.1-0.9-0.2-1.1c-0.1-0.2-0.4-0.3-0.9-0.4l-1.2-0.2V13.7z"/>
	<path fill="#E52528" d="M68.4,15.1v11.9c0,0.8,0.1,1.3,0.4,1.5c0.3,0.2,1.2,0.3,2.7,0.4v0.9h-8.6v-0.9c1.2-0.1,1.9-0.2,2.1-0.4 c0.2-0.2,0.4-0.7,0.4-1.5V15.1h-2.5v-1.3h2.5v0.1c0-2.3,0.4-3.9,1.1-5c0.9-1.4,2.3-2.1,4.2-2.1c1.2,0,2.2,0.3,3,0.8 c0.7,0.5,1,1,1,1.6c0,0.5-0.2,0.8-0.5,1.1c-0.3,0.3-0.7,0.4-1.1,0.4c-0.4,0-0.7-0.2-0.9-0.6C71.4,8.7,70.7,8,69.8,8 c-1.1,0-1.7,1.1-1.6,3.4l0.1,2.4h4v1.3H68.4z"/>
	<path fill-rule="evenodd" clip-rule="evenodd" fill="#6D6E71" d="M91,19.4v5.2c0,0.9,0.1,1.6,0.2,2.1c0.6,1.7,1.8,2.5,3.6,2.5 c3.1,0,4.7-2.5,4.7-7.4c0-2.5-0.5-4.3-1.6-5.4c-0.7-0.7-1.6-1.1-2.6-1.1c-1,0-1.9,0.3-2.7,0.8c-0.9,0.5-1.4,1.3-1.5,2.3 C91,18.5,91,18.9,91,19.4z M88.5,30.3L87.9,30V9.5c0-0.5-0.1-0.9-0.2-1.1C87.6,8.1,87.3,8,86.9,8l-1.2-0.1V7L91,7v8.8 c0.8-0.5,1.6-1,2.3-1.4c1.2-0.6,2.3-0.9,3.3-0.9c2.5,0,4.3,1.1,5.4,3.3c0.6,1.3,0.9,2.9,0.9,4.8c0,5.8-2.7,8.8-8.1,8.8 c-1.8,0-3.5-0.4-5-1.3L88.5,30.3z"/>
	<path fill-rule="evenodd" clip-rule="evenodd" fill="#6D6E71" d="M118,17.8v7.9c0,1.7,0.4,2.6,1.1,2.8c0.5,0.1,1,0.1,1.7,0l0.2,0.8 c-1.3,0.7-2.6,1-3.9,1c-0.9,0-1.6-0.7-2.1-2c-0.9,0.6-1.6,1-2.1,1.2c-1,0.5-1.9,0.7-2.8,0.7c-1.5,0-2.6-0.4-3.5-1.4 c-0.8-0.9-1.2-2-1.2-3.3c0-2,1-3.3,3-3.9c1.3-0.4,2.6-0.8,4-1.2c1.4-0.5,2.3-0.9,2.6-1.3v-1.4c0-2.2-0.9-3.3-2.8-3.3 c-1.6,0-2.7,1.1-3.4,3.2c-0.2,0.6-0.5,0.9-1,0.9c-0.4,0-0.8-0.1-1.1-0.4c-0.5-0.3-0.7-0.7-0.7-1.1c0-0.9,0.7-1.8,2-2.6 c1.3-0.8,2.9-1.2,4.6-1.2c2.2,0,3.7,0.5,4.5,1.5C117.7,15.6,118,16.5,118,17.8z M115,25.2v-4.6c-0.4,0.3-1.7,0.8-3.8,1.6 c-0.9,0.3-1.6,0.8-2,1.2c-0.4,0.4-0.6,1-0.6,1.8c0,1,0.2,1.8,0.8,2.5c0.5,0.6,1.3,0.9,2.3,0.9c0.8,0,1.5-0.2,2.1-0.7 C114.7,27.3,115,26.4,115,25.2z"/>
	<path fill="#6D6E71" d="M138.4,18.6V27c0,0.8,0.1,1.3,0.3,1.5c0.2,0.2,0.9,0.3,2.1,0.4v0.9h-8v-0.9c1.2-0.1,1.9-0.2,2.1-0.4 c0.2-0.2,0.4-0.7,0.4-1.5v-7.7c0-2.7-1.1-4.1-3.4-4.1c-0.8,0-1.6,0.2-2.3,0.7c-0.7,0.4-1.2,1-1.6,1.7c-0.2,0.4-0.3,1-0.3,1.8V27 c0,0.8,0.1,1.3,0.3,1.5c0.2,0.2,0.9,0.3,2.1,0.4v0.9h-8v-0.9c1.2-0.1,1.9-0.2,2.1-0.4c0.2-0.2,0.4-0.7,0.4-1.5V16.7 c0-0.5-0.1-0.9-0.2-1.1c-0.1-0.2-0.4-0.3-0.9-0.4l-1.2-0.2v-0.8l4.9-0.8l0.5,2.5c1.5-1,2.4-1.5,2.9-1.7c1-0.5,2-0.8,3.1-0.8 c1.5,0,2.7,0.5,3.5,1.4C138,15.7,138.4,17,138.4,18.6z"/>
	<path fill="#6D6E71" d="M144.2,27V9.5c0-0.5-0.1-0.9-0.2-1.1c-0.1-0.2-0.4-0.3-0.9-0.4l-1.2-0.1V7l5.4,0v14.1h0.1 c0.9-1.3,2.5-3.4,4.9-6.3c0.3-0.4,0.6-0.7,0.9-0.8c0.3-0.1,0.7-0.2,1.2-0.2h3.4v0.9c-1.5,0.2-2.8,0.6-3.9,1.4 c-1.1,0.8-2.3,2-3.7,3.5c-0.2,0.3-0.3,0.5-0.1,0.8c1.7,2.4,3.7,4.7,5.8,6.9c0.9,0.9,1.9,1.5,2.8,1.8V30l-2.5-0.1 c-1.3,0-2.5-0.6-3.5-1.7c-2.1-2.1-3.9-4.4-5.4-6.7h-0.1V27c0,0.8,0.1,1.3,0.3,1.5c0.2,0.2,0.9,0.3,2.1,0.4v1h-8v-1 c1.2-0.1,1.9-0.2,2.1-0.4C144.1,28.4,144.2,27.9,144.2,27z"/>
	<path fill="#E52528" d="M57.1,7.4c0.6,0,1.1,0.2,1.4,0.6c0.4,0.4,0.6,0.9,0.6,1.4c0,0.6-0.2,1.1-0.6,1.4c-0.4,0.3-0.9,0.5-1.4,0.5 c-0.6,0-1.1-0.2-1.4-0.6c-0.4-0.4-0.6-0.8-0.6-1.4c0-0.6,0.2-1.1,0.6-1.4C56.1,7.6,56.5,7.4,57.1,7.4z"/>
	<path fill-rule="evenodd" clip-rule="evenodd" fill="#E52528" d="M21,17.8v7.9c0,1.7,0.4,2.6,1.1,2.8c0.5,0.1,1,0.1,1.7,0l0.2,0.8 c-1.3,0.7-2.6,1-3.9,1c-0.9,0-1.6-0.7-2.1-2c-0.9,0.6-1.6,1-2.1,1.2c-1,0.5-1.9,0.7-2.8,0.7c-1.5,0-2.6-0.4-3.5-1.4 c-0.8-0.9-1.2-2-1.2-3.3c0-2,1-3.3,3-3.9c1.3-0.4,2.6-0.8,4-1.2c1.4-0.5,2.3-0.9,2.6-1.3v-1.4c0-2.2-0.9-3.3-2.8-3.3 c-1.6,0-2.7,1.1-3.4,3.2c-0.2,0.6-0.5,0.9-1,0.9c-0.4,0-0.8-0.1-1.1-0.4C9.2,18,9,17.7,9,17.2c0-0.9,0.7-1.8,2-2.6 c1.3-0.8,2.9-1.2,4.6-1.2c2.2,0,3.7,0.5,4.5,1.5C20.7,15.6,21,16.5,21,17.8z M18,25.2v-4.6c-0.4,0.3-1.7,0.8-3.8,1.6 c-0.9,0.3-1.6,0.8-2,1.2c-0.4,0.4-0.6,1-0.6,1.8c0,1,0.3,1.8,0.8,2.5c0.5,0.6,1.3,0.9,2.3,0.9c0.8,0,1.5-0.2,2.1-0.7 C17.6,27.3,18,26.4,18,25.2z"/>
	<path fill="#E52528" d="M82.3,14.7c0.3,1.4,0.5,2.8,0.5,4.3c0,10.9-8.9,19.8-19.8,19.8c-3.8,0-7.3-1.1-10.3-2.9 c1.8,0.4,3.6,0.6,5.5,0.6C70.7,36.4,81.1,26.9,82.3,14.7z"/>
	<path fill="#E52528" d="M0.8,24.7c-0.3-1.4-0.5-2.8-0.5-4.3C0.3,9.5,9.2,0.7,20.1,0.7c3.8,0,7.3,1.1,10.3,2.9 C28.6,3.2,26.8,3,24.9,3C12.4,3,2,12.5,0.8,24.7z"/>
</svg>
