<svg xmlns="http://www.w3.org/2000/svg" viewBox="0 0 805.28 241.01">
	<path fill="#696a6d" d="M392.29,188.08V170.23a47.12,47.12,0,0,0-11.22-1.83c-22.43,0-36.05,9.18-36.05,33v59.76h23.39v-60.4h0c.28-9.72,6.49-14.4,14.16-14.4a36.61,36.61,0,0,1,9.69,1.75" transform="translate(-19.59 -20.12)"/>
	<path fill="#696a6d" d="M202.69,206.71H187V241.6h14.75c15.51,0,23.21-6.89,23.21-18.4,0-9.78-8.06-16.49-22.26-16.49m-4.39-52.32H187v33h13.8a16.62,16.62,0,0,0,16.46-16.67c0-9.59-6.12-16.3-18.95-16.3m5.56,106.74H163.8V135.37H204c24.73,0,36.41,15.83,36.41,31.13,0,10.93-5.35,20.86-15.7,26v.17a30.92,30.92,0,0,1,23.93,30.49c0,18-13,37.93-44.82,37.93" transform="translate(-19.59 -20.12)"/>
	<path fill="#696a6d" d="M151.9,261c-1.58.09-3.17.11-4.79.11-22.41,0-36-9.18-36-32.93V135.29h23.36v93.53h0c.3,10.43,7.82,14.7,17.19,14.7l.2,0Z" transform="translate(-19.59 -20.12)"/>
	<polygon fill="#696a6d" points="457.73 115.35 481.09 115.35 481.09 186.19 515.72 148.41 543.54 148.41 511.11 183.23 546.14 241 518.71 241 494.81 200.95 481.09 215.66 481.09 241 457.73 241 457.73 115.35"/>
	<path fill="#696a6d" d="M617,237.25c-3.06,2.67-8.21,5.64-16.16,5.64-9.59,0-14.76-5.17-14.76-12.6,0-7.69,6-11.66,18-12.28,3.9-.22,12.91-.39,12.91-.39Zm0-35.54-16,.59c-23.17.77-37.93,10.92-37.93,29.69,0,17.85,13.06,29.14,29.7,29.14a37.34,37.34,0,0,0,26.24-10l3.86,8.08h19.33c-1.33-4.2-1.83-10.93-1.83-24V199.41c0-23.77-13.6-33-36-33a108,108,0,0,0-23.12,2.5v17.54s7.09-3.41,18.14-2.5c8.71.69,17.35,5.11,17.59,14.83Z" transform="translate(-19.59 -20.12)"/>
	<path fill="#696a6d" d="M440.06,237.25c-3.06,2.67-8.21,5.64-16.17,5.64-9.58,0-14.75-5.12-14.75-12.6,0-7.69,6-11.66,18-12.26,3.9-.22,12.91-.41,12.91-.41Zm0-35.54-16,.61c-23.17.75-37.94,10.9-37.94,29.69,0,17.83,13.05,29.12,29.72,29.12a37.56,37.56,0,0,0,26.25-10l3.82,8.08h19.37c-1.36-4.22-1.85-11-1.85-24V199.43c0-23.77-13.62-33-36-33A106.81,106.81,0,0,0,404.28,169v17.52s7.09-3.41,18.14-2.5c8.69.71,17.33,5.11,17.61,14.83Z" transform="translate(-19.59 -20.12)"/>
	<path fill="#696a6d" d="M307.61,237.29c-3.07,2.65-8.21,5.6-16.16,5.6-9.59,0-14.76-5.12-14.76-12.6,0-7.67,6-11.64,18-12.26,3.9-.22,12.92-.39,12.92-.39Zm0-35.55-16,.58c-23.19.75-37.94,10.9-37.94,29.69,0,17.83,13.05,29.12,29.71,29.12a37.54,37.54,0,0,0,26.25-10l3.83,8.08h19.35c-1.36-4.22-1.84-11-1.84-24V199.45c0-23.79-13.61-33-36-33a108.38,108.38,0,0,0-23.12,2.5V186.5s7.11-3.4,18.16-2.52c8.69.71,17.33,5.11,17.6,14.83Z" transform="translate(-19.59 -20.12)"/>
	<path fill="#696a6d" d="M73.52,237.29c-3.08,2.65-8.23,5.6-16.17,5.6-9.59,0-14.77-5.12-14.77-12.6,0-7.67,6-11.64,18-12.26,3.89-.22,12.92-.39,12.92-.39Zm0-35.55-16,.58c-23.18.75-37.92,10.9-37.92,29.69,0,17.83,13.05,29.12,29.7,29.12a37.59,37.59,0,0,0,26.26-10l3.83,8.08H98.73c-1.35-4.22-1.85-11-1.85-24V199.45c0-23.79-13.61-33-36-33A108.29,108.29,0,0,0,37.73,169V186.5s7.09-3.4,18.15-2.52c8.68.71,17.33,5.11,17.6,14.83Z" transform="translate(-19.59 -20.12)"/>
	<path fill="#e31837" d="M815.31,170.15l-30.92-50.08v82.42c.06,8.49-6.75,18.34-18.21,18.38-9.61.07-18.43-7.63-18.51-19,0-2.33,1.21-5.69,1.89-7.78l29-83.44L765.45,89.38l-49.2,82.56h0a57.77,57.77,0,0,0-8.68,31.48c.15,30.66,26.33,57.88,58.81,57.7s58.63-27.81,58.46-58.33a59.19,59.19,0,0,0-9.55-32.64" transform="translate(-19.59 -20.12)"/>
	<path fill="#f78e1e" d="M641.09,111.1,672,161.18V78.77c-.07-8.5,6.76-18.33,18.21-18.39,9.61-.05,18.42,7.62,18.49,19,0,2.31-1.19,5.68-1.9,7.77l-29,83.42,13.12,21.25,49.24-82.55,0,0a59,59,0,0,0,8.74-31.68C748.7,47,722.44,20,690,20.12S631.35,48,631.5,78.44a58.79,58.79,0,0,0,9.59,32.66" transform="translate(-19.59 -20.12)"/>
</svg>