<svg xmlns="http://www.w3.org/2000/svg" viewBox="0 0 399.6 102.1">
	<path fill="#79003C" d="M380,3.6c-3.3-1.4-6.8-2.2-10.6-2.2c-14.9,0-26.9,12.1-26.9,26.9s12.1,26.9,26.9,26.9 c3.7,0,7.3-0.8,10.6-2.2c-13.1-0.6-23.5-11.5-23.5-24.7S366.9,4.2,380,3.6"/>
	<path fill="#79003C" d="M337.7,26c-3.3-1.4-6.8-2.2-10.6-2.2c-14.9,0-26.9,12.1-26.9,26.9 c0,14.9,12.1,26.9,26.9,26.9c3.7,0,7.3-0.8,10.6-2.2c-13.1-0.6-23.5-11.5-23.5-24.7S324.6,26.8,337.7,26"/>
	<path fill="#79003C" d="M361.5,26c3.3-1.4,6.8-2.2,10.6-2.2C387,23.8,399,36,399,50.7 c0,14.9-12.1,26.9-26.9,26.9c-3.7,0-7.3-0.8-10.6-2.2C374.6,74.9,385,64,385,50.7S374.6,26.8,361.5,26"/>
	<path fill="#79003C" d="M319.2,48.6c3.3-1.4,6.8-2.2,10.6-2.2c14.9,0,26.9,12.1,26.9,26.9 c0,14.9-12.1,26.9-26.9,26.9c-3.7,0-7.3-0.8-10.6-2.2c13.1-0.8,23.5-11.5,23.5-24.7S332.2,49.2,319.2,48.6"/>
	<rect x="284.3" y="1.4" fill="#79003C" width="4.4" height="99.5"/>
	<path fill="#79003C" d="M96.9,28.6c0.8-3.6,3.3-5.3,6.2-5.3c3,0,5.3,2,5.9,5.3H96.9z M117.6,31.3 c0-10.4-7-15.4-14.3-15.4c-8.2,0-15.7,6.4-15.7,16.3c0,9.7,7.2,16,17,16c3.9,0,8.4-0.9,11.4-2.8v-7.9 c-3.1,2.2-6.8,3.4-10.1,3.4c-4.2,0-7.6-1.9-8.7-6.2h20.4C117.4,33.8,117.6,32.4,117.6,31.3L117.6,31.3z"/>
	<path fill="#79003C" d="M76.4,6.9L67,8.6v8.1h-4.5v7.9H67V36c0,5,1.1,7.5,2.6,9.2c1.9,2,4.8,3.1,7.8,3.1 c2.6,0,5.3-0.8,6.7-1.7v-7.6c-1.2,0.6-3,1.2-4.5,1.2c-2.8,0-3.4-2.3-3.4-5.3V24.4h7.9v-7.9h-7.8V6.9z"/>
	<path fill="#79003C" d="M18.8,1.4L0.6,47.6h25.8l3.7-9.5H14.3l9.3-24c0,0,11.5,29.4,13.1,33.5h10.1L28.7,1.4 H18.8z"/>
	<rect x="50.1" y="1.4" fill="#79003C" width="9.3" height="46.2"/>
	<path fill="#79003C" d="M266.2,9.3c1.1,0,2.8,0.3,4,0.6V2.2c-1.7-0.6-3.4-0.9-5.1-0.9c-3,0-6.4,0.8-8.4,3 c-2.3,2.3-3.1,5.9-3.1,10.3v2h-4.2v7.9h4.2v23h9.3V24.6h7.5v-7.9H263v-2.8C262.8,11.2,263.4,9.3,266.2,9.3"/>
	<path fill="#79003C" d="M241.3,1.6c-3,0-5.3,2.5-5.3,5.4s2.5,5.4,5.3,5.4c3,0,5.3-2.5,5.3-5.4 C246.6,3.9,244.3,1.6,241.3,1.6"/>
	<rect x="236.7" y="16.7" fill="#79003C" width="9.3" height="31"/>
	<path fill="#79003C" d="M199.2,38.9c-1.4,0.9-3.3,1.6-5.1,1.6c-4.7,0-7.3-3.6-7.3-8.2s2.6-8.4,7.5-8.4 c1.9,0,3.6,0.6,4.8,1.2v13.9H199.2z M201.5,17.9c-2.3-1.2-5.1-2-7.8-2c-9,0-16,7-16,16.8c0,9.5,6.5,15.6,14.2,15.6 c3,0,5.8-0.9,7.6-2.5h0.2v1.7h9V16.7L201.5,17.9z"/>
	<path fill="#79003C" d="M225.5,6.9l-9.3,1.7v8.1h-4.4v7.9h4.5V36c0,5,1.1,7.5,2.6,9.2c1.9,2,4.8,3.1,7.8,3.1 c2.6,0,5.3-0.8,6.7-1.7v-7.6c-1.2,0.6-3,1.2-4.5,1.2c-2.8,0-3.4-2.3-3.4-5.3V24.4h7.9v-7.9h-7.9V6.9z"/>
	<path fill="#79003C" d="M172.2,20.1c-0.8-1.2-1.9-2.3-3.4-3.1c-1.4-0.8-3.3-1.1-5.8-1.1c-1.1,0-2,0.2-3.1,0.5 c-0.9,0.3-2.2,0.8-3.6,1.6c-1.1,0.8-1.9,1.6-2.2,2.2l0,0v-3.4l-8.9,1.9v29.1h9.3V29.7c0-1.7,0.6-3.6,2.6-4.8 c0.8-0.5,1.7-0.6,3-0.6c1.2,0,2.2,0.3,2.8,0.8c0.6,0.5,1.1,1.2,1.4,2s0.5,1.7,0.6,2.6c0,0.9,0.2,1.9,0.2,2.8v15.1h9.3V30.5 c0-2-0.2-4-0.5-5.8C173.5,22.9,173,21.3,172.2,20.1"/>
	<path fill="#79003C" d="M138.9,15.9c-2,0-3.4,0.3-4.8,0.8c-1.4,0.6-2.8,1.4-3.9,3.3h-0.2v-3.3l-9.3,1.9v29.1 h9.3V30.4c0-1.6,1.1-4,3.7-5.3c1.1-0.5,2.5-0.8,4.2-0.8c0.6,0,1.4,0,2,0.2c0.6,0.2,1.2,0.3,1.9,0.5v-8.7 c-0.5-0.2-0.9-0.2-1.6-0.3C140,15.9,139.4,15.9,138.9,15.9"/>
	<path fill="#79003C" d="M190.8,91.4c-1.4,0.9-3.3,1.6-5.1,1.6c-4.7,0-7.3-3.6-7.3-8.2c0-4.7,2.6-8.4,7.5-8.4 c1.9,0,3.6,0.6,4.8,1.2v13.9H190.8z M193,70.4c-2.3-1.2-5.1-2-7.8-2c-9,0-16,7-16,16.8c0,9.5,6.5,15.6,14.2,15.6 c3,0,5.8-0.9,7.6-2.5h0.2v1.9h9v-31L193,70.4z"/>
	<path fill="#79003C" d="M132,53.9h14.4c6.6,0,11.3,0.9,14.3,2.8s4.4,4.8,4.4,8.9c0,2.8-0.6,5-1.9,6.8c-1.3,1.8-3,2.8-5.2,3.2v0.3 c2.9,0.7,5,1.9,6.3,3.7c1.3,1.8,1.9,4.2,1.9,7.1c0,4.2-1.5,7.5-4.6,9.9s-7.2,3.5-12.4,3.5H132V53.9z M141.8,72.2h5.7 c2.7,0,4.6-0.4,5.8-1.2c1.2-0.8,1.8-2.2,1.8-4.1c0-1.8-0.6-3-1.9-3.8c-1.3-0.8-3.3-1.2-6.1-1.2h-5.2V72.2z M141.8,79.9v12h6.4 c2.7,0,4.7-0.5,6-1.5s1.9-2.6,1.9-4.7c0-3.8-2.7-5.8-8.2-5.8H141.8z"/>
	<polygon fill="#79003C" points="255.8,80.7 269.4,65.9 258.9,65.9 249.3,76.3 245.6,81 245.6,52.5 236.2,54.2 236.2,100.1 245.6,100.1 245.6,89.4 249.6,86.2 259.4,100.1 270.2,100.1"/>
	<path fill="#79003C" d="M230.6,72.5c-0.8-1.2-1.9-2.3-3.4-3.1c-1.4-0.8-3.3-1.1-5.8-1.1c-1.1,0-2,0.2-3.1,0.5 c-0.9,0.3-2.2,0.8-3.6,1.6c-1.1,0.8-1.9,1.6-2.2,2.2l0,0v-3.4l-8.9,1.9v29.1h9.3V82.2c0-1.7,0.6-3.6,2.6-4.8 c0.8-0.5,1.7-0.6,3-0.6s2.2,0.3,2.8,0.8c0.6,0.5,1.1,1.2,1.4,2c0.3,0.8,0.5,1.7,0.6,2.6c0,0.9,0.2,1.9,0.2,2.8v15.1h9.3V83 c0-2-0.2-4-0.5-5.8C231.8,75.3,231.4,73.8,230.6,72.5"/>
</svg>
