<svg xmlns="http://www.w3.org/2000/svg" viewBox="0 0 163.8 23.3">
  <path fill-rule="evenodd" clip-rule="evenodd" fill="#0F7AD2" d="M30,23h-4.6c-3.4,0-6.2-2.8-6.2-6.2V6.1c0,0,10.8,0,10.8,0 c3.4,0,6.2,2.8,6.2,6.2v4.6C36.2,20.2,33.4,23,30,23z"/>
  <path fill-rule="evenodd" clip-rule="evenodd" fill="#231F20" d="M6.5,0.3h4.6c3.4,0,6.2,2.8,6.2,6.2v10.8l-10.8,0 c-3.4,0-6.2-2.8-6.2-6.2V6.5C0.3,3.1,3.1,0.3,6.5,0.3z"/>
  <path fill="#231F20" d="M51.8,19.2l-0.9-2.7h-5.4l-0.9,2.7h-3.1l5.5-15.1h2.3l5.5,15.1H51.8z M48.3,8.6l-1.9,5.5h3.8L48.3,8.6z"/>
  <path fill="#231F20" d="M63,19.2v-6.7c0-1.2-0.7-2-1.8-2c-1.2,0-1.8,0.8-1.8,2v6.7h-2.8V8.2h2.7v1C60,8.4,60.9,8,62,8 c1.2,0,2.1,0.4,2.8,1.2c0.6,0.7,0.9,1.7,0.9,3v7.1H63z"/>
  <path fill="#231F20" d="M74.1,19.2v-1c-0.7,0.7-1.6,1.1-2.7,1.1c-1.1,0-2-0.3-2.7-0.9c-0.7-0.6-1-1.5-1-2.6c0-1.1,0.4-1.9,1.1-2.4 c0.7-0.5,1.6-0.8,2.7-0.8H74v-0.6c0-1.2-0.7-1.7-2.1-1.7c-0.9,0-1.6,0.3-2.1,0.9l-1.8-1.7c0.5-0.6,1.1-1,1.8-1.2 C70.4,8.1,71.2,8,72,8c3.1,0,4.7,1.3,4.7,3.9v7.3H74.1z M74,14.6h-2.2c-1,0-1.6,0.4-1.6,1.3c0,0.9,0.5,1.3,1.6,1.3 c1,0,1.6-0.2,1.9-0.7c0.2-0.3,0.3-0.7,0.3-1.2V14.6z"/>
  <path fill="#231F20" d="M85.6,19.2v-1c-0.7,0.8-1.6,1.2-2.7,1.2c-2.1,0-3.3-1-3.7-3.1C79,15.7,79,14.8,79,13.7c0-1.1,0-2,0.1-2.5 C79.5,9.1,80.7,8,82.8,8c1.1,0,2,0.4,2.7,1.1v-5h2.8v15.1H85.6z M85.3,11.6c-0.3-0.7-0.8-1.1-1.6-1.1c-0.8,0-1.4,0.4-1.6,1.1 c-0.1,0.4-0.2,1.1-0.2,2.1c0,1,0.1,1.7,0.2,2.1c0.3,0.7,0.8,1.1,1.6,1.1c0.8,0,1.4-0.4,1.6-1.1c0.2-0.4,0.3-1.1,0.3-2.1 C85.5,12.7,85.4,12,85.3,11.6z"/>
  <path fill="#231F20" d="M98.2,18c-0.9,0.9-2,1.4-3.4,1.4c-1.4,0-2.6-0.4-3.4-1.4c-0.8-0.9-1.3-2.3-1.3-4.3c0-3.8,1.6-5.7,4.7-5.7 c3.1,0,4.7,1.9,4.7,5.7C99.5,15.7,99.1,17.1,98.2,18z M96.4,11.6c-0.3-0.7-0.8-1-1.6-1c-0.8,0-1.3,0.4-1.6,1.1 c-0.2,0.5-0.3,1.2-0.3,2.1c0,1,0.1,1.7,0.3,2.1c0.3,0.7,0.9,1.1,1.6,1.1c0.8,0,1.4-0.4,1.6-1.1c0.2-0.4,0.3-1.2,0.3-2.1 C96.7,12.7,96.6,12,96.4,11.6z"/>
  <path fill="#231F20" d="M104.4,19.2c-1.9,0-3.2-1.2-3.2-3.2v-12h2.8v11.8c0,0.7,0.3,1,1,1h1.1v2.3H104.4z"/>
  <path fill="#231F20" d="M113.7,19.2v-1c-0.7,0.8-1.6,1.1-2.8,1.1c-1.2,0-2.1-0.4-2.8-1.2c-0.6-0.7-0.9-1.7-0.9-3V8.2h2.8v6.7 c0,1.2,0.7,2,1.8,2c1.2,0,1.8-0.8,1.8-2V8.2h2.8v11.1H113.7z"/>
  <path fill="#231F20" d="M128.2,16.3c-0.4,2.1-1.6,3.1-3.7,3.1c-1.1,0-2.1-0.4-2.8-1.2v1h-2.7V4.1h2.8v5c0.7-0.7,1.6-1.1,2.7-1.1 c2.1,0,3.3,1,3.7,3.1c0.1,0.6,0.1,1.4,0.1,2.5C128.4,14.8,128.3,15.7,128.2,16.3z M125.4,11.6c-0.3-0.7-0.8-1.1-1.6-1.1 c-0.8,0-1.4,0.4-1.6,1.1c-0.1,0.4-0.2,1.1-0.2,2.1c0,1,0.1,1.7,0.2,2.1c0.3,0.7,0.8,1.1,1.6,1.1c0.8,0,1.4-0.4,1.6-1.1 c0.1-0.4,0.2-1.1,0.2-2.1C125.6,12.7,125.5,12,125.4,11.6z"/>
  <path fill="#231F20" d="M136.5,19.2v-1c-0.7,0.7-1.6,1.1-2.7,1.1c-1.1,0-2-0.3-2.7-0.9c-0.7-0.6-1-1.5-1-2.6 c0-1.1,0.4-1.9,1.1-2.4c0.7-0.5,1.6-0.8,2.7-0.8h2.6v-0.6c0-1.2-0.7-1.7-2.1-1.7c-0.9,0-1.6,0.3-2.1,0.9l-1.8-1.7 c0.5-0.6,1.1-1,1.8-1.2c0.6-0.2,1.3-0.3,2.2-0.3c3.1,0,4.7,1.3,4.7,3.9v7.3H136.5z M136.4,14.6h-2.2c-1,0-1.6,0.4-1.6,1.3 c0,0.9,0.5,1.3,1.6,1.3c1,0,1.6-0.2,1.9-0.7c0.2-0.3,0.3-0.7,0.3-1.2V14.6z"/>
  <path fill="#231F20" d="M148.2,19.2v-6.7c0-1.2-0.7-2-1.8-2c-1.2,0-1.9,0.8-1.9,2v6.7h-2.8V8.2h2.7v1c0.7-0.8,1.6-1.1,2.8-1.1 c1.2,0,2.1,0.4,2.8,1.2c0.6,0.7,0.9,1.7,0.9,3v7.1H148.2z"/>
  <path fill="#231F20" d="M160.2,19.2l-2.7-4.6l-1.2,1.3v3.3h-2.8V4.1h2.8v8.6l3.7-4.5h3.3l-4,4.5l4.3,6.6H160.2z"/>
</svg>
