<svg xmlns="http://www.w3.org/2000/svg" viewBox="0 0 231.6 77.6">
  <path fill="#0099D8" d="M57.8,1.9l13.7,15.4c0.2,0.2,0.8,0.9,0.8,0.9c5.9,7.3-1,24.3-15.5,39.5C41.9,73.3,24.9,81.4,17.1,74.7 L0.6,61.5c3.2,2,8.7,1,15.3-2.4c0.1-0.1,0.3-0.1,0.4-0.2c0.1,0,0.2-0.1,0.2-0.1C23.4,55.2,31.4,49,39,41.1 c7.6-7.9,13.4-16.2,16.8-23.3c0-0.1,0.1-0.2,0.1-0.3c0.1-0.1,0.1-0.3,0.2-0.4C59.1,10.5,59.9,5,57.8,1.9"/>
  <path fill="#F79239" d="M59.7,63.3c-3.8,4-4.9,9.1-2.4,11.5c2.5,2.4,7.6,1.1,11.4-2.9c3.8-4,4.9-9.1,2.4-11.5 C68.6,58,63.5,59.3,59.7,63.3z"/>
  <path fill="#0070AF" d="M53.7,2C48-3.5,31,5.3,15.5,21.5c-1.1,1.2-2.2,2.5-3.3,3.9l14,12.9c1.1-1.3,2-2.3,3.3-3.6 c7.5-7.8,15.3-13.9,22.5-16.4C55.5,10.8,56.6,4.8,53.7,2"/>
  <path fill-rule="evenodd" clip-rule="evenodd" fill="#0070AF" d="M111.9,19.6h4.9V32c0,0-0.5,3.3,4.7,3.3 c1.7,0,5.7,0.6,5.7-4.5c0-1.5,0-11.2,0-11.2h4.9v12.3c0,0,0.6,6.7-10.6,6.7c-1.9,0-9.6-0.5-9.6-6.3 C111.9,26.4,111.9,19.6,111.9,19.6z"/>
  <path fill-rule="evenodd" clip-rule="evenodd" fill="#0070AF" d="M181.8,19.6V23h-10.2c0,0-5.6-0.3-5.6,5.1 c0,0.9-0.7,6.7,4.9,6.7h5.9v-4.3h-6.4v-3.4h11.5v11.4h-10.2c0,0-11.4,0.8-11.4-9.8c0-2.5,1.4-9.1,9.1-9.1 C176.8,19.6,181.8,19.6,181.8,19.6z"/>
  <path fill-rule="evenodd" clip-rule="evenodd" fill="#0070AF" d="M152.4,30.6c4.1-0.8,4.6-4.1,4.6-5.4c0-5.8-7.4-5.6-7.4-5.6 h-12.8v18.9h4.9v-7.4l5.7,0l5.3,7.4h5.6L152.4,30.6z M148.6,27.6h-6.9V23c0,0,4.4,0,6.9,0c2.5,0,3.4,1.1,3.4,2.2 C152,27.8,148.6,27.6,148.6,27.6z"/>
  <path fill-rule="evenodd" clip-rule="evenodd" fill="#0070AF" d="M198.9,19.6h-5.3l-9.8,18.9h5.4l2.1-4.5h10l2.1,4.5h5.5 L198.9,19.6z M193,30.5l3.3-6.9l3.3,6.9H193z"/>
  <path fill-rule="evenodd" clip-rule="evenodd" fill="#0070AF" d="M210.7,19.6h6.3l9.3,13.2V19.6h4.7v18.9h-5.3l-10.1-13.8v13.8 h-4.9L210.7,19.6z"/>
  <path fill-rule="evenodd" clip-rule="evenodd" fill="#0070AF" d="M103.7,28.9c0,0,3.4-0.9,3.4-4.4c0-3.5-3.6-4.9-6.6-4.9 c-3.1,0-14.1,0-14.1,0v18.9h13.1c0,0,7.6,0.4,7.6-5C107,31,105.9,29.8,103.7,28.9z M98.7,27.1h-7.5V23c0,0,5.9,0,7.6,0 c1.7,0,2.8,0.9,2.8,1.9C101.6,27.3,98.7,27.1,98.7,27.1z M98.7,34.8h-7.5v-4.1c0,0,5.9,0,7.6,0c1.7,0,2.8,0.9,2.8,1.9 C101.6,35,98.7,34.8,98.7,34.8z"/>
  <path fill-rule="evenodd" clip-rule="evenodd" fill="#0070AF" d="M159,43.7l0,18.9h4.9v-9.3l9,9.3h6.3l-9.6-9.9l9.1-9h-5.9 l-8.9,8.7v-8.7H159z"/>
  <path fill-rule="evenodd" clip-rule="evenodd" fill="#0070AF" d="M122.1,43.7h-5.3l-9.8,18.9h5.4l2.1-4.5h10l2.1,4.5h5.5 L122.1,43.7z M116.2,54.6l3.3-6.9l3.3,6.9H116.2z"/>
  <path fill-rule="evenodd" clip-rule="evenodd" fill="#0070AF" d="M133.9,43.7h6.3l9.3,13.2V43.7h4.7v18.9H149l-10.1-13.8v13.8 h-4.9L133.9,43.7z"/>
  <path fill-rule="evenodd" clip-rule="evenodd" fill="#0070AF" d="M103.7,53c0,0,3.4-0.9,3.4-4.4c0-3.5-3.6-4.9-6.6-4.9 c-3.1,0-14.1,0-14.1,0v18.9h13.1c0,0,7.6,0.4,7.6-5C107,55.1,105.9,53.9,103.7,53z M98.8,51.2h-7.5v-4.1c0,0,5.9,0,7.6,0 c1.7,0,2.8,0.9,2.8,1.9C101.6,51.4,98.8,51.2,98.8,51.2z M98.8,58.9h-7.5v-4.1c0,0,5.9,0,7.6,0c1.7,0,2.8,0.9,2.8,1.9 C101.6,59.1,98.8,58.9,98.8,58.9z"/>
</svg>
