<svg xmlns="http://www.w3.org/2000/svg" viewBox="0 0 187.1 48.5">
	<path fill-rule="evenodd" clip-rule="evenodd" fill="#342D76" d="M101,21.2c-2-2.4-4.6-3.7-7.9-3.7c-2.5,0-5.1,1.2-7.5,3.5V6.5 l-5.5,3v38.3h5.5V45c2,2.3,4.4,3.5,7.3,3.5c3.2,0,5.9-1.3,7.9-3.7c2.3-2.8,3.5-6.6,3.5-11.4C104.3,28,103.1,24,101,21.2L101,21.2z M85.5,26.7c2-2.6,4.2-3.8,6.5-3.8c4.4,0,6.5,3.6,6.5,10.8c0,6.2-2,9.4-6.3,9.4c-2.5,0-4.7-1.3-6.8-3.9V26.7L85.5,26.7z"/>
	<path fill-rule="evenodd" clip-rule="evenodd" fill="#342D76" d="M111.1,24.5c2.1-1.3,4.6-1.9,7.5-1.9c3.6,0,5.5,1.7,5.5,5.1v2.2 c-1.6-0.7-3.8-1.1-6.4-1.1c-3.5,0-6.2,0.8-8.2,2.4c-2.2,1.7-3.3,4.1-3.3,7.3c0,3.4,1.1,6,3.3,7.8c1.8,1.5,4,2.3,6.7,2.3 c3,0,5.6-1.2,7.9-3.6v2.9h5.5V27.4c0-3.3-1-5.7-3-7.5c-1.9-1.6-4.5-2.4-7.8-2.4c-3.8,0-7.1,0.9-9.9,2.7L111.1,24.5L111.1,24.5z M124.1,35.1v4.2c-1.8,2.5-4.2,3.8-7,3.8c-3.7,0-5.5-1.6-5.5-5c0-2.9,2-4.4,6-4.4C120.1,33.8,122.3,34.3,124.1,35.1L124.1,35.1z"/>
	<path fill-rule="evenodd" clip-rule="evenodd" fill="#342D76" d="M141.2,18h-5.6v29.8h5.6V30.4c0-5.1,2-7.6,5.9-7.6 c4,0,6,2.7,6,8.2v16.9h5.7V30.7c0-8.9-3.5-13.3-10.4-13.3c-3.3,0-5.7,1.2-7.2,3.5V18L141.2,18z"/>
	<polygon fill-rule="evenodd" clip-rule="evenodd" fill="#342D76" points="179.3,18 173.4,26.7 170.1,31.6 170.2,6.5 164.6,9.6 164.6,47.9 170.2,47.9 170.2,39 174.6,33 181,47.9 187.1,47.9 178.4,28 185.7,18 179.3,18"/>
	<polygon fill-rule="evenodd" clip-rule="evenodd" fill="#342D76" points="36.1,17.9 29.9,17.9 29.9,47.9 36.1,47.9 36.1,17.9"/>
	<path fill-rule="evenodd" clip-rule="evenodd" fill="#342D76" d="M41.7,17.9v5.6h5.2v16.9c0,2.3,0.7,4.2,1.9,5.7 c1.2,1.4,2.9,2.1,4.9,2.2c2.2,0.1,4.1-0.5,5.5-1.4h0.1l0.1-0.1l1.3-5.3l0.1-0.4l-0.3,0.2c-1.7,1.1-3.1,1.5-4.6,1.5 c-1.9,0-2.9-1.1-2.9-3.3v-16h6.3v-5.6h-6.3V8.6l-6,3.3h-0.1v6.1H41.7L41.7,17.9z"/>
	<polygon fill-rule="evenodd" clip-rule="evenodd" fill="#342D76" points="71.4,17.9 65.1,17.9 65.1,47.9 71.4,47.9 71.4,17.9"/>
	<path fill-rule="evenodd" clip-rule="evenodd" fill="#342D76" d="M15.7,17.4c-4.4,0-8.1,1.4-11,4.1C1.5,24.3,0,28.1,0,32.9 c0,4.7,1.5,8.6,4.7,11.5c2.9,2.7,6.6,4.1,11,4.1c4.2,0,7.7-1.7,10.6-5.1l0.1-0.1l-0.1-0.1l-3.3-4L22.9,39l-0.1,0.2 c-2.1,2.3-4.6,3.4-7.3,3.4c-2.7,0-4.9-0.9-6.7-2.8c-1.7-1.8-2.6-4.1-2.6-6.9c0-2.9,0.9-5.1,2.6-6.9c1.8-1.9,4-2.8,6.7-2.8 c2.8,0,5.2,1.1,7.3,3.4l0.1,0.2l0.2-0.2l3.3-4l0.1-0.1l-0.1-0.1C23.5,19.1,19.9,17.4,15.7,17.4L15.7,17.4z"/>
	<path fill-rule="evenodd" clip-rule="evenodd" fill="#E32021" d="M33,13c4.8-5.1,10.7-7.6,17.5-7.6c6.8,0,12.7,2.5,17.4,7.6 l0.2,0.1h7l-0.2-0.4c-2.8-3.9-6.4-7-10.8-9.3C59.8,1.1,55.4,0,50.5,0c-4.7,0-9.3,1.1-13.6,3.3c-4.3,2.3-8,5.4-10.8,9.3L25.9,13 L33,13L33,13L33,13z"/>
</svg>
