<svg xmlns="http://www.w3.org/2000/svg" viewBox="0 0 365 77.8">
  <path fill="#00529B" d="M0,19.3h10.8c7.5,0,13.1,2.2,17,6.5c3.9,4.3,5.8,10.6,5.8,18.9c0,6.3-1,11.3-2.9,15.2 c-1.9,3.9-4.6,6.6-8,8.4c-3.4,1.7-7.2,2.6-11.4,2.6H0V19.3z M11.5,30.3v29.6c3.5-0.3,6-1.6,7.4-3.8c1.4-2.2,2.2-5.8,2.2-10.9 c0-3-0.3-5.5-0.8-7.6c-0.5-2.1-1.3-3.7-2.3-4.8c-1-1.1-2-1.8-2.9-2.1C14.2,30.5,13,30.4,11.5,30.3z"/>
  <path fill="#00529B" d="M52.9,60h9.3c-1.8,8-6.2,12-13.3,12c-4.4,0-7.9-1.7-10.5-5.1c-2.6-3.4-3.9-8.1-3.9-14.2 c0-5.6,1.3-10.1,3.9-13.5c2.6-3.4,6-5.1,10.3-5.1c2.6,0,5.1,0.8,7.5,2.5c2.4,1.6,4.1,3.8,5.2,6.5c1.1,2.7,1.7,7,1.8,12.8H44.7 c0.2,5.3,1.6,7.9,4.3,7.9c0.9,0,1.8-0.3,2.5-1C52.3,62,52.8,61.1,52.9,60z M44.9,49.7h8c-0.1-2.5-0.4-4.3-1-5.5 c-0.6-1.2-1.6-1.8-2.9-1.8c-1.5,0-2.5,0.6-3.2,1.7C45.2,45.3,44.9,47.2,44.9,49.7z"/>
  <path fill="#00529B" d="M79.1,35.3v4.8h0.2c2.6-4,5.7-6,9.5-6c2.4,0,4.4,0.8,5.8,2.5c1.4,1.6,2.1,3.9,2.1,6.7v27.5 H85.6V49c0-1.2-0.3-2.2-0.8-3c-0.6-0.8-1.3-1.2-2.2-1.2c-2.4,0-3.5,1.5-3.5,4.5v21.5h-11V35.3H79.1z"/>
  <path fill="#00529B" d="M101.7,24.7c0-1.6,0.6-3,1.7-4.2c1.1-1.2,2.5-1.7,4.1-1.7c1.6,0,3,0.6,4.1,1.7 c1.1,1.2,1.7,2.6,1.7,4.2c0,1.6-0.6,3-1.7,4.2c-1.1,1.2-2.5,1.8-4.1,1.8c-1.6,0-2.9-0.6-4.1-1.8C102.3,27.7,101.7,26.3,101.7,24.7z M102,35.3h11.1v35.5H102V35.3z"/>
  <polygon fill="#00529B" points="117.3,35.3 142.9,35.3 131.8,61.6 142.1,61.6 142.1,70.9 115.9,70.9 126.9,44.6 117.3,44.6 117.3,35.3   "/>
  <path fill="#00529B" d="M147.1,19.3h11.7c6.8,0,11.7,1.4,14.7,4.1c3,2.7,4.5,6.2,4.5,10.4c0,4.5-2.2,8.2-6.5,10.9 c4.9,2,7.4,5.8,7.4,11.3c0,4.5-1.5,8-4.6,10.8c-3.1,2.7-7.1,4.1-12.1,4.1h-15.1V19.3z M158.6,29.2v11.1c5.1-0.1,7.7-1.9,7.7-5.4 c0-2.1-0.6-3.5-1.8-4.4C163.3,29.7,161.3,29.3,158.6,29.2z M158.6,49.7v11.2c2.9,0,5.1-0.5,6.6-1.4c1.5-0.9,2.2-2.3,2.2-4.3 c0-3.7-2.6-5.5-7.8-5.5L158.6,49.7L158.6,49.7z"/>
  <path fill="#00529B" d="M200.4,70.9v-4.7h-0.2c-1.3,2-2.6,3.5-3.9,4.4c-1.3,0.9-2.7,1.4-4.4,1.4c-3.3,0-6-1.7-8-5.2 c-2-3.4-3-8.1-3-14c0-5.7,1-10.2,3-13.6c2-3.4,4.6-5.1,7.9-5.1c1.7,0,3.2,0.4,4.4,1.3c1.2,0.9,2.5,2.3,3.8,4.3h0.2v-4.4h11.1v35.5 L200.4,70.9L200.4,70.9z M200.4,52.9c0-5.9-1.4-8.8-4.3-8.8c-2.9,0-4.3,2.9-4.3,8.8c0,6.1,1.5,9.2,4.4,9.2 C199,62.1,200.4,59,200.4,52.9z"/>
  <path fill="#00529B" d="M227.8,35.3v4.8h0.2c2.6-4,5.7-6,9.5-6c2.4,0,4.4,0.8,5.8,2.5c1.4,1.6,2.1,3.9,2.1,6.7v27.5 h-11.1V49c0-1.2-0.3-2.2-0.8-3c-0.6-0.8-1.3-1.2-2.2-1.2c-2.4,0-3.5,1.5-3.5,4.5v21.5h-11V35.3H227.8z"/>
  <polygon fill="#00529B" points="249.3,16.5 260.4,16.5 260.4,48 260.6,48 268.1,35.3 281.3,35.3 270.1,51.3 281.6,70.9 268.8,70.9 260.6,53.5 260.4,53.5 260.4,70.9 249.3,70.9 249.3,16.5  "/>
  <path fill="#E43243" d="M356.1,39.1c0,16.2-13,29.4-29,29.4c-16,0-29-13.2-29-29.4s13-29.4,29-29.4 C343.2,9.7,356.1,22.8,356.1,39.1z M326.8,18.6c-11,0-20,9.1-20,20.3c0,11.2,9,20.3,20,20.3c11,0,20-9.1,20-20.3 C346.8,27.7,337.8,18.6,326.8,18.6z"/>
  <ellipse fill="#E43243" cx="326.7" cy="38.9" rx="8.4" ry="8.6"/>
  <rect x="325.2" y="17.1" fill="#E43243" width="2.8" height="44.3"/>
  <rect x="304.8" y="37.6" fill="#E43243" width="43.6" height="2.8"/>
  <polygon fill="#E43243" points="343,53.8 341.1,55.8 310.2,24.5 312.2,22.5"/>
  <polygon fill="#E43243" points="340.9,22.3 342.8,24.3 312,55.6 310.1,53.6"/>
  <path fill="#E43243" d="M329.3,11.3c0,1.5-1.2,2.7-2.7,2.7c-1.5,0-2.7-1.2-2.7-2.7V2.7c0-1.5,1.2-2.7,2.7-2.7 c1.5,0,2.7,1.2,2.7,2.7V11.3z"/>
  <path fill="#E43243" d="M329.3,75.1c0,1.5-1.2,2.7-2.7,2.7c-1.5,0-2.7-1.2-2.7-2.7v-8.6c0-1.5,1.2-2.7,2.7-2.7 c1.5,0,2.7,1.2,2.7,2.7V75.1z"/>
  <path fill="#E43243" d="M299.4,36c1.5,0,2.7,1.2,2.7,2.7c0,1.5-1.2,2.7-2.7,2.7H291c-1.5,0-2.7-1.2-2.7-2.7 c0-1.5,1.2-2.7,2.7-2.7H299.4z"/>
  <path fill="#E43243" d="M362.3,36c1.5,0,2.7,1.2,2.7,2.7c0,1.5-1.2,2.7-2.7,2.7h-8.4c-1.5,0-2.7-1.2-2.7-2.7 c0-1.5,1.2-2.7,2.7-2.7H362.3z"/>
  <path fill="#E43243" d="M309.3,17.5c1,1.1,1,2.8,0,3.8c-1,1.1-2.7,1.1-3.8,0l-6-6.1c-1-1.1-1-2.8,0-3.8 c1-1.1,2.7-1.1,3.8,0L309.3,17.5z"/>
  <path fill="#E43243" d="M353.8,62.6c1,1.1,1,2.8,0,3.8c-1,1.1-2.7,1.1-3.8,0l-6-6.1c-1-1.1-1-2.8,0-3.8 c1-1.1,2.7-1.1,3.8,0L353.8,62.6z"/>
  <path fill="#E43243" d="M305.3,56.4c1-1.1,2.7-1.1,3.8,0c1,1.1,1,2.8,0,3.8l-6,6.1c-1,1.1-2.7,1.1-3.8,0 c-1-1.1-1-2.8,0-3.8L305.3,56.4z"/>
  <path fill="#E43243" d="M349.8,11.2c1-1.1,2.7-1.1,3.8,0c1,1.1,1,2.8,0,3.8l-6,6.1c-1,1.1-2.7,1.1-3.8,0 c-1-1.1-1-2.8,0-3.8L349.8,11.2z"/>
</svg>
