<svg xmlns="http://www.w3.org/2000/svg" xmlns:xlink="http://www.w3.org/1999/xlink" viewBox="0 0 480 84.9">
  <path fill="#004481" d="M376.6,39.8l-0.4-0.1c3.3-1.7,5.4-5.3,5.4-9.7c0-7.5-5.9-12.6-14.2-12.6h-23.8c-0.5,0-0.9,0.4-0.9,0.9l0,0v46.5c0,0.5,0.4,0.9,0.9,0.9h22.8c11.4,0,17.4-4.9,17.4-14.5C383.8,45.7,381,41.5,376.6,39.8z M351.6,24.3h14.1c5.1,0,7.9,1.5,7.9,5.5c0,4.7-2.6,7-7.9,7.1h-14.1c-0.5,0-0.9-0.4-0.9-0.9l0,0V25.2C350.6,24.7,351.1,24.3,351.6,24.3L351.6,24.3L351.6,24.3z M365.9,58.7h-14.3c-0.5,0-0.9-0.4-0.9-0.9l0,0V44.9c0-0.5,0.4-0.9,0.9-0.9l0,0h14.5c6.8,0.1,9.8,2,9.8,7.4C375.8,56.1,372.8,58.7,365.9,58.7L365.9,58.7z"/>
  <path fill="#004481" d="M426.9,17.8L411,48.1c-0.2,0.5-0.8,0.6-1.2,0.4c-0.2-0.1-0.3-0.2-0.4-0.4l-15.9-30.3c-0.2-0.3-0.5-0.5-0.8-0.5H385c-0.4,0-0.7,0.3-0.7,0.7c0,0.1,0,0.2,0.1,0.3l25,46.9c0.2,0.4,0.8,0.6,1.2,0.4c0.2-0.1,0.3-0.2,0.4-0.4l25-46.9c0.2-0.3,0-0.8-0.3-0.9c-0.1,0-0.2-0.1-0.3-0.1h-7.7C427.4,17.3,427,17.5,426.9,17.8z"/>
  <path fill="#004481" d="M326.5,39.8l-0.4-0.1c3.3-1.7,5.4-5.3,5.4-9.7c0-7.5-5.9-12.6-14.2-12.6h-23.8c-0.5,0-0.9,0.4-0.9,0.9l0,0v46.5c0,0.5,0.4,0.9,0.9,0.9h22.8c11.4,0,17.4-4.9,17.4-14.5C333.7,45.7,331,41.5,326.5,39.8z M301.5,24.3h14.2c5.1,0,7.9,1.5,7.9,5.5c0,4.7-2.6,7-7.9,7.1h-14.2c-0.5,0-0.9-0.4-0.9-0.9l0,0V25.2C300.6,24.7,301,24.3,301.5,24.3L301.5,24.3L301.5,24.3z M315.9,58.7h-14.3c-0.5,0-0.9-0.4-0.9-0.9V44.9c0-0.5,0.4-0.9,0.9-0.9l0,0h14.5c6.8,0.1,9.8,2,9.8,7.4C325.7,56.1,322.7,58.7,315.9,58.7L315.9,58.7z"/>
  <path fill="#004481" d="M434.9,58.2l15.9-30.3c0.2-0.5,0.8-0.6,1.2-0.4c0.2,0.1,0.3,0.2,0.4,0.4l15.9,30.3c0.2,0.3,0.5,0.5,0.8,0.5h7.7c0.4,0,0.7-0.3,0.7-0.7c0-0.1,0-0.2-0.1-0.3l-25-46.9c-0.2-0.4-0.8-0.6-1.2-0.4c-0.2,0.1-0.3,0.2-0.4,0.4l-25.1,46.9c-0.2,0.3,0,0.8,0.3,0.9c0.1,0,0.2,0.1,0.3,0.1h7.7C434.4,58.7,434.7,58.5,434.9,58.2z"/>
  <path fill="#121212" d="M272,22c0-1.2-0.4-2.4-1.4-3.3c-0.9-0.9-2.1-1.4-3.3-1.3c-1.2,0-2.4,0.4-3.3,1.4c-0.6,0.5-1,1.2-1.2,2c-0.1,0.4-0.2,0.8-0.1,1.2c0,1.2,0.5,2.4,1.4,3.3c0.8,0.9,2,1.4,3.3,1.4c1.2,0,2.4-0.4,3.3-1.4C271.5,24.4,272,23.2,272,22z"/>
  <path fill="#121212" d="M272.4,65.8c-0.6-1.1-0.7-4.6-0.7-9V37.5c0-4,0.4-7.6-3.4-7.6c-1.2,0-3.6,0.9-6.4,2.4c1.5,1,2,2.9,2,7.2v17.4c0,5,0,7.8-0.7,9L272.4,65.8z"/>
  <path fill="#121212" d="M250.1,66.5c-3.6,0-6.2-1.1-7.8-3.3c-1.1-1.5-1.7-4.3-1.7-8.2V35.4h-5.5v-4.2l5.5-0.7l0.6-8.5l7.2-0.5v9.1h9v4.8h-9v19.8c0,3.8,1.6,5.6,4.6,5.6c2,0,4.1-0.5,5.9-1.5l0.7,4.6C256.6,65.5,253.4,66.4,250.1,66.5z"/>
  <path fill="#121212" d="M132.9,58.4C131,60,128.5,61,126,61c-3.6,0-5.8-1.5-5.8-5.3c0-5.5,5.2-9.2,12.7-7.2V58.4z M141.5,65.8c-0.5-2.7-0.7-5.4-0.6-8.1V42.6c0-9.8-4.4-13-13.9-13c-3.5,0-7,0.8-10.2,2.3l-0.9,4.9c3.3-1.7,7-2.5,10.7-2.5c6.7,0,6.4,5.3,6.4,10.3c-9.2-2.8-20.9,0.7-20.7,12c0.1,6.4,4.8,9.7,10.7,9.9c3.8,0.1,7.5-1.5,10.1-4.3l0.6,3.5L141.5,65.8z"/>
  <path fill="#121212" d="M222.4,65.8c0.3-1.4,0.4-2.8,0.3-4.3c0-1.5,0-3.2,0-5.3V42.4c0-4.7-1.4-6.9-4.9-6.9c-2.7,0-5.9,1.9-8.4,4.1V57c0,2,0,3.8,0.1,5.4c0,1.1,0.2,2.3,0.4,3.4h-8.6c0.4-2.8,0.5-5.7,0.4-8.5v-18c0-4.4-0.7-6.2-2-7c3.1-1.5,5-2.3,6.4-2.3c2.6,0,3.1,2.2,3.2,5.1c3-3.1,7.3-5.5,11.3-5.5s6.9,1.4,8.6,4.2c0.4,0.8,0.8,1.7,0.9,2.5c0.4,1.9,0.5,3.9,0.5,5.9v14.7c0,5.8,0.2,8.2,0.5,8.9H222.4z"/>
  <path fill="#121212" d="M165.7,35.8c-0.7-0.1-1.3-0.1-2-0.1c-2.5,0-5,1.3-7.4,4.1v17.7c0,5.2,0.2,7.6,0.5,8.2h-8.6c0.1-0.7,0.2-1.3,0.3-2c0.1-1.7,0.1-3.8,0.1-6.2V39.3c0-4-0.7-6.2-2.1-7c2.5-1.3,4.8-2.3,6.3-2.3c2.6,0,3.1,2.4,3.1,5.1c2.4-3.7,5.5-5.5,8.9-5.5c0.6,0,1.3,0.1,1.9,0.2L165.7,35.8z"/>
  <path fill="#121212" d="M194.8,65.8c-0.6-1.3-0.6-5.3-0.6-8.1V42.6c0-9.8-4.4-13-13.9-13c-3.5,0-7,0.8-10.2,2.3l-0.9,5c1.2-0.6,2.5-1.1,3.9-1.5c2.2-0.6,4.5-0.9,6.9-0.9c6.7,0,6.4,5.3,6.4,10.3c-9.2-2.8-20.9,0.7-20.7,12c0.1,6.4,4.8,9.7,10.7,9.9c3.9,0.1,7.6-1.5,10.2-4.3c0.1,1.2,0.3,2.3,0.6,3.5L194.8,65.8z M186.3,58.4c-1.9,1.6-4.4,2.6-6.9,2.6c-3.6,0-5.8-1.5-5.8-5.3c0-5.5,5.2-9.2,12.7-7.2V58.4z"/>
  <path fill="#121212" d="M104.5,22.8c-3.9-1.6-8.1-2.4-12.3-2.4c-5-0.1-9.8,1.9-13.2,5.6c-3.6,3.8-5.3,8.6-5.3,14.4c0,6.3,1.6,11.4,4.8,15.1s7.3,5.6,13,5.6c2.5,0.1,5.1-0.3,7.4-1.2V47.4c0-0.8,0-1.6,0-2.4h-6.7c-0.1-2-0.3-3.9-0.7-5.9l16.2,0.6c-0.6,1.9-0.7,4.2-0.7,8.3v6.4c-0.1,3,0.1,6,0.7,9c-5.3,2.3-11.1,3.4-16.8,3.5c-8.4,0-14.8-2.3-19.5-6.9s-7.3-10.8-7.3-18.7c-0.2-7.3,2.7-14.4,8-19.6c5.1-5,11.8-7.5,20.1-7.5c7.2,0,9.8,0.9,13.6,2.2L104.5,22.8"/>
  <defs>
    <path id="svg1" d="M52.5,48.1c2.6,2.6,3.9,5.5,3.9,8.5c0,1-0.1,2-0.4,3.1c-0.8,2.7-2.3,4.9-3.2,5.8c-3.6-14.3-10.6-20.9-13.1-22.9C41.7,42.3,46.8,42.4,52.5,48.1z M42.3,70.8c-3.9-3.8-4.1-13.8-4.1-18.6c0-0.4,0-0.8,0-1.1l0-1.1c0-0.1,0-0.2,0-0.3c0-3,0.3-5.3,0.5-6.2c8.5,6.3,12.7,22.1,13,23.2c-1,6.3-5.3,5.8-5.4,5.8l0,0h0C44.7,72.4,43.4,71.9,42.3,70.8z M1.7,62.5c0-0.2,0-0.4,0-0.6c0-4.5,3.1-8.8,9-12.7c7.5-4.9,13.4-6.1,17-6.2c3.2-0.1,5.2,0.5,5.8,0.8c-4.7,11.2-10.7,18.7-14.9,23c-4.2,4.2-7.5,6.3-8.2,6.7C5.3,70.9,2,66.8,1.7,62.5z M20.6,67.7c4.2-4.6,10-12.3,13.9-22.8c0.9,3,1.2,6.1,1.2,9c0,4.1-0.6,8-1.4,11.1c-1.4,6-3.4,10.3-3.4,10.4c0,0.1-3.8,8.8-10.2,8.8c-5.8,0-8.1-7.7-8.5-8.9C13,74.8,16.5,72.3,20.6,67.7z M50.3,24.5c1.7-3.6,2.5-6.4,2.8-7.5c0.8,0.6,2.4,2.2,3,4.8c0.1,0.6,0.2,1.3,0.2,1.9c0,2.5-1,5.2-2.9,8.2c-2.8,4.3-6.3,6.9-10.2,7.5c-2,0.3-3.7,0-4.5-0.2C44.7,34.4,48.3,28.6,50.3,24.5z M37.6,31.9c0-0.7,0-1.3,0-1.9l0-0.8c0.2-4.3,0.8-15.7,5.3-19.8c1.1-1,2.5-1.5,4-1.4c0.2,0,4.6,0.6,5.2,7.8c-0.1,0.4-1,3.8-3.1,8c-2,4.1-5.6,9.8-11.2,14.2C37.8,37,37.6,34.4,37.6,31.9z M16.4,1.6c1.5-0.9,3.2-1.2,5-0.7c3.8,0.9,7.2,4,9.6,8.8c2.6,5.1,4,12.1,4.1,20.2c0,0,0,0.1,0,0.3c0,0.9-0.1,3.6-0.9,6.3c-0.5-1.5-1.9-5.1-4.6-9.4c-3.2-5.2-8.9-12.6-17.9-18.1C11.9,8,13.2,3.5,16.4,1.6z M13.2,37C5.9,33.9,1.1,27.8,1.1,21.8c0-0.1,0-0.1,0-0.2c0.1-4.9,3.3-8.8,9-11.1c0.7,0.3,4.6,2.5,9.5,7c6,5.7,10.6,12.4,13.7,20.1c-0.5,0.3-2.1,1.3-4.8,1.8C25.4,40,20.3,40,13.2,37z"/>
  </defs>
  <clipPath id="svg2">
    <use xlink:href="#svg1" overflow="visible"/>
  </clipPath>
  <radialGradient id="svg3" cx="489.622" cy="-2019.3899" r="36.4207" gradientTransform="matrix(1.078 9.200000e-03 1.600000e-03 2.0313 -489.5117 4137.8071)" gradientUnits="userSpaceOnUse">
    <stop offset="0" style="stop-color:#83BB26"/>
    <stop offset="0.1137" style="stop-color:#72B22E"/>
    <stop offset="0.3173" style="stop-color:#419939"/>
    <stop offset="0.5855" style="stop-color:#00753C"/>
    <stop offset="0.7191" style="stop-color:#00633A"/>
    <stop offset="1" style="stop-color:#001400"/>
  </radialGradient>
  <path clip-path="url(#svg2)" fill="url(#svg3)" d="M35.4,114.8C57.1,115,74.6,82,74.6,41.1c0-40.9-17.6-74.1-39.3-74.3C13.6-33.4-4-0.4-4,40.4C-3.9,81.3,13.7,114.6,35.4,114.8z"/>
</svg>