<svg xmlns="http://www.w3.org/2000/svg" xmlns:xlink="http://www.w3.org/1999/xlink" viewBox="0 0 1059.066 203">
  <defs>
    <rect id="halkbank-svg-1" x="-37.934" y="-181.93" width="1133.858" height="566.93"/>
  </defs>
  <clipPath id="halkbank-svg-2">
    <use xlink:href="#halkbank-svg-1" overflow="visible"/>
  </clipPath>
  <path clip-path="url(#halkbank-svg-2)" fill="#005092" d="M29.606,185.245h-5.922V17.816h5.922V185.245z M17.763,167.977h-5.921V35.094 h5.921V167.977z M5.921,150.715H0V52.357h5.921V150.715z M130.044,202.499v-97.862H41.447v97.862h-5.922V0.57h5.922v98.145h88.597 V0.57h5.92v201.929H130.044z M141.886,17.833h5.92v167.609h-5.92V17.833z M153.728,35.094h5.92v132.882h-5.92V35.094z M165.569,52.356h5.921v98.357h-5.921V52.356z M47.368,92.776V17.833h5.92v69.062h64.96l-0.047-69.062h5.921v74.944H47.368z M59.21,80.938V35.094h5.921v39.961h41.216V35.094h5.922v45.844H59.21z M71.052,69.091V52.356h5.921V63.21h17.546V52.356h5.92 v16.735H71.052z M124.122,110.539v74.932h-5.921l0.001-69.048H53.243l0.045,69.048h-5.92v-74.932H124.122z M112.264,122.451v45.525 h-5.921v-39.68H65.131v39.68H59.21v-45.595L112.264,122.451z M100.439,134.225v16.49h-5.92v-10.608H76.973v10.608h-5.921v-16.49 H100.439z M284.526,102.946v9.778c0,9.486-0.113,17.948-0.343,25.38c-0.227,7.317-0.57,14.521-1.029,21.606 c1.945-0.229,4.06-0.343,6.347-0.343h7.717h7.717c2.287,0,4.402,0.113,6.345,0.343c-0.457-7.086-0.8-14.289-1.027-21.606 c-0.23-7.432-0.344-15.894-0.344-25.38V89.398c0-9.491,0.114-17.892,0.344-25.211c0.227-7.431,0.57-14.863,1.027-22.296 c-1.943,0.231-4.058,0.458-6.345,0.686c-2.287,0.115-4.86,0.174-7.717,0.174c-2.859,0-5.43-0.059-7.717-0.174 c-2.287-0.228-4.402-0.455-6.347-0.686c0.459,7.433,0.802,14.807,1.029,22.124c0.23,7.204,0.343,15.548,0.343,25.041 c-3.316,0.112-6.918,0.227-10.802,0.342h-15.092h-15.608c-4.116-0.115-7.662-0.23-10.631-0.342c0-9.493,0.055-17.837,0.17-25.041 c0.227-7.317,0.627-14.691,1.201-22.124c-1.945,0.231-4.059,0.458-6.346,0.686c-2.287,0.115-4.86,0.174-7.718,0.174 c-2.856,0-5.429-0.059-7.717-0.174c-2.287-0.228-4.401-0.455-6.345-0.686c0.457,7.433,0.801,14.865,1.028,22.296 c0.23,7.319,0.343,15.72,0.343,25.211v23.326c0,9.486-0.113,17.948-0.343,25.38c-0.227,7.317-0.571,14.521-1.028,21.606 c1.944-0.229,4.058-0.343,6.345-0.343h7.717h7.718c2.287,0,4.401,0.113,6.346,0.343c-0.458-7.086-0.801-14.289-1.029-21.606 c-0.23-7.432-0.342-15.894-0.342-25.38v-9.778c4.343-0.227,8.688-0.399,13.032-0.512c4.346-0.116,8.69-0.173,13.035-0.173 c4.343,0,8.688,0.114,13.033,0.343C275.838,102.72,280.182,102.83,284.526,102.946 M372.165,74.134 c-2.974,6.86-5.775,13.663-8.403,20.409c-2.63,6.631-5.202,13.436-7.72,20.409h31.385c-2.516-6.973-5.031-13.778-7.545-20.409 C377.48,87.796,374.907,80.995,372.165,74.134 M432.876,159.711c-2.746-0.229-5.375-0.343-7.891-0.343h-7.203h-7.375 c-2.399,0-4.801,0.113-7.201,0.343c-1.83-5.6-3.717-11.316-5.66-17.147c-1.944-5.83-4.002-11.661-6.174-17.495 c-3.658-0.111-7.316-0.169-10.976-0.169c-3.659-0.115-7.318-0.172-10.977-0.172c-2.972,0-5.945,0.057-8.918,0.172 c-2.973,0-5.945,0.058-8.918,0.169c-2.284,5.834-4.401,11.665-6.343,17.495c-1.944,5.831-3.717,11.548-5.317,17.147 c-1.372-0.229-2.746-0.343-4.117-0.343h-3.944h-4.116c-1.372,0-2.857,0.113-4.459,0.343c1.371-2.969,3.2-7.086,5.487-12.345 c2.288-5.261,4.801-11.206,7.547-17.837c2.742-6.632,5.659-13.72,8.746-21.265c3.201-7.662,6.346-15.38,9.434-23.154 c3.2-7.775,6.288-15.434,9.261-22.979c3.085-7.547,5.887-14.579,8.403-21.094c1.144,0.227,2.229,0.454,3.258,0.685 c1.027,0.113,2.113,0.169,3.258,0.169c1.143,0,2.228-0.056,3.257-0.169c1.032-0.231,2.118-0.458,3.261-0.685 c3.659,9.716,7.544,20.121,11.66,31.211c4.233,11.09,8.462,22.011,12.693,32.759c4.228,10.632,8.346,20.748,12.346,30.351 C425.899,144.964,429.558,153.082,432.876,159.711 M446.251,89.398v23.326c0,9.486-0.113,17.948-0.344,25.38 c-0.226,7.317-0.57,14.521-1.027,21.606c0.912-0.114,2.002-0.229,3.257-0.343h5.831h10.289h16.981h18.52 c4.574,0.113,8.405,0.229,11.491,0.343c-0.228-0.686-0.401-1.542-0.514-2.568c-0.115-1.031-0.172-2.461-0.172-4.288 c0-1.831,0.057-3.26,0.172-4.288c0.113-1.029,0.286-2.171,0.514-3.43c-6.632,0.801-13.205,1.37-19.722,1.713 c-6.518,0.344-13.034,0.517-19.549,0.517c-0.116-4.46-0.231-9.719-0.343-15.778v-18.863V89.398c0-9.491,0.112-17.892,0.343-25.211 c0.226-7.431,0.57-14.863,1.028-22.296c-1.944,0.231-4.06,0.458-6.347,0.686c-2.287,0.115-4.859,0.174-7.716,0.174 c-2.858,0-5.43-0.059-7.717-0.174c-2.288-0.228-4.403-0.455-6.346-0.686c0.457,7.433,0.801,14.865,1.027,22.296 C446.138,71.506,446.251,79.907,446.251,89.398 M551.554,106.377h0.343c5.831,8.92,11.547,17.893,17.147,26.926 c5.604,8.919,11.319,17.721,17.15,26.408c2.517-0.229,4.977-0.343,7.374-0.343h7.547h7.718c2.631,0,5.603,0.113,8.92,0.343 c-2.289-2.741-5.318-6.802-9.093-12.174c-3.772-5.488-7.888-11.434-12.346-17.836c-4.345-6.517-8.748-13.149-13.208-19.893 c-4.458-6.746-8.518-12.919-12.176-18.522c2.288-2.746,5.488-6.463,9.604-11.149c4.116-4.801,8.405-9.718,12.863-14.748 c4.573-5.033,8.863-9.72,12.863-14.063c4.003-4.344,6.974-7.49,8.92-9.435c-1.946,0.231-3.775,0.458-5.492,0.686 c-1.598,0.115-3.2,0.174-4.801,0.174c-1.6,0-3.201-0.059-4.803-0.174c-1.599-0.228-3.199-0.455-4.802-0.686 c-1.487,2.172-3.886,5.433-7.201,9.778c-3.315,4.228-7.031,8.918-11.147,14.062c-4.118,5.145-8.404,10.463-12.862,15.951 c-4.46,5.372-8.634,10.346-12.519,14.919V80.137c0-8.347,0.056-15.95,0.17-22.809c0.229-6.86,0.631-12.007,1.201-15.437 c-1.944,0.231-4.06,0.458-6.348,0.686c-2.285,0.115-4.857,0.174-7.716,0.174c-2.857,0-5.43-0.059-7.716-0.174 c-2.288-0.228-4.403-0.455-6.348-0.686c0.459,7.433,0.802,14.865,1.029,22.296c0.231,7.319,0.342,15.72,0.342,25.211v23.326 c0,9.486-0.111,17.948-0.342,25.38c-0.227,7.317-0.57,14.521-1.029,21.606c1.945-0.229,4.06-0.343,6.348-0.343h7.716h7.716 c2.288,0,4.403,0.113,6.348,0.343c-0.687-5.257-1.086-12.345-1.201-21.264C551.61,129.529,551.554,118.84,551.554,106.377 M682.233,127.13c0,3.772-0.513,7.09-1.543,9.946c-1.029,2.858-2.399,5.314-4.117,7.373c-1.713,1.945-3.716,3.432-6,4.46 c-2.287,1.029-4.688,1.543-7.205,1.543h-4.97c-1.375-0.112-2.861-0.229-4.461-0.342c0-1.486-0.056-3.373-0.171-5.661v-7.546 c0-2.742-0.059-5.545-0.171-8.404v-8.401v-9.091c0.112-2.631,0.171-5.145,0.171-7.546h3.257c1.145-0.113,2.515-0.172,4.117-0.172 c6.861,0,12.06,2.002,15.606,6.003C680.405,113.179,682.233,119.123,682.233,127.13 M681.034,71.734c0,3.66-0.57,6.86-1.715,9.605 c-1.143,2.742-2.63,5.029-4.459,6.859c-1.83,1.713-3.944,3.031-6.345,3.943c-2.287,0.916-4.629,1.374-7.033,1.374h-7.716 c0-2.973-0.059-5.834-0.171-8.575v-8.918c0-2.973,0.055-6.631,0.171-10.976c0.115-4.346,0.286-8.633,0.514-12.865 c1.146-0.227,2.173-0.342,3.086-0.342c1.032-0.113,2.804-0.17,5.319-0.17c3.429,0,6.287,0.569,8.574,1.714 c2.289,1.028,4.172,2.46,5.658,4.288c1.484,1.715,2.518,3.829,3.088,6.344C680.69,66.417,681.034,68.989,681.034,71.734 M628.212,89.398v23.326c0,9.486-0.111,17.948-0.345,25.38c-0.226,7.317-0.568,14.521-1.026,21.606 c1.942-0.229,4.516-0.343,7.717-0.343h9.604c4.345,0,8.459,0.057,12.349,0.172c4,0.113,8.287,0.171,12.861,0.171 c5.145,0,10.116-0.512,14.92-1.542c4.801-1.143,9.03-3.086,12.69-5.829c3.774-2.745,6.747-6.287,8.918-10.635 c2.288-4.345,3.432-9.604,3.432-15.776c0-5.146-1.144-9.49-3.432-13.034c-2.171-3.659-4.856-6.632-8.06-8.918 c-3.203-2.285-6.572-3.946-10.118-4.974c-3.544-1.144-6.632-1.771-9.261-1.886v-0.343c2.629-0.458,5.543-1.317,8.745-2.573 c3.316-1.259,6.345-2.971,9.091-5.144c2.856-2.286,5.26-5.087,7.205-8.406c1.938-3.428,2.914-7.486,2.914-12.176 c0-4.686-0.859-8.688-2.572-12.003c-1.603-3.431-3.946-6.174-7.033-8.233c-3.086-2.172-6.745-3.774-10.977-4.802 c-4.229-1.028-8.918-1.545-14.063-1.545c-4.916,0-10.061,0.173-15.435,0.517c-5.372,0.228-10.518,0.343-15.436,0.343 c-2.856,0-5.429-0.059-7.716-0.174c-2.288-0.228-4.403-0.455-6.346-0.686c0.458,7.433,0.801,14.865,1.026,22.296 C628.101,71.506,628.212,79.907,628.212,89.398 M764.726,74.134c-2.973,6.86-5.776,13.662-8.403,20.409 c-2.629,6.631-5.201,13.436-7.72,20.409h31.384c-2.513-6.973-5.029-13.778-7.545-20.409 C770.042,87.796,767.468,80.995,764.726,74.134 M825.437,159.711c-2.745-0.229-5.373-0.343-7.889-0.343h-7.205h-7.375 c-2.397,0-4.801,0.113-7.199,0.343c-1.83-5.6-3.717-11.316-5.661-17.147c-1.945-5.83-4.003-11.661-6.173-17.495 c-3.659-0.111-7.319-0.169-10.979-0.169c-3.657-0.115-7.315-0.172-10.976-0.172c-2.971,0-5.944,0.057-8.916,0.172 c-2.975,0-5.946,0.058-8.92,0.169c-2.284,5.834-4.401,11.665-6.342,17.495c-1.945,5.831-3.717,11.548-5.319,17.147 c-1.369-0.229-2.744-0.343-4.115-0.343h-3.944h-4.115c-1.371,0-2.86,0.113-4.459,0.343c1.371-2.969,3.199-7.085,5.488-12.345 c2.286-5.261,4.801-11.206,7.547-17.837c2.742-6.632,5.655-13.72,8.744-21.265c3.2-7.661,6.346-15.38,9.434-23.154 c3.201-7.775,6.289-15.434,9.261-22.979c3.086-7.547,5.89-14.579,8.403-21.094c1.144,0.227,2.229,0.454,3.257,0.685 c1.03,0.113,2.116,0.169,3.26,0.169s2.229-0.056,3.259-0.169c1.03-0.231,2.114-0.458,3.26-0.685 c3.658,9.716,7.545,20.121,11.66,31.211c4.229,11.09,8.461,22.009,12.692,32.759c4.229,10.632,8.344,20.748,12.347,30.351 C818.46,144.964,822.12,153.082,825.437,159.711 M840.357,76.022c0,8.688-0.174,17.779-0.516,27.267 c-0.229,9.377-0.57,18.122-1.029,26.24c-0.342,8.005-0.686,14.805-1.028,20.409c-0.344,5.603-0.629,8.861-0.858,9.772 c2.631-0.229,5.26-0.343,7.89-0.343h3.944c1.375,0,2.744,0.113,4.114,0.343c-0.112-1.255-0.226-2.914-0.342-4.972 c-0.114-2.171-0.226-4.916-0.342-8.232c-0.115-3.316-0.228-7.373-0.343-12.176v-17.49V96.943V86.828 c0.115-3.316,0.228-6.633,0.343-9.948c26.411,27.785,51.393,55.394,74.944,82.832c1.944-0.229,4.174-0.343,6.688-0.343 c2.403,0,4.744,0.113,7.031,0.343v-20.577v-23.152c0.116-7.317,0.286-14.692,0.516-22.123c0.229-7.432,0.513-15.322,0.856-23.667 c0.341-8.46,0.8-17.895,1.375-28.3c-3.203,0.573-5.776,0.86-7.717,0.86c-1.945,0-4.519-0.287-7.722-0.86 c0.231,1.144,0.399,3.374,0.517,6.69c0.226,3.316,0.342,7.263,0.342,11.833c0.115,4.574,0.171,9.604,0.171,15.092 c0.116,5.375,0.17,10.862,0.17,16.466v16.634v14.919c-12.802-13.832-25.322-27.438-37.556-40.816 c-12.117-13.378-24.41-26.982-36.871-40.818c-3.202,0.573-5.778,0.86-7.719,0.86c-1.943,0-4.517-0.287-7.72-0.86 c0.115,4.118,0.289,8.862,0.517,14.237C840.241,61.5,840.357,68.131,840.357,76.022 M991.792,106.377h0.342 c5.83,8.92,11.549,17.893,17.149,26.926c5.603,8.919,11.319,17.721,17.149,26.408c2.515-0.229,4.974-0.343,7.375-0.343h7.547h7.718 c2.631,0,5.603,0.113,8.918,0.343c-2.287-2.741-5.317-6.801-9.094-12.174c-3.771-5.488-7.886-11.434-12.343-17.836 c-4.349-6.517-8.748-13.149-13.209-19.892c-4.457-6.747-8.519-12.92-12.176-18.523c2.286-2.746,5.487-6.463,9.603-11.149 c4.118-4.801,8.407-9.718,12.864-14.748c4.574-5.033,8.862-9.72,12.865-14.063c4-4.344,6.973-7.49,8.916-9.435 c-1.943,0.231-3.773,0.458-5.49,0.686c-1.599,0.115-3.199,0.174-4.801,0.174c-1.601,0-3.201-0.059-4.804-0.174 c-1.597-0.228-3.201-0.455-4.801-0.686c-1.486,2.172-3.886,5.433-7.201,9.778c-3.315,4.228-7.031,8.918-11.147,14.062 c-4.117,5.145-8.402,10.463-12.861,15.951c-4.461,5.372-8.633,10.346-12.52,14.919V80.137c0-8.347,0.057-15.949,0.17-22.809 c0.229-6.86,0.629-12.007,1.2-15.437c-1.944,0.231-4.06,0.458-6.346,0.686c-2.287,0.115-4.859,0.174-7.718,0.174 s-5.428-0.059-7.717-0.174c-2.285-0.228-4.402-0.455-6.347-0.686c0.457,7.432,0.802,14.865,1.029,22.297 c0.231,7.318,0.342,15.719,0.342,25.21v23.326c0,9.486-0.11,17.949-0.342,25.38c-0.228,7.317-0.572,14.521-1.029,21.606 c1.944-0.229,4.062-0.343,6.347-0.343h7.717h7.718c2.286,0,4.401,0.113,6.346,0.343c-0.685-5.257-1.086-12.345-1.2-21.263 C991.849,129.528,991.792,118.839,991.792,106.377"/>
</svg>