<svg xmlns="http://www.w3.org/2000/svg" viewBox="0 0 149.3 50.2">
  <polygon fill="#CB0202" points="125.3,34.6 125.3,38.4 137.5,38.4 137.5,27.1 130,27.1 130,23.3 137.5,23.3 137.5,12 125.3,12 125.3,15.7 133.7,15.7 133.7,19.5 126.2,19.5 126.2,30.8 133.7,30.8 133.7,34.6"/>
  <path fill="#CB0202" d="M124.3,0.5c-13.6,0-24.6,11-24.6,24.6c0,13.6,11,24.6,24.6,24.6c13.6,0,24.6-11,24.6-24.6 C148.8,11.5,137.8,0.5,124.3,0.5z M124.3,45.9c-11.5,0-20.8-9.3-20.8-20.8c0-11.5,9.3-20.8,20.8-20.8c11.5,0,20.8,9.3,20.8,20.8 C145,36.6,135.7,45.9,124.3,45.9z"/>
  <polyline fill="#CB0202" points="123.4,15.7 123.4,11.9 111.1,11.9 111.1,23.3 118.6,23.3 118.6,27.1 111.1,27.1 111.1,38.4 123.4,38.4 123.4,34.6 114.9,34.6 114.9,30.8 122.4,30.8 122.4,19.5 114.9,19.5 114.9,15.7"/>
  <g transform="matrix(0.48159012,0,0,0.48597387,-1100.1428,361.52422)">
    <path fill="#201E1D" d="M2370.7-687.8v-0.1h18.9c1.7,0,4.2,0.3,6.2,1.6c1.9,1.2,2.8,3,2.8,5.3 c0,1.9-0.5,3.3-1.5,4.3c-1.9,1.8-5.1,1.8-7.4,1.8h-19.1v-0.1L2370.7-687.8L2370.7-687.8z M2370.7-697.9v-11.4h17.3 c3,0,8.2,0,8.2,6c0,2.2-1,3.8-2.8,4.6c-1.7,0.8-3.8,0.9-5.3,0.9h-17.4V-697.9L2370.7-697.9z M2390.3-664.7 c6.6,0,11.5-1.6,14.7-4.7c3.3-3.2,4-7.4,4-10.3c0-6.4-2.7-10.8-8-13.2l-0.2-0.1l0.2-0.1c2.4-1.2,5.5-3.8,5.5-11.3 c0-4.1-1.6-7.9-4.4-10.5c-3.1-2.9-7.7-4.4-13.2-4.4l-28.6,0v54.6"/>
    <path fill="#201E1D" d="M2285-664.7h10.9v-54.6H2285V-664.7z"/>
    <path fill="#201E1D" d="M2304.7-692.5c0,5.3,0.9,9.6,2.7,13.3c1.5,3.1,3.7,5.7,6.8,8.1c4.9,3.9,11.7,5.8,20.4,5.8 h14.9v-10.3h-14.1c-7.8,0-13.5-1.9-16.9-5.8c-2.4-2.7-3.6-6.4-3.7-10.9c0-4.8,1.3-8.7,4-11.4c3.4-3.4,9-5.2,16.5-5.2h14.1V-719 h-14.4c-4.8,0-8.9,0.5-12.4,1.5c-3.5,1-6.4,2.5-8.8,4.5C2310.5-710.1,2304.7-703.6,2304.7-692.5"/>
    <path fill="#201E1D" d="M2415.6-692.5c0,5.3,0.9,9.9,2.7,13.8c1.6,3.4,3.9,6.3,6.8,8.6c4.6,3.6,11.1,5.3,20.4,5.3 h15.7v-10.3h-14.9c-7.8,0-13.5-2-16.9-6c-2.4-2.8-3.6-6.5-3.6-11.1c0-5,1.4-8.9,4.2-11.8c3.4-3.5,8.9-5.2,16.4-5.2h14.9v-10.2 h-15.2c-4.8,0-8.9,0.5-12.4,1.5c-3.5,1-6.4,2.5-8.8,4.5C2422.1-711.1,2415.6-704.4,2415.6-692.5"/>
  </g>
</svg>
