<svg xmlns="http://www.w3.org/2000/svg" viewBox="0 0 1204 299">
	<path fill="#FFFFFF" d="M0,0.5h865.8c3.4,3.4,2.8,8.5,2.6,12.9c-4-2.9-6.2-7.4-8.6-11.5c-4.5,0.2-8.8,1.8-12.4,4.5c2.9,1.2,5.6,2.9,7.8,5.3c-5.6-0.7-11.1-1.9-16.5-3.3c-7.6,5.4-15.2,12-18.3,21.1c1.6,0,3.2,0,4.9,0.1c-2.5,2.2-5,4.3-7.8,6.3c0,3.9,0,7.9-0.1,11.8c-2.8,2.5-5.7,5.2-6.9,8.8c-4.5,13.9-5,28.7-5.1,43.2c0.1,2.6-2.1,4.2-3.9,5.7c-0.1,4.3,0,8.6-0.1,12.9c2.4-2.2,4.8-4.3,7.3-6.4c0,3.2,0,6.4-0.1,9.6c-2.5,1.3-5.3,3-5.6,6.1c-0.1,4.6,0.9,9.2,0.9,13.9c2.2-2.9,5.5-4.6,8.9-6c-2,3.7-3.3,7.8-6.2,11c-1.1,1.1-1.4,2.6-1,4c3,15.8,8.1,31.1,14.1,46c-8.7,15.2-13.8,32.1-18.2,49c-7.9-6.4-20.9-5.8-27.3,2.5c-4-1.1-8.6-1.7-12.4,0.4c-5.3,3.4-10,9-9.3,15.7c-1.6,2.4-3.6,4.7-4.3,7.6c-1.3,7.6,0.1,15.6,4,22.3c40.8,0.1,81.6,0.1,122.5,0c-1.3-3.3-3.6-6-4.9-9.2c-1.1-4.2-0.6-8.7-0.1-13c1.6-6.5,6.9-11.3,8.8-17.7c4.9-1.3,9.7-2.7,14.6-4.1c0.4,0.4,1.3,1.3,1.8,1.8c2-2.3,3.5-5.7,6.9-5.9c7.8-1.1,18,0.8,21.3,8.9c-5.1,0.4-9.2-3.4-14.1-3.4c-2,0-3.9,0.4-5.9,0.7c-0.7,2.9-1,5.9-0.9,9c3.2,1.3,6,3.2,8.7,5.2c2.8-2.5,6.2-4.7,10.1-4.8c3.8,0.2,8,2.4,8.9,6.3c0.7,3.8,0,7.7,0.5,11.5c2.8,2.9,6.8,3.7,10.4,5.3c0.6,1.7-1.8,2.4-3,2.8c-4.1,0.6-9.3,1.5-12-2.5c-2,3-3.7,6.1-5.3,9.3c31.4,0,62.8,0,94.2,0c-1.8-3.5-4.5-6.7-5.1-10.6c-0.7-4.2-0.7-8.5-0.7-12.7c3-3.7,5.5-7.8,8.6-11.4c5.9-1.3,12-2.1,18.1-2.9c0.2-0.7,0.5-2.1,0.7-2.8c5.7-2.3,12.1-0.7,17.6,1.4c-0.3,1.2-0.5,2.4-0.8,3.5c-2.6-0.5-5.6-2.7-8-0.6c0.7,1.2,1.3,2.5,2,3.7c-2.5-0.7-4.9-1.5-7.4-2.3c-0.9,2.3-1.7,4.5-2.5,6.8c1.8,1.8,3.6,3.6,5.4,5.4c-1,2-2,4-3.1,6c-1.6-0.9-3.1-1.8-4.7-2.7c-1.3,6.3-0.1,12.8-0.8,19.2c3-0.1,6.1-0.1,9.1-0.1c0.3-5.1,0.2-10.2,1-15.3c1.1-4.6,3.4-8.8,6-12.6c2.5-3.3,5.3-7.1,9.7-8c6.3,0.2,9.8,5.9,13.9,9.7c-1.6,0.9-3.1,2.1-4.9,2c-2.8,0.6-4-2.6-5.7-4.2c-1.7,1.7-3.4,3.3-5,5c2.3,2.6,5.6,5,5.6,8.8c0.3,2.7-1.3,5-2.7,7.1c-1.8-3.3-3.4-6.7-5.1-10c-2.5,1.5-5.2,3.2-6,6.1c-1,3.7-1.6,7.5-2.2,11.3c16.8,0,33.5,0,50.3,0c4.8,0.1,9.4-1.5,13.7-3.6c3.8-2,8.1-0.9,12.2-1.2c15,0.1,30.4-4,42.3-13.4c23.8-18.9,35.8-49.3,37.8-79v102.7H586.4c29.4-1.6,57.9-10.6,84.1-23.8c0.1-19.1,0-38.1,0-57.2c0-6.7-0.3-13.4,0.9-20.1c0.7-4,3-8.1,6.9-9.8c5.3-2.4,11.3-2.4,17-2.7c0-3,0-6,0-9c-33.9,0-67.8,0-101.8,0c0,3,0,6,0,9c8.1,0.5,17,0.1,24,5c6,4.4,6.2,12.7,6.4,19.5c0.3,20.3,0,40.6,0.1,60.9c-15.6,7.2-32.8,11.8-50,10.2c-18.1-1.4-35.7-9.5-48.4-22.6c-12.3-12-20.3-27.8-24.6-44.3c-4.2-16-4.7-32.7-3.3-49.1c2-19.2,7.5-38.5,19-54.1c10.3-14.1,25.9-24.2,43.1-27.4c19.4-3.8,40.3-1.3,58,7.7c14.2,7.5,26.3,19.2,33.4,33.6c2.6,5.5,4.7,11.2,6.3,17c3.3,0,6.6,0,9.8,0c-2.4-26-4.9-52-7.2-77.9c-2.7,0-5.5,0-8.2,0c-1,5-1.3,11.1-5.6,14.5c-4.2,1.9-8.8-0.6-12.8-1.9c-20.3-8.4-42.3-13.7-64.4-12.5c-23.8,0.8-47.4,7.8-67.6,20.5c-22.2,13.9-40.2,34.7-49.9,59c-9.2,22.8-11.1,48.7-4.6,72.5c5.8,21.8,19.2,41.3,37.1,54.9c23.8,18.4,54,26.6,83.7,28.1H0V294c37.9,0,75.8,0,113.7,0c0-3,0-6,0-9c-8-0.2-16.9,0.3-23.9-4.2c-7.2-4.9-8.5-14.3-8.8-22.3c0-51.3,0-102.6,0-154c0.1-5.2,0.6-10.5,2.5-15.4c1.6-4.2,5-7.7,9.4-9c6.8-2.1,13.9-1.9,20.9-1.8c0-3,0-6,0-9c-37.9,0.1-75.8,0-113.7,0V0.5z M154.3,69.3c0,3,0,5.9,0,8.9c9,0,19.1,1.6,25.4,8.7c5.6,6.4,6.3,15.5,6.6,23.6c0,47,0,94.1,0,141.1c-0.5,8.7-0.4,18.2-5.8,25.5c-5.9,7.3-16.1,7.8-24.8,8c0,3,0,6,0,8.9c27.1,0,54.2,0,81.2,0c0-3,0-6,0-9c-5.8,0.1-11.6-0.4-17.1-2.2c-4.7-1.5-8.6-5.2-10.3-9.9c-2.8-7.4-2.7-15.5-3-23.3c0-41.1,0-82.1,0-123.1c0-2.6-0.3-5.2-0.5-7.8c57.1,59,114.4,117.9,171.5,177c4.6,0.1,9.2,0,13.8,0.1c0-47.8,0-95.5,0-143.3c0.1-16-0.4-31.9,0.6-47.9c0.7-7.3,1.9-15.4,7.8-20.5c6.2-5.4,15.1-5.8,22.9-5.9c0-3,0-6,0-8.9c-27,0-54,0-81,0c0,3,0,5.9,0,8.9c8.1,0.1,17.2,0.6,23.3,6.6c5.7,6.5,5.8,15.6,6.2,23.8c0,32,0,64,0,96c0,3.1,0.4,6.3,0.6,9.4c-47.2-48-93.9-96.5-141-144.6C205.2,69.2,179.7,69.2,154.3,69.3z M882.4,261.1c-2,1.8-3,4.3-3.7,6.7c1.7-0.6,3.3-1.2,5-1.8c0.4,0.7,1.3,2.1,1.8,2.8c-0.5,4.7-7.3,3.3-7.7,7.7c-0.7,6.5,4.7,11.4,6.2,17.4c3.3,0,6.5,0,9.8,0.1c-4-8.2-5.3-17.6-4.7-26.6c0.2-2.8,1.1-5.5,2.2-8.1C888.3,259.9,885.3,260.2,882.4,261.1z M1022.7,264.1c1.4,1.9,2.9,3.9,2.9,6.4c-0.2,2.4-1.7,4.4-2.9,6.5c-1.5-1.8-2.1-4-3.2-6c-1.7-1.1-2,1.4-2.4,2.5c-1.6,7.3,1.9,14.3,5.1,20.6c2.5,0,5.1,0,7.7,0c-1.2-6.4-2.6-12.9-2.6-19.5c0.3-3.9,2-7.5,3.4-11.1C1028,263.6,1025.3,263.9,1022.7,264.1z M896,272.4c-0.1,7.3,1.5,14.6,3.8,21.6c2.2,0,4.4,0,6.7,0c0-6.9,1-13.8,0.8-20.8c-1.9-3-5-5.2-7.4-7.9C898,267.3,895.9,269.5,896,272.4z M913.6,272.2c-0.3,7.3-1.2,14.5-1.7,21.7c1.9,0,3.9,0,5.8,0.1c2.3-6.9,6-13.4,7.3-20.5c0.4-2.9-2.4-4.6-5-4.5C917.3,268.6,915.3,270.6,913.6,272.2z"/>
	<path fill="#FFFFFF" d="M867.5,0.5H1204v181.6c-1.5-21.4-7.8-42.4-18.7-60.8c-9-15.1-20.6-28.9-35.2-38.9c-12.4-8.7-24.2-19-31.6-32.3c-2.9-4-7.2-6.7-11.5-9.1c0.8,2.5,1.6,5.1,2.4,7.6c-4.2-0.5-8-2.3-11.4-4.7c1.2-1.2,2.3-2.4,3.5-3.7c-3.5-1.9-7.6-1.8-11.5-1.9c-11.1,0.4-21.2,5.6-31.9,7.9c0.1,0.4,0.3,1.1,0.5,1.4c2.2,1.3,4.3,2.6,5.9,4.6c3.2,3.6,4.5,8.5,7.9,11.9c3.7,0.5,7.5,0.8,11,2.4c-0.4-1.9-1-3.8-1.2-5.7c2.7-1.5,4.9,1.8,7.7,1.4c3.7-0.1,7.7,0.4,10,3.8c-4.7,0-9.5,0.2-13.8,2.3c0.5,1,1.6,2.9,2.1,3.9c-4.1-0.3-8.2-0.9-11.9-2.8c2.4,4.2,6.6,6.9,10.5,9.5c3.7,2.1,7.6,4.6,12.1,4.5c8.9,0.6,17.7-3.4,26.5-1c12.5,5.5,23.1,14.4,32.3,24.3c16.4,18.2,26.9,41.6,29.6,65.9c1.7,22.4-1.3,45.8-13,65.4c-8.1,13.6-21.3,25-37.3,27.6c-6,1.2-12-1-16.9-4.2c1.2-4.5,2.2-9.1,2.8-13.8c3.5-27.8-1.1-56.6-12.8-82.1c-5.6-12-12.9-23.5-23.1-32.3c-6.3-5.4-13.5-10.7-22.1-11.2c-3.8,0-7.7-0.4-11.3,1.1c-5.8,3.5-9.7,10-9.4,16.8c-7.6,4.6-16.5,6.8-25.3,6.8c-10.7-0.4-20.9-4.8-29.3-11.2c0-3.9,0-7.8,0-11.7c-3.5-2.1-9.1-5-6.8-10c1.8,1.2,3.5,2.4,5.2,3.6c-0.7-5.8-0.9-12.2-4.8-17c-2.2-0.4-4.7-0.4-6.5-1.8c-2.5-2-3.6-5.1-5-7.9c3,1.1,6.1,2.2,9.1,3.5c-2.5-6.2-3.2-12.8-5.6-19c-1.6-4.1-3.3-8.1-5.1-12.1c-2.8-6.2-9.2-9.5-13.7-14.3c-1.8-2.1-4.6-2.7-6.9-4c-1.6-1.5-1.3-4-1.6-6c1.7,0.9,3.3,1.9,5.1,2.8c-4.5-10.4-7.7-22.5-17.5-29.3c-1.2-1.4-2.8,0.4-4.1,0.7c-4,0.2-8.1,0.2-12.2,0.1c2.4-1.4,4.9-2.7,7.3-4c-1.5-1.1-3-2.6-4.9-3c-5-1.5-9.3,2.6-14.1,3.2c-0.1-3.3,1.3-6.2,4.2-7.7c-4.8-0.4-9.6-0.5-14.3,0.1c-2.1,5.8-4.4,11.6-8.9,15.9c0.7-4.9,2.3-9.5,3.5-14.3c-3,1-5.8,2.4-8.8,3.1C878.2,4.5,873.1,1.8,867.5,0.5z"/>
	<path fill="#FFFFFF" d="M834.5,25.7c4.4-1.4,7.9-4.9,12.5-5.8c4,0.2,7.9,1.4,11.7,2.9c0.4,1.3,0.9,2.5,1.4,3.8c5,0.3,5.8,5.6,7.8,9.1c5.7,1.3,12.1,1.3,17.2,4.7c6-3.5,13.1-4.8,19.9-3.9c1.2-2.7,1.8-5.8,3.4-8.3c4.5-2.6,9.1-7.9,14.8-5.9c3.6,1.7,8,1.2,11.2,3.8c3.2,3.7,4.5,8.4,6.9,12.6c-1.1,3.5-0.9,7.4-2,10.9c-3,3.8-6.5,7.5-11.1,9.3c1.9,6.5,0.6,13.3-2,19.4c1.7-0.6,3.4-1.4,4.7-2.6c-0.7,3.2-0.4,6.6-1.8,9.6c-1.3,3-3.8,5.2-5.2,8.1c-1.2,2.4-2.5,4.7-4.3,6.5c-2,2-4.7,3-6.8,4.8c3.7,0.7,7.5,0.7,11.1,1.3c7.6,1.3,14.9,4.2,21.8,7.7c1.2,1.5,0.4,3.6,0.8,5.4c-9.8-5.5-20.6-9.6-32-10.2c-0.2,1.9-0.5,3.9-0.6,5.8c2.6,1.9,5.7,2.9,8.5,4.5c6.3,3.1,12.3,7,17.7,11.5c0,2.3,0,4.6,0,6.9c-7.7-7.8-16.3-15.5-27.1-18.5c-1.9,2-3.7,4-5.4,6.3c-5-3.7-10.5-7.1-16.6-8.2c-4-0.5-4.1-5.6-5-8.7c3.7-1.5,6.4-4.5,8-8.1c1.5,0,2.9,0,4.4,0.1c1-1.7,1.4-3.9,0.7-5.8c-2.7-3.1-7.1-2.9-10.9-3.2c-6.1-0.1-13-0.9-18.3,3c0.1,2.3,0.7,4.6,2.4,6.2c1.7-0.5,3.4-1.2,5-1.9c-1,4.4,2,8,5.7,9.8c-0.2,2.5-0.4,5-0.6,7.5c-8.3,0.2-16,3.8-23.3,7.4c-2.2-1.9-4-4.2-5.8-6.5c-9.5,3.9-17.8,10-26.1,15.8c0-1.7-0.1-3.3-0.1-5c7-6.2,15.9-9.2,24-13.5c0-2.1,0-4.1,0.1-6.2c-10.1-1.3-20.8,1.7-28.8,8c-0.2-1.8-0.4-3.6-0.6-5.3c9.2-4.8,19.6-8.4,30.2-7.1c-0.2-2.3,0.3-4.9-1.5-6.7c-4.8-4.7-9.2-10.3-10.6-17c1.1-0.6,2.2-1.1,3.3-1.7c-1.5-6.9-3.2-14.4,0-21.1c-3.9-2.3-7.9-4.7-10.4-8.5c-2.1-3.8-3.7-7.8-4.8-12C830.1,32.9,832.3,29.4,834.5,25.7z M836.1,42.3c1.7,4.6,7.6,2.9,10.5,6.3c4.9-3.6,9.9-7.1,15.3-9.8c-1.1-7-8.6-9-14-12C839.8,25.6,835.7,35.5,836.1,42.3z M914.3,31.9c-1.9,1.7-2,4.5-2.6,6.9c5.8,3.2,10.7,8,13.7,13.9c2.7-0.4,5.4-0.8,7.9-1.8c2-3.7,1.6-8.3,0.8-12.3c-1.6-5.8-7.2-8.5-11.6-11.8C919.7,28.4,916.6,29.6,914.3,31.9z M891.4,48.1c1.3,0.3,2.7,0.6,4,1c1,1.8,1.5,4,2.9,5.7c2.8,0.5,5.7,0.2,8.6,0.2c-0.2-0.5-0.7-1.6-0.9-2.2c-3-0.4-4.8-2.7-6.2-5.2C897,47.6,893.7,45.8,891.4,48.1z M867.8,50.2c-2,0.8-2.7,2.9-3.4,4.7c3.1,0.1,6.2,0.1,9.3,0.1c1.5-3,4.2-5.1,5.8-8C875.3,46.9,871.4,48.5,867.8,50.2z M849.2,61.3c0.4,2.6,2.3,4.4,4.7,5.4c1.2,2.8,3.7,5,6.8,5.7c2.1-0.6,4.3-1.1,6.4-1.7c-0.1,5.1,0.3,10.7-2.4,15.3c-2.5,1.1-5.1,2-7.7,2.8c-0.9,3.1-1.5,6.3-1,9.5c3.1-1,5.9-2.7,8.9-3.9c0.5-3.1,3.2-5,5.6-6.7c0.4-6.7,2.1-13.3,2.6-20c0.5-3.3-2.6-6.7-5.9-6.3C861.1,61.2,855.2,61.2,849.2,61.3z M894.3,66.1c1.7,6.8,1.5,13.8,1.4,20.7c3.7,0.8,6.6,3.6,6.8,7.5c3.4,1.4,6.8,2.9,9.9,4.8c1.4-1.8,2.4-3.8,3.1-5.8c-2.5-2.5-6-3.1-9.2-4.3c-0.7-1.5-1.2-3-1.6-4.5c-1.6-0.7-3.2-1.2-4.8-1.8c0.1-4.3,0.1-8.7-0.6-12.9c0.9,1,1.7,1.9,2.6,2.9c5,1,11.5,0.1,12.5-5.9c2.3-0.3,4.5-0.9,5.9-2.9c-6.2-0.9-12.4-1.6-18.5-2.5C899.1,62.4,897,64.9,894.3,66.1z M856.5,106.9c0,2,1,3.7,2.4,5c2.3-1.8,5-2.9,7.8-3.8C863.8,105.7,859.9,107.7,856.5,106.9z M899.5,109.2c3.2,1.2,6.4,2.4,9.5,3.5c0-1.5,0-3,0-4.4C905.8,108.6,902.2,107.3,899.5,109.2z"/>
	<path fill="#FFFFFF" d="M1074.9,50.5c3.7-0.6,6.9-2.5,10.3-4c3.4,1.2,6.3,3.3,9,5.6c-3.4,0-7.1,0.7-10.3-0.9C1080.9,52.4,1077.6,52.6,1074.9,50.5z"/>
	<path fill="#FFFFFF" d="M819.4,61.1c0.5-4.1,2.9-7.6,5.3-10.8c0,3,0,6,0,9.1C823,59.9,821.2,60.5,819.4,61.1z"/>
	<path fill="#FFFFFF" d="M1104,57c2.5-0.8,5.1-1.6,7.7-2.2c2.3,4.4,6.5,8.1,6.3,13.5c-1.4-2.5-4-3.8-6.7-4.3C1109.2,61.5,1106.9,58.8,1104,57z"/>
	<path fill="#FFFFFF" d="M820,73.4c1.9-0.7,3.9-1.4,5.8-2.1c-1.4,1.8-3.9,3.5-3.4,6.2c0.1,6.2-2.1,12.1-2.8,18.2c-0.6-4.2-2.6-8-3.3-12.2C816.8,79.9,818.5,76.7,820,73.4z"/>
	<path fill="#FFFFFF" d="M944,76.3c1.3,2.3,3.1,4.5,3.8,7.1c-0.1,2.8-0.9,5.6-1.6,8.3c-2,0.5-3.9,0.9-5.8,1.4C941.3,87.4,942.9,81.9,944,76.3z"/>
	<path fill="#FFFFFF" d="M0,78.2c8.2,0.1,17.1-0.6,24.4,3.8c7.6,5.5,7.9,15.9,8.3,24.5c0.1,49.7,0,99.4,0,149c-0.2,8.4-1,18.1-7.7,24.1c-7,5.5-16.5,5.3-25,5.5V78.2z"/>
	<path fill="#FFFFFF" d="M955.1,106.1c1,1.9,2,3.8,3,5.6c0.7,0,2-0.2,2.7-0.2c1.5,3.5,3,6.9,4.1,10.6c-4.2-0.3-7.9-3.1-9.3-7C954.8,112.1,955,109.1,955.1,106.1z"/>
	<path fill="#FFFFFF" d="M861.5,127c8.1-4.3,17.6-5.6,26.6-4.1c5.8,0.7,11.2,3.1,16.7,5c-1.2,5.3-2.6,10.9-6.9,14.6c-0.5-2.8-2-5.1-3.8-7.2c-0.9,3.6-1.8,7.2-2.5,10.9c-2.4,1-5.1,1.6-7.6,0.6c-0.2-3.3-0.7-6.5-1-9.8c-1,0.5-2,1-2.9,1.5c-0.1,3.1-2.2,5.6-3.1,8.5c-2.3-0.5-4.5-1.4-6.6-2.6c0.1-3.1,0.1-6.2,0-9.3c-1.9,1.2-3.4,2.7-5,4.3C862.3,136,862.1,131.2,861.5,127z"/>
	<path fill="#FFFFFF" d="M1051.7,144.1c-1.4-5.9,4.4-12.9,10.7-11.4c0.8,1.3,1.1,3.1,2.7,3.6c2.1,0.4,4.2,0.4,6.3,0.9c2.2,1.7,2.7,4.7,3.6,7.1c-5.1-1.7-10.4-5.4-16-3.5C1056.4,141.4,1054,142.7,1051.7,144.1z"/>
	<path fill="#FFFFFF" d="M956.8,135.7c2.7-0.4,6.1-2.8,8.2-0.2c1.5,2,3.4,3.7,5.4,5.2c-4-0.9-8-1.6-12.2-1.4C957.7,138.1,957.3,136.9,956.8,135.7z"/>
	<path fill="#FFFFFF" d="M833.6,144.3c1.9,0.7,4.3,1.2,5.4,3.1c3.1,5.7,9,10,9.6,16.9c-6.4-3-12.9-8-14.3-15.3C834,147.4,833.8,145.9,833.6,144.3z"/>
	<path fill="#FFFFFF" d="M944.2,149.7c1.6-1.6,3.2-3.3,4.7-5c2.4,2.3,4.9,4.5,7.5,6.7C952.2,151.9,947.3,153.2,944.2,149.7z"/>
	<path fill="#FFFFFF" d="M924,145.2c2.1,0.9,4.3,1.9,6.5,2.8c1.5,2.2,1.7,4.8,1.5,7.4c1.8,2.1,3.6,4.1,5.3,6.2c-4.1-0.8-7.3-3.6-10.9-5.5C925.6,152.5,924.8,148.9,924,145.2z"/>
	<path fill="#FFFFFF" d="M851.3,147.2c2.6,1.4,5.3,3,7.8,4.6c-0.8,3.2-1.5,6.4-2.4,9.6C854.3,156.9,852.3,152.2,851.3,147.2z"/>
	<path fill="#FFFFFF" d="M1059.6,150.1c5.4-3.9,13.4,0.1,15,6.2c-4.6-0.1-9.3-1.7-13.9-0.1c-2.8,0.6-4.7,2.8-6.8,4.6C1052.3,156.1,1055.6,152,1059.6,150.1z"/>
	<path fill="#FFFFFF" d="M917.7,169.9c-4-5.6-3.1-12.9,0-18.7c1.1,4,2,8.1,2.8,12.2c0.7,3.9,4.7,5.5,7.3,7.8C924.5,172.5,919.7,173.7,917.7,169.9z"/>
	<path fill="#FFFFFF" d="M974.7,157.4c1.9-1,3.9-2,5.9-3c2.3,1.5,4.7,2.7,7.2,3.8C983.7,160.8,978.6,160,974.7,157.4z"/>
	<path fill="#FFFFFF" d="M823.1,160.6c2.4,0.6,4.8,1,7.2,1.6c-3.5,2.6-6.9,5.3-9.4,8.9c-0.4-1.9-0.9-3.7-1.5-5.6C820.3,163.6,821.6,162,823.1,160.6z"/>
	<path fill="#FFFFFF" d="M1060.5,163.3c4.5-1,9.4-0.6,13.7-2.5c2.4-0.9,3.1,2.4,4,3.9c3.3,0.3,6.5-3.3,9.4-0.6c2.7,2.5,3.9,6.2,5.3,9.5c-6.8-3.4-14.3-6.2-22-6.1c-5.8,0.6-11,3.6-15.7,6.8c-0.5-2.1-0.9-4.2-1.3-6.3C1056.5,167,1058.4,164.9,1060.5,163.3z"/>
	<path fill="#FFFFFF" d="M865.5,161.2c2.4,0,4.8,0.5,7.1,1.4c0.4,4,1.3,8,1.9,12C870.5,170.9,866.5,166.7,865.5,161.2z"/>
	<path fill="#FFFFFF" d="M899.3,169.9c-0.9-4,2.4-7,5.3-9c0.9,4.5,1.6,9,3.5,13.2C905,172.9,902,171.6,899.3,169.9z"/>
	<path fill="#FFFFFF" d="M958.8,166.4c2.4-1,4.6-2.4,6.8-3.8c3.9,2.9,7.9,6,12.7,7.4C971.9,173.5,964.4,169.9,958.8,166.4z"/>
	<path fill="#FFFFFF" d="M1016.2,162.6c4.9,0.7,7.4,5.5,11.7,7.3c2.3,1.2,4,3.1,5.7,4.9c0,2-0.1,4-0.1,6C1026.2,176.4,1021.6,168.9,1016.2,162.6z"/>
	<path fill="#FFFFFF" d="M883.4,169.4c2.8-1.9,5.3-4.2,7.7-6.6c-0.2,5-0.8,11.8-6.1,13.9C884.2,174.3,883.9,171.8,883.4,169.4z"/>
	<path fill="#FFFFFF" d="M939.3,174.7c2.8-1.4,5.8-2.3,8.8-2.9c3.3,4.3,6.8,8.5,11.2,11.8C951.7,183.8,944.5,180.1,939.3,174.7z"/>
	<path fill="#FFFFFF" d="M992.5,172.3c2.9,1.4,4.8,4.2,6,7.1c-0.3,2-2,3.3-3.1,4.8c-1.1-1.5-2.3-3-3-4.7C991.8,177.1,992.3,174.7,992.5,172.3z"/>
	<path fill="#FFFFFF" d="M833.8,174.9c1.9-0.8,4-1.4,6.1-1.4c-0.1,5.8-4,10.9-8.7,14C831.7,183.3,833.2,179.2,833.8,174.9z"/>
	<path fill="#FFFFFF" d="M1006,175c3.7-0.3,7.4,0.4,10.4,2.8c0.8,3.1,3.1,5.5,6.4,5.9c1.8,3.3,3,6.9,5.6,9.6c-1.6,1.8-3.1,3.7-4.5,5.6c2.1,1.4,5,2.5,5.6,5.3c-0.1,5.2-0.8,10.4-0.9,15.6c-0.7-0.8-2-1.3-2-2.5c-0.2-6.5-2.9-12.4-4.8-18.5c-1.8-5.9-5.5-10.9-7.8-16.5C1012.7,178.7,1009.1,176.9,1006,175z"/>
	<path fill="#FFFFFF" d="M1057.1,182c3.8,0.2,7.7-0.6,11.1-2.3c5-2.8,10.8,3.5,15.3-0.8c3.6-0.3,6.4,2,9,4c0.9,2.9,2,5.7,2.7,8.7c-4.6-0.6-11.3-0.6-12.8-6.2c-0.5-4.4-5.8-2.6-7.7-0.2c-1.9-0.4-3.9-0.8-5.8-1.1c-0.5,1.6-0.9,3.2-1.4,4.8c-3.1,1.7-6.8,2.4-10.2,1.1C1056.5,187.6,1057.2,184.7,1057.1,182z"/>
	<path fill="#FFFFFF" d="M848.4,183.4c0.7,0.1,2,0.2,2.6,0.3c-1.1,3.5-1.8,7.2-2.8,10.7c-0.1,1.4-1.5,2-2.7,2.4c-3.3,1.1-6.9,0.5-10.3,0.4C840.9,194.1,844.8,188.7,848.4,183.4z"/>
	<path fill="#FFFFFF" d="M921.2,185c4.5-1.2,9.1-2.1,13.7-2.1c0.8,1.5,1.5,3,2.4,4.4c2.8,1.7,5.8,3.1,8.6,4.7c-3.2,0.6-6.5,1.6-9.7,0.9C930.5,191.8,925.7,188.4,921.2,185z"/>
	<path fill="#FFFFFF" d="M1000.8,191.4c0-2.8,1.3-5.3,2.6-7.8c0.8,0.8,1.6,1.5,2.4,2.3c0.1,1.5,0.2,3,0.3,4.5c1.3,1.6,3,3,3.4,5.1c-0.5,2.1-2.1,3.6-3.6,5C1003.6,197.8,1001.2,195,1000.8,191.4z"/>
	<path fill="#FFFFFF" d="M896.3,185.4c4.2,0.8,8.4,1.4,12.5,2.4c3.4,2.9,6.5,6.2,9.5,9.6c-2.9,1.5-6,2.5-9.3,3C904,196.1,900.3,190.6,896.3,185.4z"/>
	<path fill="#FFFFFF" d="M852.1,197.3c5.7-2.7,10.5-6.7,14.7-11.4c1.9,0,3.8,0,5.8,0c-2,4-4.1,8.6-8.5,10.6C860.2,197.9,856.1,197.9,852.1,197.3z"/>
	<path fill="#FFFFFF" d="M878.5,194.9c2.6-1.6,5.6-2.6,8.8-2.5c-1.1,3.6-3.3,6.7-5.7,9.6c-3,4.5-8.9,4.5-13.4,6.6C872.4,204.7,876,200.1,878.5,194.9z"/>
	<path fill="#FFFFFF" d="M1033.3,195.8c1.4,0,2.9-0.1,4.3,0.2c3.6,3.7,3.4,9.2,1.8,13.8C1037.4,205.1,1035,200.6,1033.3,195.8z"/>
	<path fill="#FFFFFF" d="M1060.8,197.3c6.9-2.2,14.7-3.6,21.6-1.2c1.8,4.4,5.8,7.7,5.6,12.8c-2.6-0.6-5.1-1.4-7.5-2.7c-0.4-1.4-0.5-2.8-1.2-4.1c-4.9-2.8-10.5-0.1-15.4,1.2C1062.8,201.4,1061.7,199.3,1060.8,197.3z"/>
	<path fill="#FFFFFF" d="M992.2,209.5c0.8-3.2,3.2-5.6,5.6-7.7c2.4,3.7,2.5,8.4,1.1,12.5c1.6,1,3.4,1.9,4.8,3.2c0.5,4.7-3,8.6-3.3,13.2c-0.3-4.2-1.4-8.3-4.1-11.5c0.3-0.7,1-2.1,1.3-2.8C995.8,214.1,991.8,212.9,992.2,209.5z"/>
	<path fill="#FFFFFF" d="M1010.2,209.5c1.5-2.7,4.6-4,6.7-6.1c0.8,4.7,0.2,9.5,1.4,14.2c0.5,2.3-0.5,4.6-0.9,6.9c1.6,0.7,3.8,0.6,4.9,2.1c-0.5,3.9-3.2,6.9-5.3,10c0-3,0.6-6.1-0.1-9.1c-1.2-1.8-3.9-1.3-5.7-2c0.4-3,1-6.1,0.8-9.1C1011.6,214,1008.5,212.1,1010.2,209.5z"/>
	<path fill="#FFFFFF" d="M1062.6,220.5c0.6-4.1,0.3-9.5,4.5-11.9c2.8-0.6,5.1,1.2,7.3,2.6c2.9,1.8,6.1,3,9.4,3.8c-0.1,3.9,0,7.9-0.1,11.8c-4-2-3.8-7.4-7.5-9.7c-2.2-1.8-5.1-1.6-7.8-1.8C1066.5,217.2,1064.6,218.9,1062.6,220.5z"/>
	<path fill="#FFFFFF" d="M825.5,209.7c4.7,0.1,10.6-0.6,14.2,3.1c2.8,2.5,6.3,4,9.1,6.6c0,0.7,0,2.1,0,2.8c2.1,0.7,4.2,1.5,6.3,2.2c-0.2,3.7-0.5,7.4-0.6,11.1c-1.2-3.1-2.7-6.1-5.2-8.3c-1.7-1.5-4-1.8-5.9-3c-2.5-1.9-3.7-4.9-5.8-7.1c-2.4-0.4-4.7-0.7-7-1.3c-3.7-0.9-7.5,0.3-10.9,1.8C820.7,214.3,823.3,212.1,825.5,209.7z"/>
	<path fill="#FFFFFF" d="M900,213.2c2,0,4,0,6.1,0c1.4,2.9,2.8,5.8,4,8.8c-3.3-0.5-6.1-2.2-9-3.7C900.7,216.6,900.3,214.9,900,213.2z"/>
	<path fill="#FFFFFF" d="M939.4,217c2.1-1.4,4-3.5,6.6-3.9c2.2,1.3,4.5,2.6,7.1,2.6c6.1,0.2,8.8,6.4,11.4,11c-1.9-0.2-3.9-0.1-5.8-0.8c-2.1-1.4-3.7-3.3-5.7-4.7c-1.3,0.6-2.6,1.6-4.1,1.7c-3.3-0.8-6.3-2.9-9.8-2.7c-2.5,2.5-5.7,4.1-9,5c0.5-1.8,0.8-3.8,2.3-5.1C934.2,217.9,937.3,218.5,939.4,217z"/>
	<path fill="#FFFFFF" d="M874.8,218c3.8,0,7.7,0,11.5,0c0.8,1.6,1.6,3.3,2.4,4.9c-2.8,1.8-6.1,2.2-9.3,1.5C877.8,222.3,876.2,220.2,874.8,218z"/>
	<path fill="#FFFFFF" d="M813.3,231.3c1.2-2.8,1.8-6.7,4.9-8.2c4.6-1,8.8,1.5,12.5,3.8c4.4,3.1,8.3,6.9,13,9.6c0.4,1.3,0.4,2.9,1.4,4c1.3,0.8,2.8,1.1,4.1,2c1,2.2,1.1,4.7,1.7,7c-1.8,1.8-3.5,3.5-5.3,5.2c-0.7-3.1-0.7-6.4-2.3-9.2c0.4-0.6,1.1-1.8,1.5-2.4c-2.6-2.1-5.8-3.2-8.9-4.4c-5-1.9-8.7-5.8-12.9-8.8C819.7,229.1,816.5,230.9,813.3,231.3z"/>
	<path fill="#FFFFFF" d="M1061.1,226.8c6-1.3,12.1,0.1,17.3,3.1c1.3,2.1,2.2,4.3,3.3,6.5c-0.6,2.4-1.2,4.8-1.9,7.2c-4-1.1-4.9-5.2-6.3-8.5c-3.6-4.1-9.1-1-13.5-0.4C1059.1,232,1060.3,229.3,1061.1,226.8z"/>
	<path fill="#FFFFFF" d="M974,227.3c2.7,3,6.1,5.5,8,9.1c1.1,6.9,1,13.9,1,20.9c-1.3-1.8-2.7-3.6-4.2-5.3C980.6,243.4,976.1,235.4,974,227.3z"/>
	<path fill="#FFFFFF" d="M924.9,231.8c4.1-0.8,8-2.3,12.2-2.5c9.6,1.3,20.6-0.6,28.4,6.6c0.2,2.1,0.4,4.2,0.7,6.3c-3.5-1.6-7.5-2.7-9.5-6.2c-6.5-1.5-13,0.3-19.6,0.2c-0.3-0.4-1-1.3-1.4-1.7c-5,1-10.2,2.2-14.2,5.6C922.6,237.4,923.7,234.6,924.9,231.8z"/>
	<path fill="#FFFFFF" d="M1096.4,240.5c1.3-3.3,2.1-6.7,3.9-9.7c3.3,4.9,3.8,11.4,0.5,16.5C1099.3,245,1097.8,242.7,1096.4,240.5z"/>
	<path fill="#FFFFFF" d="M811.2,237.9c2.2,0.1,4.5-0.1,6.5,1.1c3.4,1.9,7.1,3.4,10.2,5.9c1,2.4,0.8,5.2,2.1,7.6c2.9,0.8,5.7,1.6,8.5,2.5c1,4.6,0.3,9.2-1.7,13.4c-2-4.6-3.3-9.4-5.6-13.9c-4.7-5-11.4-6.9-17.3-10c-1.6-0.8-3.4,0-5,0.1C809,242.1,809.9,239.9,811.2,237.9z"/>
	<path fill="#FFFFFF" d="M1049.1,247.7c2.9-3.1,6-6,8.8-9.1c1.8,1.3,3.7,2.6,6,2.9c-0.2,1.7-0.5,3.3-0.7,5c4.1-0.2,8.5,1.6,10.7,5.2c-0.7,0.9-1.3,1.9-1.9,2.9c-3.2-2-6.9-3.2-10.8-3.1c-1-2.6-1.4-7.4-5.1-7.2C1053.4,244.6,1051.4,246.6,1049.1,247.7z"/>
	<path fill="#FFFFFF" d="M933.9,244.6c6.6-0.8,13.7-2.9,20.2-0.3c4,1.6,8.2,2.9,12,5.1c2.6,1.5,3.2,4.5,3.7,7.2c1.6,0.6,3.2,1.4,4.7,2.2c-1.3,3.2-2.4,6.4-3.3,9.7c-1.3-4.7-3-10.7-8.5-11.8c-0.8-1.8-1.4-3.7-2.8-5.1c-2.2-2.8-6.1-2-9.1-2.6c1.4,1.8,2.9,3.6,4.2,5.4c-0.4,0.7-1.3,1.9-1.7,2.6c2.7,2.1,6.5,3.2,7.5,6.8c1.1,2.1,0.5,4.5,0.5,6.8c-1.4,0.7-2.8,1.4-4.2,2.1c-0.2-4,0.3-8.6-2.4-11.8c-1.8-2.3-5.6-0.2-7-3c-2-3.1-4.5-5.8-7-8.5c-4.3,2.1-9,1.6-13.5,2.1C929,248.9,930.3,245,933.9,244.6z"/>
	<path fill="#FFFFFF" d="M1087.4,250c1.1-1.9,2.2-3.7,3.4-5.6c1.7,1.9,4.2,3.5,4.9,6.1c0.1,2.8-0.6,5.9,1.8,7.9c-0.7,1.3-1.4,2.7-2,4C1093.3,258,1089.4,254.6,1087.4,250z"/>
	<path fill="#FFFFFF" d="M778.3,252.5c2.1,0,4.2,0,6.3,0c-0.9,1.9-1.9,3.8-1.7,5.9c1.6,1.5,4.4,1.6,5.2,3.9c1.4,3.4-0.5,7.2-1.5,10.5c-1.2-3.5-3.7-6.7-7.6-7.2c-1.3,2.8-2.9,5.6-2.9,8.8c-0.1,3.4,1,6.6,1.9,9.9c-2.1,1.9-4.4,3.5-7,4.5c-2.2-7.2-1.6-14.8-0.5-22.1C771.3,261.1,775.4,257,778.3,252.5z"/>
	<path fill="#FFFFFF" d="M794.5,261.9c3.1-6.1,10.6-8.8,17.1-7.2c-1,1.6-2,3.2-3.1,4.8c3.8,2,8,5.1,8.2,9.8c-1,6.4-6.3,10.5-10.3,15.1c0.7-4.6,2.3-9.1,2.8-13.7c-2.1-1.5-4.3-3.6-7.1-3.1c-2.6,1.7-2.6,5.3-4.3,7.8c-2.7,3.9-5.4,7.9-7.3,12.3C790.7,278.9,790.9,269.9,794.5,261.9z"/>
	<path fill="#FFFFFF" d="M930.9,258.8c1.3-0.7,2.7-1.4,4.1-1.9c2.6,0.1,4,2.6,5.3,4.4c0.8,1.7,3,1,4.5,1.5c2.3,3,2.9,8-0.9,10.1c-1-2.4-1.4-4.9-2.1-7.4c-0.5-1.9-2.7-2-4.3-2.6C934.9,262.3,932.9,260.4,930.9,258.8z"/>
	<path fill="#FFFFFF" d="M756.2,270c2.5-2.9,4.6-6.1,7.4-8.7c3.3,2.9,5.9,7.2,4.6,11.8c-2-1.1-4-2.1-6.1-2.8c-2.1,6.1,1.3,12.4-0.3,18.5c-3.1-0.8-5.6-3.9-5.5-7.2C756.2,277.7,756.3,273.8,756.2,270z"/>
	<path fill="#FF6600" d="M865.8,0.5h1.8c5.5,1.3,10.6,4,15.9,6.1c3-0.8,5.9-2.2,8.8-3.1c-1.1,4.8-2.8,9.4-3.5,14.3c4.5-4.4,6.8-10.2,8.9-15.9c4.8-0.5,9.5-0.5,14.3-0.1c-3,1.6-4.4,4.4-4.2,7.7c4.8-0.6,9.1-4.7,14.1-3.2c1.9,0.4,3.3,1.9,4.9,3c-2.5,1.3-4.9,2.6-7.3,4c4,0.1,8.1,0.1,12.2-0.1c1.3-0.3,2.8-2.1,4.1-0.7c9.8,6.8,13,18.9,17.5,29.3c-1.7-0.9-3.4-1.9-5.1-2.8c0.3,2-0.1,4.4,1.6,6c2.3,1.3,5.1,1.9,6.9,4c4.5,4.8,10.9,8.1,13.7,14.3c1.8,4,3.5,8,5.1,12.1c2.4,6.2,3.1,12.8,5.6,19c-3-1.3-6.1-2.4-9.1-3.5c1.4,2.7,2.6,5.8,5,7.9c1.9,1.4,4.3,1.4,6.5,1.8c3.9,4.8,4,11.2,4.8,17c-1.7-1.3-3.5-2.5-5.2-3.6c-2.3,5,3.3,7.9,6.8,10c0,3.9,0,7.8,0,11.7c8.4,6.4,18.6,10.8,29.3,11.2c8.8,0.1,17.7-2.2,25.3-6.8c-0.3-6.9,3.6-13.3,9.4-16.8c3.5-1.5,7.5-1.1,11.3-1.1c8.6,0.5,15.8,5.8,22.1,11.2c10.1,8.7,17.5,20.2,23.1,32.3c11.7,25.5,16.3,54.2,12.8,82.1c-0.6,4.7-1.6,9.3-2.8,13.8c5,3.2,11,5.4,16.9,4.2c16-2.6,29.3-14,37.3-27.6c11.7-19.5,14.7-43,13-65.4c-2.7-24.3-13.2-47.7-29.6-65.9c-9.2-9.9-19.9-18.8-32.3-24.3c-8.8-2.5-17.6,1.6-26.5,1c-4.5,0.1-8.4-2.4-12.1-4.5c-3.9-2.6-8.1-5.3-10.5-9.5c3.7,1.9,7.8,2.5,11.9,2.8c-0.5-1-1.6-2.9-2.1-3.9c4.3-2.1,9.1-2.2,13.8-2.3c-2.3-3.3-6.3-3.9-10-3.8c-2.8,0.4-5.1-2.9-7.7-1.4c0.2,1.9,0.7,3.8,1.2,5.7c-3.5-1.6-7.3-1.9-11-2.4c-3.4-3.4-4.7-8.4-7.9-11.9c-1.6-2-3.8-3.3-5.9-4.6c-0.1-0.4-0.3-1.1-0.5-1.4c10.7-2.3,20.8-7.5,31.9-7.9c3.9,0.1,8,0,11.5,1.9c-1.2,1.2-2.3,2.5-3.5,3.7c3.4,2.4,7.2,4.2,11.4,4.7c-0.8-2.5-1.7-5.1-2.4-7.6c4.2,2.4,8.6,5.1,11.5,9.1c7.4,13.3,19.2,23.7,31.6,32.3c14.6,10,26.2,23.8,35.2,38.9c10.9,18.4,17.2,39.5,18.7,60.8v14.7c-1.9,29.7-14,60.1-37.8,79c-11.9,9.4-27.3,13.5-42.3,13.4c-4.1,0.2-8.4-0.8-12.2,1.2c-4.3,2.1-8.9,3.7-13.7,3.6c-16.8,0-33.5,0-50.3,0c0.5-3.8,1.2-7.6,2.2-11.3c0.8-3,3.5-4.7,6-6.1c1.7,3.3,3.3,6.7,5.1,10c1.5-2.1,3-4.4,2.7-7.1c0-3.8-3.3-6.3-5.6-8.8c1.7-1.7,3.3-3.4,5-5c1.8,1.5,2.9,4.7,5.7,4.2c1.9,0,3.4-1.2,4.9-2c-4.1-3.9-7.6-9.6-13.9-9.7c-4.3,0.9-7.2,4.7-9.7,8c-2.6,3.9-4.9,8.1-6,12.6c-0.8,5-0.7,10.2-1,15.3c-3,0-6.1,0-9.1,0.1c0.6-6.4-0.5-12.8,0.8-19.2c1.6,0.9,3.1,1.8,4.7,2.7c1.1-2,2.1-4,3.1-6c-1.8-1.8-3.7-3.6-5.4-5.4c0.8-2.3,1.7-4.6,2.5-6.8c2.4,0.8,4.9,1.5,7.4,2.3c-0.7-1.2-1.4-2.5-2-3.7c2.4-2.2,5.4,0.1,8,0.6c0.2-1.2,0.5-2.4,0.8-3.5c-5.6-2.1-11.9-3.7-17.6-1.4c-0.2,0.7-0.6,2.1-0.7,2.8c-6.1,0.8-12.1,1.6-18.1,2.9c-3.1,3.6-5.6,7.7-8.6,11.4c0,4.2-0.1,8.5,0.7,12.7c0.6,4,3.3,7.2,5.1,10.6c-31.4,0-62.8,0-94.2,0c1.6-3.2,3.4-6.3,5.3-9.3c2.8,4,7.9,3,12,2.5c1.2-0.4,3.6-1.1,3-2.8c-3.5-1.6-7.6-2.4-10.4-5.3c-0.6-3.8,0.2-7.7-0.5-11.5c-1-4-5.2-6.1-8.9-6.3c-3.9,0.1-7.2,2.3-10.1,4.8c-2.7-2-5.6-3.9-8.7-5.2c0-3,0.3-6,0.9-9c1.9-0.3,3.9-0.7,5.9-0.7c5,0,9.1,3.8,14.1,3.4c-3.3-8.1-13.5-10-21.3-8.9c-3.4,0.2-5,3.7-6.9,5.9c-0.4-0.4-1.3-1.3-1.8-1.8c-4.9,1.4-9.7,2.8-14.6,4.1c-1.9,6.4-7.3,11.1-8.8,17.7c-0.5,4.3-1,8.8,0.1,13c1.4,3.2,3.7,5.9,4.9,9.2c-40.8,0.1-81.7,0.1-122.5,0c-3.9-6.7-5.3-14.7-4-22.3c0.7-2.9,2.6-5.2,4.3-7.6c-0.7-6.7,4-12.3,9.3-15.7c3.8-2.2,8.4-1.6,12.4-0.4c6.4-8.3,19.4-8.9,27.3-2.5c4.4-16.9,9.5-33.8,18.2-49c-6-14.9-11.2-30.2-14.1-46c-0.4-1.4,0-3,1-4c2.8-3.2,4.2-7.3,6.2-11c-3.3,1.4-6.7,3.1-8.9,6c0-4.6-1-9.2-0.9-13.9c0.3-3.1,3-4.8,5.6-6.1c0-3.2,0-6.4,0.1-9.6c-2.5,2.1-4.9,4.2-7.3,6.4c0-4.3,0-8.6,0.1-12.9c1.8-1.5,4-3.1,3.9-5.7c0.1-14.5,0.6-29.3,5.1-43.2c1.3-3.6,4.2-6.3,6.9-8.8c0-3.9,0-7.9,0.1-11.8c2.7-1.9,5.2-4.1,7.8-6.3c-1.6,0-3.3-0.1-4.9-0.1c3.1-9.1,10.7-15.7,18.3-21.1c5.4,1.4,10.9,2.6,16.5,3.3c-2.2-2.3-4.8-4-7.8-5.3c3.6-2.7,7.9-4.3,12.4-4.5c2.4,4.1,4.6,8.7,8.6,11.5C868.6,9,869.2,3.9,865.8,0.5z M834.5,25.7c-2.1,3.6-4.4,7.2-6.4,10.9c1.1,4.2,2.7,8.2,4.8,12c2.5,3.9,6.5,6.3,10.4,8.5c-3.2,6.6-1.5,14.2,0,21.1c-1.1,0.6-2.2,1.1-3.3,1.7c1.4,6.7,5.8,12.3,10.6,17c1.8,1.7,1.3,4.4,1.5,6.7c-10.6-1.3-20.9,2.3-30.2,7.1c0.2,1.8,0.4,3.6,0.6,5.3c8-6.3,18.7-9.3,28.8-8c0,2.1-0.1,4.1-0.1,6.2c-8.1,4.2-17,7.3-24,13.5c0,1.7,0,3.3,0.1,5c8.3-5.8,16.6-11.9,26.1-15.8c1.8,2.3,3.6,4.6,5.8,6.5c7.3-3.6,14.9-7.2,23.3-7.4c0.1-2.5,0.3-5,0.6-7.5c-3.7-1.8-6.7-5.4-5.7-9.8c-1.6,0.8-3.3,1.4-5,1.9c-1.7-1.7-2.3-3.9-2.4-6.2c5.3-3.9,12.1-3.1,18.3-3c3.7,0.3,8.2,0.2,10.9,3.2c0.7,1.9,0.3,4.1-0.7,5.8c-1.5,0-3-0.1-4.4-0.1c-1.6,3.6-4.3,6.7-8,8.1c0.9,3.1,1,8.2,5,8.7c6.2,1.2,11.6,4.5,16.6,8.2c1.6-2.2,3.5-4.3,5.4-6.3c10.8,3.1,19.4,10.8,27.1,18.5c0-2.3,0-4.6,0-6.9c-5.4-4.6-11.3-8.4-17.7-11.5c-2.8-1.5-5.9-2.6-8.5-4.5c0.2-1.9,0.4-3.9,0.6-5.8c11.4,0.6,22.1,4.7,32,10.2c-0.4-1.7,0.4-3.9-0.8-5.4c-6.9-3.5-14.2-6.4-21.8-7.7c-3.7-0.7-7.5-0.6-11.1-1.3c2.1-1.8,4.9-2.8,6.8-4.8c1.9-1.9,3.2-4.2,4.3-6.5c1.3-3,3.9-5.1,5.2-8.1c1.4-3,1.1-6.4,1.8-9.6c-1.4,1.2-3,2-4.7,2.6c2.6-6.1,3.9-12.9,2-19.4c4.6-1.8,8.1-5.5,11.1-9.3c1.2-3.5,1-7.3,2-10.9c-2.4-4.2-3.8-8.9-6.9-12.6c-3.1-2.6-7.6-2.1-11.2-3.8c-5.7-2-10.3,3.2-14.8,5.9c-1.7,2.5-2.2,5.6-3.4,8.3c-6.9-1-13.9,0.4-19.9,3.9c-5.1-3.4-11.4-3.4-17.2-4.7c-1.9-3.5-2.8-8.9-7.8-9.1c-0.5-1.3-1-2.5-1.4-3.8c-3.8-1.4-7.7-2.6-11.7-2.9C842.4,20.9,838.8,24.3,834.5,25.7z M1074.9,50.5c2.7,2.1,6,1.9,9,0.8c3.2,1.6,6.8,0.9,10.3,0.9c-2.7-2.3-5.6-4.5-9-5.6C1081.8,48,1078.6,49.9,1074.9,50.5z M819.4,61.1c1.8-0.6,3.6-1.2,5.4-1.8c0-3,0-6,0-9.1C822.3,53.5,819.8,57,819.4,61.1z M1104,57c3,1.8,5.2,4.4,7.4,7.1c2.7,0.5,5.3,1.7,6.7,4.3c0.2-5.4-4-9.1-6.3-13.5C1109.1,55.4,1106.5,56.2,1104,57z M820,73.4c-1.5,3.3-3.2,6.5-3.7,10.1c0.7,4.2,2.7,8,3.3,12.2c0.7-6.1,2.9-12,2.8-18.2c-0.4-2.6,2-4.3,3.4-6.2C823.9,72.1,821.9,72.8,820,73.4z M944,76.3c-1.1,5.6-2.7,11.1-3.7,16.8c1.9-0.5,3.9-1,5.8-1.4c0.7-2.7,1.5-5.4,1.6-8.3C947.1,80.7,945.3,78.5,944,76.3z M955.1,106.1c-0.1,3-0.2,6,0.5,9c1.4,4,5.1,6.7,9.3,7c-1.1-3.6-2.6-7.1-4.1-10.6c-0.7,0-2,0.2-2.7,0.2C957,109.8,956.1,107.9,955.1,106.1z M861.5,127c0.6,4.3,0.8,9.1,3.9,12.4c1.5-1.6,3.1-3.1,5-4.3c0.1,3.1,0.1,6.2,0,9.3c2,1.2,4.3,2.1,6.6,2.6c1-2.9,3-5.4,3.1-8.5c0.9-0.5,1.9-1,2.9-1.5c0.3,3.3,0.8,6.5,1,9.8c2.5,1,5.2,0.4,7.6-0.6c0.6-3.7,1.6-7.3,2.5-10.9c1.8,2.1,3.3,4.4,3.8,7.2c4.3-3.7,5.7-9.3,6.9-14.6c-5.5-1.9-10.9-4.3-16.7-5C879.1,121.4,869.6,122.6,861.5,127z M1051.7,144.1c2.3-1.4,4.7-2.6,7.3-3.2c5.6-1.9,10.8,1.9,16,3.5c-0.9-2.5-1.4-5.4-3.6-7.1c-2.1-0.5-4.2-0.5-6.3-0.9c-1.6-0.5-2-2.3-2.7-3.6C1056.1,131.1,1050.3,138.1,1051.7,144.1z M956.8,135.7c0.5,1.2,1,2.5,1.5,3.7c4.2-0.2,8.2,0.4,12.2,1.4c-2-1.5-3.9-3.2-5.4-5.2C962.8,132.9,959.4,135.3,956.8,135.7z M833.6,144.3c0.2,1.6,0.4,3.1,0.8,4.7c1.3,7.3,7.9,12.3,14.3,15.3c-0.6-6.9-6.6-11.2-9.6-16.9C837.9,145.5,835.5,145,833.6,144.3z M944.2,149.7c3.1,3.6,8.1,2.2,12.2,1.7c-2.5-2.2-5.1-4.4-7.5-6.7C947.3,146.4,945.8,148,944.2,149.7z M924,145.2c0.7,3.7,1.5,7.3,2.4,10.9c3.6,1.9,6.8,4.7,10.9,5.5c-1.7-2.1-3.6-4.1-5.3-6.2c0.2-2.6,0-5.2-1.5-7.4C928.3,147.1,926.2,146.1,924,145.2z M851.3,147.2c1,5,3.1,9.6,5.4,14.1c0.8-3.2,1.6-6.4,2.4-9.6C856.5,150.2,853.9,148.6,851.3,147.2z M1059.6,150.1c-4,1.9-7.3,6-5.6,10.6c2.1-1.8,4-3.9,6.8-4.6c4.5-1.5,9.3,0,13.9,0.1C1073,150.2,1065,146.2,1059.6,150.1z M917.7,169.9c2,3.7,6.8,2.6,10.1,1.3c-2.6-2.3-6.7-4-7.3-7.8c-0.8-4.1-1.7-8.2-2.8-12.2C914.6,157,913.7,164.4,917.7,169.9z M974.7,157.4c3.8,2.6,9,3.4,13,0.8c-2.5-1.1-4.9-2.3-7.2-3.8C978.6,155.4,976.7,156.4,974.7,157.4z M823.1,160.6c-1.5,1.4-2.8,3.1-3.7,4.9c0.6,1.8,1.1,3.7,1.5,5.6c2.5-3.6,5.9-6.3,9.4-8.9C827.8,161.6,825.5,161.1,823.1,160.6z M1060.5,163.3c-2.1,1.7-4,3.7-6.6,4.7c0.4,2.1,0.8,4.2,1.3,6.3c4.7-3.2,9.9-6.2,15.7-6.8c7.7-0.1,15.2,2.7,22,6.1c-1.3-3.3-2.5-7-5.3-9.5c-2.9-2.7-6.1,0.8-9.4,0.6c-0.9-1.5-1.5-4.8-4-3.9C1069.9,162.6,1065.1,162.3,1060.5,163.3z M865.5,161.2c1,5.5,5,9.7,9,13.4c-0.6-4-1.5-8-1.9-12C870.3,161.7,867.9,161.2,865.5,161.2z M899.3,169.9c2.7,1.8,5.7,3.1,8.8,4.2c-1.8-4.2-2.6-8.8-3.5-13.2C901.7,162.9,898.4,165.9,899.3,169.9z M958.8,166.4c5.6,3.5,13.1,7,19.5,3.6c-4.8-1.4-8.8-4.5-12.7-7.4C963.4,164,961.2,165.4,958.8,166.4z M1016.2,162.6c5.4,6.3,9.9,13.9,17.3,18.2c0-2,0.1-4,0.1-6c-1.7-1.8-3.4-3.8-5.7-4.9C1023.6,168.1,1021.1,163.3,1016.2,162.6z M883.4,169.4c0.5,2.4,0.8,4.9,1.6,7.3c5.3-2.1,6-8.9,6.1-13.9C888.7,165.2,886.2,167.4,883.4,169.4z M939.3,174.7c5.2,5.4,12.4,9.1,20,8.9c-4.4-3.3-7.9-7.5-11.2-11.8C945.1,172.4,942.1,173.3,939.3,174.7z M992.5,172.3c-0.1,2.4-0.6,4.8-0.2,7.2c0.7,1.7,2,3.2,3,4.7c1.1-1.5,2.8-2.8,3.1-4.8C997.3,176.5,995.3,173.7,992.5,172.3z M833.8,174.9c-0.6,4.3-2,8.4-2.6,12.6c4.7-3.2,8.6-8.2,8.7-14C837.7,173.5,835.7,174.1,833.8,174.9z M1006,175c3,2,6.7,3.7,8,7.4c2.3,5.6,6.1,10.6,7.8,16.5c1.9,6.1,4.6,12.1,4.8,18.5c-0.1,1.2,1.3,1.8,2,2.5c0-5.2,0.8-10.4,0.9-15.6c-0.5-2.8-3.5-3.9-5.6-5.3c1.4-2,2.9-3.9,4.5-5.6c-2.7-2.7-3.9-6.4-5.6-9.6c-3.3-0.4-5.6-2.8-6.4-5.9C1013.5,175.4,1009.7,174.7,1006,175z M1057.1,182c0.1,2.7-0.6,5.6,0.3,8.1c3.3,1.3,7.1,0.6,10.2-1.1c0.5-1.6,0.9-3.2,1.4-4.8c1.9,0.3,3.9,0.7,5.8,1.1c1.9-2.4,7.1-4.2,7.7,0.2c1.4,5.6,8.2,5.5,12.8,6.2c-0.8-3-1.8-5.8-2.7-8.7c-2.7-2-5.5-4.3-9-4c-4.5,4.3-10.3-2-15.3,0.8C1064.7,181.4,1060.9,182.2,1057.1,182z M848.4,183.4c-3.6,5.3-7.5,10.7-13.3,13.7c3.4,0.1,7,0.8,10.3-0.4c1.1-0.4,2.6-0.9,2.7-2.4c1-3.6,1.8-7.2,2.8-10.7C850.3,183.6,849,183.5,848.4,183.4z M921.2,185c4.5,3.4,9.3,6.8,15,7.9c3.3,0.7,6.5-0.3,9.7-0.9c-2.8-1.6-5.8-3-8.6-4.7c-0.9-1.4-1.6-2.9-2.4-4.4C930.3,182.9,925.7,183.8,921.2,185z M1000.8,191.4c0.4,3.6,2.8,6.5,5,9.1c1.5-1.4,3.1-2.9,3.6-5c-0.4-2.1-2-3.6-3.4-5.1c-0.1-1.5-0.2-3-0.3-4.5c-0.8-0.8-1.6-1.5-2.4-2.3C1002.2,186.1,1000.8,188.6,1000.8,191.4z M896.3,185.4c4,5.2,7.7,10.7,12.8,14.9c3.2-0.4,6.4-1.5,9.3-3c-2.9-3.4-6-6.7-9.5-9.6C904.7,186.8,900.5,186.3,896.3,185.4z M852.1,197.3c4,0.6,8.1,0.5,12-0.8c4.4-2,6.5-6.6,8.5-10.6c-2,0-3.9,0-5.8,0C862.6,190.6,857.8,194.7,852.1,197.3z M878.5,194.9c-2.5,5.2-6.1,9.8-10.4,13.7c4.5-2.1,10.4-2.1,13.4-6.6c2.4-2.9,4.6-6,5.7-9.6C884.1,192.3,881.2,193.3,878.5,194.9z M1033.3,195.8c1.7,4.8,4.1,9.3,6.2,14c1.5-4.6,1.8-10.1-1.8-13.8C1036.2,195.7,1034.8,195.8,1033.3,195.8z M1060.8,197.3c1,2.1,2,4.1,3.1,6.1c4.9-1.3,10.6-4,15.4-1.2c0.6,1.3,0.8,2.7,1.2,4.1c2.3,1.3,4.9,2.1,7.5,2.7c0.2-5.1-3.8-8.4-5.6-12.8C1075.4,193.7,1067.6,195.1,1060.8,197.3z M992.2,209.5c-0.4,3.4,3.7,4.6,5.4,6.9c-0.3,0.7-1,2.1-1.3,2.8c2.7,3.2,3.8,7.3,4.1,11.5c0.3-4.6,3.8-8.5,3.3-13.2c-1.5-1.3-3.2-2.1-4.8-3.2c1.4-4.1,1.3-8.8-1.1-12.5C995.4,203.9,993,206.3,992.2,209.5z M1010.2,209.5c-1.7,2.5,1.4,4.5,1.8,6.9c0.2,3.1-0.4,6.1-0.8,9.1c1.8,0.7,4.5,0.2,5.7,2c0.8,3,0.2,6.1,0.1,9.1c2.1-3.1,4.8-6.2,5.3-10c-1.1-1.5-3.3-1.4-4.9-2.1c0.4-2.3,1.5-4.6,0.9-6.9c-1.2-4.7-0.6-9.5-1.4-14.2C1014.8,205.6,1011.7,206.8,1010.2,209.5z M1062.6,220.5c2-1.6,3.9-3.3,5.8-5.1c2.6,0.1,5.6,0,7.8,1.8c3.7,2.3,3.5,7.8,7.5,9.7c0.1-3.9,0-7.9,0.1-11.8c-3.3-0.9-6.5-2.1-9.4-3.8c-2.1-1.5-4.5-3.3-7.3-2.6C1062.9,211,1063.2,216.4,1062.6,220.5z M825.5,209.7c-2.2,2.4-4.8,4.7-5.8,7.8c3.4-1.5,7.2-2.6,10.9-1.8c2.3,0.6,4.7,0.9,7,1.3c2.1,2.3,3.3,5.2,5.8,7.1c1.8,1.2,4.2,1.5,5.9,3c2.5,2.2,4,5.3,5.2,8.3c0.1-3.7,0.5-7.4,0.6-11.1c-2.1-0.7-4.2-1.5-6.3-2.2c0-0.7,0-2.1,0-2.8c-2.8-2.6-6.3-4.1-9.1-6.6C836.1,209.1,830.2,209.7,825.5,209.7z M900,213.2c0.3,1.7,0.6,3.4,1,5.1c2.9,1.5,5.8,3.2,9,3.7c-1.2-3-2.5-5.9-4-8.8C904.1,213.2,902.1,213.2,900,213.2z M939.4,217c-2.1,1.5-5.2,0.9-6.9,3.1c-1.5,1.3-1.9,3.3-2.3,5.1c3.3-1,6.5-2.5,9-5c3.5-0.2,6.5,1.9,9.8,2.7c1.5-0.2,2.8-1.1,4.1-1.7c2,1.5,3.6,3.4,5.7,4.7c1.8,0.7,3.8,0.6,5.8,0.8c-2.6-4.5-5.4-10.8-11.4-11c-2.7,0-4.9-1.3-7.1-2.6C943.3,213.6,941.5,215.6,939.4,217z M874.8,218c1.5,2.2,3.1,4.3,4.6,6.4c3.2,0.7,6.5,0.3,9.3-1.5c-0.8-1.6-1.6-3.3-2.4-4.9C882.4,218,878.6,218,874.8,218z M813.3,231.3c3.2-0.4,6.4-2.2,9.7-1.5c4.3,2.9,8,6.9,12.9,8.8c3.1,1.1,6.3,2.3,8.9,4.4c-0.4,0.6-1.1,1.8-1.5,2.4c1.6,2.8,1.6,6.1,2.3,9.2c1.8-1.7,3.5-3.5,5.3-5.2c-0.5-2.3-0.7-4.8-1.7-7c-1.3-0.9-2.8-1.1-4.1-2c-1-1.1-1-2.6-1.4-4c-4.7-2.7-8.5-6.6-13-9.6c-3.8-2.2-7.9-4.8-12.5-3.8C815.1,224.6,814.6,228.5,813.3,231.3z M1061.1,226.8c-0.9,2.6-2,5.2-1.1,7.9c4.4-0.5,10-3.6,13.5,0.4c1.4,3.3,2.3,7.4,6.3,8.5c0.7-2.4,1.3-4.8,1.9-7.2c-1.1-2.2-2-4.4-3.3-6.5C1073.2,226.8,1067.1,225.5,1061.1,226.8z M974,227.3c2,8.1,6.6,16.1,4.8,24.7c1.5,1.7,2.9,3.5,4.2,5.3c0-7,0-14-1-20.9C980.1,232.8,976.7,230.3,974,227.3z M924.9,231.8c-1.2,2.8-2.3,5.6-3.5,8.3c4-3.4,9.2-4.5,14.2-5.6c0.3,0.4,1,1.3,1.4,1.7c6.5,0,13.1-1.7,19.6-0.2c2.1,3.5,6.1,4.6,9.5,6.2c-0.2-2.1-0.4-4.2-0.7-6.3c-7.7-7.2-18.8-5.3-28.4-6.6C932.9,229.5,929,231.1,924.9,231.8z M1096.4,240.5c1.4,2.3,2.9,4.5,4.5,6.8c3.3-5,2.7-11.6-0.5-16.5C1098.4,233.8,1097.6,237.2,1096.4,240.5z M811.2,237.9c-1.3,2-2.2,4.3-2.4,6.7c1.6-0.1,3.4-0.9,5-0.1c5.9,3.1,12.6,5,17.3,10c2.3,4.4,3.6,9.3,5.6,13.9c2-4.2,2.7-8.8,1.7-13.4c-2.8-0.9-5.7-1.8-8.5-2.5c-1.3-2.3-1.2-5.1-2.1-7.6c-3-2.5-6.8-3.9-10.2-5.9C815.7,237.8,813.3,237.9,811.2,237.9z M1049.1,247.7c2.3-1.1,4.3-3.1,7-3.5c3.7-0.2,4.1,4.6,5.1,7.2c3.8-0.1,7.5,1.1,10.8,3.1c0.6-1,1.3-1.9,1.9-2.9c-2.2-3.6-6.6-5.4-10.7-5.2c0.2-1.6,0.4-3.3,0.7-5c-2.3-0.2-4.1-1.6-6-2.9C1055.1,241.8,1052,244.7,1049.1,247.7z M933.9,244.6c-3.6,0.4-4.9,4.3-6.8,6.9c4.5-0.6,9.3-0.1,13.5-2.1c2.5,2.7,5,5.4,7,8.5c1.4,2.8,5.2,0.7,7,3c2.7,3.2,2.2,7.9,2.4,11.8c1.4-0.7,2.8-1.4,4.2-2.1c0-2.3,0.6-4.7-0.5-6.8c-1.1-3.5-4.9-4.7-7.5-6.8c0.4-0.6,1.3-1.9,1.7-2.6c-1.3-1.9-2.8-3.6-4.2-5.4c3,0.6,7-0.2,9.1,2.6c1.4,1.4,2,3.3,2.8,5.1c5.5,1.1,7.2,7.1,8.5,11.8c0.9-3.3,2-6.5,3.3-9.7c-1.5-0.9-3.1-1.6-4.7-2.2c-0.5-2.7-1.1-5.7-3.7-7.2c-3.8-2.1-8-3.5-12-5.1C947.6,241.7,940.5,243.8,933.9,244.6z M1087.4,250c2.1,4.6,6,7.9,8,12.5c0.6-1.4,1.3-2.7,2-4c-2.4-2.1-1.7-5.2-1.8-7.9c-0.7-2.6-3.2-4.2-4.9-6.1C1089.6,246.3,1088.4,248.1,1087.4,250z M778.3,252.5c-3,4.5-7.1,8.7-7.7,14.2c-1.1,7.3-1.7,14.9,0.5,22.1c2.7-1,5-2.6,7-4.5c-0.9-3.2-2.1-6.5-1.9-9.9c0-3.2,1.6-6,2.9-8.8c3.9,0.5,6.4,3.8,7.6,7.2c1-3.3,2.9-7,1.5-10.5c-0.8-2.3-3.7-2.4-5.2-3.9c-0.2-2.1,0.8-4.1,1.7-5.9C782.5,252.5,780.4,252.5,778.3,252.5z M794.5,261.9c-3.7,8-3.9,17-4.1,25.6c1.9-4.4,4.6-8.3,7.3-12.3c1.7-2.4,1.7-6,4.3-7.8c2.8-0.5,5,1.6,7.1,3.1c-0.5,4.6-2.1,9.1-2.8,13.7c4.1-4.5,9.3-8.7,10.3-15.1c-0.1-4.7-4.3-7.8-8.2-9.8c1.1-1.6,2.1-3.2,3.1-4.8C805.2,253.1,797.7,255.8,794.5,261.9z M930.9,258.8c2.1,1.6,4,3.5,6.7,4.2c1.5,0.6,3.7,0.8,4.3,2.6c0.7,2.5,1.1,5,2.1,7.4c3.7-2.1,3.2-7.1,0.9-10.1c-1.5-0.6-3.7,0.1-4.5-1.5c-1.3-1.9-2.7-4.4-5.3-4.4C933.5,257.4,932.2,258.1,930.9,258.8z M756.2,270c0.1,3.9,0,7.8,0,11.6c-0.1,3.3,2.4,6.3,5.5,7.2c1.6-6.2-1.8-12.4,0.3-18.5c2.1,0.7,4.1,1.7,6.1,2.8c1.4-4.6-1.3-8.8-4.6-11.8C760.8,263.9,758.7,267.1,756.2,270z"/>
	<path fill="#FF6600" d="M836.1,42.3c-0.4-6.8,3.7-16.7,11.9-15.5c5.3,3,12.8,5,14,12c-5.5,2.7-10.5,6.2-15.3,9.8C843.7,45.2,837.8,46.9,836.1,42.3z"/>
	<path fill="#FF6600" d="M914.3,31.9c2.3-2.3,5.4-3.5,8.2-5.2c4.4,3.3,10,6.1,11.6,11.8c0.9,4,1.3,8.6-0.8,12.3c-2.5,1-5.3,1.4-7.9,1.8c-3-5.9-7.9-10.7-13.7-13.9C912.3,36.4,912.3,33.6,914.3,31.9z"/>
	<path fill="#FF6600" d="M891.4,48.1c2.3-2.3,5.6-0.5,8.4-0.5c1.4,2.5,3.2,4.8,6.2,5.2c0.2,0.5,0.7,1.6,0.9,2.2c-2.9,0-5.7,0.3-8.6-0.2c-1.4-1.7-1.9-3.8-2.9-5.7C894,48.7,892.7,48.4,891.4,48.1z"/>
	<path fill="#FF6600" d="M867.8,50.2c3.7-1.6,7.5-3.3,11.6-3.3c-1.6,2.9-4.3,5.1-5.8,8c-3.1,0-6.2,0-9.3-0.1C865.1,53.1,865.8,51,867.8,50.2z"/>
	<path fill="#FF6600" d="M849.2,61.3c6-0.1,11.9,0,17.8,0c3.3-0.4,6.4,3,5.9,6.3c-0.5,6.7-2.2,13.3-2.6,20c-2.5,1.7-5.1,3.5-5.6,6.7c-3,1.3-5.8,2.9-8.9,3.9c-0.5-3.2,0.1-6.4,1-9.5c2.6-0.8,5.2-1.8,7.7-2.8c2.8-4.6,2.4-10.1,2.4-15.3c-2.1,0.6-4.3,1.1-6.4,1.7c-3-0.7-5.5-2.8-6.8-5.7C851.5,65.7,849.6,63.9,849.2,61.3z"/>
	<path fill="#FF6600" d="M894.3,66.1c2.8-1.2,4.8-3.7,7.6-5c6.2,1,12.4,1.6,18.5,2.5c-1.4,2-3.6,2.6-5.9,2.9c-1,6-7.6,6.9-12.5,5.9c-0.9-1-1.7-1.9-2.6-2.9c0.7,4.3,0.7,8.6,0.6,12.9c1.6,0.6,3.2,1.2,4.8,1.8c0.4,1.5,1,3.1,1.6,4.5c3.1,1.2,6.7,1.8,9.2,4.3c-0.8,2.1-1.8,4.1-3.1,5.8c-3.2-1.9-6.5-3.4-9.9-4.8c-0.2-3.9-3.1-6.7-6.8-7.5C895.8,79.9,896,72.9,894.3,66.1z"/>
	<path fill="#FF6600" d="M856.5,106.9c3.4,0.8,7.3-1.1,10.3,1.2c-2.8,0.9-5.5,2-7.8,3.8C857.6,110.5,856.5,108.9,856.5,106.9z"/>
	<path fill="#FF6600" d="M899.5,109.2c2.8-1.8,6.4-0.6,9.5-0.9c0,1.5,0,3,0,4.4C905.8,111.5,902.6,110.4,899.5,109.2z"/>
	<path fill="#FF6600" d="M882.4,261.1c2.9-0.9,6-1.2,8.9-1.7c-1.1,2.6-2,5.3-2.2,8.1c-0.6,9.1,0.7,18.4,4.7,26.6c-3.3-0.1-6.5-0.1-9.8-0.1c-1.6-6-6.9-10.8-6.2-17.4c0.4-4.4,7.2-3,7.7-7.7c-0.5-0.7-1.3-2.1-1.8-2.8c-1.7,0.6-3.4,1.2-5,1.8C879.4,265.4,880.4,262.9,882.4,261.1z"/>
	<path fill="#FF6600" d="M1022.7,264.1c2.7-0.2,5.3-0.4,8-0.7c-1.4,3.6-3.1,7.2-3.4,11.1c0,6.6,1.4,13,2.6,19.5c-2.6,0-5.1,0-7.7,0c-3.3-6.3-6.8-13.3-5.1-20.6c0.5-1.1,0.7-3.6,2.4-2.5c1,2,1.7,4.3,3.2,6c1.2-2,2.7-4,2.9-6.5C1025.5,268,1024.1,266,1022.7,264.1z"/>
	<path fill="#FF6600" d="M896,272.4c0-2.9,2-5.1,3.9-7.1c2.4,2.7,5.5,4.9,7.4,7.9c0.2,6.9-0.8,13.8-0.8,20.8c-2.2,0-4.5,0-6.7,0C897.4,287,895.8,279.8,896,272.4z"/>
	<path fill="#FF6600" d="M913.6,272.2c1.8-1.6,3.8-3.6,6.4-3.2c2.6-0.1,5.4,1.6,5,4.5c-1.3,7.2-5,13.6-7.3,20.5c-1.9,0-3.9,0-5.8-0.1C912.4,286.7,913.2,279.5,913.6,272.2z"/>
	<path fill="#091C5A" d="M501.4,84.9c20.2-12.7,43.8-19.7,67.6-20.5c22.1-1.2,44.1,4.1,64.4,12.5c4.1,1.2,8.7,3.7,12.8,1.9c4.3-3.4,4.6-9.5,5.6-14.5c2.7,0,5.5,0,8.2,0c2.3,26,4.8,52,7.2,77.9c-3.3,0-6.6,0-9.8,0c-1.5-5.9-3.6-11.6-6.3-17c-7.1-14.4-19.3-26.1-33.4-33.6c-17.7-9-38.5-11.5-58-7.7c-17.2,3.2-32.8,13.4-43.1,27.4c-11.5,15.7-17,35-19,54.1c-1.5,16.4-1,33.1,3.3,49.1c4.3,16.5,12.3,32.4,24.6,44.3c12.7,13.1,30.3,21.2,48.4,22.6c17.3,1.7,34.5-3,50-10.2c-0.1-20.3,0.2-40.6-0.1-60.9c-0.2-6.8-0.3-15.1-6.4-19.5c-7-4.9-15.9-4.5-24-5c0-3,0-6,0-9c33.9,0,67.8,0,101.8,0c0,3,0,6,0,9c-5.7,0.3-11.7,0.3-17,2.7c-3.9,1.7-6.2,5.7-6.9,9.8c-1.2,6.6-0.9,13.4-0.9,20.1c0,19.1,0,38.2,0,57.2c-26.2,13.1-54.7,22.2-84.1,23.8h-18.6c-29.7-1.6-59.9-9.7-83.7-28.1c-17.9-13.6-31.3-33.1-37.1-54.9c-6.5-23.8-4.6-49.7,4.6-72.5C461.2,119.6,479.2,98.8,501.4,84.9z"/>
	<path fill="#091C5A" d="M0,69.3c37.9,0,75.8,0.1,113.7,0c0,3,0,6,0,9c-7-0.1-14.1-0.2-20.9,1.8c-4.3,1.3-7.8,4.9-9.4,9c-1.9,4.9-2.3,10.2-2.5,15.4c0,51.3,0,102.6,0,154c0.3,8,1.6,17.5,8.8,22.3c7.1,4.5,15.9,4,23.9,4.2c0,3,0,6,0,9c-37.9,0-75.8,0-113.7,0v-9c8.5-0.1,18,0.1,25-5.5c6.7-6,7.5-15.6,7.7-24.1c0-49.7,0-99.4,0-149c-0.4-8.5-0.7-19-8.3-24.5C17.1,77.6,8.2,78.3,0,78.2V69.3z"/>
	<path fill="#091C5A" d="M154.3,69.3c25.5,0,50.9,0,76.4,0c47.1,48.1,93.7,96.6,141,144.6c-0.3-3.1-0.6-6.3-0.6-9.4c0-32,0-64,0-96c-0.4-8.1-0.5-17.3-6.2-23.8c-6.1-6-15.3-6.5-23.3-6.6c0-3,0-6,0-8.9c27,0,54,0,81,0c0,3,0,6,0,8.9c-7.9,0.1-16.7,0.5-22.9,5.9c-5.8,5.1-7,13.3-7.8,20.5c-1,15.9-0.5,31.9-0.6,47.9c0,47.8,0,95.5,0,143.3c-4.6,0-9.2,0-13.8-0.1c-57.1-59.1-114.3-118-171.5-177c0.2,2.6,0.5,5.2,0.5,7.8c0,41,0,82.1,0,123.1c0.3,7.8,0.2,15.9,3,23.3c1.7,4.7,5.6,8.3,10.3,9.9c5.5,1.9,11.4,2.3,17.1,2.2c0.1,3,0.1,6,0,9c-27.1,0-54.2,0-81.2,0c0-3,0-6,0-8.9c8.6-0.2,18.9-0.8,24.8-8c5.3-7.3,5.3-16.8,5.8-25.5c0.1-47,0-94.1,0-141.1c-0.3-8.2-0.9-17.2-6.6-23.6c-6.3-7.1-16.4-8.7-25.4-8.7C154.3,75.2,154.3,72.2,154.3,69.3z"/>
</svg>