<svg xmlns="http://www.w3.org/2000/svg" viewBox="0 0 510.426 117.211">
  <path fill="#00684B" d="M0,59.038C0,26.431,26.431,0,59.038,0c32.601,0,59.041,26.431,59.041,59.038 c0,32.601-26.44,59.035-59.041,59.035C26.431,118.073,0,91.639,0,59.038"/>
  <path fill="#00684B" d="M228.882,44.948l-0.008,15.089c0,5.207,1.257,8.412,4.646,12.025l1.45,1.535l1.521-1.535 c3.335-3.557,4.561-6.93,4.561-12.025V44.948h9.902v15.089c0,13-6.689,18.006-10.496,22.027h-10.984 c-3.805-4.021-10.493-9.027-10.493-22.027V44.948H228.882z"/>
  <path fill="#00684B" d="M137.835,36.336h9.903v18.262h2.749l10.365-18.262h11.473l-10.566,18.598 c8.836,1.104,9.928,4.947,9.928,12.334v14.797h-9.905v-14.6c0-4.203-2.37-4.26-6.521-4.26h-7.522v18.858h-9.903L137.835,36.336 L137.835,36.336z"/>
  <polygon fill="#00684B" points="358.24,53.56 348.738,53.56 348.738,82.061 338.836,82.061 338.836,53.56 329.334,53.56 329.334,44.948 358.24,44.948"/>
  <polygon fill="#00684B" points="201.417,44.948 211.318,44.948 211.318,82.065 179.345,82.065 179.345,44.948 189.246,44.948 189.246,73.95 201.417,73.95"/>
  <polygon fill="#00684B" points="285.391,53.063 268.518,53.063 268.518,59.396 284.355,59.396 284.355,67.514 268.518,67.514 268.518,73.95 285.742,73.95 285.742,82.065 258.611,82.065 258.611,44.948 285.391,44.948"/>
  <path fill="#00684B" d="M313.693,54.458V44.95h9.895v10.152c0,8.404-3.354,11.669-11.037,12.46v14.502h-9.896v-14.51 c-9.863-0.914-11.039-4.769-11.039-12.453V44.95h9.899v9.956c0,4.204,2.373,4.252,6.539,4.252 C312.254,59.159,313.693,58.814,313.693,54.458"/>
  <path fill="#00684B" d="M418.947,69.047V44.945h9.893v24.749c0,9.895-4.654,12.668-15.543,12.668 c-14.846,0-16.424-3.766-16.424-12.668V44.945h9.895v24.548c0,4.205,2.371,4.258,6.529,4.258 C417.504,73.75,418.947,73.405,418.947,69.047"/>
  <path fill="#00684B" d="M418.947,69.047V44.945h9.893v24.749c0,9.895-4.654,12.668-15.543,12.668 c-14.846,0-16.424-3.766-16.424-12.668V44.945h9.895v24.548c0,4.205,2.371,4.258,6.529,4.258 C417.504,73.75,418.947,73.405,418.947,69.047"/>
  <path fill="#00684B" d="M476.039,44.947h9.895v13.955h2.972l9.983-13.955h11.537l-10.264,14.32 c8.646,1.131,9.719,4.979,9.719,12.305v10.492h-9.902V71.77c0-4.203-2.37-4.26-6.521-4.26h-7.523v14.555h-9.895L476.039,44.947 L476.039,44.947z"/>
  <path fill="#00684B" d="M458.348,82.065l-7.813-10.896h-4.133v10.896h-9.896V44.947h31.863v26.221h-6.297l7.795,10.896 L458.348,82.065L458.348,82.065z M458.477,53.558h-12.073v8.998h12.073V53.558z"/>
  <polygon fill="#00684B" points="394.383,44.947 382.5,44.947 382.5,82.065 372.605,82.065 372.605,44.947 360.732,44.947 360.732,36.338 394.383,36.338"/>
  <rect x="415.278" y="32.663" transform="matrix(0.7073 -0.7069 0.7069 0.7073 96.9271 306.7771)" fill="#00684B" width="7.342" height="7.34"/>
  <rect x="403.088" y="32.648" transform="matrix(0.7072 -0.707 0.707 0.7072 93.4308 298.2296)" fill="#00684B" width="7.341" height="7.341"/>
  <path fill="#C99C00" d="M52.701,117.711l19.172-11.334l-3.662,11.012c-2.93,0.445-5.935,0.68-8.995,0.68 C57.012,118.069,54.841,117.95,52.701,117.711 M56.717,59.815L28.931,42.037c-2.947-1.887-6.201-3.452-10.279-3.46l-9.277-0.019 l18.5-11.119c4.783-2.875,10.239-0.953,12.378,2.872L56.717,59.815z M3.157,62.445L9.11,55.08 c4.862-6.023,9.277-11.762,22.585-4.911l23.866,12.287L3.157,62.445z M61.37,59.815l16.464-29.504 c2.132-3.825,7.595-5.747,12.379-2.872l18.499,11.119l-9.277,0.019c-4.085,0.008-7.331,1.573-10.28,3.46L61.37,59.815z M114.93,62.445l-52.404,0.011l23.865-12.287c13.308-6.851,17.724-1.112,22.585,4.911L114.93,62.445z M59.057,59.185 c0,0-9.88-28.509-11.763-34.212c-0.762-2.33-1.09-4.33,0.401-6.274L59.047,3.82l11.345,14.878c1.489,1.944,1.162,3.944,0.4,6.274 C68.909,30.676,59.057,59.185,59.057,59.185 M62.299,101.657l9.76-6.051l-3.799,9.939L62.299,101.657z M52.943,66.139h12.265 l-5.825,4.6L52.943,66.139z M53.511,76.721L71.89,65.665l-3.326,9.459l-8.956,5.416L53.511,76.721z M46.622,76.079l18.451,10.607 l-6.082,4.145l-9.197-5.57L46.622,76.079z M53.775,96.739l18.098-10.945l-2.908,8.799l-9.437,6.382L53.775,96.739z M46.612,96.09 l18.309,11.104l-5.538,3.58l-9.51-5.326L46.612,96.09z M62.299,81.928l9.76-6.061l-3.799,9.944L62.299,81.928z M46.443,65.45 l10,6.039l-5.866,4.223L46.443,65.45z M46.756,85.94l9.535,5.896l-5.632,3.817L46.756,85.94z M56.227,112.026l-5.936,3.711 l-3.918-9.512L56.227,112.026z"/>
</svg>
