<svg xmlns="http://www.w3.org/2000/svg" viewBox="0 0 1193.004 359.923" xmlns:xlink="http://www.w3.org/1999/xlink">
	<path fill-rule="evenodd" clip-rule="evenodd" fill="#878786" d="M154.243,285.575l-54.431,54.431l-4.362-2.119 c-11.693-5.678-22.565-13.386-32.574-21.636l-5.786-4.77l100.424-100.424c5.564-5.564,13.075-8.646,20.938-8.646 c7.863,0,15.374,3.081,20.938,8.646l100.424,100.424l-5.787,4.77c-10.009,8.25-20.881,15.958-32.574,21.636l-4.362,2.119 l-54.431-54.431v70.808l-5.668,0.965c-6.128,1.043-12.323,1.555-18.54,1.555c-6.216,0-12.411-0.512-18.54-1.555l-5.668-0.965 V285.575z M283.575,204.659l54.431,54.432l-2.118,4.362c-5.679,11.692-13.386,22.565-21.636,32.574l-4.77,5.786L209.058,201.39 c-5.564-5.564-8.646-13.075-8.646-20.938c0-7.863,3.082-15.374,8.646-20.938L309.481,59.089l4.77,5.786 c8.25,10.009,15.958,20.881,21.636,32.575l2.118,4.362l-54.431,54.431h70.808l0.965,5.668c1.043,6.129,1.555,12.324,1.555,18.541 c0,6.216-0.511,12.411-1.555,18.54l-0.965,5.668H283.575z M202.66,75.328l54.431-54.431l4.362,2.118 c11.693,5.678,22.565,13.386,32.574,21.636l5.787,4.77L199.39,149.846c-5.564,5.564-13.076,8.645-20.938,8.645 c-7.863,0-15.374-3.081-20.938-8.645L57.089,49.422l5.786-4.77c10.009-8.25,20.881-15.958,32.574-21.636l4.362-2.118l54.431,54.431 V4.521l5.668-0.965C166.04,2.512,172.235,2,178.451,2c6.217,0,12.412,0.512,18.54,1.555l5.668,0.965V75.328z M73.328,156.243 l-54.431-54.431l2.119-4.362c5.678-11.693,13.386-22.566,21.636-32.575l4.77-5.786l100.424,100.424 c5.564,5.564,8.646,13.075,8.646,20.938c0,7.863-3.081,15.374-8.646,20.938L47.421,301.813l-4.77-5.786 c-8.25-10.009-15.958-20.882-21.636-32.574l-2.119-4.362l54.431-54.432H2.52l-0.965-5.668C0.512,192.862,0,186.668,0,180.452 c0-6.217,0.512-12.412,1.555-18.541l0.965-5.668H73.328z"/>
	<defs>
		<path id="qnb-finansbank-svg-1" d="M6.811,180.452c-0.01-5.655,0.445-11.445,1.459-17.397h81.501l-62.629-62.629 c5.053-10.406,12.188-20.812,20.765-31.217l95.122,95.122c4.434,4.433,6.65,10.278,6.65,16.122s-2.217,11.688-6.65,16.122 l-95.122,95.122c-8.577-10.406-15.712-20.813-20.765-31.218l62.629-62.629H8.27C7.256,191.896,6.801,186.106,6.811,180.452"/>
	</defs>
	<clipPath id="qnb-finansbank-svg-2">
		<use xlink:href="#qnb-finansbank-svg-1" overflow="visible"/>
	</clipPath>
	<linearGradient id="qnb-finansbank-svg-3" gradientUnits="userSpaceOnUse" x1="6.8013" y1="180.4517" x2="149.6797" y2="180.4517">
		<stop offset="0" style="stop-color:#003A73"/>
		<stop offset="0.35" style="stop-color:#003A73"/>
		<stop offset="0.73" style="stop-color:#0062AF"/>
		<stop offset="1" style="stop-color:#0062AF"/>
	</linearGradient>
	<rect x="6.801" y="69.208" clip-path="url(#qnb-finansbank-svg-2)" fill="url(#qnb-finansbank-svg-3)" width="142.878" height="222.487"/>
	<defs>
		<path id="qnb-finansbank-svg-4" d="M178.451,8.812c5.655-0.01,11.445,0.445,17.397,1.458v81.502l62.629-62.629 c10.406,5.053,20.812,12.188,31.217,20.765l-95.122,95.122c-4.434,4.434-10.278,6.65-16.122,6.65 c-5.844,0-11.688-2.217-16.122-6.65L67.208,49.908c10.406-8.577,20.812-15.712,31.218-20.765l62.629,62.629V10.27 C167.006,9.256,172.796,8.802,178.451,8.812"/>
	</defs>
	<clipPath id="qnb-finansbank-svg-5">
		<use xlink:href="#qnb-finansbank-svg-4" overflow="visible"/>
	</clipPath>
	<linearGradient id="qnb-finansbank-svg-6" gradientUnits="userSpaceOnUse" x1="67.2075" y1="80.2407" x2="289.6948" y2="80.2407">
		<stop offset="0" style="stop-color:#AB004C"/>
		<stop offset="0.35" style="stop-color:#AB004C"/>
		<stop offset="0.61" style="stop-color:#760030"/>
		<stop offset="1" style="stop-color:#000000"/>
	</linearGradient>
	<rect x="67.208" y="8.802" clip-path="url(#qnb-finansbank-svg-5)" fill="url(#qnb-finansbank-svg-6)" width="222.487" height="142.878"/>
	<defs>
		<path id="qnb-finansbank-svg-7" d="M350.091,180.452c0.01,5.655-0.445,11.445-1.458,17.397h-81.502l62.629,62.629 c-5.053,10.405-12.188,20.812-20.765,31.218l-95.121-95.122c-4.434-4.434-6.65-10.277-6.65-16.122s2.217-11.689,6.65-16.122 l95.121-95.122c8.577,10.406,15.712,20.812,20.765,31.217l-62.629,62.629h81.502C349.646,169.006,350.101,174.796,350.091,180.452 "/>
	</defs>
	<clipPath id="qnb-finansbank-svg-8">
		<use xlink:href="#qnb-finansbank-svg-7" overflow="visible"/>
	</clipPath>
	<linearGradient id="qnb-finansbank-svg-9" gradientUnits="userSpaceOnUse" x1="207.2231" y1="180.4517" x2="350.1011" y2="180.4517">
		<stop offset="0" style="stop-color:#0062AF"/>
		<stop offset="0.27" style="stop-color:#0062AF"/>
		<stop offset="0.65" style="stop-color:#003A73"/>
		<stop offset="1" style="stop-color:#003A73"/>
	</linearGradient>
	<rect x="207.223" y="69.208" clip-path="url(#qnb-finansbank-svg-8)" fill="url(#qnb-finansbank-svg-9)" width="142.878" height="222.487"/>
	<defs>
		<path id="qnb-finansbank-svg-10" d="M178.451,352.092c-5.655,0.01-11.445-0.445-17.397-1.459v-81.502L98.425,331.76 c-10.406-5.053-20.812-12.188-31.218-20.765l95.122-95.121c4.434-4.435,10.278-6.65,16.122-6.65c5.844,0,11.688,2.216,16.122,6.65 l95.122,95.121c-10.406,8.577-20.812,15.712-31.217,20.765l-62.629-62.629v81.502 C189.896,351.646,184.106,352.102,178.451,352.092"/>
	</defs>
	<clipPath id="qnb-finansbank-11">
		<use xlink:href="#qnb-finansbank-svg-10" overflow="visible"/>
	</clipPath>
	<linearGradient id="qnb-finansbank-svg-12" gradientUnits="userSpaceOnUse" x1="178.4512" y1="352.1016" x2="178.4512" y2="209.2236">
		<stop offset="0" style="stop-color:#003A73"/>
		<stop offset="0.35" style="stop-color:#003A73"/>
		<stop offset="0.73" style="stop-color:#0062AF"/>
		<stop offset="1" style="stop-color:#0062AF"/>
	</linearGradient>
	<rect x="67.208" y="209.224" clip-path="url(#qnb-finansbank-11)" fill="url(#qnb-finansbank-svg-12)" width="222.487" height="142.878"/>
	<path fill-rule="evenodd" clip-rule="evenodd" fill="#00193E" d="M858.329,43.537h69.445c12.95,0,23.545,10.595,23.545,23.545v2.166 c0,14.141-11.569,25.71-25.71,25.71h-56.408c0,16.497,7.994,27.393,20.665,27.393h38.329c13.79,0,31.954,9.875,31.954,23.545v2.166 c0,14.141-11.569,25.71-25.71,25.71h-76.11v-40.909v-10.512V94.958V43.537z M631.683,17.291h18.982 c9.393,0,17.721,5.725,21.751,9.755l93.963,122.523V17.291h29.659v183.818h-18.605c-9.393,0-12.255-4.823-16.284-8.854 L661.718,64.387v136.723h-30.035V17.291z M504.208,138.99l34.287,34.958c-8.113,4.158-17.389,6.448-27.554,6.448 c-36.978,0-62.234-30.244-62.234-70.832c0-40.941,24.914-70.833,62.234-70.833c37.32,0,62.234,29.891,62.234,70.833 c0,17.794-4.854,33.601-13.424,45.741l-14.935-15.114C544.815,140.191,527.515,121.329,504.208,138.99z M510.94,12.849 c57.597,0,95.152,43.301,95.152,96.715c0,26.108-9.147,49.797-25.141,67.196l24.175,24.463c0,0-8.891,8.169-20.425,8.169 c-11.533,0-19.103-7.809-19.103-7.809l-7.038-7.176c-13.616,7.564-29.693,11.87-47.621,11.87c-56.877,0-95.153-43.3-95.153-96.714 C415.787,56.149,453.343,12.849,510.94,12.849z M905.995,268.99h-45.142v42.903v45.033h47.893c29.401,0,37.602-36.277,13.979-44.054 c-1.898-0.625-4.232-0.666-1.236-1.908c2.324-0.964,4.056-2.638,5.888-4.825C940.12,290.923,926.981,268.99,905.995,268.99z M531.964,268.99h8.644c4.277,0,11.743,1.058,14.9,5.448l36.289,56.119V268.99h15.007v87.936h-9.368 c-4.277,0-6.246-2.308-8.081-4.235l-41.19-61.171v65.406h-16.2V268.99z M703.528,268.99h8.643c4.277,0,11.744,1.058,14.9,5.448 l36.289,56.119V268.99h15.007v87.936h-9.368c-4.277,0-6.246-2.308-8.081-4.235l-41.19-61.171v65.406h-16.199V268.99z M1026.951,268.99h8.644c4.277,0,11.743,1.058,14.9,5.448l36.289,56.119V268.99h15.007v87.936h-9.368 c-4.277,0-6.246-2.308-8.081-4.235l-41.19-61.171v65.406h-16.2V268.99z M423.075,242.337h96.595v4.565 c0,6.929-4.365,12.495-13.216,12.495h-63.435v31.703h47.516v17.062h-47.516v48.764h-19.944V242.337z M519.669,268.981v87.944h-2.502 c-7.461,0-13.357-6.475-13.357-10.76v-65.892v-11.293H519.669z M664.512,268.99l12.735,32.155l21.277,56.106h-11.229 c-4.028,0-7.59-3.397-8.239-5.276l-7.111-18.752H655.97h-17.417l-9.112,24.028h-16.026l21.277-56.106l12.735-32.155H664.512z M655.419,289.351l-11.593,29.967h22.724L655.419,289.351z M987.196,268.99l12.735,32.155l21.277,56.106h-11.229 c-4.028,0-7.591-3.397-8.24-5.276l-7.111-18.752h-15.975h-17.417l-9.112,24.028H936.1l21.277-56.106l12.734-32.155H987.196z M978.104,289.351l-11.592,29.967h22.724L978.104,289.351z M795.045,335.414l-9.791,11.594c0,0,11.293,12.915,33.64,12.915 s35.128-13.096,35.081-27.393c-0.107-33.021-47.554-21.558-47.336-40.969c0.135-12.013,16.039-11.173,16.039-11.173 s11.834-1.682,24.509,9.611c13.085-18.706-17.193-23.908-25.29-23.428c-22.347,0-33.039,10.692-33.039,24.989 s7.874,21.905,28.354,27.393c0,0,19.223,3.124,19.223,15.138c0,12.015-17.661,11.414-17.661,11.414S807.72,346.707,795.045,335.414z M1113.455,268.99h16.576v40.416l37.008-40.416h20.42l-30.027,32.794l33.572,55.142c-5.686,3.685-18.219,1.481-19.94-1.382 l-25.142-41.19l-15.891,17.354v25.218h-16.576V268.99z M875.682,281.546h30.086c6.147,0,11.178,5.068,11.178,11.264v1.036 c0,6.764-5.492,12.299-12.206,12.299h-23.896c0,7.893,3.795,13.104,9.811,13.104h15.313c6.548,0,15.171,4.725,15.171,11.264v1.036 c0,6.765-5.493,12.3-12.206,12.3h-33.25v-19.57v-5.029v-13.104V281.546z M928.253,17.291h-101.16v89.684v94.135h106.956 c61.93,0,79.204-75.832,29.445-92.087c-4-1.307-8.916-1.392-2.605-3.989c4.896-2.016,8.542-5.514,12.401-10.086 C1000.135,63.139,972.461,17.291,928.253,17.291z"/>
</svg>