<svg xmlns="http://www.w3.org/2000/svg" xmlns:xlink="http://www.w3.org/1999/xlink" viewBox="0 0 461.74 85.796">
	<path fill="#00793E" d="M387.369,37.546h74.371c0.217,1.756,0.337,3.536,0.337,5.364c0,23.691-19.218,42.886-42.935,42.886 c-1.828,0-3.607-0.12-5.363-0.337V64.341h-31.846c-1.9-3.319-3.392-6.903-4.378-10.728h46.951v21.022 C438,72.375,448.632,61.743,450.893,48.25h-74.371c-0.217-1.756-0.313-3.536-0.313-5.34c0-23.716,19.218-42.91,42.934-42.91 c1.805,0,3.608,0.12,5.364,0.337v21.118h31.821c1.925,3.319,3.416,6.903,4.402,10.728h-46.951V11.161 C400.285,13.421,389.654,24.053,387.369,37.546"/>
	<path fill-rule="evenodd" clip-rule="evenodd" fill="#00793E" d="M148.622,37.162c0.048-2.646-0.577-4.714-1.9-6.206 c-1.323-1.563-3.175-2.333-5.532-2.333c-2.309,0-4.209,0.77-5.701,2.333c-1.491,1.539-2.381,3.607-2.669,6.206H148.622 M159.59,39.663c0,1.731-0.12,3.391-0.361,5.003H132.65c-0.072,7.938,3.873,11.906,11.81,11.906c4.498,0,8.683-0.891,12.532-2.67 l1.034,8.539c-4.666,1.852-9.79,2.766-15.37,2.766c-14.167,0-21.239-7.313-21.239-21.912c0-6.735,1.78-12.195,5.34-16.404 c3.584-4.257,8.491-6.374,14.769-6.374c5.989,0,10.583,1.852,13.734,5.604C158.146,29.513,159.59,34.035,159.59,39.663z"/>
	<path fill-rule="evenodd" clip-rule="evenodd" fill="#00793E" d="M220.203,41.828c0-8.058-2.454-12.074-7.336-12.074 c-2.766,0-5.003,1.371-6.735,4.137c-1.66,2.694-2.501,5.917-2.501,9.645v12.099c1.54,0.505,3.488,0.77,5.772,0.77 C216.619,56.403,220.203,51.545,220.203,41.828 M231.771,40.697c0,7.36-1.996,13.253-6.037,17.703 c-4.209,4.521-9.934,6.807-17.197,6.807c-5.677,0-11.016-0.697-15.971-2.068V1.347h11.064v18.473c0,3.151-0.241,5.941-0.698,8.371 h0.096c2.357-5.075,6.663-7.601,12.94-7.601c5.124,0,9.044,1.756,11.762,5.268C230.425,29.368,231.771,34.323,231.771,40.697z"/>
	<path fill-rule="evenodd" clip-rule="evenodd" fill="#00793E" d="M259.505,46.397v-1.034c-9.501,0-14.264,2.262-14.264,6.807 c0,3.055,1.708,4.57,5.1,4.57c2.646,0,4.858-1.082,6.662-3.271C258.663,51.449,259.505,49.092,259.505,46.397 M270.81,64.341 h-10.438c0-2.982,0.144-5.411,0.433-7.239l-0.097-0.097c-1.034,2.478-2.79,4.45-5.268,5.965c-2.477,1.491-5.291,2.237-8.466,2.237 c-3.849,0-6.88-1.011-9.068-3.03c-2.116-1.997-3.199-4.763-3.199-8.274c0-5.003,2.31-8.924,6.928-11.738 c4.426-2.646,10.391-3.969,17.871-3.969v-2.333c0-4.546-2.79-6.807-8.395-6.807c-4.546,0-8.779,1.106-12.676,3.367l-0.962-9.236 c4.955-1.78,10.078-2.669,15.369-2.669c6.566,0,11.257,1.323,14.096,3.969c2.405,2.285,3.607,5.941,3.607,10.944v17.871 C270.545,57.102,270.641,60.781,270.81,64.341z"/>
	<path fill-rule="evenodd" clip-rule="evenodd" fill="#00793E" d="M188.862,20.517l-0.529,10.872 c-0.962-0.192-1.852-0.265-2.669-0.265c-6.158,0-9.236,5.244-9.236,15.706v17.511h-11.064V21.455h10.463 c0,2.718-0.265,5.58-0.793,8.635h0.192C177.87,23.187,182.416,19.988,188.862,20.517"/>
	<path fill-rule="evenodd" clip-rule="evenodd" fill="#00793E" d="M316.485,64.341h-10.968V36.897c0-4.762-1.756-7.144-5.268-7.144 c-2.766,0-5.123,1.371-7.071,4.137c-1.948,2.694-2.935,5.941-2.935,9.742v20.709H279.18V21.455h10.463 c0,2.982-0.216,5.532-0.601,7.601l0.071,0.072c2.935-5.749,7.817-8.611,14.601-8.611c8.515,0,12.771,4.57,12.771,13.71V64.341"/>
	<polyline fill-rule="evenodd" clip-rule="evenodd" fill="#00793E" points="363.221,64.341 349.39,64.341 336.089,43.126 336.089,64.341 325.049,64.341 325.049,1.347 336.089,1.347 336.089,39.326 348.62,21.455 362.09,21.455 347.057,41.034 363.221,64.341 "/>
	<path fill-rule="evenodd" clip-rule="evenodd" fill="#00793E" d="M67.179,37.162c0.072-2.646-0.577-4.714-1.9-6.206 c-1.323-1.563-3.151-2.333-5.532-2.333c-2.285,0-4.186,0.77-5.677,2.333c-1.516,1.539-2.405,3.607-2.694,6.206H67.179 M78.147,39.663c0,1.731-0.121,3.391-0.337,5.003H51.208c-0.048,7.938,3.896,11.906,11.834,11.906c4.498,0,8.659-0.891,12.507-2.67 l1.059,8.539c-4.667,1.852-9.79,2.766-15.37,2.766c-14.167,0-21.263-7.313-21.263-21.912c0-6.735,1.78-12.195,5.363-16.404 c3.56-4.257,8.491-6.374,14.769-6.374c5.989,0,10.56,1.852,13.734,5.604C76.704,29.513,78.147,34.035,78.147,39.663z"/>
	<path fill-rule="evenodd" clip-rule="evenodd" fill="#00793E" d="M23.307,68.743c1.106,2.068,1.66,4.017,1.66,5.868 c0,4.594-3.368,8.322-10.126,11.209l-5.171-4.233c3.343-2.237,5.003-4.835,5.003-7.77c0-1.611-0.481-3.295-1.467-5.074H23.307"/>
	<path fill-rule="evenodd" clip-rule="evenodd" fill="#00793E" d="M36.439,46.302c0,5.58-2.044,10.126-6.133,13.638 c-4.257,3.56-9.91,5.34-16.933,5.34c-4.426,0-8.395-0.457-11.906-1.371l0.674-10.439c4.041,1.371,8.105,2.069,12.195,2.069 c6.734,0,10.102-2.574,10.102-7.673c0-2.935-2.117-5.364-6.302-7.264c-7.384-3.223-11.329-5.003-11.834-5.34 C2.092,32.327,0,28.118,0,22.658c0-5.244,1.948-9.453,5.869-12.676c3.969-3.223,9.405-4.834,16.308-4.834 c3.055,0,6.566,0.336,10.535,1.034l-0.601,9.837c-3.56-1.034-7.048-1.563-10.439-1.563c-3.175,0-5.58,0.673-7.264,1.997 c-1.659,1.25-2.501,2.958-2.501,5.075c0,2.766,2.141,5.099,6.397,6.999c7.24,3.344,11.161,5.195,11.738,5.604 C34.299,37.065,36.439,41.13,36.439,46.302"/> <polyline fill-rule="evenodd" clip-rule="evenodd" fill="#00793E" points="122.116,64.341 108.285,64.341 94.984,43.126 94.984,64.341 83.944,64.341 83.944,1.347 94.984,1.347 94.984,39.326 107.516,21.455 120.985,21.455 105.952,41.034 122.116,64.341 "/>
</svg>