<svg xmlns="http://www.w3.org/2000/svg" xmlns:xlink="http://www.w3.org/1999/xlink" viewBox="0 0 174.2 46.4">
  <path fill-rule="evenodd" clip-rule="evenodd" fill="#CD1719" d="M0.6,7.9h22.1c-5.9,4-9.7,11-9.7,18.9c0,7.9,3.9,14.9,9.7,18.9H0.6 V7.9z"/>
  <path fill-rule="evenodd" clip-rule="evenodd" fill="#CD1719" d="M38,43.5c-10.7-1.2-19-10.3-19-21.3S27.3,2.2,38,1V43.5z"/>
  <polygon fill-rule="evenodd" clip-rule="evenodd" fill="#CD1719" points="158,13.8 160.3,13.8 160.3,25.2 170.9,13.8 173.9,13.8 163.1,25.8 173.9,37.7 170.9,37.7 160.3,26.3 160.3,37.6 158,37.6 "/>
  <polygon fill-rule="evenodd" clip-rule="evenodd" fill="#CD1719" points="130.4,13.8 130.4,37.6 132.8,37.6 132.8,19.8 150.5,37.6 150.5,13.9 148.2,13.9 148.2,32.3 "/>
  <path fill-rule="evenodd" clip-rule="evenodd" fill="#CD1719" d="M108.9,27.2l-5.1,10.4h-2.5L113,13.9l11.7,23.6h-2.5l-5.1-10.4 H108.9z M112.9,18.1l-3,7h6.2l-3-7H112.9z"/>
  <path fill-rule="evenodd" clip-rule="evenodd" fill="#CD1719" d="M83,13.8h1.2h1.2h4.7c3.6,0,5.8,2.6,5.9,5.3 c0.1,3.1-1.7,6.4-4.7,6.4c7.3,0.6,7.8,12-1.9,12.2h-5.2v-0.1H83V13.8z M85.3,15.9h4.1c6.2,0.1,5.1,8.6-0.4,8.5h-3.7V15.9z M85.3,26.5c6.7-0.3,8.5,2.7,8.5,5.2c0,2-1.5,3.9-4.8,4.1h-3.8V26.5z"/>
  <rect x="70" y="24.5" fill-rule="evenodd" clip-rule="evenodd" fill="#CD1719" width="7.1" height="2.4"/>
  <polygon fill-rule="evenodd" clip-rule="evenodd" fill="#CD1719" points="66.3,13.8 66.3,16.2 59.6,16.2 59.6,37.6 57.2,37.6 57.2,16.2 50.5,16.2 50.5,13.8 57.2,13.8 59.6,13.8 "/>
</svg>
