<svg xmlns="http://www.w3.org/2000/svg" xmlns:xlink="http://www.w3.org/1999/xlink" viewBox="0 0 180.014 82.922">
  <polygon fill-rule="evenodd" clip-rule="evenodd" fill="#00975F" points="0,0 82.917,0 82.917,82.922 0,82.922 0,0"/>
  <path fill-rule="evenodd" clip-rule="evenodd" d="M152.252,28.929c0.229,2.701,0.403,9.457,0.403,11.936 c0,2.257-0.032,9.876-0.446,13.159l-0.033,0.273h13.854c6.756,0,13.983-1.846,13.983-7.029c0-3.254-2.736-5.654-7.859-6.977 c3.752-0.845,6.319-3.101,6.319-5.685c0-4.228-5.668-5.833-10.955-5.931c-0.014,0-15.29-0.01-15.29-0.01L152.252,28.929 L152.252,28.929z M162.955,31.532c5.788,0.012,7.936,1.041,7.936,3.752c0,0.72-0.262,1.361-0.778,1.885 c-1.107,1.149-3.308,1.74-6.056,1.615h-0.125l-1.595,3.605h1.614c3.188-0.087,5.958,0.77,7.368,2.264 c0.659,0.701,0.991,1.479,0.991,2.334c0,2.838-2.896,4.297-8.593,4.297c-0.962,0-2.508,0-3.499-0.059 c-0.205-3.752-0.214-8.846-0.214-10.362c0-1.789,0.081-5.764,0.228-9.176C160.87,31.59,161.958,31.524,162.955,31.532 L162.955,31.532z"/>
  <path fill-rule="evenodd" clip-rule="evenodd" d="M149.379,54.277v-3.693c-5.55,0.273-11.157,0.313-16.766,0.381 c-0.127-2.625-0.18-5.834-0.195-8.059l10.978,0.205v-3.879l-10.978,0.224c0.029-2.032,0.059-4.899,0.166-7.349 c1.616-0.029,2.43-0.059,3.587-0.059c4.146,0,8.29-0.078,12.442,0.32v-3.723h-16.935v0.01h-7.042l0.035,0.254 c0.222,2.712,0.397,9.467,0.397,11.936c0,2.267-0.039,9.876-0.446,13.163l-0.029,0.27H149.379L149.379,54.277z"/>
  <path fill-rule="evenodd" clip-rule="evenodd" d="M111.774,54.258l-0.029-0.271c-0.409-3.295-0.442-10.896-0.442-13.162 c0-1.798,0.092-5.84,0.229-8.961c4.476,0.078,5.739,0.146,9.661,0.505v-3.743H94.064v3.743c3.916-0.359,5.186-0.427,9.667-0.505 c0.131,3.121,0.223,7.163,0.223,8.961c0,2.265-0.033,9.867-0.443,13.162l-0.026,0.271H111.774L111.774,54.258z"/>
  <path fill-rule="evenodd" clip-rule="evenodd" fill="#FFFFFF" d="M64.717,21.818c-5.137,3.009-6.71,3.249-12.253,6.58 c3.224-3.511,4.347-4.994,6.363-7.943c-5.137,0.27-12.589,0.892-17.929,2.066c4.649-2.461,13.843-5.233,18.688-5.878 c-1.127-1.551-10.225-6.485-12.491-7.423c7.2,0.558,16.009,3.233,20.271,5.86c1.713-0.522,3.436-0.56,6.546-0.836 c-0.792,1.371-0.807,2.163-3.877,4.188c0.849,2.273-1.172,14.769-2.846,18.098C67.116,31.289,66.647,24.677,64.717,21.818 L64.717,21.818z"/>
  <path fill-rule="evenodd" clip-rule="evenodd" fill="#FFFFFF" d="M27.233,66.65c-2.955-1.092-5.076-2.365-7.403-4.543 c0.694-1.916,1.492-3.441,2.802-5.35c-2.406,0.344-4.146,0.605-6.211,1.012c-1.691-2.949-2.438-5.766-3.298-9.701 c-0.466,4.164-0.627,7.145-0.033,10.471c-1.89,0.514-3.234,0.979-4.788,1.672c2.172,1.344,3.936,2.381,6.383,3.502 c1.299,2.805,2.655,4.717,4.843,6.857c-0.519-1.826-0.642-3.297-0.451-5.225C21.809,66.146,24.136,66.551,27.233,66.65 L27.233,66.65z"/>
  <path fill-rule="evenodd" clip-rule="evenodd" fill="#FFFFFF" d="M34.896,25.081L34.896,25.081 c-0.931,1.184-1.998,3.399-2.271,4.437c7.567,1.04,13.662,4.922,13.662,4.922h0.008c-6.664-1.172-10.139-1.03-12.608-0.81 c-2.469,0.244-2.966,0.535-2.966,0.535c-1.784,3.891-2.855,10.634-2.855,10.638c-1.207-2.905-2.951-8.73-2.951-8.73 c-3.346,1.796-11.032,9.023-11.032,9.023h-0.004c4.226-8.463,8.511-12.347,8.511-12.347h0.004 c-1.474-1.477-5.343-2.212-8.164-2.342c1.468-0.605,5.24-1.311,8.13-1.438c2.894-0.089,4.646,0.09,4.646,0.09h0.008 C29.601,27.014,33.519,25.288,34.896,25.081L34.896,25.081z"/>
  <path fill-rule="evenodd" clip-rule="evenodd" fill="#FFFFFF" d="M42.923,61.408c-1.346,1.805-2.484,3.234-3.975,4.9 c-2.553,0.695-4.584,0.957-7.07,0.969c1.527,0.783,3.009,1.27,4.593,1.586c-1.584,1.447-2.943,2.475-4.484,3.459 c2.588-0.617,6.019-1.727,8.544-3.213c1.315,0.041,2.555-0.041,3.462-0.207c-0.213-0.783-0.373-1.352-0.575-2.359 c2.395-1.854,4.142-3.523,6.106-5.531c-2.106,1.473-3.939,2.58-6.356,3.73C43.054,63.615,42.978,62.67,42.923,61.408L42.923,61.408 z"/>
</svg>