<svg xmlns="http://www.w3.org/2000/svg" viewBox="0 0 945.932 216.425">
  <path fill="#00C4B3" d="M813.065,149.969c-0.276,0.202-0.547,0.417-0.81,0.636c-0.262,0.222-0.517,0.455-0.762,0.696 c-0.246,0.241-0.485,0.491-0.713,0.755c-0.233,0.259-0.452,0.531-0.668,0.81c-1.823,2.383-2.898,5.275-3.3,8.448 c-0.394,3.121-0.139,6.535,0.704,10.046c0.834,3.472,2.245,7.066,4.188,10.593c1.939,3.516,4.419,6.994,7.417,10.264 l22.212,24.209l16.743-12.597c2.55-1.918,4.318-4.551,5.3-7.685c1.007-3.201,1.193-6.899,0.583-10.86 c-0.623-4.007-2.063-8.258-4.283-12.473c-2.231-4.231-5.227-8.39-8.923-12.199c-0.423-0.443-0.854-0.871-1.288-1.292 c-0.437-0.417-0.873-0.828-1.318-1.229c-0.441-0.399-0.885-0.785-1.334-1.163c-0.446-0.379-0.896-0.748-1.348-1.104L832,169.976 L813.065,149.969"/>
  <path fill="#00C4B3" d="M797.827,0l-14.514,35.848c-1.78,4.396-2.713,9.179-2.905,14.064c-0.189,4.786,0.331,9.699,1.479,14.485 c1.133,4.725,2.886,9.359,5.196,13.667c2.302,4.288,5.179,8.292,8.596,11.762c0.395,0.406,0.794,0.798,1.198,1.183 c0.401,0.382,0.808,0.75,1.218,1.11c0.408,0.357,0.82,0.709,1.235,1.044c0.415,0.336,0.834,0.665,1.253,0.979l11.892-21.253 l22.238,21.902c0.369-0.333,0.729-0.678,1.087-1.038c0.355-0.362,0.702-0.737,1.046-1.13c0.345-0.391,0.681-0.801,1.008-1.223 c0.329-0.426,0.651-0.862,0.965-1.319c2.748-3.958,4.596-8.657,5.55-13.781c0.981-5.247,1.017-10.902,0.132-16.599 c-0.897-5.787-2.734-11.567-5.455-16.941c-2.732-5.398-6.322-10.325-10.683-14.378L797.827,0"/>
  <path fill="#00C4B3" d="M770.71,88.769c-1.418,0.04-2.768,0.264-4.034,0.674c-1.248,0.406-2.418,0.994-3.479,1.758 c-1.054,0.759-2.004,1.69-2.838,2.795c-0.825,1.089-1.531,2.346-2.108,3.771l-7.885,19.488l19.432,21.189 c1.404,1.534,2.851,2.91,4.312,4.13c1.469,1.225,2.958,2.296,4.45,3.199c1.504,0.913,3.007,1.666,4.497,2.25 c1.501,0.59,2.988,1.007,4.439,1.255c1.389,0.232,2.747,0.308,4.053,0.217c1.321-0.092,2.59-0.353,3.785-0.792 c1.209-0.445,2.346-1.066,3.389-1.876c1.053-0.816,2.01-1.83,2.848-3.039c0.204-0.29,0.396-0.589,0.577-0.896 c0.185-0.305,0.36-0.623,0.522-0.943c0.167-0.325,0.325-0.654,0.472-0.994c0.147-0.336,0.285-0.685,0.417-1.041l-17.959-18.973 l9.521-17.028c-0.331-0.441-0.665-0.875-1.007-1.306c-0.34-0.433-0.691-0.856-1.047-1.275c-0.355-0.421-0.718-0.836-1.089-1.242 c-0.368-0.406-0.743-0.808-1.125-1.2c-1.69-1.74-3.419-3.259-5.164-4.556c-1.735-1.291-3.48-2.353-5.207-3.195 c-1.712-0.836-3.406-1.448-5.052-1.843C773.8,88.905,772.217,88.731,770.71,88.769"/>
  <path fill="#00C4B3" d="M874.765,89.091c-2.572,0.048-5.075,0.347-7.474,0.896c-2.366,0.538-4.629,1.316-6.753,2.33 c-2.093,0.997-4.053,2.223-5.85,3.674c-1.77,1.424-3.38,3.068-4.8,4.924c-0.333,0.439-0.656,0.884-0.963,1.336 c-0.306,0.45-0.6,0.906-0.878,1.371c-0.279,0.461-0.542,0.928-0.792,1.402c-0.253,0.472-0.489,0.95-0.711,1.433l23.684,23.325 l-16.998,17.873c0.362,0.489,0.737,0.968,1.122,1.451c0.384,0.476,0.778,0.952,1.181,1.424c0.405,0.47,0.82,0.935,1.246,1.4 c0.424,0.463,0.86,0.921,1.306,1.373c1.978,2.011,4.064,3.832,6.234,5.458c2.182,1.639,4.448,3.085,6.776,4.336 c2.346,1.26,4.751,2.321,7.185,3.176c2.462,0.866,4.955,1.521,7.448,1.959c2.392,0.415,4.788,0.632,7.149,0.635 c2.392,0.006,4.757-0.209,7.057-0.649c2.333-0.448,4.602-1.135,6.77-2.067c2.199-0.946,4.297-2.148,6.248-3.619l32.979-24.825 l-37.395-34.784c-2.563-2.383-5.277-4.466-8.091-6.241c-2.794-1.76-5.671-3.215-8.583-4.365c-2.883-1.137-5.793-1.973-8.677-2.51 C880.337,89.278,877.515,89.043,874.765,89.091"/>
  <path fill="#231F20" d="M61.041,97.104H39.49l-12.465,63.471H8.969l12.464-63.471H0l3.262-16.728h61.04L61.041,97.104z"/>
  <path fill="#231F20" d="M51.026,145.222c0-2.521,0.35-5.155,0.933-8.134l6.057-29.445h17.94l-5.242,26.695 c-0.35,1.948-0.583,3.552-0.583,5.041c0,5.843,3.495,7.791,7.338,7.791c5.824,0,10.6-4.239,12.464-13.978l5.01-25.549h17.706 l-10.485,52.931H85.042l1.631-8.593h-0.234c-4.659,6.989-9.668,10.312-17.589,10.312 C59.181,162.293,51.026,157.367,51.026,145.222z M70.83,81.522h14.445L82.13,96.988H67.685L70.83,81.522z M92.73,81.522h14.445 l-3.146,15.466H89.585L92.73,81.522z"/>
  <path fill="#231F20" d="M124.069,107.644h17.241l-2.213,10.655h0.233c3.845-9.738,11.881-12.259,18.871-12.259 c1.398,0,1.748,0.115,2.447,0.23l-3.495,18.216c-0.583,0-1.281-0.114-3.028-0.114c-10.718,0-16.659,4.239-19.105,16.728 l-3.843,19.477h-17.59L124.069,107.644z"/>
  <path fill="#231F20" d="M196.063,133.079l18.173,27.496h-21.784l-13.629-24.174l-4.776,24.174h-17.59l15.842-80.199h17.59 l-9.435,48.005l19.687-20.737h23.182L196.063,133.079z"/>
  <path fill="#231F20" d="M226.238,107.644h17.59l-10.483,52.931h-17.59L226.238,107.644z M246.274,97.905h-18.872l3.495-17.415 h18.871L246.274,97.905z"/>
  <path fill="#231F20" d="M310.718,107.644l-48.81,75.845H242.92l19.338-29.101l-14.329-46.745h18.755l6.99,28.986l17.939-28.986 H310.718z"/>
  <path fill="#231F20" d="M361.034,138.234h-38.558c0.815,6.187,4.426,9.51,11.999,9.51c6.873,0,12.58-2.406,16.542-4.698 l5.475,13.52c-6.757,3.438-14.328,5.729-23.182,5.729c-16.774,0-27.958-9.624-27.958-25.434c0-14.665,9.552-30.821,31.918-30.821 c15.26,0,25.395,7.676,25.395,21.311C362.665,130.557,362.199,134.11,361.034,138.234z M345.424,125.974 c0-4.812-3.495-7.676-8.971-7.676c-6.29,0-10.95,3.781-13.046,9.738h21.9C345.424,127.35,345.424,126.777,345.424,125.974z"/>
  <path fill="#231F20" d="M427.205,97.104l-3.262,16.268h29.355l-3.145,16.155h-29.473l-6.174,31.048h-18.056l15.843-80.199h52.07 l-3.145,16.728H427.205z"/>
  <path fill="#231F20" d="M467.747,107.644h17.59l-10.484,52.931h-17.59L467.747,107.644z M487.784,97.905h-18.872l3.495-17.415 h18.871L487.784,97.905z"/>
  <path fill="#231F20" d="M496.521,107.644h17.241l-1.631,8.02h0.232c4.776-6.188,10.601-9.738,18.521-9.738 c10.368,0,17.124,5.613,17.124,17.186c0,2.177-0.232,6.187-1.048,10.312l-5.592,27.152h-17.473l5.009-25.893 c0.466-2.062,0.815-4.125,0.815-6.072c0-5.843-3.146-8.249-8.504-8.249c-5.824,0-10.367,3.094-12.348,13.634l-5.242,26.58h-17.59 L496.521,107.644z"/>
  <path fill="#231F20" d="M550.578,137.432c0-18.562,11.766-31.507,28.54-31.507c8.854,0,15.608,3.896,18.871,10.884h0.35 l1.747-9.166h17.474l-10.484,52.931h-17.473l1.397-7.104h-0.233c-4.311,5.614-10.718,8.822-17.474,8.822 C559.314,162.293,550.578,152.785,550.578,137.432z M594.611,132.963c0-6.76-4.893-11.228-12.115-11.228 c-7.688,0-13.396,5.729-13.396,13.633c0,6.646,4.776,11.114,11.998,11.114C588.902,146.483,594.611,140.754,594.611,132.963z"/>
  <path fill="#231F20" d="M626.3,107.644h17.241l-1.631,8.02h0.232c4.776-6.188,10.601-9.738,18.521-9.738 c10.367,0,17.124,5.613,17.124,17.186c0,2.177-0.232,6.187-1.048,10.312l-5.592,27.152h-17.474l5.01-25.893 c0.465-2.062,0.815-4.125,0.815-6.072c0-5.843-3.146-8.249-8.504-8.249c-5.824,0-10.367,3.094-12.349,13.634l-5.241,26.58h-17.591 L626.3,107.644z"/>
  <path fill="#231F20" d="M703.188,148.201c2.563,0,3.611-0.915,3.611-2.291c0-1.375-0.815-1.947-3.145-3.322l-7.455-4.125 c-6.757-3.666-10.368-8.249-10.368-15.467c0-10.311,7.339-17.07,20.618-17.07c7.921,0,15.61,2.062,23.415,5.729l-6.407,12.831 c-5.708-2.979-11.765-4.696-16.075-4.696c-2.796,0-3.845,0.687-3.845,2.063c0,1.374,1.049,2.062,3.728,3.551l7.105,3.896 c6.642,3.438,10.484,7.218,10.484,15.123c0,11.801-8.387,17.873-22.016,17.873c-10.135,0-18.056-2.864-26.094-8.593l8.504-12.603 C692.005,145.453,698.296,148.201,703.188,148.201z"/>
</svg>
