<svg xmlns="http://www.w3.org/2000/svg" viewBox="0 0 806.646 213.114">
<polygon fill="#00428A" points="0,83.426 0,94.197 16.771,94.197 16.771,135.031 29.229,135.031 29.229,94.156 46.438,94.156 46.438,83.426 "/>
<circle fill="#00428A" cx="68.431" cy="73.722" r="6.616"/>
<circle fill="#00428A" cx="86.728" cy="73.722" r="6.616"/>
<path fill="#00428A" d="M111.828,83.442v51.556h11.631v-18.451h12.063l10.707,18.463h13.563l-11.438-19.875
	c0,0,11.208-2.729,11.208-14.896c0-12.166-10.125-16.791-18-16.791S111.828,83.442,111.828,83.442z"/>
<polygon fill="#00428A" points="168.719,83.429 168.719,135.053 180.55,135.053 180.55,119.627 189.943,110.233 206.057,135.053 
	220.185,135.053 198.573,101.223 215.755,83.428 201.398,83.428 180.55,105.574 180.55,83.428 "/>
<rect x="226.607" y="83.579" fill="#00428A" width="12.137" height="51.449"/>
<circle fill="#00428A" cx="232.721" cy="73.839" r="6.616"/>
<path fill="#00428A" d="M388.347,29.402v2.902c0,0,7.74,0.352,7.74,7.3s0,48.195,0,48.195l19.788,11.17v-59.63
	c0,0-0.353-7.036,7.563-7.036v-2.902L388.347,29.402z"/>
<path fill="#00428A" d="M418.172,46.597v4.661c0,0,17.954,7.423,19.105,28.715h3.05V46.654h-2.705c0,0-1.783,4.546-6.56,4.546
	S418.172,46.597,418.172,46.597z"/>
<path fill="#00428A" d="M393.771,44.781v4.083c0,0-17.917,2.75-17.917,18.833c0,0-1.417,12.75,20.25,23.75l26.834,14.75
	c0,0,19.332,8.75,25.249,24.334c5.917,15.583,2.084,36.416-17.583,46.333c-8,4.083-15.167,4.499-17.75,4.833
	c0,0,6.5,3.251,6.5,11.167s-8.833,20.167-12.666,20.25h-2.25c0,0-0.334-0.416,0.833-1.75c1.168-1.334,6.585-7.834,5.251-11.584
	c0,0-3.157,1.402-6.285,1.402c-3.128,0-9.167-2.696-9.167-9.814s5.393-10.03,7.334-10.03c0,0-3.02-0.323-12.619-3.774
	s-17.041-6.795-21.895,1.51h-2.588v-35.376h3.128c0,0,7.117,33.65,41.954,33.65c24.159-0.106,27.071-20.059,27.071-23.727
	s0.002-14.883-18.011-25.129c-18.012-10.246-35.268-19.629-35.268-19.629s-20.168-9.383-20.168-31.6
	C364.007,55.045,384.383,44.781,393.771,44.781z"/>
<path fill="#00428A" d="M396.021,118.531l19.75,11.166v22.834c0,0-0.251,6.916,7.666,6.916v3.084h-35.167v-3.334
	c0,0,7.75,0.167,7.75-7.083S396.021,118.531,396.021,118.531z"/>
<polygon fill="#00428A" points="243.483,83.453 257.63,83.453 272.034,105.145 286.867,83.539 300.584,83.539 277.778,114.49 
	277.778,135.066 266.032,135.066 266.032,114.488 "/>
<polygon fill="#00428A" points="304.527,83.366 345.853,83.366 345.853,93.826 316.445,93.826 316.445,102.742 333.25,102.742 
	333.25,112.603 316.445,112.603 316.445,124.862 347.053,124.862 347.053,135.064 304.441,135.064 "/>
<circle fill="#00428A" cx="405.868" cy="10.945" r="10.945"/>
<path fill="#00428A" d="M466.632,83.498v51.53h28.802c0,0,19.285-0.063,19.285-16.592c0-9.393-8.642-11.208-8.829-11.208
	s6.638-2.19,6.638-10.706s-8.077-12.961-18.221-12.961S466.632,83.498,466.632,83.498z"/>
<path fill="#FFFFFF" d="M478.278,111.861v13.336h17.47c0,0,6.543-0.25,6.543-6.543s-6.794-6.793-6.794-6.793H478.278z"/>
<path fill="#FFFFFF" d="M478.215,102.782h17.595c0,0,4.821,0,4.821-4.884c0,0,0.473-4.701-5.152-4.701h-17.266L478.215,102.782z"/>
<polygon fill="#00428A" points="538.974,83.514 550.79,83.514 573.271,135.076 559.998,135.076 555.164,123.643 533.756,123.643 
	529,134.922 516.339,134.922 "/>
<polygon fill="#FFFFFF" points="537.592,113.668 551.557,113.668 544.575,96.098 "/>
<polygon fill="#00428A" points="578.104,83.385 578.104,135.197 589.792,135.197 589.792,101.947 615.354,135.135 626.104,135.135 
	626.104,83.51 614.042,83.51 614.042,116.322 589.135,83.4 "/>
<polygon fill="#00428A" points="636.938,83.424 648.934,83.424 648.934,106.02 670.071,83.486 684.669,83.486 666.833,101.449 
	685.559,130.139 706.188,83.422 717.676,83.422 740.147,135.025 726.945,135.025 722.375,123.664 700.731,123.664 696.032,135.026 
	674.386,135.026 658.328,110.398 648.933,119.982 648.933,135.025 636.936,135.025 636.936,83.423 "/>
<polygon fill="#FFFFFF" points="704.719,114.08 718.684,114.08 711.702,96.509 "/>
<path fill="#00428A" d="M775.72,98.306l8.72-7.475c0,0-8.408-8.201-21.178-8.201s-21.594,6.437-21.594,15.468
	c0,9.032,7.061,12.77,18.791,15.053c11.73,2.285,14.076,4.563,13.08,8.514s-9.177,4.354-11.627,4.152s-7.993-0.311-13.6-6.021
	l-8.721,7.06c0,0,8.264,9.136,22.735,9.136s23.254-5.605,23.462-16.299s-8.408-13.496-17.752-15.779l-9.551-1.973
	c0,0-4.257-1.039-4.257-4.465s3.427-4.671,9.032-4.671S775.617,96.956,775.72,98.306z"/>
<polygon fill="#00428A" points="794.808,83.521 794.808,135.031 806.646,135.031 806.646,83.51 "/>
<path fill="#00428A" d="M53.354,83.447h12.042v30.542c0,0,0.333,11.875,11.875,11.875s12.292-11.917,12.292-11.917V83.489h11.917
	v29.167c0,0,0.917,23.104-23.625,23.104s-24.5-20.438-24.5-23.063S53.354,83.447,53.354,83.447z"/>
<path fill="#FFFFFF" d="M123.479,93.363v13.709h17.167c0,0,6.792-0.25,6.792-6.959c0-6.707-7.083-6.75-7.083-6.75H123.479z"/>
</svg>
