<svg xmlns="http://www.w3.org/2000/svg" viewBox="0 0 2548.4 614">
  <path fill-rule="evenodd" clip-rule="evenodd" fill="#008AAD" d="M266.3,142c0-11.4,0-22.8,0-34.3 c-135,32-235.4,91.6-259.5,211.7c-35.7,265.8,318.6,366.2,515.9,241.2l-0.7-40.5C359.9,652.7,136.9,580.1,98.1,399.4 c-1.2-5.4-2-10.6-2.2-16.2C92.5,259.3,156.3,183.9,266.3,142L266.3,142z"/>
  <path fill-rule="evenodd" clip-rule="evenodd" fill="#008AAD" d="M366.8,107.3c54.6,5.7,106.2,23.6,155.9,52.1 c0,15.5,0,31,0,46.5c-40-42.2-93-67.5-155.9-73.7C366.4,123.6,367.2,115.9,366.8,107.3L366.8,107.3z"/>
  <polygon fill-rule="evenodd" clip-rule="evenodd" fill="#008AAD" points="161,44.5 161,0 469.4,0 469.4,44.5 354.4,44.5 354.4,311.8 277.3,311.8 277.3,44.5 161,44.5 "/>
  <path fill-rule="evenodd" clip-rule="evenodd" fill="#008AAD" d="M221.6,499.7c-14.9,0-29.8,0-44.7,0c0-94.2,0-187,0-281.2 c15.1,0,30.2,0,45.3,0c31.4,54.3,64.5,109.5,95.9,163.8c29.2-54.3,56.6-109.5,85.8-163.8c10.8,0,21.6,0,32.4,0 c0,93.6,0,187.6,0,281.2c-21.4,0-42.8,0-64.3,0c0-43.2,0-86.8,0-130.1c-25,43.4-50.1,86.7-75.1,130.1 c-25.1-43.5-50.2-86.9-75.3-130.4C221.7,413.2,221.6,455.7,221.6,499.7L221.6,499.7z"/>
  <path fill-rule="evenodd" clip-rule="evenodd" fill="#008AAD" d="M461.3,218.6c0,93.8,0,187.4,0,281.2c37.5,0,72.4,0,109.5,0 c82.6,0,120.6-95.7,45.5-143.7c71.9-57.3,24.2-134.5-43.5-137.5C530.8,217.4,504.7,218.3,461.3,218.6L461.3,218.6z M522.7,244.8 c0,34.1,0,69.3,0,103.3c37.2,1,65.5-6.3,68.9-44.8c0.3-3.2,0.2-6.1-0.2-9.3C587,256.7,563,245,522.7,244.8L522.7,244.8z M522.7,375c0,34.1,0,66.1,0,100.1c37.2,1,71.9-6.3,75.3-44.8c0.3-3.2,0.2-6.1-0.2-9.3C593.4,383.6,563,375.2,522.7,375 L522.7,375z"/>
  <path fill-rule="evenodd" clip-rule="evenodd" fill="#008AAD" d="M874.2,495h20.5c0-0.6,0.2-1.3,0.3-1.9c0.2-0.8,0.4-1.5,0.7-2.3 l0,0l27.7-78.1l10.1,78.6l0.3,2.8l-0.1,0.8h27c-0.4-1.1-0.7-2.2-0.9-3.3L945,388.2c-0.2-0.9-0.2-1.9-0.2-2.8v-0.1l0-0.5h-22.3 c-0.2,1.2-0.5,2.4-0.9,3.5l0,0l-29.1,82l-28.7-81.7c-0.4-1.2-0.8-2.5-0.9-3.8h-22.6l0.1,1l-0.2,2.8l-16.1,103l0,0 c-0.2,1.2-0.5,2.3-0.9,3.4h11.2c0-0.2-0.1-0.4-0.1-0.5c-0.1-0.6-0.1-1.3-0.1-2v-0.1l0.1-1.2L846,414l27.3,77.2 C873.7,492.4,874.1,493.8,874.2,495L874.2,495z M1004.5,384.8c0.3,1.3,0.3,2.6,0.3,3.8v102.7c0,1.3-0.1,2.5-0.4,3.7h64.5v-9.9 c-1.7,0.3-3.4,0.4-5.1,0.4H1031v-42.3h33.5c1.5,0,3,0.1,4.5,0.3v-8.9c-1.6,0.2-3.3,0.3-4.8,0.3H1031v-41.7h33.9 c1.4,0,2.7,0.1,4.1,0.3v-8.8H1004.5L1004.5,384.8z M1178.1,495h30.3c-0.6-0.8-1.2-1.6-1.7-2.4l0,0l-31.9-49.9l2.1-0.7 c5.9-2,14-5.3,18.2-10.1c4.3-5,6-10.9,6-17.5c0-10-3.9-17.9-12.1-23.6c-6.7-4.6-14.7-6.2-22.7-6.2h-45.1c0.3,1.3,0.4,2.5,0.4,3.8 v102.6c0,1.1,0,2.3-0.2,3.5c0,0.1,0,0.2-0.1,0.4h26.7c-0.1-0.3-0.1-0.6-0.1-0.9c-0.1-1-0.1-1.9-0.1-2.9v-52.5l28.7,52 C1177.2,492,1177.8,493.5,1178.1,495L1178.1,495z M1147.8,438.4v-45.3h7.7c5.6,0,10.4,2,14.1,6.4c3.8,4.7,5.1,10.7,5.1,16.6 c0,6.8-1.8,13.3-7,18.1l0,0c-3.4,3-7.6,4.2-12,4.2H1147.8L1147.8,438.4z M1311.3,490.8c0.8,1.2,1.3,2.7,1.7,4.2h30.4 c-0.6-0.8-1.2-1.7-1.7-2.5l-39.6-62l31.7-43.7c0.5-0.7,1-1.4,1.6-2h-16.5c-0.5,1.4-1.2,2.8-2.1,4l-36,50.5v-50.6 c0-1.1,0-2.2,0.2-3.2c0-0.2,0.1-0.4,0.1-0.6h-26.8c0.1,0.3,0.1,0.6,0.1,0.9c0.1,1,0.1,2,0.1,3v102.6c0,1.3-0.1,2.6-0.4,3.8h26.8 c-0.1-0.3-0.1-0.6-0.1-0.9c-0.1-1-0.1-1.9-0.1-2.9v-51.3L1311.3,490.8L1311.3,490.8z M1388.5,384.8c0.3,1.3,0.3,2.6,0.3,3.8 v102.7c0,1.3-0.1,2.5-0.4,3.7h64.5v-9.9c-1.7,0.3-3.4,0.4-5.1,0.4h-32.9v-42.3h33.5c1.5,0,3,0.1,4.5,0.3v-8.9 c-1.6,0.2-3.3,0.3-4.8,0.3h-33.2v-41.7h33.9c1.4,0,2.7,0.1,4.1,0.3v-8.8H1388.5L1388.5,384.8z M1506.5,495h85v-9.9 c-1.9,0.3-4,0.4-5.8,0.4h-50.1l55.9-89.2v-11.6h-85v9.8c0.7-0.1,1.3-0.2,2-0.3c1.6-0.1,3.2-0.2,4.8-0.2h49.2l-56.1,89.2V495 L1506.5,495z M1682,384.8c0.2,1.3,0.3,2.6,0.3,3.8v102.5c0,1.3-0.1,2.6-0.4,3.9h49.6c7,0,13.6-1.5,19.6-5.3 c8.8-5.7,12.4-14.3,12.4-24.7c0-8.5-2.8-15.6-9.7-20.7c-3.8-2.8-8.6-4.4-13.2-5.3l-6.9-1.4l6.8-2c3.4-1,7.5-2.3,10.6-4.1 c7.6-4.3,10.3-11.5,10.3-20c0-8-2.2-15.4-8.7-20.4c-6.5-4.9-14.6-6.5-22.6-6.5H1682L1682,384.8z M1735.5,418.6 c-0.3,1.7-0.7,3.4-1.3,5.1l0,0c-1,2.7-2.4,5.7-4.6,7.6l0,0l0,0c-3.6,2.9-9,3.6-13.5,3.6h-7.7v-41.4h9.6 c12.5,0,17.9,7.5,17.9,19.5C1736,414.9,1735.9,416.8,1735.5,418.6L1735.5,418.6z M1708.4,486.3v-43h8.5c14.5,0,20.4,9,20.4,22.8 c0,11.9-4.9,20.2-17.7,20.2H1708.4L1708.4,486.3z M1866.4,495h28.8c-0.5-0.9-1-1.9-1.4-2.9l-39.1-103.9l0,0 c-0.4-1.1-0.7-2.3-0.9-3.5h-21.9c-0.1,0.5-0.2,1-0.3,1.5c-0.2,0.8-0.4,1.6-0.7,2.3l-38.2,103.6l0,0c-0.4,1-0.8,1.9-1.3,2.8h11.2 c0.1-1.4,0.5-2.8,1-4.1l10.3-28.3h41.5l10.1,28.3C1865.9,492.2,1866.3,493.6,1866.4,495L1866.4,495z M1817.3,453.5l17.4-49.5 l17.5,49.5H1817.3L1817.3,453.5z M2016.7,493.8c0.2,0.4,0.5,0.8,0.7,1.2h22.3c-0.3-1.2-0.4-2.4-0.4-3.7V388.6 c0-1.2,0.1-2.5,0.3-3.7c0,0,0-0.1,0-0.1h-10.4c0.1,0.3,0.1,0.6,0.1,0.9c0.1,1,0.1,1.9,0.1,2.9v79.8l-60.8-79.5 c-0.9-1.2-1.9-2.7-2.5-4.1h-22.7c0.2,1.3,0.3,2.6,0.3,3.8v102.6c0,1.3-0.1,2.6-0.4,3.8h10.5c-0.1-0.3-0.1-0.6-0.1-0.9 c-0.1-1-0.1-2-0.1-3v-80.1l61,79.6C2015.3,491.7,2016.1,492.8,2016.7,493.8L2016.7,493.8z M2156.1,490.8c0.8,1.2,1.3,2.7,1.7,4.2 h30.4c-0.6-0.8-1.2-1.7-1.7-2.5l-39.6-62l31.7-43.7c0.5-0.7,1-1.4,1.6-2h-16.5c-0.5,1.4-1.2,2.8-2.1,4l-36,50.5v-50.6 c0-1.1,0-2.2,0.2-3.2c0-0.2,0.1-0.4,0.1-0.6h-26.8c0.1,0.3,0.1,0.6,0.1,0.9c0.1,1,0.1,2,0.1,3v102.6c0,1.3-0.1,2.6-0.4,3.8h26.8 c-0.1-0.3-0.1-0.6-0.1-0.9c-0.1-1-0.1-1.9-0.1-2.9v-51.3L2156.1,490.8L2156.1,490.8z M2225.2,495h11.2c0.1-1.4,0.5-2.8,1-4.1 l10.3-28.3h41.5l10.1,28.3c0.4,1.3,0.8,2.7,0.9,4.1h28.8c-0.5-0.9-1-1.9-1.4-2.9l-39.1-103.9l0,0c-0.4-1.1-0.7-2.3-0.9-3.5h-21.9 c-0.1,0.5-0.2,1-0.3,1.5c-0.2,0.8-0.4,1.6-0.7,2.3l-38.2,103.6l0,0C2226.1,493.2,2225.7,494.1,2225.2,495L2225.2,495z M2251.1,453.5l17.4-49.5l17.5,49.5H2251.1L2251.1,453.5z M2368.4,488.7c5.4,2.5,11.1,4.8,16.9,6.3c5.6,1.4,11.5,1.9,17.2,1.9 c14.9,0,29.4-3.9,37.7-17.2c3.7-5.9,5.4-12.3,5.4-19.2c0-6.7-1.7-12.9-5.7-18.3c-4.8-6.6-14.3-11.2-21.8-14.1 c-4.3-1.7-8.6-3.5-12.8-5.5c-2.4-1.2-5.3-2.6-7.4-4.3c-3.4-2.7-4.9-6.4-4.9-10.6c0-4.4,1.7-8.1,5.1-11c3.5-3,7.7-4.2,12.3-4.2 c8.9,0,17.9,4.4,25.3,9.3l3.4-12.9c-9.2-3.6-18.8-5.8-28.7-5.8c-13.9,0-27.7,3.4-36,15.3c-3.7,5.2-5.5,11.1-5.5,17.5 c0,6.7,2.1,12.7,6.2,17.9c4.8,6,13.8,10.4,20.7,13.3c4,1.7,8,3.4,11.9,5.2c1.9,0.9,4.2,2,6,3.2c4.8,3.2,7.5,7.7,7.5,13.5 c0,5-1.9,9.1-5.6,12.4c-4.2,3.8-9.6,5-15.1,5c-7.8,0-14.9-2.4-21.4-6.8c-1.3-0.8-2.5-1.7-3.7-2.6c-1.1-0.8-2.1-1.6-3.1-2.4 L2368.4,488.7L2368.4,488.7z M2491.5,384.8c0.1,0.3,0.1,0.6,0.1,0.9c0.1,1,0.1,2,0.1,3v102.6c0,1.3-0.1,2.6-0.4,3.8h26.8 c-0.2-1.3-0.3-2.6-0.3-3.8V388.6c0-1.1,0-2.3,0.2-3.4c0-0.1,0.1-0.3,0.1-0.4H2491.5L2491.5,384.8z"/>
  <path fill-rule="evenodd" clip-rule="evenodd" fill="#008AAD" d="M2467.2,215.3v11.2c2-0.3,4.1-0.5,6.1-0.5h24.8v97.5 c0,1.1,0,2.3-0.2,3.3c0,0.2-0.1,0.4-0.1,0.6h27.2c-0.1-0.3-0.1-0.6-0.1-0.9c-0.1-1-0.1-2-0.1-3V226h25.7c1.2,0,2.4,0.1,3.6,0.3 c0.5,0.1,1.1,0.1,1.6,0.2v-11.2H2467.2L2467.2,215.3z M2393.2,215.3c0.3,1.3,0.3,2.7,0.3,3.9v104.4c0,1.3-0.1,2.6-0.4,3.8h65.6 v-10.1c-1.7,0.3-3.5,0.4-5.2,0.4h-33.4v-42.9h34c1.5,0,3.1,0.1,4.6,0.3V266c-1.6,0.2-3.3,0.3-4.9,0.3h-33.7V224h34.4 c1.4,0,2.8,0.1,4.2,0.3v-9H2393.2L2393.2,215.3z M2322.8,327.4h27.3c-0.3-1.3-0.3-2.7-0.3-3.9V279l30-61.1 c0.4-0.8,0.9-1.7,1.4-2.5h-11.8c-0.3,1.5-0.7,2.9-1.4,4.3l0,0l-23.1,46.3l-21.7-46.2c-0.7-1.3-1.3-2.9-1.5-4.4h-29.4 c0.5,0.9,1,1.8,1.4,2.7l29.5,61.5v44C2323.1,324.8,2323,326.2,2322.8,327.4L2322.8,327.4z M2202.6,327.4h30.9 c-0.6-0.8-1.2-1.7-1.7-2.4l0,0l-32.4-50.7l2.1-0.7c6-2,14.2-5.3,18.5-10.2c4.4-5.1,6.1-11.1,6.1-17.8c0-10.2-3.9-18.2-12.3-24 c-6.8-4.7-14.9-6.3-23.1-6.3h-45.8c0.3,1.3,0.4,2.6,0.4,3.9v104.3c0,1.2,0,2.4-0.2,3.5c0,0.1,0,0.3-0.1,0.4h27.2 c-0.1-0.3-0.1-0.7-0.2-1c-0.1-1-0.1-2-0.1-2.9v-53.3l29.1,52.7C2201.7,324.4,2202.2,325.9,2202.6,327.4L2202.6,327.4z M2171.8,269.8v-46h7.8c5.7,0,10.6,2,14.3,6.5c3.9,4.8,5.2,10.8,5.2,16.9c0,7-1.9,13.5-7.1,18.3l0,0c-3.4,3.1-7.7,4.3-12.2,4.3 H2171.8L2171.8,269.8z M2118.3,215.3h-10.7c0.3,1.3,0.3,2.7,0.3,3.9v69c0,8.4-2,16.7-8.2,22.7c-6.2,6-14.5,8-23,8 c-9.2,0-17.8-2.6-23.7-9.9c-4.2-5.3-5.7-11.9-5.7-18.6v-71.3c0-1.3,0.1-2.6,0.4-3.9h-27.3c0.1,0.3,0.1,0.7,0.2,1 c0.1,1,0.1,2,0.1,2.9v69.6c0,15.3,5.8,27.3,19.5,34.7c8.3,4.6,18.8,5.7,28.1,5.7c15.1,0,32-3,41.9-15.6 c5.5-7.1,7.7-15.4,7.7-24.3v-70.2c0-1.1,0-2.2,0.2-3.3C2118.2,215.7,2118.3,215.5,2118.3,215.3L2118.3,215.3z M1964.4,327.4h27.3 c-0.2-1.3-0.3-2.6-0.3-3.8V219.2c0-1.1,0-2.3,0.2-3.4c0-0.2,0.1-0.3,0.1-0.5h-27.3c0.3,1.3,0.4,2.6,0.4,3.9v45.9h-44.2v-45.9 c0-1.3,0.1-2.6,0.4-3.9h-27.3c0.1,0.3,0.1,0.6,0.1,0.9c0.1,1,0.1,2,0.1,3v104.4c0,1.1,0,2.3-0.2,3.3c0,0.2-0.1,0.3-0.1,0.5h27.3 c-0.2-1.3-0.3-2.6-0.3-3.8v-49.1h44.2v49.1c0,1.1,0,2.3-0.2,3.3C1964.5,327.1,1964.4,327.3,1964.4,327.4L1964.4,327.4z M1790.2,327.4h20.8c0-0.6,0.2-1.3,0.3-1.9c0.2-0.8,0.4-1.6,0.7-2.3l0,0l28.1-79.3l10.3,79.8l0.3,2.9l-0.1,0.8h27.5 c-0.4-1.1-0.7-2.3-0.9-3.4l-15.1-105.2c-0.2-0.9-0.2-2-0.2-2.9v-0.1l0-0.6h-22.8c-0.2,1.2-0.5,2.4-0.9,3.6l0,0l-29.5,83.3 l-29.1-83c-0.4-1.2-0.8-2.6-0.9-3.9h-23.1l0.1,1l-0.2,2.9l-16.3,104.7l0,0c-0.2,1.2-0.5,2.4-0.9,3.5h11.5c0-0.2-0.1-0.4-0.1-0.6 c-0.1-0.7-0.1-1.3-0.1-2v-0.1l0.1-1.3l11.7-78.4l27.7,78.4C1789.6,324.7,1790.1,326.2,1790.2,327.4L1790.2,327.4z M1719.6,215.3 h-10.7c0.3,1.3,0.3,2.7,0.3,3.9v69c0,8.4-2,16.7-8.2,22.7c-6.2,6-14.5,8-23,8c-9.2,0-17.8-2.6-23.7-9.9 c-4.2-5.3-5.7-11.9-5.7-18.6v-71.3c0-1.3,0.1-2.6,0.4-3.9h-27.3c0.1,0.3,0.1,0.7,0.2,1c0.1,1,0.1,2,0.1,2.9v69.6 c0,15.3,5.8,27.3,19.5,34.7c8.3,4.6,18.8,5.7,28.1,5.7c15.1,0,32-3,41.9-15.6c5.5-7.1,7.7-15.4,7.7-24.3v-70.2 c0-1.1,0-2.2,0.2-3.3C1719.5,215.7,1719.6,215.5,1719.6,215.3L1719.6,215.3z M1597.3,218.4c-9.5-3.5-19.4-5-29.5-5 c-22.3,0-43.8,5.9-55.5,26.3c-5.2,9.1-6.7,20.5-6.7,30.8c0,16.1,3.5,32.4,15.2,44.2c11.5,11.4,28.3,14.6,43.9,14.6 c5.7,0,11.4-0.4,17-1.4c5.3-1,10.5-2.7,15.6-4.6v-14.7c-1.7,1.3-3.5,2.6-5.3,3.7c-2.3,1.4-4.6,2.7-7.1,3.8l0,0 c-4.6,2-9.5,2.9-14.5,2.9c-10.6,0-19.4-3.9-26.2-12.2c-8.2-10-10.6-23.3-10.6-35.9c0-12,2.2-24.5,9.4-34.4 c6.5-9,15.6-13.1,26.7-13.1c5,0,10,0.9,14.7,2.8c4.5,1.8,8.9,4.6,12.9,7.4V218.4L1597.3,218.4z M1380.2,215.3 c0.3,1.3,0.3,2.7,0.3,3.9v104.4c0,1.3-0.1,2.6-0.4,3.8h65.6v-10.1c-1.7,0.3-3.5,0.4-5.2,0.4h-33.4v-42.9h34 c1.5,0,3.1,0.1,4.6,0.3V266c-1.6,0.2-3.3,0.3-4.9,0.3h-33.7V224h34.4c1.4,0,2.8,0.1,4.2,0.3v-9H1380.2L1380.2,215.3z M1309.8,327.4h27.3c-0.3-1.3-0.3-2.7-0.3-3.9V279l30-61.1c0.4-0.8,0.9-1.7,1.4-2.5h-11.8c-0.3,1.5-0.7,2.9-1.4,4.3l0,0 l-23.1,46.3l-21.7-46.2c-0.7-1.3-1.3-2.9-1.5-4.4h-29.4c0.5,0.9,1,1.8,1.4,2.7l29.5,61.5v44 C1310.2,324.8,1310.1,326.2,1309.8,327.4L1309.8,327.4z M1192.4,323.2c0.8,1.3,1.4,2.8,1.7,4.3h30.9c-0.6-0.9-1.2-1.8-1.7-2.6 l-40.2-63l32.2-44.4c0.5-0.7,1.1-1.4,1.7-2.1h-16.9c-0.5,1.4-1.2,2.9-2.1,4l-36.5,51.2v-51.4c0-1.1,0-2.2,0.2-3.3 c0-0.2,0.1-0.4,0.1-0.7h-27.3c0.1,0.3,0.1,0.6,0.1,0.9c0.1,1,0.1,2,0.1,3v104.3c0,1.3-0.1,2.6-0.4,3.9h27.3 c-0.1-0.3-0.1-0.7-0.2-1c-0.1-1-0.1-2-0.1-2.9v-52L1192.4,323.2L1192.4,323.2z M1087.8,327.4h30.9c-0.6-0.8-1.2-1.7-1.7-2.4l0,0 l-32.4-50.7l2.1-0.7c6-2,14.2-5.3,18.5-10.2c4.4-5.1,6.1-11.1,6.1-17.8c0-10.2-3.9-18.2-12.3-24c-6.8-4.7-14.9-6.3-23.1-6.3H1030 c0.3,1.3,0.4,2.6,0.4,3.9v104.3c0,1.2,0,2.4-0.2,3.5c0,0.1,0,0.3-0.1,0.4h27.2c-0.1-0.3-0.1-0.7-0.2-1c-0.1-1-0.1-2-0.1-2.9 v-53.3l29.1,52.7C1086.9,324.4,1087.4,325.9,1087.8,327.4L1087.8,327.4z M1057,269.8v-46h7.8c5.7,0,10.6,2,14.3,6.5 c3.9,4.8,5.2,10.8,5.2,16.9c0,7-1.9,13.5-7.1,18.3l0,0c-3.4,3.1-7.7,4.3-12.2,4.3H1057L1057,269.8z M976.4,181.6 c-2.7,0-5.5,0.6-7.6,2.5c-2,1.8-2.6,4.2-2.6,6.9c0,2.6,0.6,5.1,2.5,6.9c2,1.9,4.9,2.4,7.5,2.4c6.7,0,9.9-2.9,9.9-9.7 C986.1,184.1,982.7,181.6,976.4,181.6L976.4,181.6z M943.9,181.6c-2.8,0-5.7,0.5-7.7,2.5c-1.9,1.8-2.6,4.1-2.6,6.7 c0,2.6,0.6,5.2,2.5,7c2,1.9,4.9,2.4,7.6,2.4c6.7,0,9.9-2.9,9.9-9.7C953.6,184.1,950.2,181.6,943.9,181.6L943.9,181.6z M1005.3,215.3h-10.7c0.3,1.3,0.3,2.7,0.3,3.9v69c0,8.4-2,16.7-8.2,22.7c-6.2,6-14.5,8-23,8c-9.2,0-17.8-2.6-23.7-9.9 c-4.2-5.3-5.7-11.9-5.7-18.6v-71.3c0-1.3,0.1-2.6,0.4-3.9h-27.3c0.1,0.3,0.1,0.7,0.2,1c0.1,1,0.1,2,0.1,2.9v69.6 c0,15.3,5.8,27.3,19.5,34.7c8.3,4.6,18.8,5.7,28.1,5.7c15.1,0,32-3,41.9-15.6c5.5-7.1,7.7-15.4,7.7-24.3v-70.2 c0-1.1,0-2.2,0.2-3.3C1005.2,215.7,1005.3,215.5,1005.3,215.3L1005.3,215.3z M807.8,215.3v11.2c2-0.3,4.1-0.5,6.1-0.5h24.8v97.5 c0,1.1,0,2.3-0.2,3.3c0,0.2-0.1,0.4-0.1,0.6h27.2c-0.1-0.3-0.1-0.6-0.1-0.9c-0.1-1-0.1-2-0.1-3V226H891c1.2,0,2.4,0.1,3.6,0.3 c0.5,0.1,1.1,0.1,1.6,0.2v-11.2H807.8L807.8,215.3z M2247.2,214.1c0.3,1.8,0.4,3.7,0.4,5.3v102.6c0,1.8-0.1,3.6-0.5,5.3h25.1 c-0.3-1.8-0.5-3.6-0.5-5.3V219.5c0-1.3,0-2.6,0.2-3.9c0.1-0.5,0.1-0.9,0.2-1.4H2247.2L2247.2,214.1z M1236.2,214.1 c0.3,1.8,0.4,3.7,0.4,5.3v102.6c0,1.8-0.1,3.6-0.5,5.3h25.1c-0.3-1.8-0.5-3.6-0.5-5.3V219.5c0-1.3,0-2.6,0.2-3.9 c0.1-0.5,0.1-0.9,0.2-1.4H1236.2L1236.2,214.1z M1247.8,181.6c-2.7,0-5.5,0.6-7.6,2.5c-2,1.8-2.6,4.2-2.6,6.9 c0,2.6,0.6,5.1,2.5,6.9c2,1.9,4.9,2.4,7.5,2.4c6.7,0,9.9-2.9,9.9-9.7C1257.6,184.1,1254.1,181.6,1247.8,181.6L1247.8,181.6z M2259.9,181.6c-2.7,0-5.5,0.6-7.6,2.5c-2,1.8-2.6,4.2-2.6,6.9c0,2.6,0.6,5.1,2.5,6.9c2,1.9,4.9,2.4,7.5,2.4 c6.7,0,9.9-2.9,9.9-9.7C2269.6,184.1,2266.2,181.6,2259.9,181.6L2259.9,181.6z"/>
</svg>