<svg xmlns="http://www.w3.org/2000/svg" xmlns:xlink="http://www.w3.org/1999/xlink" viewBox="0 0 808 179">
  <path fill="#E31D93" d="M85,71.6L55.5,42.1c-2.8-2.8-2.8-7.4,0-10.2L85,2.4c2.8-2.8,7.3-2.8,10.2,0l29.5,29.5 c2.8,2.8,2.8,7.4,0,10.2L95.1,71.6C92.3,74.4,87.8,74.4,85,71.6L85,71.6z M77.5,35.1c-1,1-1,2.7,0,3.7l10.7,10.7c1,1,2.7,1,3.7,0 l10.7-10.7c1-1,1-2.7,0-3.7L91.9,24.5c-1-1-2.7-1-3.7,0L77.5,35.1L77.5,35.1z"/>
  <path fill="#194F90" d="M88.2,104.3c1-1,2.7-1,3.7,0l10.7,10.7c1,1,1,2.7,0,3.7l-10.7,10.7c-1,1-2.7,1-3.7,0l-10.7-10.7 c-1-1-1-2.7,0-3.7L88.2,104.3L88.2,104.3z M50,91.4c1-1,1-2.7,0-3.7L39.3,77.1c-1-1-2.7-1-3.7,0L24.9,87.7c-1,1-1,2.7,0,3.7 l10.7,10.7c1,1,2.7,1,3.7,0L50,91.4L50,91.4z M130.1,87.8c-1,1-1,2.7,0,3.7l10.7,10.7c1,1,2.7,1,3.7,0l10.7-10.7c1-1,1-2.7,0-3.7 l-10.7-10.7c-1-1-2.7-1-3.7,0L130.1,87.8L130.1,87.8z M95.1,176.8c-2.8,2.8-7.4,2.8-10.2,0l-29.5-29.5L29,120.8L2.9,94.7 c-2.8-2.8-2.8-7.4,0-10.2L32.4,55c2.8-2.8,7.4-2.8,10.2,0L72,84.5c2.8,2.8,2.8,7.3,0,10.2l-17.9,17.9c-1.7,2.7-1.3,6.3,1,8.6 l8.1,8.1l22,22c2.6,2.6,6.9,2.6,9.5,0l6.2-6.2l24.2-24.2c2.1-2.2,2.4-5.6,0.9-8.1l-18.1-18.1c-2.8-2.8-2.8-7.4,0-10.2L137.5,55 c2.8-2.8,7.4-2.8,10.2,0l29.5,29.5c2.8,2.8,2.8,7.4,0,10.2l-29.5,29.5l-23.1,23.1L95.1,176.8L95.1,176.8z M561.7,112.6 c-0.4-1.2-1.5-2.1-2.8-2.1h-15.1c-1.2,0-2.3,0.8-2.7,1.9l-3.3,11.1c-0.3,1-1.1,1.8-2.1,2l-11,0.1c-1.5-0.2-2.6-1.4-2.6-2.9 c0-0.3,0.1-0.6,0.1-0.9l20.9-65.1c0.4-1.2,1.5-2,2.8-2h2.1h7.2h1.6c1.3,0,2.4,0.8,2.7,2l20.9,65.1c0.1,0.3,0.2,0.6,0.2,0.9 c0,1.6-1.3,2.9-2.9,2.9h-10.1c-1.3,0-2.5-0.9-2.8-2.1L561.7,112.6L561.7,112.6z M545.6,97.3h11.7l-5.8-19.9L545.6,97.3L545.6,97.3z M218.9,123.6L198,58.9c-0.1-0.3-0.1-0.6-0.1-0.9c0-1.6,1.3-2.9,2.9-2.9l10,0c1.4,0,2.5,0.9,2.9,2.1l13.3,45.7l13.7-45.7 c0.4-1.2,1.5-2.1,2.8-2.1h10c1.6,0,2.9,1.3,2.9,2.9c0,0.3,0,0.6-0.1,0.9l-20.9,64.7c-0.4,1.1-1.5,2-2.7,2h-10.9 C220.4,125.6,219.3,124.7,218.9,123.6L218.9,123.6z M385.9,54.7c1.3,0,2.3,1.4,2.3,3.1v64.7c0,1.7-1,3.1-2.3,3.1h-10.1 c-1.3,0-2.3-1.4-2.3-3.1V57.8c0-1.7,1-3.1,2.3-3.1H385.9L385.9,54.7z M343.4,92.1l24.2,30.1c0.7,0.8,0.9,1.7,0.6,2.4 c-0.3,0.6-0.8,0.9-1.5,0.9h-12.3c-1.8,0-2.9-1.2-4.1-2.7l-7.1-8.6l-12-14.7l-4.5,6v16.9c0,1.7-1,3.1-2.3,3.1h-10.1 c-1.3,0-2.3-1.4-2.3-3.1V57.8c0-1.7,1-3.1,2.3-3.1h10.1c1.3,0,2.3,1.4,2.3,3.1v23.4c0,0,0.1,0.9,0.6,0.9c0.2,0,0.8-0.2,2.1-1.6 l15-17.9l4.2-5.2c1.2-1.4,2.3-2.7,4.1-2.7H365c0.8,0,1.6,0.5,2,1.2c0.2,0.4,0.4,1.2-0.4,2.2l-23.4,27.5 C340.6,88.2,343,91.6,343.4,92.1L343.4,92.1z M417.1,97.1l-1.5,0c-1.3,0-2.3,1.4-2.3,3.1v2.1c0,0,0,0,0,17.1v3c0,1.7-1,3.1-2.3,3.1 h-9.6c-1.3,0-2.3-1.4-2.3-3.1V75v-0.7V57.8c0-1.7,1-3.1,2.3-3.1h4.2h3.4l18,0l13.5,0c1.7,0,3.1,1,3.1,2.3v8.7 c0,1.3-1.4,2.3-3.1,2.3l-19.2,0h-5.7c-1.3,0-2.3,1.4-2.3,3.1v2v2.7v5.3c0,1.2,1.1,2.1,2.6,2.3l19.5,0c1.7,0,3.1,1,3.1,2.3v8.9 c0,1.3-1.4,2.3-3.1,2.3H417.1L417.1,97.1z M651.2,54.7c1.3,0,2.3,1.4,2.3,3.1v64.7c0,1.7-1,3.1-2.3,3.1h-10.1 c-1.3,0-2.3-1.4-2.3-3.1V57.8c0-1.7,1-3.1,2.3-3.1H651.2L651.2,54.7z M728.7,54.7c1.3,0,2.3,1.4,2.3,3.1v64.7c0,1.7-1,3.1-2.3,3.1 h-10.1c-1.3,0-2.3-1.4-2.3-3.1V57.8c0-1.7,1-3.1,2.3-3.1H728.7L728.7,54.7z M496.7,92.1l24.2,30.1c0.7,0.8,0.9,1.7,0.6,2.4 c-0.3,0.6-0.8,0.9-1.5,0.9h-12.3c-1.8,0-2.9-1.2-4.1-2.7l-7.1-8.6l-12-14.7l-4.5,6v16.9c0,1.7-1,3.1-2.3,3.1h-10.1 c-1.3,0-2.3-1.4-2.3-3.1V57.8c0-1.7,1-3.1,2.3-3.1h10.1c1.3,0,2.3,1.4,2.3,3.1v23.4c0,0,0.1,0.9,0.6,0.9c0.2,0,0.8-0.2,2.1-1.6 l15-17.9l4.2-5.2c1.2-1.4,2.3-2.7,4.1-2.7h12.3c0.8,0,1.6,0.5,2,1.2c0.2,0.4,0.4,1.2-0.4,2.2l-23.4,27.5 C493.9,88.2,496.4,91.6,496.7,92.1L496.7,92.1z M705.8,112.2c1.7,0,3.1,1,3.1,2.3v8.7c0,1.3-1.4,2.3-3.1,2.3l-13.5,0h-18h-3.4h-4.2 c-1.3,0-2.3-1.4-2.3-3.1V106v-0.7V57.8c0-1.7,1-3.1,2.3-3.1h9.6c1.3,0,2.3,1.4,2.3,3.1v3l0,17.1v5.2V99v5.3v2.7v2 c0,1.7,1,3.1,2.3,3.1h5.7L705.8,112.2L705.8,112.2z M804.8,54.7c1.3,0,2.3,1.4,2.3,3.1v64.7c0,1.7-1,3.1-2.3,3.1h-10.1 c-1.3,0-2.3-1.4-2.3-3.1V85.7l-15.7,25.6c-0.7,1.2-3.2,1.2-4,0L757,85.6v36.8c0,1.7-1,3.1-2.3,3.1h-10.1c-1.3,0-2.3-1.4-2.3-3.1 V57.8c0-1.7,1-3.1,2.3-3.1l7.3,0c1,0,2.5,0.9,3.2,2.4l19.4,34.7L794,57.6c0.5-1.8,2.2-2.9,3.4-2.9L804.8,54.7L804.8,54.7 L804.8,54.7z M628.2,54.7c1.7,0,3.1,1,3.1,2.3v10.1c0,1.3-1.4,2.3-3.1,2.3h-16.2c-1.6,0-2.8,1.3-2.8,2.8l0,50.2 c0,1.7-1,3.1-2.3,3.1h-10.1c-1.3,0-2.3-1.4-2.3-3.1l0-50.2c0-1.6-1.3-2.8-2.8-2.8h-16.2c-1.7,0-3.1-1-3.1-2.3V57 c0-1.3,1.4-2.3,3.1-2.3l21.4,0h10.1H628.2L628.2,54.7z M271.9,97.3h11.7l-5.8-19.9L271.9,97.3L271.9,97.3z M288,112.6 c-0.4-1.2-1.5-2.1-2.8-2.1h-15.1c-1.2,0-2.3,0.8-2.7,1.9l-3.3,11.1c-0.3,1-1.1,1.8-2.1,2l-11,0.1c-1.4-0.2-2.6-1.4-2.6-2.9 c0-0.3,0-0.6,0.1-0.9l20.9-65.1c0.4-1.2,1.5-2,2.8-2h2.1h7.2h1.6c1.3,0,2.4,0.8,2.7,2l20.9,65.1c0.1,0.3,0.2,0.6,0.2,0.9 c0,1.6-1.3,2.9-2.9,2.9h-10.1c-1.3,0-2.5-0.9-2.8-2.1L288,112.6L288,112.6z"/>
</svg>