<svg xmlns="http://www.w3.org/2000/svg" viewBox="0 0 365 44.1">
	<path fill="#FBBA00" d="M65.2,12.3c0.8-4.8-3.5-11.4-15.5-11.4H20.1C12,0.9,6.9,6.5,6,12.1L0,43.7c5.3,0,40.1,0,40,0h2.3 c12.5-0.1,19.6-2.9,20.9-11.9c0.9-6.1-4.5-10-8.8-10.8C58.8,20.1,64.1,18.6,65.2,12.3"/>
	<path fill="#FFFFFF" d="M37.4,14.1c-3,3.8-14,17.1-16.2,19.6c-5,5.6-15.2,4.8-15.3,4.7c0,0,3.7-17.4,4.9-22.4 C14.1,2.7,25.4,5.9,25.4,5.9s-3,0.4-5.1,3.1c-2.2,2.8-4.6,16.1-6,22.4c6.5-7.6,15.4-17.3,16.9-19.2c6.5-7.8,16.6-6.7,16.6-6.7 S43.8,6.1,37.4,14.1"/>
	<path d="M102.9,43.7l23.4-42.8h-8.2l-17.2,33.6L96.5,0.9h-9.2l7.9,42.8H102.9z M139.1,26.9l-2.5,13.5c-1.5,0.1-2.4,0.1-5.1,0.1 c-4-0.1-7.4-1.7-6.8-5.7C125.5,29.1,130.9,27.5,139.1,26.9 M147.8,23c1.5-7.9-4.7-10.9-12.1-10.9c-4.9,0-7.6,0.6-10.5,1.8l-2.4,4.7 c3.6-1.5,7.4-1.9,10.6-1.9c4.4,0,7.4,1.3,6.6,5.3l-0.3,1.6c-12.1,0.7-21.8,3.4-23.1,11.1c-0.9,5.5,4.9,9.5,14.6,9.5 c5,0,9.4-0.2,12.7-0.5L147.8,23z M169.6,27l15.7-14.1h-8.7l-14.8,14.1l4.9-26.1h-8.2l-8.1,42.8h8.2l3-15.9l9.8,15.8h9.6L169.6,27z M192,43.6l5.8-30.7h-7.7l-5.8,30.7H192z M227.5,2.1c1-1,2.6-1.4,2.6-1.4c-9.6-2.2-20,0.8-21.6,8.5l-0.7,3.7h-5.3l-0.8,4.5h5.3 L202,43.6h8.1l4.9-26.3h6.2l0.9-4.5H216l0.4-2.3c0.7-3.9,2.1-7.6,9.9-6.4C226.3,4.2,226.5,3,227.5,2.1 M252.3,12.1 c-0.8,4.4-4.3,7-13.3,6.8c-2.6-0.1-3.2-0.2-3.2-0.2l2.5-13.4c1.7-0.6,3.3-1,5.6-1C250.1,4.3,253.3,6.9,252.3,12.1 M235.2,22.8 l2.5-0.1c10.1-0.3,13.1,3.8,12,9.2c-1.1,5.2-5.6,7.4-11.7,7.4c-2.5,0-3.8,0-6-0.1L235.2,22.8z M261.1,11.7 C261.9,6.8,257.2,0,244.9,0c-6.1,0-14.5,1.4-15.3,6l-7,37.6c4.2,0.5,8.4,0.5,14.8,0.4c12.8-0.1,20.2-3,21.6-12.2 c0.9-6.3-4.6-10.3-9.1-11.2C254.4,19.8,259.9,18.3,261.1,11.7 M283.9,26.9l-2.5,13.5c-1.5,0.1-2.4,0.1-5.1,0.1 c-4-0.1-7.4-1.7-6.8-5.7C270.3,29.1,275.7,27.5,283.9,26.9 M292.6,23C294.1,15,288,12,280.5,12c-4.9,0-7.6,0.6-10.5,1.8l-2.4,4.8 c3.6-1.5,7.4-1.9,10.6-1.9c4.4,0,7.4,1.3,6.6,5.3l-0.3,1.6c-12.1,0.7-21.8,3.4-23.1,11.1c-0.9,5.5,4.9,9.5,14.6,9.5 c5,0,9.4-0.2,12.7-0.5L292.6,23z M328.3,21.8c0.9-5-1.9-9.4-13.2-9.4c-6.4,0-11.1,1-14.9,2.4l-5.5,28.9h8.3l4.8-25.8 c1.7-0.6,3.3-1.1,6.1-1.1c5.4,0,6.7,2.5,6.3,5.1l-4.1,21.9h8L328.3,21.8z M341.7,26.9l-0.1,0l4.9-25.9h-8.2l-8.1,42.7h8.2l2.9-15.6 h0.1l9.7,15.7h9.6L349.3,27L365,12.9h-8.7L341.7,26.9z"/>
</svg>
