<svg xmlns="http://www.w3.org/2000/svg" viewBox="0 0 931.1 202.7">
  <defs>
    <rect id="ziraat-katilim-1" x="1.3" y="2.3" width="927.9" height="198"/>
  </defs>
  <clipPath id="ziraat-katilim-2">
    <use href="#ziraat-katilim-1" overflow="visible"/>
  </clipPath>
  <path clip-path="url(#ziraat-katilim-2)" fill-rule="evenodd" clip-rule="evenodd" fill="#E0211C" d="M75,107V36.6c0-0.5-0.1-0.5-0.2-1 c-2.4,0-2.8,1.1-5.6,3.2c-2.1,1.5-3.4,3-3.4,5.6v154c0,3.6,3.3,0.6,4.8-0.5c5.5-4,4.4-3.4,4.4-13.8v-72.6c3.6,0.8,6.4,2.8,8.4,6 c5.8,9.1,4.5,23.6,4.6,35c0,1.2-0.1,1.6-0.2,2.5c-0.1,2.5,0.1,5.8,0,8l-0.2,7.9c0,3.1-0.6,7.3,0.1,10.2c0.5,2.1,1.4,2.8,3.1,2.8 c1.1,0,4.2-2.5,5.1-3.3c2-1.6,3.9-2.9,6-4.7c0.4-0.3,0.8-0.6,1.3-0.9l12.1-9.4c3.3-3.3,5-6.9,5.7-11.5c0.4-2.7-0.2-5.8,0.2-8.4 c0.1-0.9-0.1-2.6-0.1-3.9c0-1.3-0.3-2.5-0.5-3.7c-0.4-2.2-1-5-1.8-6.9c-0.8-1.9-1.8-4-3-5.6c-1.8-2.3-3.1-3.7-5.2-5.5l-3.5-2.8 c-2.8-2-6.6-3.8-9.8-5.1c-1.6-0.7-6.8-2.5-8.3-2.7l0.3-0.1c0.2-0.1,0.3-0.1,0.4-0.1c4.4-1.2,7.7-2.8,11.7-5c2-1.1,3.5-2.2,5.3-3.5 l6.8-6.6c0.4-0.4,0.5-0.7,1-1.2c0.3-0.3,0.3-0.3,0.5-0.6c3.5-4.2,5.3-10.3,5.3-15.8c0-1.1,0.1-1.2,0.2-2.1c0.1-1.4,0-3.1,0-4.6 c0-2.9,0.2-5.5,0.2-8.6c0-6.9,0.4-14.4,0.4-21.6c0-1.7,0.2-2.7,0.2-4.4c0-6.1,0.2-11.5,0.2-17.6c0-1.5,0.2-2.5,0.2-4.2 c0-1.5,0-2.9,0-4.4c0-1.9-0.4-6.1-2.9-6.1c-2.7,0-3.5,1.3-6.4,3.6l-2.5,2.1C108,9.8,96,19.1,94.5,20.6c-1.7,1.6-2.8,3.2-3.8,5.3 c-0.5,1-1.1,2.3-1.4,3.3c-1.2,3.9-0.8,13.1-0.8,17.8c0,1.7,0.2,2.7,0.2,4.4c0,7.3,0.3,27.5-0.2,31.8c-0.6,5.3-1.6,10-3.9,14.7 c-0.8,1.7-2.4,4.2-3.7,5.5C79.7,104.6,76.9,107,75,107L75,107z M75,107"/>
  <path clip-path="url(#ziraat-katilim-2)" fill-rule="evenodd" clip-rule="evenodd" fill="#E0211C" d="M2.2,6.1v27.6c0,3.4,1.6,6,3,8.2 c0.4,0.6,0.7,1,1.2,1.5l1.3,1.6c1.2,1.4,4.9,3.9,6.3,5L30,62.2c1.6,1.2,2.9,2.7,4.5,4c0.5,0.4,0.3,0.2,0.7,0.6 c0.3,0.3,0.4,0.5,0.7,0.8c1.9,1.9,3.6,4,4.8,6.5c1.9,3.8,2.7,5.8,2.7,10.5c0,2.4-0.8,4.4-1.8,6.2c-0.4,0.6-0.8,0.9-1.3,1.4 c-0.9,0.9-2,1.5-3.1,2.3c-0.6,0.4-2.9,1.6-3.8,1.6c-0.4,0-9.5-7.1-11.3-8.3c-0.7-0.5-1.2-0.9-1.9-1.4c-3.2-2.2-6.1-4.7-9.4-6.9 c-1.5-1-6.5-5.3-7.9-5.3c-1.1,0-1.1,1.5-1,2.2c0.4,4-1.8,6.5,3.5,10.8c1,0.8,1.9,1.4,3,2.2l3,2.2c2.3,1.6,11.3,8,11.8,8.8 c-1.9,1.3-3.8,2.6-5.4,4.2c-0.4,0.4-0.6,0.6-1,1c-1.3,1.3-2.4,2.8-3.4,4.2l-6.7,10.8c-0.3,0.5-0.4,0.8-0.6,1.3 c-0.4,0.9-0.8,1.6-1.2,2.6c-0.4,1-0.7,1.9-1.1,2.9c-1.5,3.7-2.4,8-2.7,12.3v5c0.2,3.7,1,7.4,2.2,10.6c0.7,1.8,1.3,3,2.1,4.6 c0.8,1.7,2.7,4.6,4,5.9c0.3,0.3,0.6,0.5,0.8,0.9c3.7,4.7,13,10.3,18,13.8l22,15c2.4,1.8,7.7,3.9,7.7-1.4v-27.8 c0-4.4-3-8.4-5.7-11.2c-1.2-1.2-2.6-2.2-3.9-3.2l-1-0.9c-2.2-1.9-4.7-3.5-7-5.3L30,137.8c-0.5-0.4-1-0.7-1.5-1.2 c-1.5-1.4-3.1-2.7-4.3-4.3c-0.8-1.1-1.7-1.9-2.5-3c-0.8-1.1-1.6-2.3-2.3-3.5c-2.3-4.6-3.3-10-1.1-15.1c0.6-1.4,1.3-2.1,2.4-3 c1.7-1.4,3.7-2.6,5.7-3.4c2.5-1,1.8-0.2,4.5,1.6l13.6,10c0.6,0.4,0.6,0.3,1.1,0.8c0,0,0.1,0.1,0.1,0.1c2,1.7,6,4.5,8.3,6.1 c4,2.9,2.7-3,2.4-5.6c-0.3-2.1-0.8-3.6-2.1-5.2c-1.2-1.6-6-5.1-8-6.5c-0.7-0.5-1.4-1-2.1-1.5l-5.2-3.8c-0.6-0.4-0.7-0.3-0.9-1 c1.1-0.3,3.5-2.6,4.4-3.3c2.4-2,6.8-8.2,8.3-10.9c5.7-10,10.8-22.2,7.9-34.1c-0.6-2.6-1.1-5.2-2.4-7.5c-0.4-0.8-0.8-1.4-1.3-2.2 C51.3,35.7,46,31.8,40.9,28L25.5,16.2c-0.7-0.5-1.2-1-1.9-1.5L10.1,4.4C7.3,2.1,2.2,0.6,2.2,6.1L2.2,6.1z M2.2,6.1"/>
  <path fill-rule="evenodd" clip-rule="evenodd" fill="#221D1F" d="M171,58.4h50.6c-0.2,0.6-2.8,4.7-3.2,5.4l-16.5,26.9 c-0.5,0.9-1,1.8-1.6,2.6l-11.6,19c-0.5,0.8-1.1,1.7-1.6,2.6l-3.3,5.5c-1.4,2.5-6.5,10.4-8.3,13.5c-0.6,1-6.5,10.1-6.5,11v15.1 c0,0.9,2,0.6,3.8,0.6h69c0.3-1.3,0.6-2.3,1.1-3.5l4.1-12.4c0.3-0.9,0.2-0.9-0.9-0.9l-14.2,0c-12.5,0-25,0-37.6,0 c2-2.9,7.5-12.6,9.7-16.2l12.9-21.6c3-5.5,7.9-13.3,11.3-19l12.9-21.7c0.7-1.2,4.8-7.6,4.8-8.5V41.7h-69.9c-0.7,0-1.1,2.6-1.4,3.9 c-0.4,1.6-0.7,2.7-1.1,4.2C172.7,51.5,171.1,57.1,171,58.4L171,58.4z M171,58.4"/>
  <path fill-rule="evenodd" clip-rule="evenodd" fill="#221D1F" d="M838.3,85.2V74.5c-1.2,0-2.5,0.3-3.7,0.5l-10.8,1.8v83.9h14.6v-63 c0-1.5,7.4-6.3,8.8-7.1c0.8-0.5,1.6-1,2.6-1.4c5.9-2.5,12.3-6,17,1.7c1.3,2.1,2.4,5.9,2.4,9.3v60.5h13.4V99.6c0-0.8,3.2-3.4,4-4.1 l3.5-2.8c4.4-3.3,11.5-8.5,17.4-6.8c4.1,1.1,7.5,5.7,7.5,10.7v64.2h14V92.9c0-3.2-1.5-6.4-2.8-8.9c-0.8-1.5-1.8-3.1-3-4.3 c-0.9-0.9-1.4-1.4-2.5-2.3c-6.1-4.6-15.7-4.6-22.5-2.2c-2.9,1-5.9,2.5-8.3,4.4c-0.5,0.4-0.9,0.6-1.4,1l-6.3,6.3 c-0.5,0.7-0.5,0.9-1.2,1.4c-0.7-3-2.9-6.4-4.8-8.8c-2.9-3.4-7.2-6-11.8-6c-3.3,0-6.3,0.2-9.4,1.5c-1.2,0.5-2,0.7-3.1,1.3 c-1.1,0.5-2,0.9-3,1.4c-2.6,1.5-5.5,3.4-7.9,5.3C839.9,84,839.2,84.6,838.3,85.2L838.3,85.2z M838.3,85.2"/>
  <path fill-rule="evenodd" clip-rule="evenodd" fill="#221D1F" d="M350.5,136c0-3.7,0.9-7.2,3.3-9.9c0.4-0.4,0.5-0.8,1-1.1 c0.4-0.3,0.9-0.7,1.3-1c4.6-3.1,9.6-3.7,15.5-3.7c1.5,0,2.2,0.2,3.6,0.2v19c0,0.7-2.8,3.7-3.6,4.5c-4.8,4.3-13.9,6.1-18.4,0.5 C351.6,142.1,350.5,138.7,350.5,136L350.5,136z M343.4,78.1c0,1.3-1.2,7.5-1.4,9.3l-1.4,9.5l7.8-4.7c1.7-1,7.2-3.1,9.1-3.6 c4.5-1.2,8-2,12.3-0.4c4.6,1.6,7.3,6.4,7.3,11.3c0,1.1,0,7.1-0.5,8c-0.4,0.6-0.2,0.1-1.1,0.1c-5.4,0-11.1-0.2-16.4,0.4 c-4.2,0.4-9.7,1.7-13.4,3.4c-6.1,2.7-10.3,6.6-13,12.7c-1.4,3.2-2.9,9.6-2.9,14.1c0,6.1,1.9,10.8,5,15.3c2.4,3.4,6.4,5.8,10.3,7.1 c7.6,2.6,14.6,2.1,22,0.1c3-0.8,6.4-2.1,9-3.9v3.8h18.6c0.4,0,0.6-0.1,0.6-0.6v-64c0-5.3-1.9-12-5.5-15.6c-2.6-2.6-5.1-4.6-9.4-5.7 c-9.8-2.4-14.3-1.7-24.5,0c-2.1,0.3-4.2,0.9-6.2,1.5L343.4,78.1z M343.4,78.1"/>
  <path fill-rule="evenodd" clip-rule="evenodd" fill="#221D1F" d="M422.2,136.3c0-3.4,0.1-5.6,1.8-8.4c1.6-2.6,2.8-3.5,5.4-5.1 c3.7-2.2,9.3-2.6,13.7-2.6c1.5,0,2.2,0.2,3.6,0.2v18.8c0,1.8-3.8,4.7-5.1,5.8c-4.1,3.3-12.9,4.4-16.7-0.6 C423.4,142.5,422.2,139.8,422.2,136.3L422.2,136.3z M415.1,78.1l-2.3,13.9c-0.1,0.7-0.2,1.6-0.3,2.3c-0.1,0.9-0.3,1.7-0.4,2.5 c0.9-0.1,4.4-2.6,5.3-3.2c3-1.8,2.6-1.5,5.6-2.8c2-0.9,3.9-1.6,6.2-2.3c5.1-1.4,9.2-2.1,13.9,0.4c2.8,1.5,4.4,4.5,5.1,7.5 c0.5,2.3,0.8,9.3-0.2,11.3c-0.6-0.1-0.7-0.2-1.3-0.2c-13.3,0-24.3-0.3-34.6,6.8l-2,1.6c-7,6.2-10.1,19.1-8.1,27.7 c1.3,5.4,3.5,9.6,7.4,12.9c8.5,7.3,24.4,7,34.2,2.4l2.2-1c0.5-0.3,1.5-1,2.1-1.1v3.8H466c0.4,0,0.6-0.1,0.6-0.6V95.4 c0-4.7-1.7-10.1-4.3-13.5c-1.6-2.1-1.1-1.5-2.9-3c-9.7-8.7-30.3-5.3-41.4-1.6C417.1,77.5,415.9,77.9,415.1,78.1L415.1,78.1z M415.1,78.1"/>
  <path fill-rule="evenodd" clip-rule="evenodd" fill="#221D1F" d="M640.6,136.9c0-4.2,0-6.7,2.8-10.5c0.4-0.6,0.6-0.9,1.1-1.3 c0.7-0.5,0.8-0.8,1.4-1.3c2.7-2.4,7.5-4.1,11-4.9c5.1-1.1,10.2-1,15.4-1c0.7,0,0.7,0.1,1.3,0.2v19.5c0,1.3,0.1,2-0.5,2.8 c-0.3,0.4-0.4,0.5-0.8,0.9c-1.5,2-2.1,2.5-4.1,4.2c-5.9,4.9-17.5,8.8-23.8,2.2l-0.5-0.6C642.4,145.1,640.6,140.6,640.6,136.9 L640.6,136.9z M634.4,95.5c0.6-0.2,0.7-0.4,1.3-0.8c6.3-4.8,15.8-8.9,23.8-8.9c3.5,0,6-0.3,9.1,1.6c5.2,3.1,6.6,9.4,6.6,15.2 c0,2-0.4,3.6-0.4,5.4H664c-6.8,0.4-13.8,1.4-20.1,3.6l-6,2.8c-2,1.2-4.4,3-6,4.7l-2.9,3.8c-4.7,7.1-5.2,17.4-2.3,25.3 c1.2,3.2,3.9,6.4,6.5,8.4c7.4,5.7,19.4,6.2,28,4.1c3.8-0.9,7.2-2.6,10.3-4.6c1-0.7,1.9-1.6,2.9-2.1v6.7h14v-55.5c0-4.4,0-9-0.4-13 c-0.5-6.2-3.9-11.7-8.8-14.8c-5.7-3.5-10-3.8-16.9-3.8c-7.5,0-18.5,2.4-24.8,6.3c-0.9,0.6-0.8,0.8-1,2.1L634.4,95.5z M634.4,95.5" />
  <path fill-rule="evenodd" clip-rule="evenodd" fill="#221D1F" d="M481.6,54.8v19h-8.8c-0.4,0-0.6,0.1-0.6,0.6 c0,2.6-0.3,11.5,0.2,13.4h9.2V139c0,1.1-0.3,1.5-0.1,2.4c0.4,3,0,3.3,1.2,7.2c0.8,2.9,2.9,6.8,5.1,8.7c7.1,5.9,15.7,5.8,24.8,4 c6.1-1.2,7.5-2.5,8.7-2.8c0-1.4-1.7-7.2-2.2-8.9c-0.2-0.8-0.6-2.4-0.9-3c-2,1-6.4,1.5-9.2,1.5c-4.4,0-7.5-2.3-7.5-6.7V87.7h14.4 c0.7,0,1.2-2,1.6-3.2l2.6-7c0.3-0.8,1.1-2.9,1.2-3.8h-19.7V51.3c0-0.9-1.3-0.3-2.1-0.2l-16.9,3C481.9,54.2,481.6,54.1,481.6,54.8 L481.6,54.8z M481.6,54.8"/>
  <path fill-rule="evenodd" clip-rule="evenodd" fill="#221D1F" d="M286.7,77v83.7h19.9v-56.9c0-1,0.4-1.6,0.8-2.3 c0.8-1.3,2.2-3.4,3.4-4.3c0.4-0.3,0.5-0.5,0.9-0.8c7.3-6,15.3-1.9,17.3-1.7l3.8-17.8c-1.2-0.6-5.1-1.1-6.9-1.1 c-5.4,0-11.7,2.6-15,5.9c-0.4,0.4-0.5,0.6-0.9,1.1c-1.2,1.4-1.3,1.3-2.6,3.1c-0.3,0.5-0.4,0.7-0.9,1V73.3L286.7,77z M286.7,77"/>
  <path fill-rule="evenodd" clip-rule="evenodd" fill="#221D1F" d="M564.1,97.7c0.2,0.2,0.2,0.2,0.3,0.4l1.1,1.4c0.5,0.7,1,1.3,1.4,2 c0.9,1.4,1.8,2.5,2.8,3.9l7,9.8c0.6,0.7,0.9,1.2,1.5,2l8.5,11.8c3.7,5,7.6,10.9,11.3,15.7l10,13.8c0.2,0.3,0.4,0.6,0.7,1 c0.4,0.6,0.5,0.5,0.7,1.1h17.4c-0.1-0.8-0.4-0.9-1.2-2c-0.6-0.7-0.9-1.3-1.4-2l-8.6-11.9c-0.5-0.7-0.9-1.2-1.4-1.8l-10.1-14 c-1-1.3-1.9-2.5-2.9-3.9c-0.3-0.4-0.4-0.6-0.7-1l-16.6-22.8c-0.5-0.7-0.9-1.3-1.4-2l-1.4-2l14.2-17.2c0.5-0.6,0.9-1.1,1.4-1.7 c0.5-0.6,1-1.2,1.5-1.8c0.5-0.6,0.9-1.1,1.4-1.7l10.1-12.1c0.5-0.6,0.9-1.1,1.4-1.7L621,48.8c0.7-0.7,0.8-1.1,1.3-1.7 c0.7-0.7,4-4.5,4.3-5.3c-4.9,0-9.8,0-14.8,0c-3.1,0-1.6-0.3-5.2,3.8L564.1,97.7z M564.1,97.7"/>
  <path fill-rule="evenodd" clip-rule="evenodd" fill="#221D1F" d="M702.9,55.3v19.9h-10.7c-0.4,0-0.6,0.1-0.6,0.6v9.4 c0,0.4,0.1,0.6,0.6,0.6h10.3v59c0,5.9,3.2,13.8,9.6,15.7c7.4,2.3,18.2,0.9,24.6-2.1l-1.5-7.7c-0.1-0.8,0.2-0.7-0.4-0.8 c-0.1,0-3.4,0.8-4.1,1c-2.8,0.5-6.5,0.8-9.1-0.2c-4.5-1.8-5.5-4.8-5.5-9.8V86.4h17.2c0.2-0.8,0.7-1.8,1-2.6c0.4-1,0.7-1.7,1-2.8 c0.3-1,0.7-1.8,1.1-2.7c0.2-0.6,0.3-0.8,0.5-1.4c0.3-0.6,0.4-0.8,0.5-1.4h-20.9V52.3c-0.9,0.1-2.4,0.5-3.3,0.7l-6.9,1.6 C705.4,54.8,703.8,55.3,702.9,55.3L702.9,55.3z M702.9,55.3"/>
  <path fill-rule="evenodd" clip-rule="evenodd" fill="#221D1F" d="M770.3,44.8v100.9c0,8.6,4,15.9,12.8,15.9c2.8,0,5.9-0.5,8.4-1.6 c0.8-0.4,1.3-0.9,2-1.1c0-0.9-0.2-1.3-0.5-2l-2-5.8c-3.1,0.7-5.9-0.3-5.9-4.2V41.9c-2.1,0-10.4,1.7-13.2,2.2 C771.2,44.2,770.3,44,770.3,44.8L770.3,44.8z M770.3,44.8"/>
  <path fill-rule="evenodd" clip-rule="evenodd" fill="#221D1F" d="M548.8,160.1c0,0.4,0.1,0.6,0.6,0.6H563c0.4,0,0.6-0.1,0.6-0.6 V41.7h-14.8V160.1z M548.8,160.1"/>
  <path fill-rule="evenodd" clip-rule="evenodd" fill="#221D1F" d="M253.9,77v83.7h19.9V73.9c0-0.9-2.5-0.1-4.5,0.3L253.9,77z M253.9,77"/>
  <path fill-rule="evenodd" clip-rule="evenodd" fill="#221D1F" d="M746.5,75.8v84.8h14.2c0.4,0,0.6-0.1,0.6-0.6V74.3 c0-0.5-0.1-0.5-0.2-1L746.5,75.8z M746.5,75.8"/>
  <path fill-rule="evenodd" clip-rule="evenodd" fill="#221D1F" d="M798.5,75.8v84.8H813V73.3c-1.1,0.3-2.3,0.5-3.5,0.7L798.5,75.8z M798.5,75.8"/>
  <path fill-rule="evenodd" clip-rule="evenodd" fill="#221D1F" d="M251.1,54.2c0,1.7,0.5,3.8,1,5.1c1.5,3.8,6.3,7.5,10.8,7.5 c2.4,0,4-0.1,6.3-1.2c1.9-1,3.6-2.3,4.8-4c1.7-2.3,2.3-4.9,2.3-8c0-5.9-5.7-11.9-11.7-11.9c-3,0-3.8,0-6.5,1.2 c-1.2,0.5-2.6,1.7-3.5,2.6C252.4,47.7,251.1,51,251.1,54.2L251.1,54.2z M251.1,54.2"/>
</svg>