<svg xmlns="http://www.w3.org/2000/svg" viewBox="0 0 215.1 47">
  <path fill-rule="evenodd" clip-rule="evenodd" fill="#ED1C24" d="M17.2,10.7l-3.3,2.6L11.7,15v8l1.1-0.9v3.7l-1.1,0.9v8l1.1-0.9 v3.7l-1.1,0.9v8l2.2-1.7l3.3-2.6l4.4-3.5V25.1c0-0.6-0.4-1.1-0.9-1.4c0.7-0.6,0.9-1.2,0.9-1.8v-6.7v-8L17.2,10.7z M20,30.9 c0,0.7-0.3,1-0.9,1.5l-2,1.5l-2.8,2.2v-3.7l2.8-2.2l1.7-1.3c0.6-0.5,1.1-0.4,1.1,0.3L20,30.9L20,30.9z M20,19.3 c0,0.7-0.3,1-0.9,1.5l-2,1.5l-2.8,2.2v-3.6l2.8-2.2l1.7-1.3c0.6-0.5,1.1-0.4,1.1,0.3L20,19.3L20,19.3z"/>
  <polygon fill-rule="evenodd" clip-rule="evenodd" fill="#ED1C24" points="16,9.2 16,6.3 13.8,8.1 13.2,8.6 13.2,5.6 13.8,5.1 16,3.4 16,0.5 13.8,2.3 11.6,4.1 11.6,12.7 13.8,11 "/>
  <polygon fill-rule="evenodd" clip-rule="evenodd" fill="#ED1C24" points="5.5,0.5 5.5,3.4 6.9,4.5 6.9,7.6 6.4,7.2 6.4,10 7.7,11.1 9.1,12.2 9.1,9.4 8.5,8.9 8.5,5.8 9.9,6.9 9.9,4.1 7.7,2.3 "/>
  <polygon fill-rule="evenodd" clip-rule="evenodd" fill="#ED1C24" points="0,7.2 0,15.2 7.7,21.3 8.6,22 7.7,22.9 6.6,24 0,18.9 0,26.8 2.1,28.5 0,30.5 0,38.5 7.7,44.6 9.9,46.3 9.9,38.3 7.7,36.6 1.3,31.5 3.3,29.5 7.7,32.9 9.9,34.6 9.9,26.7 7.8,25 9.9,23 9.9,15 7.7,13.3 "/>
  <polygon points="34.2,11.1 33,15.2 43.1,15.2 32.1,33.2 32.1,37.1 47.5,37.1 49.1,33.2 38.1,33.2 49.1,15.1 49.1,11.1 "/>
  <path d="M53.1,16.7c1.4,0,2.5-1.1,2.5-2.5s-1.1-2.5-2.5-2.5s-2.5,1.1-2.5,2.5C50.5,15.5,51.7,16.7,53.1,16.7"/>
  <rect x="51.1" y="18.1" width="4.1" height="19"/>
  <rect x="212.1" y="18.1" width="3" height="19"/>
  <path d="M58.8,37V18.2h3.4v2.1c0,0,1.1-1.3,2.8-1.7c1.6-0.4,3.1-0.1,3.1-0.1v3.6h-2.7c-1.1,0-3.1,1.5-3.1,2.9v12H58.8z"/>
  <path d="M77.5,32.2c0,0.7-1,1.9-3.3,1.9s-3-1.6-3-2.6s0.8-3.4,3.3-3.4c2.2,0,3.1,0,3.1,0L77.5,32.2L77.5,32.2z M81.9,37.1v-13 c0-5.1-3.3-6.5-5.8-6.5S71,18.3,71,18.3l-0.9,3.8c0,0,3.1-0.9,5-0.9s2.6,1.5,2.6,2.2v1.8c0,0-3.3-0.1-5.7,0.6 c-2.4,0.7-4.8,2.3-4.8,6.6s3.7,5,6.1,5s3.9-1.2,3.9-1.2h0.7v0.9H81.9z"/>
  <path d="M93.5,32.2c0,0.7-1,1.9-3.3,1.9s-3-1.6-3-2.6s0.8-3.4,3.3-3.4c2.2,0,3.1,0,3.1,0L93.5,32.2L93.5,32.2z M97.9,37.1v-13 c0-5.1-3.3-6.5-5.8-6.5S87,18.3,87,18.3l-0.9,3.8c0,0,3.1-0.9,5-0.9s2.6,1.5,2.6,2.2v1.8c0,0-3.3-0.1-5.7,0.6 c-2.4,0.7-4.8,2.3-4.8,6.6s3.8,5,6.1,5c2.4,0,3.9-1.2,3.9-1.2h0.7v0.9H97.9z"/>
  <path d="M101.2,13.2h3.9v5.1h4.5l-1,2.9h-3.5v10.9c0,1.4,0.3,2.2,1.6,2.2h2.3v2.8h-4.2c-1.1,0-3.9-0.8-3.9-3.7V21.1H99v-2.9h2.1 L101.2,13.2L101.2,13.2z"/> <path d="M128.8,18.1c0,3.2-2.8,4-4.1,4h-5.2v-7.9h4.9C125.8,14.2,128.8,14.9,128.8,18.1 M119.4,25.1h6.5c2.4,0,4.1,2.1,4.1,4.9 s-2.4,4.1-4.8,4.1h-5.8V25.1z M132,17.1c0-3.7-3.8-5.9-7.8-5.9h-8.1v25.9h11c1.8,0,6.1-2.3,6.1-7.4s-4.7-6.4-4.7-6.4 S132,20.8,132,17.1"/>
  <path d="M145,30.2c0,2.3-1,4.9-4.5,4.9c-3.4,0-3.5-2.2-3.5-3.9s1.1-4.2,4.9-4.2h3.1V30.2z M148.1,37.4V23.2c0-3.5-2.9-5.6-5.8-5.6 c-2.9,0-6,1.4-6,1.4l-0.3,2.9c0,0,1.9-1.1,4.7-1.6s4.3,1.1,4.3,2.3v2.5h-4.4c-3.8,0-6.6,2.7-6.6,6.6c0,4.6,4.2,5.6,6.6,5.6 c2.4,0,4.6-1.5,4.6-1.5v1.5h2.9V37.4z"/>
  <path d="M192.1,30.2c0,2.3-1,4.9-4.5,4.9c-3.4,0-3.5-2.2-3.5-3.9s1.1-4.2,4.9-4.2h3.1V30.2z M195.2,37.4V23.2c0-3.5-2.9-5.6-5.8-5.6 c-2.9,0-6,1.4-6,1.4l-0.3,2.9c0,0,1.9-1.1,4.7-1.6s4.3,1.1,4.3,2.3v2.5h-4.4c-3.8,0-6.6,2.7-6.6,6.6c0,4.6,4.2,5.6,6.6,5.6 c2.4,0,4.6-1.5,4.6-1.5v1.5h2.9V37.4z"/>
  <path d="M150.1,37.2h3.2v-13c0-1.2,2.2-3.1,4.7-3.1s2.6,1.6,2.6,2.6v13.5h3.4V22.5c0-1.6-1.9-4.8-5.4-4.9c-3.3-0.1-5.4,2.4-5.4,2.4 v-2.5l-3.1,0.6V37.2z"/>
  <polygon points="166.1,11.2 169.7,11.2 169.7,25.1 170.5,25.1 176.7,17.2 181.3,17.2 173.2,26.1 182.1,36.9 177.2,36.9 170.5,27.1 169.7,27.1 169.7,37.1 166.1,37.1 "/>
  <path d="M208.5,21.5l0.7-2.3c0,0-2.5-1.4-5.4-1.4s-6,1.8-6,5.1s2,5.1,5.4,6c3.4,0.8,4.1,1.8,4.1,2.8s-1,2.8-3.9,2.8 s-5.1-1.5-5.1-1.5l-0.9,2.5c0,0,2.7,1.7,6.4,1.7s6.6-3.1,6.6-5.9c0-2.8-3-4.7-5.6-5.2s-3.7-1.6-3.7-3.2s1.8-2.3,3.5-2.3 S208.5,21.5,208.5,21.5"/>
</svg>