<svg xmlns="http://www.w3.org/2000/svg" x="0px" y="0px" viewBox="0 0 500 500" enable-background="new 0 0 500 500" xml:space="preserve">
	<g>
		<path fill="#FDCB6E" d="M470.6,253.6l-32.8-76.4C407,105.7,323.3,72.3,251.8,103l-82.1,35.3C119.3,103.9,57.5,68.9,32.3,83.4
			C-13.3,109.7,122.7,403,122.7,403c30.7,71.6,114.4,104.9,186,74.2l87.7-37.7C467.9,408.8,501.3,325.1,470.6,253.6z M317.9,296.5
			c-6,36-38.1,42.1-61.6,41.6c-14-0.3-25.2-11.8-25.2-25.8v-29c0-13.5,10.3-24.5,23.7-25.8C282.7,255,324.4,257.5,317.9,296.5z"/>
		<path fill="#B53471" d="M307.3,111.3h-89.4C185.2,59.9,142.3,3.3,113.4,6.7C61.1,12.9,70.3,336,70.3,336
			c0,77.9,63.7,141.6,141.6,141.6h95.4c77.9,0,141.6-63.7,141.6-141.6v-83.1C448.9,175.1,385.2,111.3,307.3,111.3z M317.9,296.5
			c-6,36-38.1,42.1-61.6,41.6c-14-0.3-25.2-11.8-25.2-25.8v-29c0-13.5,10.3-24.5,23.7-25.8C282.7,255,324.4,257.5,317.9,296.5z"/>
	</g>
</svg>
