<svg xmlns="http://www.w3.org/2000/svg" viewBox="0 0 1320 500">
  <path style="fill:#FDCB6E;" d="M471.4,253.6l-32.8-76.4c-30.8-71.5-114.5-104.9-186-74.2l-82.1,35.3 C120.1,103.9,58.3,68.9,33.1,83.4C-12.5,109.7,123.5,403,123.5,403c30.7,71.6,114.4,104.9,186,74.2l87.7-37.7 C468.7,408.8,502.1,325.1,471.4,253.6z M318.7,296.5c-6,36-38.1,42.1-61.6,41.6c-14-0.3-25.2-11.8-25.2-25.8v-29 c0-13.5,10.3-24.5,23.7-25.8C283.5,255,325.2,257.5,318.7,296.5z"/>
  <path style="fill:#B53471;" d="M308.1,111.3h-89.4C186,59.9,143.1,3.3,114.2,6.7C61.9,12.9,71.1,336,71.1,336 c0,77.9,63.7,141.6,141.6,141.6h95.4c77.9,0,141.6-63.7,141.6-141.6v-83.1C449.7,175.1,386,111.3,308.1,111.3z M318.7,296.5 c-6,36-38.1,42.1-61.6,41.6c-14-0.3-25.2-11.8-25.2-25.8v-29c0-13.5,10.3-24.5,23.7-25.8C283.5,255,325.2,257.5,318.7,296.5z"/>
  <path d="M585.7,343.9V204.5h44.2c13.5,0,24.1,2.9,32,8.8c7.9,5.9,11.8,13.6,11.8,23c0,7.9-2.2,14.8-6.7,20.6 c-4.5,5.8-10.7,10-18.6,12.4v0.4c9.6,1.1,17.2,4.6,23,10.6c5.7,6,8.6,13.8,8.6,23.4c0,11.9-4.7,21.6-14.1,29 c-9.4,7.4-21.3,11.1-35.6,11.1H585.7z M608.7,223.1v39.6h15c8,0,14.3-1.9,18.9-5.7c4.6-3.8,6.9-9.1,6.9-16.1 c0-11.9-8-17.9-23.9-17.9H608.7z M608.7,281.3v44.1h19.7c8.6,0,15.3-2,20-6c4.7-4,7-9.5,7-16.5c0-14.4-10-21.7-30-21.7H608.7z"/>
  <path d="M772.8,343.9h-21.9v-15.5h-0.4c-6.9,11.9-16.9,17.9-30.2,17.9c-9.8,0-17.4-2.7-23-8c-5.5-5.3-8.3-12.3-8.3-21.1 c0-18.8,10.8-29.7,32.5-32.8l29.5-4.2c0-14.2-6.7-21.3-20.2-21.3c-11.9,0-22.5,4.1-32.1,12.2v-19.7c10.5-6.2,22.6-9.3,36.3-9.3 c25.1,0,37.7,12.4,37.7,37.1V343.9z M751,295l-20.9,2.9c-6.5,0.8-11.4,2.4-14.6,4.7c-3.3,2.3-4.9,6.3-4.9,12.1 c0,4.2,1.5,7.7,4.5,10.3c3,2.7,7,4,12.1,4c6.9,0,12.6-2.4,17.1-7.2c4.5-4.8,6.8-10.9,6.8-18.2V295z"/>
  <path d="M881.9,343.9h-22.5v-56.1c0-18.6-6.6-27.9-19.7-27.9c-6.9,0-12.5,2.6-17,7.7c-4.5,5.2-6.7,11.6-6.7,19.5v56.8h-22.6v-99.5 h22.6v16.5h0.4c7.4-12.6,18.2-18.9,32.3-18.9c10.8,0,19.1,3.5,24.8,10.5c5.7,7,8.6,17.2,8.6,30.5V343.9z"/>
  <path d="M992.7,343.9h-28.6l-38.7-47.8h-0.4v47.8h-22.6V196.5h22.6v93.4h0.4l36.5-45.6h27.1l-41.1,48L992.7,343.9z"/>
  <path d="M1022.6,343.9h-22.6V196.5h22.6V343.9z"/>
  <path d="M1056.3,223.5c-3.7,0-6.9-1.2-9.5-3.6c-2.6-2.4-3.9-5.4-3.9-9.1s1.3-6.8,3.9-9.2c2.6-2.5,5.8-3.7,9.5-3.7 c3.8,0,7.1,1.2,9.7,3.7c2.7,2.5,4,5.5,4,9.2c0,3.5-1.3,6.5-4,9C1063.4,222.2,1060.2,223.5,1056.3,223.5z M1067.5,343.9H1045v-99.5 h22.5V343.9z"/>
  <path d="M1146.3,214.9c-3-1.7-6.5-2.6-10.4-2.6c-10.9,0-16.4,6.2-16.4,18.6v13.5h23.1V262h-23v81.8H1097V262h-17v-17.7h17v-16.1 c0-10.5,3.4-18.8,10.3-24.8c6.9-6.1,15.5-9.1,25.8-9.1c5.6,0,10,0.6,13.2,1.8V214.9z"/>
  <path d="M1241.4,244.4l-44.9,115.4c-9.3,20.6-22.4,30.9-39.3,30.9c-4.7,0-8.7-0.4-11.9-1.3v-18.8c3.6,1.2,6.8,1.7,9.7,1.7 c8.4,0,14.7-4.1,18.9-12.4l6.7-16.3l-39.6-99.3h25l23.7,72.3c0.3,0.9,0.8,3.3,1.7,7.2h0.5c0.3-1.5,0.9-3.8,1.7-7l24.9-72.5H1241.4z" />
</svg>
